%TF.GenerationSoftware,KiCad,Pcbnew,(7.0.0)*%
%TF.CreationDate,2023-04-14T14:14:30+01:00*%
%TF.ProjectId,CANRepIso,43414e52-6570-4497-936f-2e6b69636164,rev?*%
%TF.SameCoordinates,Original*%
%TF.FileFunction,Drillmap*%
%TF.FilePolarity,Positive*%
%FSLAX45Y45*%
G04 Gerber Fmt 4.5, Leading zero omitted, Abs format (unit mm)*
G04 Created by KiCad (PCBNEW (7.0.0)) date 2023-04-14 14:14:30*
%MOMM*%
%LPD*%
G01*
G04 APERTURE LIST*
%ADD10C,0.100000*%
%ADD11C,0.200000*%
%ADD12C,0.030000*%
%ADD13C,0.180000*%
%ADD14C,0.320000*%
G04 APERTURE END LIST*
D10*
X11500000Y-8300000D02*
X16600000Y-8300000D01*
X16600000Y-11000000D02*
G75*
G03*
X16900000Y-10700000I0J300000D01*
G01*
X11500000Y-8300000D02*
G75*
G03*
X11200000Y-8600000I0J-300000D01*
G01*
X11500000Y-11000000D02*
X16600000Y-11000000D01*
X16900000Y-10700000D02*
X16900000Y-8600000D01*
X11200000Y-10700000D02*
G75*
G03*
X11500000Y-11000000I300000J0D01*
G01*
X11200000Y-8600000D02*
X11200000Y-10700000D01*
X16900000Y-8600000D02*
G75*
G03*
X16600000Y-8300000I-300000J0D01*
G01*
D11*
D12*
X11233646Y-8832743D02*
X11263646Y-8862743D01*
X11263646Y-8832743D02*
X11233646Y-8862743D01*
X11233646Y-9082743D02*
X11263646Y-9112743D01*
X11263646Y-9082743D02*
X11233646Y-9112743D01*
X11233646Y-9332743D02*
X11263646Y-9362743D01*
X11263646Y-9332743D02*
X11233646Y-9362743D01*
X11233646Y-9582743D02*
X11263646Y-9612743D01*
X11263646Y-9582743D02*
X11233646Y-9612743D01*
X11233646Y-9832743D02*
X11263646Y-9862743D01*
X11263646Y-9832743D02*
X11233646Y-9862743D01*
X11233646Y-10082743D02*
X11263646Y-10112743D01*
X11263646Y-10082743D02*
X11233646Y-10112743D01*
X11233646Y-10332743D02*
X11263646Y-10362743D01*
X11263646Y-10332743D02*
X11233646Y-10362743D01*
X11734398Y-8333243D02*
X11764398Y-8363243D01*
X11764398Y-8333243D02*
X11734398Y-8363243D01*
X11735267Y-10937140D02*
X11765267Y-10967140D01*
X11765267Y-10937140D02*
X11735267Y-10967140D01*
X11890300Y-8740100D02*
X11920300Y-8770100D01*
X11920300Y-8740100D02*
X11890300Y-8770100D01*
X11935680Y-10630320D02*
X11965680Y-10660320D01*
X11965680Y-10630320D02*
X11935680Y-10660320D01*
X11945000Y-10485000D02*
X11975000Y-10515000D01*
X11975000Y-10485000D02*
X11945000Y-10515000D01*
X11984398Y-8333243D02*
X12014398Y-8363243D01*
X12014398Y-8333243D02*
X11984398Y-8363243D01*
X11985267Y-10937140D02*
X12015267Y-10967140D01*
X12015267Y-10937140D02*
X11985267Y-10967140D01*
X12015000Y-10385000D02*
X12045000Y-10415000D01*
X12045000Y-10385000D02*
X12015000Y-10415000D01*
X12234398Y-8333243D02*
X12264398Y-8363243D01*
X12264398Y-8333243D02*
X12234398Y-8363243D01*
X12235267Y-10937140D02*
X12265267Y-10967140D01*
X12265267Y-10937140D02*
X12235267Y-10967140D01*
X12314500Y-10606800D02*
X12344500Y-10636800D01*
X12344500Y-10606800D02*
X12314500Y-10636800D01*
X12375000Y-10422000D02*
X12405000Y-10452000D01*
X12405000Y-10422000D02*
X12375000Y-10452000D01*
X12454000Y-8539000D02*
X12484000Y-8569000D01*
X12484000Y-8539000D02*
X12454000Y-8569000D01*
X12455000Y-8775000D02*
X12485000Y-8805000D01*
X12485000Y-8775000D02*
X12455000Y-8805000D01*
X12473400Y-10619500D02*
X12503400Y-10649500D01*
X12503400Y-10619500D02*
X12473400Y-10649500D01*
X12484398Y-8333243D02*
X12514398Y-8363243D01*
X12514398Y-8333243D02*
X12484398Y-8363243D01*
X12485267Y-10937140D02*
X12515267Y-10967140D01*
X12515267Y-10937140D02*
X12485267Y-10967140D01*
X12492000Y-10545000D02*
X12522000Y-10575000D01*
X12522000Y-10545000D02*
X12492000Y-10575000D01*
X12593250Y-10243000D02*
X12623250Y-10273000D01*
X12623250Y-10243000D02*
X12593250Y-10273000D01*
X12675000Y-10415000D02*
X12705000Y-10445000D01*
X12705000Y-10415000D02*
X12675000Y-10445000D01*
X12681000Y-10336000D02*
X12711000Y-10366000D01*
X12711000Y-10336000D02*
X12681000Y-10366000D01*
X12711400Y-9063000D02*
X12741400Y-9093000D01*
X12741400Y-9063000D02*
X12711400Y-9093000D01*
X12726000Y-8614000D02*
X12756000Y-8644000D01*
X12756000Y-8614000D02*
X12726000Y-8644000D01*
X12734398Y-8333243D02*
X12764398Y-8363243D01*
X12764398Y-8333243D02*
X12734398Y-8363243D01*
X12735267Y-10937140D02*
X12765267Y-10967140D01*
X12765267Y-10937140D02*
X12735267Y-10967140D01*
X12736000Y-10280000D02*
X12766000Y-10310000D01*
X12766000Y-10280000D02*
X12736000Y-10310000D01*
X12736000Y-10677500D02*
X12766000Y-10707500D01*
X12766000Y-10677500D02*
X12736000Y-10707500D01*
X12831000Y-10277000D02*
X12861000Y-10307000D01*
X12861000Y-10277000D02*
X12831000Y-10307000D01*
X12837000Y-9592000D02*
X12867000Y-9622000D01*
X12867000Y-9592000D02*
X12837000Y-9622000D01*
X12878000Y-8875000D02*
X12908000Y-8905000D01*
X12908000Y-8875000D02*
X12878000Y-8905000D01*
X12889000Y-9990000D02*
X12919000Y-10020000D01*
X12919000Y-9990000D02*
X12889000Y-10020000D01*
X12890000Y-10334000D02*
X12920000Y-10364000D01*
X12920000Y-10334000D02*
X12890000Y-10364000D01*
X12891500Y-9894000D02*
X12921500Y-9924000D01*
X12921500Y-9894000D02*
X12891500Y-9924000D01*
X12906000Y-10675000D02*
X12936000Y-10705000D01*
X12936000Y-10675000D02*
X12906000Y-10705000D01*
X12925000Y-10855000D02*
X12955000Y-10885000D01*
X12955000Y-10855000D02*
X12925000Y-10885000D01*
X12975000Y-9625000D02*
X13005000Y-9655000D01*
X13005000Y-9625000D02*
X12975000Y-9655000D01*
X12983000Y-8649000D02*
X13013000Y-8679000D01*
X13013000Y-8649000D02*
X12983000Y-8679000D01*
X12983000Y-9069500D02*
X13013000Y-9099500D01*
X13013000Y-9069500D02*
X12983000Y-9099500D01*
X12984398Y-8333243D02*
X13014398Y-8363243D01*
X13014398Y-8333243D02*
X12984398Y-8363243D01*
X12985267Y-10937140D02*
X13015267Y-10967140D01*
X13015267Y-10937140D02*
X12985267Y-10967140D01*
X13052500Y-10046000D02*
X13082500Y-10076000D01*
X13082500Y-10046000D02*
X13052500Y-10076000D01*
X13072000Y-10822000D02*
X13102000Y-10852000D01*
X13102000Y-10822000D02*
X13072000Y-10852000D01*
X13092000Y-8873000D02*
X13122000Y-8903000D01*
X13122000Y-8873000D02*
X13092000Y-8903000D01*
X13115500Y-9989000D02*
X13145500Y-10019000D01*
X13145500Y-9989000D02*
X13115500Y-10019000D01*
X13143400Y-9891200D02*
X13173400Y-9921200D01*
X13173400Y-9891200D02*
X13143400Y-9921200D01*
X13223600Y-10807800D02*
X13253600Y-10837800D01*
X13253600Y-10807800D02*
X13223600Y-10837800D01*
X13234398Y-8333243D02*
X13264398Y-8363243D01*
X13264398Y-8333243D02*
X13234398Y-8363243D01*
X13235267Y-10937140D02*
X13265267Y-10967140D01*
X13265267Y-10937140D02*
X13235267Y-10967140D01*
X13242000Y-9075500D02*
X13272000Y-9105500D01*
X13272000Y-9075500D02*
X13242000Y-9105500D01*
X13275000Y-8445000D02*
X13305000Y-8475000D01*
X13305000Y-8445000D02*
X13275000Y-8475000D01*
X13286700Y-9710700D02*
X13316700Y-9740700D01*
X13316700Y-9710700D02*
X13286700Y-9740700D01*
X13370000Y-10471000D02*
X13400000Y-10501000D01*
X13400000Y-10471000D02*
X13370000Y-10501000D01*
X13459000Y-9536000D02*
X13489000Y-9566000D01*
X13489000Y-9536000D02*
X13459000Y-9566000D01*
X13465000Y-10606000D02*
X13495000Y-10636000D01*
X13495000Y-10606000D02*
X13465000Y-10636000D01*
X13484398Y-8333243D02*
X13514398Y-8363243D01*
X13514398Y-8333243D02*
X13484398Y-8363243D01*
X13485267Y-10937140D02*
X13515267Y-10967140D01*
X13515267Y-10937140D02*
X13485267Y-10967140D01*
X13496000Y-8440000D02*
X13526000Y-8470000D01*
X13526000Y-8440000D02*
X13496000Y-8470000D01*
X13508000Y-9900000D02*
X13538000Y-9930000D01*
X13538000Y-9900000D02*
X13508000Y-9930000D01*
X13510000Y-9284000D02*
X13540000Y-9314000D01*
X13540000Y-9284000D02*
X13510000Y-9314000D01*
X13529000Y-9541000D02*
X13559000Y-9571000D01*
X13559000Y-9541000D02*
X13529000Y-9571000D01*
X13596000Y-9553000D02*
X13626000Y-9583000D01*
X13626000Y-9553000D02*
X13596000Y-9583000D01*
X13606000Y-9895000D02*
X13636000Y-9925000D01*
X13636000Y-9895000D02*
X13606000Y-9925000D01*
X13694000Y-9413000D02*
X13724000Y-9443000D01*
X13724000Y-9413000D02*
X13694000Y-9443000D01*
X13707000Y-9067000D02*
X13737000Y-9097000D01*
X13737000Y-9067000D02*
X13707000Y-9097000D01*
X13728300Y-10346600D02*
X13758300Y-10376600D01*
X13758300Y-10346600D02*
X13728300Y-10376600D01*
X13734398Y-8333243D02*
X13764398Y-8363243D01*
X13764398Y-8333243D02*
X13734398Y-8363243D01*
X13735000Y-8595000D02*
X13765000Y-8625000D01*
X13765000Y-8595000D02*
X13735000Y-8625000D01*
X13735267Y-10937140D02*
X13765267Y-10967140D01*
X13765267Y-10937140D02*
X13735267Y-10967140D01*
X13870000Y-10564000D02*
X13900000Y-10594000D01*
X13900000Y-10564000D02*
X13870000Y-10594000D01*
X13984398Y-8333243D02*
X14014398Y-8363243D01*
X14014398Y-8333243D02*
X13984398Y-8363243D01*
X13985267Y-10937140D02*
X14015267Y-10967140D01*
X14015267Y-10937140D02*
X13985267Y-10967140D01*
X14053000Y-9120000D02*
X14083000Y-9150000D01*
X14083000Y-9120000D02*
X14053000Y-9150000D01*
X14122000Y-9521000D02*
X14152000Y-9551000D01*
X14152000Y-9521000D02*
X14122000Y-9551000D01*
X14179000Y-9462000D02*
X14209000Y-9492000D01*
X14209000Y-9462000D02*
X14179000Y-9492000D01*
X14182200Y-9670300D02*
X14212200Y-9700300D01*
X14212200Y-9670300D02*
X14182200Y-9700300D01*
X14234398Y-8333243D02*
X14264398Y-8363243D01*
X14264398Y-8333243D02*
X14234398Y-8363243D01*
X14235267Y-10937140D02*
X14265267Y-10967140D01*
X14265267Y-10937140D02*
X14235267Y-10967140D01*
X14416945Y-9009374D02*
X14446945Y-9039374D01*
X14446945Y-9009374D02*
X14416945Y-9039374D01*
X14418787Y-8333386D02*
X14448787Y-8363386D01*
X14448787Y-8333386D02*
X14418787Y-8363386D01*
X14418787Y-8583386D02*
X14448787Y-8613386D01*
X14448787Y-8583386D02*
X14418787Y-8613386D01*
X14418787Y-10083386D02*
X14448787Y-10113386D01*
X14448787Y-10083386D02*
X14418787Y-10113386D01*
X14418787Y-10333386D02*
X14448787Y-10363386D01*
X14448787Y-10333386D02*
X14418787Y-10363386D01*
X14418787Y-10583386D02*
X14448787Y-10613386D01*
X14448787Y-10583386D02*
X14418787Y-10613386D01*
X14418787Y-10833386D02*
X14448787Y-10863386D01*
X14448787Y-10833386D02*
X14418787Y-10863386D01*
X14419599Y-8833467D02*
X14449599Y-8863467D01*
X14449599Y-8833467D02*
X14419599Y-8863467D01*
X14767446Y-8440292D02*
X14797446Y-8470292D01*
X14797446Y-8440292D02*
X14767446Y-8470292D01*
X14767446Y-8690292D02*
X14797446Y-8720292D01*
X14797446Y-8690292D02*
X14767446Y-8720292D01*
X14767446Y-8940292D02*
X14797446Y-8970292D01*
X14797446Y-8940292D02*
X14767446Y-8970292D01*
X14767446Y-10190292D02*
X14797446Y-10220292D01*
X14797446Y-10190292D02*
X14767446Y-10220292D01*
X14767446Y-10440292D02*
X14797446Y-10470292D01*
X14797446Y-10440292D02*
X14767446Y-10470292D01*
X14767446Y-10690292D02*
X14797446Y-10720292D01*
X14797446Y-10690292D02*
X14767446Y-10720292D01*
X14767748Y-10049644D02*
X14797748Y-10079644D01*
X14797748Y-10049644D02*
X14767748Y-10079644D01*
X14825000Y-9005000D02*
X14855000Y-9035000D01*
X14855000Y-9005000D02*
X14825000Y-9035000D01*
X14834954Y-10936658D02*
X14864954Y-10966658D01*
X14864954Y-10936658D02*
X14834954Y-10966658D01*
X14835301Y-8333194D02*
X14865301Y-8363194D01*
X14865301Y-8333194D02*
X14835301Y-8363194D01*
X14929000Y-10452000D02*
X14959000Y-10482000D01*
X14959000Y-10452000D02*
X14929000Y-10482000D01*
X14975000Y-9795000D02*
X15005000Y-9825000D01*
X15005000Y-9795000D02*
X14975000Y-9825000D01*
X15008100Y-9677300D02*
X15038100Y-9707300D01*
X15038100Y-9677300D02*
X15008100Y-9707300D01*
X15012000Y-9465000D02*
X15042000Y-9495000D01*
X15042000Y-9465000D02*
X15012000Y-9495000D01*
X15074000Y-9526000D02*
X15104000Y-9556000D01*
X15104000Y-9526000D02*
X15074000Y-9556000D01*
X15084954Y-10936658D02*
X15114954Y-10966658D01*
X15114954Y-10936658D02*
X15084954Y-10966658D01*
X15085301Y-8333194D02*
X15115301Y-8363194D01*
X15115301Y-8333194D02*
X15085301Y-8363194D01*
X15125000Y-9755000D02*
X15155000Y-9785000D01*
X15155000Y-9755000D02*
X15125000Y-9785000D01*
X15139000Y-9614000D02*
X15169000Y-9644000D01*
X15169000Y-9614000D02*
X15139000Y-9644000D01*
X15152000Y-10599000D02*
X15182000Y-10629000D01*
X15182000Y-10599000D02*
X15152000Y-10629000D01*
X15186500Y-9035000D02*
X15216500Y-9065000D01*
X15216500Y-9035000D02*
X15186500Y-9065000D01*
X15196000Y-9552000D02*
X15226000Y-9582000D01*
X15226000Y-9552000D02*
X15196000Y-9582000D01*
X15255000Y-9975000D02*
X15285000Y-10005000D01*
X15285000Y-9975000D02*
X15255000Y-10005000D01*
X15285000Y-9545000D02*
X15315000Y-9575000D01*
X15315000Y-9545000D02*
X15285000Y-9575000D01*
X15295000Y-9365000D02*
X15325000Y-9395000D01*
X15325000Y-9365000D02*
X15295000Y-9395000D01*
X15334954Y-10936658D02*
X15364954Y-10966658D01*
X15364954Y-10936658D02*
X15334954Y-10966658D01*
X15335301Y-8333194D02*
X15365301Y-8363194D01*
X15365301Y-8333194D02*
X15335301Y-8363194D01*
X15345000Y-9655000D02*
X15375000Y-9685000D01*
X15375000Y-9655000D02*
X15345000Y-9685000D01*
X15418700Y-10149900D02*
X15448700Y-10179900D01*
X15448700Y-10149900D02*
X15418700Y-10179900D01*
X15494000Y-10689000D02*
X15524000Y-10719000D01*
X15524000Y-10689000D02*
X15494000Y-10719000D01*
X15584954Y-10936658D02*
X15614954Y-10966658D01*
X15614954Y-10936658D02*
X15584954Y-10966658D01*
X15585301Y-8333194D02*
X15615301Y-8363194D01*
X15615301Y-8333194D02*
X15585301Y-8363194D01*
X15632200Y-8717700D02*
X15662200Y-8747700D01*
X15662200Y-8717700D02*
X15632200Y-8747700D01*
X15720400Y-10801300D02*
X15750400Y-10831300D01*
X15750400Y-10801300D02*
X15720400Y-10831300D01*
X15720900Y-10590800D02*
X15750900Y-10620800D01*
X15750900Y-10590800D02*
X15720900Y-10620800D01*
X15723100Y-8485000D02*
X15753100Y-8515000D01*
X15753100Y-8485000D02*
X15723100Y-8515000D01*
X15834954Y-10936658D02*
X15864954Y-10966658D01*
X15864954Y-10936658D02*
X15834954Y-10966658D01*
X15835301Y-8333194D02*
X15865301Y-8363194D01*
X15865301Y-8333194D02*
X15835301Y-8363194D01*
X15993100Y-8625000D02*
X16023100Y-8655000D01*
X16023100Y-8625000D02*
X15993100Y-8655000D01*
X16017000Y-10685900D02*
X16047000Y-10715900D01*
X16047000Y-10685900D02*
X16017000Y-10715900D01*
X16081200Y-10502700D02*
X16111200Y-10532700D01*
X16111200Y-10502700D02*
X16081200Y-10532700D01*
X16084954Y-10936658D02*
X16114954Y-10966658D01*
X16114954Y-10936658D02*
X16084954Y-10966658D01*
X16085301Y-8333194D02*
X16115301Y-8363194D01*
X16115301Y-8333194D02*
X16085301Y-8363194D01*
X16225000Y-8845000D02*
X16255000Y-8875000D01*
X16255000Y-8845000D02*
X16225000Y-8875000D01*
X16334954Y-10936658D02*
X16364954Y-10966658D01*
X16364954Y-10936658D02*
X16334954Y-10966658D01*
X16335301Y-8333194D02*
X16365301Y-8363194D01*
X16365301Y-8333194D02*
X16335301Y-8363194D01*
X16836456Y-8934549D02*
X16866456Y-8964549D01*
X16866456Y-8934549D02*
X16836456Y-8964549D01*
X16836456Y-9184549D02*
X16866456Y-9214549D01*
X16866456Y-9184549D02*
X16836456Y-9214549D01*
X16836456Y-9434549D02*
X16866456Y-9464549D01*
X16866456Y-9434549D02*
X16836456Y-9464549D01*
X16836456Y-9684549D02*
X16866456Y-9714549D01*
X16866456Y-9684549D02*
X16836456Y-9714549D01*
X16836456Y-9934549D02*
X16866456Y-9964549D01*
X16866456Y-9934549D02*
X16836456Y-9964549D01*
X16836456Y-10184549D02*
X16866456Y-10214549D01*
X16866456Y-10184549D02*
X16836456Y-10214549D01*
X16836456Y-10434549D02*
X16866456Y-10464549D01*
X16866456Y-10434549D02*
X16836456Y-10464549D01*
D10*
X14363000Y-8819400D02*
G75*
G03*
X14363000Y-8819400I-50000J0D01*
G01*
X14366000Y-8470000D02*
G75*
G03*
X14366000Y-8470000I-50000J0D01*
G01*
X14374400Y-10825500D02*
G75*
G03*
X14374400Y-10825500I-50000J0D01*
G01*
X14947900Y-10822800D02*
G75*
G03*
X14947900Y-10822800I-50000J0D01*
G01*
X14954000Y-8471000D02*
G75*
G03*
X14954000Y-8471000I-50000J0D01*
G01*
X14954100Y-8819200D02*
G75*
G03*
X14954100Y-8819200I-50000J0D01*
G01*
D13*
X11730000Y-9140000D02*
X11730000Y-9320000D01*
X11640000Y-9230000D02*
X11820000Y-9230000D01*
X11730000Y-9560000D02*
X11730000Y-9740000D01*
X11640000Y-9650000D02*
X11820000Y-9650000D01*
X11730000Y-9980000D02*
X11730000Y-10160000D01*
X11640000Y-10070000D02*
X11820000Y-10070000D01*
X12280000Y-9140000D02*
X12280000Y-9320000D01*
X12190000Y-9230000D02*
X12370000Y-9230000D01*
X12280000Y-9560000D02*
X12280000Y-9740000D01*
X12190000Y-9650000D02*
X12370000Y-9650000D01*
X12280000Y-9980000D02*
X12280000Y-10160000D01*
X12190000Y-10070000D02*
X12370000Y-10070000D01*
X15820000Y-9140000D02*
X15820000Y-9320000D01*
X15730000Y-9230000D02*
X15910000Y-9230000D01*
X15820000Y-9560000D02*
X15820000Y-9740000D01*
X15730000Y-9650000D02*
X15910000Y-9650000D01*
X15820000Y-9980000D02*
X15820000Y-10160000D01*
X15730000Y-10070000D02*
X15910000Y-10070000D01*
X16370000Y-9140000D02*
X16370000Y-9320000D01*
X16280000Y-9230000D02*
X16460000Y-9230000D01*
X16370000Y-9560000D02*
X16370000Y-9740000D01*
X16280000Y-9650000D02*
X16460000Y-9650000D01*
X16370000Y-9980000D02*
X16370000Y-10160000D01*
X16280000Y-10070000D02*
X16460000Y-10070000D01*
D14*
X11613138Y-8713138D02*
X11613138Y-8486862D01*
X11386862Y-8486862D01*
X11386862Y-8713138D01*
X11613138Y-8713138D01*
X11613138Y-10813138D02*
X11613138Y-10586862D01*
X11386862Y-10586862D01*
X11386862Y-10813138D01*
X11613138Y-10813138D01*
X16713138Y-8713138D02*
X16713138Y-8486862D01*
X16486862Y-8486862D01*
X16486862Y-8713138D01*
X16713138Y-8713138D01*
X16713138Y-10813138D02*
X16713138Y-10586862D01*
X16486862Y-10586862D01*
X16486862Y-10813138D01*
X16713138Y-10813138D01*
D11*
X11442619Y-11298476D02*
X11442619Y-11098476D01*
X11442619Y-11098476D02*
X11490238Y-11098476D01*
X11490238Y-11098476D02*
X11518809Y-11108000D01*
X11518809Y-11108000D02*
X11537857Y-11127048D01*
X11537857Y-11127048D02*
X11547381Y-11146095D01*
X11547381Y-11146095D02*
X11556905Y-11184190D01*
X11556905Y-11184190D02*
X11556905Y-11212762D01*
X11556905Y-11212762D02*
X11547381Y-11250857D01*
X11547381Y-11250857D02*
X11537857Y-11269905D01*
X11537857Y-11269905D02*
X11518809Y-11288952D01*
X11518809Y-11288952D02*
X11490238Y-11298476D01*
X11490238Y-11298476D02*
X11442619Y-11298476D01*
X11642619Y-11298476D02*
X11642619Y-11165143D01*
X11642619Y-11203238D02*
X11652143Y-11184190D01*
X11652143Y-11184190D02*
X11661667Y-11174667D01*
X11661667Y-11174667D02*
X11680714Y-11165143D01*
X11680714Y-11165143D02*
X11699762Y-11165143D01*
X11766428Y-11298476D02*
X11766428Y-11165143D01*
X11766428Y-11098476D02*
X11756905Y-11108000D01*
X11756905Y-11108000D02*
X11766428Y-11117524D01*
X11766428Y-11117524D02*
X11775952Y-11108000D01*
X11775952Y-11108000D02*
X11766428Y-11098476D01*
X11766428Y-11098476D02*
X11766428Y-11117524D01*
X11890238Y-11298476D02*
X11871190Y-11288952D01*
X11871190Y-11288952D02*
X11861667Y-11269905D01*
X11861667Y-11269905D02*
X11861667Y-11098476D01*
X11995000Y-11298476D02*
X11975952Y-11288952D01*
X11975952Y-11288952D02*
X11966428Y-11269905D01*
X11966428Y-11269905D02*
X11966428Y-11098476D01*
X12191190Y-11298476D02*
X12191190Y-11098476D01*
X12191190Y-11098476D02*
X12257857Y-11241333D01*
X12257857Y-11241333D02*
X12324524Y-11098476D01*
X12324524Y-11098476D02*
X12324524Y-11298476D01*
X12505476Y-11298476D02*
X12505476Y-11193714D01*
X12505476Y-11193714D02*
X12495952Y-11174667D01*
X12495952Y-11174667D02*
X12476905Y-11165143D01*
X12476905Y-11165143D02*
X12438809Y-11165143D01*
X12438809Y-11165143D02*
X12419762Y-11174667D01*
X12505476Y-11288952D02*
X12486428Y-11298476D01*
X12486428Y-11298476D02*
X12438809Y-11298476D01*
X12438809Y-11298476D02*
X12419762Y-11288952D01*
X12419762Y-11288952D02*
X12410238Y-11269905D01*
X12410238Y-11269905D02*
X12410238Y-11250857D01*
X12410238Y-11250857D02*
X12419762Y-11231809D01*
X12419762Y-11231809D02*
X12438809Y-11222286D01*
X12438809Y-11222286D02*
X12486428Y-11222286D01*
X12486428Y-11222286D02*
X12505476Y-11212762D01*
X12600714Y-11165143D02*
X12600714Y-11365143D01*
X12600714Y-11174667D02*
X12619762Y-11165143D01*
X12619762Y-11165143D02*
X12657857Y-11165143D01*
X12657857Y-11165143D02*
X12676905Y-11174667D01*
X12676905Y-11174667D02*
X12686428Y-11184190D01*
X12686428Y-11184190D02*
X12695952Y-11203238D01*
X12695952Y-11203238D02*
X12695952Y-11260381D01*
X12695952Y-11260381D02*
X12686428Y-11279428D01*
X12686428Y-11279428D02*
X12676905Y-11288952D01*
X12676905Y-11288952D02*
X12657857Y-11298476D01*
X12657857Y-11298476D02*
X12619762Y-11298476D01*
X12619762Y-11298476D02*
X12600714Y-11288952D01*
X12781667Y-11279428D02*
X12791190Y-11288952D01*
X12791190Y-11288952D02*
X12781667Y-11298476D01*
X12781667Y-11298476D02*
X12772143Y-11288952D01*
X12772143Y-11288952D02*
X12781667Y-11279428D01*
X12781667Y-11279428D02*
X12781667Y-11298476D01*
X12781667Y-11174667D02*
X12791190Y-11184190D01*
X12791190Y-11184190D02*
X12781667Y-11193714D01*
X12781667Y-11193714D02*
X12772143Y-11184190D01*
X12772143Y-11184190D02*
X12781667Y-11174667D01*
X12781667Y-11174667D02*
X12781667Y-11193714D01*
D12*
X11165000Y-11630000D02*
X11195000Y-11660000D01*
X11195000Y-11630000D02*
X11165000Y-11660000D01*
D11*
X11480714Y-11518476D02*
X11499762Y-11518476D01*
X11499762Y-11518476D02*
X11518809Y-11528000D01*
X11518809Y-11528000D02*
X11528333Y-11537524D01*
X11528333Y-11537524D02*
X11537857Y-11556571D01*
X11537857Y-11556571D02*
X11547381Y-11594667D01*
X11547381Y-11594667D02*
X11547381Y-11642286D01*
X11547381Y-11642286D02*
X11537857Y-11680381D01*
X11537857Y-11680381D02*
X11528333Y-11699428D01*
X11528333Y-11699428D02*
X11518809Y-11708952D01*
X11518809Y-11708952D02*
X11499762Y-11718476D01*
X11499762Y-11718476D02*
X11480714Y-11718476D01*
X11480714Y-11718476D02*
X11461667Y-11708952D01*
X11461667Y-11708952D02*
X11452143Y-11699428D01*
X11452143Y-11699428D02*
X11442619Y-11680381D01*
X11442619Y-11680381D02*
X11433095Y-11642286D01*
X11433095Y-11642286D02*
X11433095Y-11594667D01*
X11433095Y-11594667D02*
X11442619Y-11556571D01*
X11442619Y-11556571D02*
X11452143Y-11537524D01*
X11452143Y-11537524D02*
X11461667Y-11528000D01*
X11461667Y-11528000D02*
X11480714Y-11518476D01*
X11633095Y-11699428D02*
X11642619Y-11708952D01*
X11642619Y-11708952D02*
X11633095Y-11718476D01*
X11633095Y-11718476D02*
X11623571Y-11708952D01*
X11623571Y-11708952D02*
X11633095Y-11699428D01*
X11633095Y-11699428D02*
X11633095Y-11718476D01*
X11709286Y-11518476D02*
X11833095Y-11518476D01*
X11833095Y-11518476D02*
X11766428Y-11594667D01*
X11766428Y-11594667D02*
X11795000Y-11594667D01*
X11795000Y-11594667D02*
X11814048Y-11604190D01*
X11814048Y-11604190D02*
X11823571Y-11613714D01*
X11823571Y-11613714D02*
X11833095Y-11632762D01*
X11833095Y-11632762D02*
X11833095Y-11680381D01*
X11833095Y-11680381D02*
X11823571Y-11699428D01*
X11823571Y-11699428D02*
X11814048Y-11708952D01*
X11814048Y-11708952D02*
X11795000Y-11718476D01*
X11795000Y-11718476D02*
X11737857Y-11718476D01*
X11737857Y-11718476D02*
X11718809Y-11708952D01*
X11718809Y-11708952D02*
X11709286Y-11699428D01*
X11956905Y-11518476D02*
X11975952Y-11518476D01*
X11975952Y-11518476D02*
X11995000Y-11528000D01*
X11995000Y-11528000D02*
X12004524Y-11537524D01*
X12004524Y-11537524D02*
X12014048Y-11556571D01*
X12014048Y-11556571D02*
X12023571Y-11594667D01*
X12023571Y-11594667D02*
X12023571Y-11642286D01*
X12023571Y-11642286D02*
X12014048Y-11680381D01*
X12014048Y-11680381D02*
X12004524Y-11699428D01*
X12004524Y-11699428D02*
X11995000Y-11708952D01*
X11995000Y-11708952D02*
X11975952Y-11718476D01*
X11975952Y-11718476D02*
X11956905Y-11718476D01*
X11956905Y-11718476D02*
X11937857Y-11708952D01*
X11937857Y-11708952D02*
X11928333Y-11699428D01*
X11928333Y-11699428D02*
X11918809Y-11680381D01*
X11918809Y-11680381D02*
X11909286Y-11642286D01*
X11909286Y-11642286D02*
X11909286Y-11594667D01*
X11909286Y-11594667D02*
X11918809Y-11556571D01*
X11918809Y-11556571D02*
X11928333Y-11537524D01*
X11928333Y-11537524D02*
X11937857Y-11528000D01*
X11937857Y-11528000D02*
X11956905Y-11518476D01*
X12147381Y-11518476D02*
X12166429Y-11518476D01*
X12166429Y-11518476D02*
X12185476Y-11528000D01*
X12185476Y-11528000D02*
X12195000Y-11537524D01*
X12195000Y-11537524D02*
X12204524Y-11556571D01*
X12204524Y-11556571D02*
X12214048Y-11594667D01*
X12214048Y-11594667D02*
X12214048Y-11642286D01*
X12214048Y-11642286D02*
X12204524Y-11680381D01*
X12204524Y-11680381D02*
X12195000Y-11699428D01*
X12195000Y-11699428D02*
X12185476Y-11708952D01*
X12185476Y-11708952D02*
X12166429Y-11718476D01*
X12166429Y-11718476D02*
X12147381Y-11718476D01*
X12147381Y-11718476D02*
X12128333Y-11708952D01*
X12128333Y-11708952D02*
X12118809Y-11699428D01*
X12118809Y-11699428D02*
X12109286Y-11680381D01*
X12109286Y-11680381D02*
X12099762Y-11642286D01*
X12099762Y-11642286D02*
X12099762Y-11594667D01*
X12099762Y-11594667D02*
X12109286Y-11556571D01*
X12109286Y-11556571D02*
X12118809Y-11537524D01*
X12118809Y-11537524D02*
X12128333Y-11528000D01*
X12128333Y-11528000D02*
X12147381Y-11518476D01*
X12299762Y-11718476D02*
X12299762Y-11585143D01*
X12299762Y-11604190D02*
X12309286Y-11594667D01*
X12309286Y-11594667D02*
X12328333Y-11585143D01*
X12328333Y-11585143D02*
X12356905Y-11585143D01*
X12356905Y-11585143D02*
X12375952Y-11594667D01*
X12375952Y-11594667D02*
X12385476Y-11613714D01*
X12385476Y-11613714D02*
X12385476Y-11718476D01*
X12385476Y-11613714D02*
X12395000Y-11594667D01*
X12395000Y-11594667D02*
X12414048Y-11585143D01*
X12414048Y-11585143D02*
X12442619Y-11585143D01*
X12442619Y-11585143D02*
X12461667Y-11594667D01*
X12461667Y-11594667D02*
X12471190Y-11613714D01*
X12471190Y-11613714D02*
X12471190Y-11718476D01*
X12566429Y-11718476D02*
X12566429Y-11585143D01*
X12566429Y-11604190D02*
X12575952Y-11594667D01*
X12575952Y-11594667D02*
X12595000Y-11585143D01*
X12595000Y-11585143D02*
X12623571Y-11585143D01*
X12623571Y-11585143D02*
X12642619Y-11594667D01*
X12642619Y-11594667D02*
X12652143Y-11613714D01*
X12652143Y-11613714D02*
X12652143Y-11718476D01*
X12652143Y-11613714D02*
X12661667Y-11594667D01*
X12661667Y-11594667D02*
X12680714Y-11585143D01*
X12680714Y-11585143D02*
X12709286Y-11585143D01*
X12709286Y-11585143D02*
X12728333Y-11594667D01*
X12728333Y-11594667D02*
X12737857Y-11613714D01*
X12737857Y-11613714D02*
X12737857Y-11718476D01*
X13095952Y-11508952D02*
X12924524Y-11766095D01*
X13320714Y-11518476D02*
X13339762Y-11518476D01*
X13339762Y-11518476D02*
X13358810Y-11528000D01*
X13358810Y-11528000D02*
X13368333Y-11537524D01*
X13368333Y-11537524D02*
X13377857Y-11556571D01*
X13377857Y-11556571D02*
X13387381Y-11594667D01*
X13387381Y-11594667D02*
X13387381Y-11642286D01*
X13387381Y-11642286D02*
X13377857Y-11680381D01*
X13377857Y-11680381D02*
X13368333Y-11699428D01*
X13368333Y-11699428D02*
X13358810Y-11708952D01*
X13358810Y-11708952D02*
X13339762Y-11718476D01*
X13339762Y-11718476D02*
X13320714Y-11718476D01*
X13320714Y-11718476D02*
X13301667Y-11708952D01*
X13301667Y-11708952D02*
X13292143Y-11699428D01*
X13292143Y-11699428D02*
X13282619Y-11680381D01*
X13282619Y-11680381D02*
X13273095Y-11642286D01*
X13273095Y-11642286D02*
X13273095Y-11594667D01*
X13273095Y-11594667D02*
X13282619Y-11556571D01*
X13282619Y-11556571D02*
X13292143Y-11537524D01*
X13292143Y-11537524D02*
X13301667Y-11528000D01*
X13301667Y-11528000D02*
X13320714Y-11518476D01*
X13473095Y-11699428D02*
X13482619Y-11708952D01*
X13482619Y-11708952D02*
X13473095Y-11718476D01*
X13473095Y-11718476D02*
X13463571Y-11708952D01*
X13463571Y-11708952D02*
X13473095Y-11699428D01*
X13473095Y-11699428D02*
X13473095Y-11718476D01*
X13606429Y-11518476D02*
X13625476Y-11518476D01*
X13625476Y-11518476D02*
X13644524Y-11528000D01*
X13644524Y-11528000D02*
X13654048Y-11537524D01*
X13654048Y-11537524D02*
X13663571Y-11556571D01*
X13663571Y-11556571D02*
X13673095Y-11594667D01*
X13673095Y-11594667D02*
X13673095Y-11642286D01*
X13673095Y-11642286D02*
X13663571Y-11680381D01*
X13663571Y-11680381D02*
X13654048Y-11699428D01*
X13654048Y-11699428D02*
X13644524Y-11708952D01*
X13644524Y-11708952D02*
X13625476Y-11718476D01*
X13625476Y-11718476D02*
X13606429Y-11718476D01*
X13606429Y-11718476D02*
X13587381Y-11708952D01*
X13587381Y-11708952D02*
X13577857Y-11699428D01*
X13577857Y-11699428D02*
X13568333Y-11680381D01*
X13568333Y-11680381D02*
X13558810Y-11642286D01*
X13558810Y-11642286D02*
X13558810Y-11594667D01*
X13558810Y-11594667D02*
X13568333Y-11556571D01*
X13568333Y-11556571D02*
X13577857Y-11537524D01*
X13577857Y-11537524D02*
X13587381Y-11528000D01*
X13587381Y-11528000D02*
X13606429Y-11518476D01*
X13863571Y-11718476D02*
X13749286Y-11718476D01*
X13806429Y-11718476D02*
X13806429Y-11518476D01*
X13806429Y-11518476D02*
X13787381Y-11547048D01*
X13787381Y-11547048D02*
X13768333Y-11566095D01*
X13768333Y-11566095D02*
X13749286Y-11575619D01*
X14054048Y-11718476D02*
X13939762Y-11718476D01*
X13996905Y-11718476D02*
X13996905Y-11518476D01*
X13996905Y-11518476D02*
X13977857Y-11547048D01*
X13977857Y-11547048D02*
X13958810Y-11566095D01*
X13958810Y-11566095D02*
X13939762Y-11575619D01*
X14168333Y-11604190D02*
X14149286Y-11594667D01*
X14149286Y-11594667D02*
X14139762Y-11585143D01*
X14139762Y-11585143D02*
X14130238Y-11566095D01*
X14130238Y-11566095D02*
X14130238Y-11556571D01*
X14130238Y-11556571D02*
X14139762Y-11537524D01*
X14139762Y-11537524D02*
X14149286Y-11528000D01*
X14149286Y-11528000D02*
X14168333Y-11518476D01*
X14168333Y-11518476D02*
X14206429Y-11518476D01*
X14206429Y-11518476D02*
X14225476Y-11528000D01*
X14225476Y-11528000D02*
X14235000Y-11537524D01*
X14235000Y-11537524D02*
X14244524Y-11556571D01*
X14244524Y-11556571D02*
X14244524Y-11566095D01*
X14244524Y-11566095D02*
X14235000Y-11585143D01*
X14235000Y-11585143D02*
X14225476Y-11594667D01*
X14225476Y-11594667D02*
X14206429Y-11604190D01*
X14206429Y-11604190D02*
X14168333Y-11604190D01*
X14168333Y-11604190D02*
X14149286Y-11613714D01*
X14149286Y-11613714D02*
X14139762Y-11623238D01*
X14139762Y-11623238D02*
X14130238Y-11642286D01*
X14130238Y-11642286D02*
X14130238Y-11680381D01*
X14130238Y-11680381D02*
X14139762Y-11699428D01*
X14139762Y-11699428D02*
X14149286Y-11708952D01*
X14149286Y-11708952D02*
X14168333Y-11718476D01*
X14168333Y-11718476D02*
X14206429Y-11718476D01*
X14206429Y-11718476D02*
X14225476Y-11708952D01*
X14225476Y-11708952D02*
X14235000Y-11699428D01*
X14235000Y-11699428D02*
X14244524Y-11680381D01*
X14244524Y-11680381D02*
X14244524Y-11642286D01*
X14244524Y-11642286D02*
X14235000Y-11623238D01*
X14235000Y-11623238D02*
X14225476Y-11613714D01*
X14225476Y-11613714D02*
X14206429Y-11604190D01*
X14320714Y-11518476D02*
X14320714Y-11556571D01*
X14396905Y-11518476D02*
X14396905Y-11556571D01*
X14659762Y-11794667D02*
X14650238Y-11785143D01*
X14650238Y-11785143D02*
X14631191Y-11756571D01*
X14631191Y-11756571D02*
X14621667Y-11737524D01*
X14621667Y-11737524D02*
X14612143Y-11708952D01*
X14612143Y-11708952D02*
X14602619Y-11661333D01*
X14602619Y-11661333D02*
X14602619Y-11623238D01*
X14602619Y-11623238D02*
X14612143Y-11575619D01*
X14612143Y-11575619D02*
X14621667Y-11547048D01*
X14621667Y-11547048D02*
X14631191Y-11528000D01*
X14631191Y-11528000D02*
X14650238Y-11499428D01*
X14650238Y-11499428D02*
X14659762Y-11489905D01*
X14840714Y-11718476D02*
X14726429Y-11718476D01*
X14783571Y-11718476D02*
X14783571Y-11518476D01*
X14783571Y-11518476D02*
X14764524Y-11547048D01*
X14764524Y-11547048D02*
X14745476Y-11566095D01*
X14745476Y-11566095D02*
X14726429Y-11575619D01*
X15012143Y-11585143D02*
X15012143Y-11718476D01*
X14964524Y-11508952D02*
X14916905Y-11651809D01*
X14916905Y-11651809D02*
X15040714Y-11651809D01*
X15212143Y-11518476D02*
X15116905Y-11518476D01*
X15116905Y-11518476D02*
X15107381Y-11613714D01*
X15107381Y-11613714D02*
X15116905Y-11604190D01*
X15116905Y-11604190D02*
X15135952Y-11594667D01*
X15135952Y-11594667D02*
X15183572Y-11594667D01*
X15183572Y-11594667D02*
X15202619Y-11604190D01*
X15202619Y-11604190D02*
X15212143Y-11613714D01*
X15212143Y-11613714D02*
X15221667Y-11632762D01*
X15221667Y-11632762D02*
X15221667Y-11680381D01*
X15221667Y-11680381D02*
X15212143Y-11699428D01*
X15212143Y-11699428D02*
X15202619Y-11708952D01*
X15202619Y-11708952D02*
X15183572Y-11718476D01*
X15183572Y-11718476D02*
X15135952Y-11718476D01*
X15135952Y-11718476D02*
X15116905Y-11708952D01*
X15116905Y-11708952D02*
X15107381Y-11699428D01*
X15427381Y-11718476D02*
X15427381Y-11518476D01*
X15513095Y-11718476D02*
X15513095Y-11613714D01*
X15513095Y-11613714D02*
X15503572Y-11594667D01*
X15503572Y-11594667D02*
X15484524Y-11585143D01*
X15484524Y-11585143D02*
X15455952Y-11585143D01*
X15455952Y-11585143D02*
X15436905Y-11594667D01*
X15436905Y-11594667D02*
X15427381Y-11604190D01*
X15636905Y-11718476D02*
X15617857Y-11708952D01*
X15617857Y-11708952D02*
X15608333Y-11699428D01*
X15608333Y-11699428D02*
X15598810Y-11680381D01*
X15598810Y-11680381D02*
X15598810Y-11623238D01*
X15598810Y-11623238D02*
X15608333Y-11604190D01*
X15608333Y-11604190D02*
X15617857Y-11594667D01*
X15617857Y-11594667D02*
X15636905Y-11585143D01*
X15636905Y-11585143D02*
X15665476Y-11585143D01*
X15665476Y-11585143D02*
X15684524Y-11594667D01*
X15684524Y-11594667D02*
X15694048Y-11604190D01*
X15694048Y-11604190D02*
X15703572Y-11623238D01*
X15703572Y-11623238D02*
X15703572Y-11680381D01*
X15703572Y-11680381D02*
X15694048Y-11699428D01*
X15694048Y-11699428D02*
X15684524Y-11708952D01*
X15684524Y-11708952D02*
X15665476Y-11718476D01*
X15665476Y-11718476D02*
X15636905Y-11718476D01*
X15817857Y-11718476D02*
X15798810Y-11708952D01*
X15798810Y-11708952D02*
X15789286Y-11689905D01*
X15789286Y-11689905D02*
X15789286Y-11518476D01*
X15970238Y-11708952D02*
X15951191Y-11718476D01*
X15951191Y-11718476D02*
X15913095Y-11718476D01*
X15913095Y-11718476D02*
X15894048Y-11708952D01*
X15894048Y-11708952D02*
X15884524Y-11689905D01*
X15884524Y-11689905D02*
X15884524Y-11613714D01*
X15884524Y-11613714D02*
X15894048Y-11594667D01*
X15894048Y-11594667D02*
X15913095Y-11585143D01*
X15913095Y-11585143D02*
X15951191Y-11585143D01*
X15951191Y-11585143D02*
X15970238Y-11594667D01*
X15970238Y-11594667D02*
X15979762Y-11613714D01*
X15979762Y-11613714D02*
X15979762Y-11632762D01*
X15979762Y-11632762D02*
X15884524Y-11651809D01*
X16055953Y-11708952D02*
X16075000Y-11718476D01*
X16075000Y-11718476D02*
X16113095Y-11718476D01*
X16113095Y-11718476D02*
X16132143Y-11708952D01*
X16132143Y-11708952D02*
X16141667Y-11689905D01*
X16141667Y-11689905D02*
X16141667Y-11680381D01*
X16141667Y-11680381D02*
X16132143Y-11661333D01*
X16132143Y-11661333D02*
X16113095Y-11651809D01*
X16113095Y-11651809D02*
X16084524Y-11651809D01*
X16084524Y-11651809D02*
X16065476Y-11642286D01*
X16065476Y-11642286D02*
X16055953Y-11623238D01*
X16055953Y-11623238D02*
X16055953Y-11613714D01*
X16055953Y-11613714D02*
X16065476Y-11594667D01*
X16065476Y-11594667D02*
X16084524Y-11585143D01*
X16084524Y-11585143D02*
X16113095Y-11585143D01*
X16113095Y-11585143D02*
X16132143Y-11594667D01*
X16208334Y-11794667D02*
X16217857Y-11785143D01*
X16217857Y-11785143D02*
X16236905Y-11756571D01*
X16236905Y-11756571D02*
X16246429Y-11737524D01*
X16246429Y-11737524D02*
X16255953Y-11708952D01*
X16255953Y-11708952D02*
X16265476Y-11661333D01*
X16265476Y-11661333D02*
X16265476Y-11623238D01*
X16265476Y-11623238D02*
X16255953Y-11575619D01*
X16255953Y-11575619D02*
X16246429Y-11547048D01*
X16246429Y-11547048D02*
X16236905Y-11528000D01*
X16236905Y-11528000D02*
X16217857Y-11499428D01*
X16217857Y-11499428D02*
X16208334Y-11489905D01*
D10*
X11195000Y-11909000D02*
G75*
G03*
X11195000Y-11909000I-50000J0D01*
G01*
D11*
X11547381Y-11982476D02*
X11433095Y-11982476D01*
X11490238Y-11982476D02*
X11490238Y-11782476D01*
X11490238Y-11782476D02*
X11471190Y-11811048D01*
X11471190Y-11811048D02*
X11452143Y-11830095D01*
X11452143Y-11830095D02*
X11433095Y-11839619D01*
X11633095Y-11963428D02*
X11642619Y-11972952D01*
X11642619Y-11972952D02*
X11633095Y-11982476D01*
X11633095Y-11982476D02*
X11623571Y-11972952D01*
X11623571Y-11972952D02*
X11633095Y-11963428D01*
X11633095Y-11963428D02*
X11633095Y-11982476D01*
X11766428Y-11782476D02*
X11785476Y-11782476D01*
X11785476Y-11782476D02*
X11804524Y-11792000D01*
X11804524Y-11792000D02*
X11814048Y-11801524D01*
X11814048Y-11801524D02*
X11823571Y-11820571D01*
X11823571Y-11820571D02*
X11833095Y-11858667D01*
X11833095Y-11858667D02*
X11833095Y-11906286D01*
X11833095Y-11906286D02*
X11823571Y-11944381D01*
X11823571Y-11944381D02*
X11814048Y-11963428D01*
X11814048Y-11963428D02*
X11804524Y-11972952D01*
X11804524Y-11972952D02*
X11785476Y-11982476D01*
X11785476Y-11982476D02*
X11766428Y-11982476D01*
X11766428Y-11982476D02*
X11747381Y-11972952D01*
X11747381Y-11972952D02*
X11737857Y-11963428D01*
X11737857Y-11963428D02*
X11728333Y-11944381D01*
X11728333Y-11944381D02*
X11718809Y-11906286D01*
X11718809Y-11906286D02*
X11718809Y-11858667D01*
X11718809Y-11858667D02*
X11728333Y-11820571D01*
X11728333Y-11820571D02*
X11737857Y-11801524D01*
X11737857Y-11801524D02*
X11747381Y-11792000D01*
X11747381Y-11792000D02*
X11766428Y-11782476D01*
X11956905Y-11782476D02*
X11975952Y-11782476D01*
X11975952Y-11782476D02*
X11995000Y-11792000D01*
X11995000Y-11792000D02*
X12004524Y-11801524D01*
X12004524Y-11801524D02*
X12014048Y-11820571D01*
X12014048Y-11820571D02*
X12023571Y-11858667D01*
X12023571Y-11858667D02*
X12023571Y-11906286D01*
X12023571Y-11906286D02*
X12014048Y-11944381D01*
X12014048Y-11944381D02*
X12004524Y-11963428D01*
X12004524Y-11963428D02*
X11995000Y-11972952D01*
X11995000Y-11972952D02*
X11975952Y-11982476D01*
X11975952Y-11982476D02*
X11956905Y-11982476D01*
X11956905Y-11982476D02*
X11937857Y-11972952D01*
X11937857Y-11972952D02*
X11928333Y-11963428D01*
X11928333Y-11963428D02*
X11918809Y-11944381D01*
X11918809Y-11944381D02*
X11909286Y-11906286D01*
X11909286Y-11906286D02*
X11909286Y-11858667D01*
X11909286Y-11858667D02*
X11918809Y-11820571D01*
X11918809Y-11820571D02*
X11928333Y-11801524D01*
X11928333Y-11801524D02*
X11937857Y-11792000D01*
X11937857Y-11792000D02*
X11956905Y-11782476D01*
X12147381Y-11782476D02*
X12166429Y-11782476D01*
X12166429Y-11782476D02*
X12185476Y-11792000D01*
X12185476Y-11792000D02*
X12195000Y-11801524D01*
X12195000Y-11801524D02*
X12204524Y-11820571D01*
X12204524Y-11820571D02*
X12214048Y-11858667D01*
X12214048Y-11858667D02*
X12214048Y-11906286D01*
X12214048Y-11906286D02*
X12204524Y-11944381D01*
X12204524Y-11944381D02*
X12195000Y-11963428D01*
X12195000Y-11963428D02*
X12185476Y-11972952D01*
X12185476Y-11972952D02*
X12166429Y-11982476D01*
X12166429Y-11982476D02*
X12147381Y-11982476D01*
X12147381Y-11982476D02*
X12128333Y-11972952D01*
X12128333Y-11972952D02*
X12118809Y-11963428D01*
X12118809Y-11963428D02*
X12109286Y-11944381D01*
X12109286Y-11944381D02*
X12099762Y-11906286D01*
X12099762Y-11906286D02*
X12099762Y-11858667D01*
X12099762Y-11858667D02*
X12109286Y-11820571D01*
X12109286Y-11820571D02*
X12118809Y-11801524D01*
X12118809Y-11801524D02*
X12128333Y-11792000D01*
X12128333Y-11792000D02*
X12147381Y-11782476D01*
X12299762Y-11982476D02*
X12299762Y-11849143D01*
X12299762Y-11868190D02*
X12309286Y-11858667D01*
X12309286Y-11858667D02*
X12328333Y-11849143D01*
X12328333Y-11849143D02*
X12356905Y-11849143D01*
X12356905Y-11849143D02*
X12375952Y-11858667D01*
X12375952Y-11858667D02*
X12385476Y-11877714D01*
X12385476Y-11877714D02*
X12385476Y-11982476D01*
X12385476Y-11877714D02*
X12395000Y-11858667D01*
X12395000Y-11858667D02*
X12414048Y-11849143D01*
X12414048Y-11849143D02*
X12442619Y-11849143D01*
X12442619Y-11849143D02*
X12461667Y-11858667D01*
X12461667Y-11858667D02*
X12471190Y-11877714D01*
X12471190Y-11877714D02*
X12471190Y-11982476D01*
X12566429Y-11982476D02*
X12566429Y-11849143D01*
X12566429Y-11868190D02*
X12575952Y-11858667D01*
X12575952Y-11858667D02*
X12595000Y-11849143D01*
X12595000Y-11849143D02*
X12623571Y-11849143D01*
X12623571Y-11849143D02*
X12642619Y-11858667D01*
X12642619Y-11858667D02*
X12652143Y-11877714D01*
X12652143Y-11877714D02*
X12652143Y-11982476D01*
X12652143Y-11877714D02*
X12661667Y-11858667D01*
X12661667Y-11858667D02*
X12680714Y-11849143D01*
X12680714Y-11849143D02*
X12709286Y-11849143D01*
X12709286Y-11849143D02*
X12728333Y-11858667D01*
X12728333Y-11858667D02*
X12737857Y-11877714D01*
X12737857Y-11877714D02*
X12737857Y-11982476D01*
X13095952Y-11772952D02*
X12924524Y-12030095D01*
X13320714Y-11782476D02*
X13339762Y-11782476D01*
X13339762Y-11782476D02*
X13358810Y-11792000D01*
X13358810Y-11792000D02*
X13368333Y-11801524D01*
X13368333Y-11801524D02*
X13377857Y-11820571D01*
X13377857Y-11820571D02*
X13387381Y-11858667D01*
X13387381Y-11858667D02*
X13387381Y-11906286D01*
X13387381Y-11906286D02*
X13377857Y-11944381D01*
X13377857Y-11944381D02*
X13368333Y-11963428D01*
X13368333Y-11963428D02*
X13358810Y-11972952D01*
X13358810Y-11972952D02*
X13339762Y-11982476D01*
X13339762Y-11982476D02*
X13320714Y-11982476D01*
X13320714Y-11982476D02*
X13301667Y-11972952D01*
X13301667Y-11972952D02*
X13292143Y-11963428D01*
X13292143Y-11963428D02*
X13282619Y-11944381D01*
X13282619Y-11944381D02*
X13273095Y-11906286D01*
X13273095Y-11906286D02*
X13273095Y-11858667D01*
X13273095Y-11858667D02*
X13282619Y-11820571D01*
X13282619Y-11820571D02*
X13292143Y-11801524D01*
X13292143Y-11801524D02*
X13301667Y-11792000D01*
X13301667Y-11792000D02*
X13320714Y-11782476D01*
X13473095Y-11963428D02*
X13482619Y-11972952D01*
X13482619Y-11972952D02*
X13473095Y-11982476D01*
X13473095Y-11982476D02*
X13463571Y-11972952D01*
X13463571Y-11972952D02*
X13473095Y-11963428D01*
X13473095Y-11963428D02*
X13473095Y-11982476D01*
X13606429Y-11782476D02*
X13625476Y-11782476D01*
X13625476Y-11782476D02*
X13644524Y-11792000D01*
X13644524Y-11792000D02*
X13654048Y-11801524D01*
X13654048Y-11801524D02*
X13663571Y-11820571D01*
X13663571Y-11820571D02*
X13673095Y-11858667D01*
X13673095Y-11858667D02*
X13673095Y-11906286D01*
X13673095Y-11906286D02*
X13663571Y-11944381D01*
X13663571Y-11944381D02*
X13654048Y-11963428D01*
X13654048Y-11963428D02*
X13644524Y-11972952D01*
X13644524Y-11972952D02*
X13625476Y-11982476D01*
X13625476Y-11982476D02*
X13606429Y-11982476D01*
X13606429Y-11982476D02*
X13587381Y-11972952D01*
X13587381Y-11972952D02*
X13577857Y-11963428D01*
X13577857Y-11963428D02*
X13568333Y-11944381D01*
X13568333Y-11944381D02*
X13558810Y-11906286D01*
X13558810Y-11906286D02*
X13558810Y-11858667D01*
X13558810Y-11858667D02*
X13568333Y-11820571D01*
X13568333Y-11820571D02*
X13577857Y-11801524D01*
X13577857Y-11801524D02*
X13587381Y-11792000D01*
X13587381Y-11792000D02*
X13606429Y-11782476D01*
X13739762Y-11782476D02*
X13863571Y-11782476D01*
X13863571Y-11782476D02*
X13796905Y-11858667D01*
X13796905Y-11858667D02*
X13825476Y-11858667D01*
X13825476Y-11858667D02*
X13844524Y-11868190D01*
X13844524Y-11868190D02*
X13854048Y-11877714D01*
X13854048Y-11877714D02*
X13863571Y-11896762D01*
X13863571Y-11896762D02*
X13863571Y-11944381D01*
X13863571Y-11944381D02*
X13854048Y-11963428D01*
X13854048Y-11963428D02*
X13844524Y-11972952D01*
X13844524Y-11972952D02*
X13825476Y-11982476D01*
X13825476Y-11982476D02*
X13768333Y-11982476D01*
X13768333Y-11982476D02*
X13749286Y-11972952D01*
X13749286Y-11972952D02*
X13739762Y-11963428D01*
X13958810Y-11982476D02*
X13996905Y-11982476D01*
X13996905Y-11982476D02*
X14015952Y-11972952D01*
X14015952Y-11972952D02*
X14025476Y-11963428D01*
X14025476Y-11963428D02*
X14044524Y-11934857D01*
X14044524Y-11934857D02*
X14054048Y-11896762D01*
X14054048Y-11896762D02*
X14054048Y-11820571D01*
X14054048Y-11820571D02*
X14044524Y-11801524D01*
X14044524Y-11801524D02*
X14035000Y-11792000D01*
X14035000Y-11792000D02*
X14015952Y-11782476D01*
X14015952Y-11782476D02*
X13977857Y-11782476D01*
X13977857Y-11782476D02*
X13958810Y-11792000D01*
X13958810Y-11792000D02*
X13949286Y-11801524D01*
X13949286Y-11801524D02*
X13939762Y-11820571D01*
X13939762Y-11820571D02*
X13939762Y-11868190D01*
X13939762Y-11868190D02*
X13949286Y-11887238D01*
X13949286Y-11887238D02*
X13958810Y-11896762D01*
X13958810Y-11896762D02*
X13977857Y-11906286D01*
X13977857Y-11906286D02*
X14015952Y-11906286D01*
X14015952Y-11906286D02*
X14035000Y-11896762D01*
X14035000Y-11896762D02*
X14044524Y-11887238D01*
X14044524Y-11887238D02*
X14054048Y-11868190D01*
X14225476Y-11849143D02*
X14225476Y-11982476D01*
X14177857Y-11772952D02*
X14130238Y-11915809D01*
X14130238Y-11915809D02*
X14254048Y-11915809D01*
X14320714Y-11782476D02*
X14320714Y-11820571D01*
X14396905Y-11782476D02*
X14396905Y-11820571D01*
X14659762Y-12058667D02*
X14650238Y-12049143D01*
X14650238Y-12049143D02*
X14631191Y-12020571D01*
X14631191Y-12020571D02*
X14621667Y-12001524D01*
X14621667Y-12001524D02*
X14612143Y-11972952D01*
X14612143Y-11972952D02*
X14602619Y-11925333D01*
X14602619Y-11925333D02*
X14602619Y-11887238D01*
X14602619Y-11887238D02*
X14612143Y-11839619D01*
X14612143Y-11839619D02*
X14621667Y-11811048D01*
X14621667Y-11811048D02*
X14631191Y-11792000D01*
X14631191Y-11792000D02*
X14650238Y-11763428D01*
X14650238Y-11763428D02*
X14659762Y-11753905D01*
X14821667Y-11782476D02*
X14783571Y-11782476D01*
X14783571Y-11782476D02*
X14764524Y-11792000D01*
X14764524Y-11792000D02*
X14755000Y-11801524D01*
X14755000Y-11801524D02*
X14735952Y-11830095D01*
X14735952Y-11830095D02*
X14726429Y-11868190D01*
X14726429Y-11868190D02*
X14726429Y-11944381D01*
X14726429Y-11944381D02*
X14735952Y-11963428D01*
X14735952Y-11963428D02*
X14745476Y-11972952D01*
X14745476Y-11972952D02*
X14764524Y-11982476D01*
X14764524Y-11982476D02*
X14802619Y-11982476D01*
X14802619Y-11982476D02*
X14821667Y-11972952D01*
X14821667Y-11972952D02*
X14831191Y-11963428D01*
X14831191Y-11963428D02*
X14840714Y-11944381D01*
X14840714Y-11944381D02*
X14840714Y-11896762D01*
X14840714Y-11896762D02*
X14831191Y-11877714D01*
X14831191Y-11877714D02*
X14821667Y-11868190D01*
X14821667Y-11868190D02*
X14802619Y-11858667D01*
X14802619Y-11858667D02*
X14764524Y-11858667D01*
X14764524Y-11858667D02*
X14745476Y-11868190D01*
X14745476Y-11868190D02*
X14735952Y-11877714D01*
X14735952Y-11877714D02*
X14726429Y-11896762D01*
X15046429Y-11982476D02*
X15046429Y-11782476D01*
X15132143Y-11982476D02*
X15132143Y-11877714D01*
X15132143Y-11877714D02*
X15122619Y-11858667D01*
X15122619Y-11858667D02*
X15103572Y-11849143D01*
X15103572Y-11849143D02*
X15075000Y-11849143D01*
X15075000Y-11849143D02*
X15055952Y-11858667D01*
X15055952Y-11858667D02*
X15046429Y-11868190D01*
X15255952Y-11982476D02*
X15236905Y-11972952D01*
X15236905Y-11972952D02*
X15227381Y-11963428D01*
X15227381Y-11963428D02*
X15217857Y-11944381D01*
X15217857Y-11944381D02*
X15217857Y-11887238D01*
X15217857Y-11887238D02*
X15227381Y-11868190D01*
X15227381Y-11868190D02*
X15236905Y-11858667D01*
X15236905Y-11858667D02*
X15255952Y-11849143D01*
X15255952Y-11849143D02*
X15284524Y-11849143D01*
X15284524Y-11849143D02*
X15303572Y-11858667D01*
X15303572Y-11858667D02*
X15313095Y-11868190D01*
X15313095Y-11868190D02*
X15322619Y-11887238D01*
X15322619Y-11887238D02*
X15322619Y-11944381D01*
X15322619Y-11944381D02*
X15313095Y-11963428D01*
X15313095Y-11963428D02*
X15303572Y-11972952D01*
X15303572Y-11972952D02*
X15284524Y-11982476D01*
X15284524Y-11982476D02*
X15255952Y-11982476D01*
X15436905Y-11982476D02*
X15417857Y-11972952D01*
X15417857Y-11972952D02*
X15408333Y-11953905D01*
X15408333Y-11953905D02*
X15408333Y-11782476D01*
X15589286Y-11972952D02*
X15570238Y-11982476D01*
X15570238Y-11982476D02*
X15532143Y-11982476D01*
X15532143Y-11982476D02*
X15513095Y-11972952D01*
X15513095Y-11972952D02*
X15503572Y-11953905D01*
X15503572Y-11953905D02*
X15503572Y-11877714D01*
X15503572Y-11877714D02*
X15513095Y-11858667D01*
X15513095Y-11858667D02*
X15532143Y-11849143D01*
X15532143Y-11849143D02*
X15570238Y-11849143D01*
X15570238Y-11849143D02*
X15589286Y-11858667D01*
X15589286Y-11858667D02*
X15598810Y-11877714D01*
X15598810Y-11877714D02*
X15598810Y-11896762D01*
X15598810Y-11896762D02*
X15503572Y-11915809D01*
X15675000Y-11972952D02*
X15694048Y-11982476D01*
X15694048Y-11982476D02*
X15732143Y-11982476D01*
X15732143Y-11982476D02*
X15751191Y-11972952D01*
X15751191Y-11972952D02*
X15760714Y-11953905D01*
X15760714Y-11953905D02*
X15760714Y-11944381D01*
X15760714Y-11944381D02*
X15751191Y-11925333D01*
X15751191Y-11925333D02*
X15732143Y-11915809D01*
X15732143Y-11915809D02*
X15703572Y-11915809D01*
X15703572Y-11915809D02*
X15684524Y-11906286D01*
X15684524Y-11906286D02*
X15675000Y-11887238D01*
X15675000Y-11887238D02*
X15675000Y-11877714D01*
X15675000Y-11877714D02*
X15684524Y-11858667D01*
X15684524Y-11858667D02*
X15703572Y-11849143D01*
X15703572Y-11849143D02*
X15732143Y-11849143D01*
X15732143Y-11849143D02*
X15751191Y-11858667D01*
X15827381Y-12058667D02*
X15836905Y-12049143D01*
X15836905Y-12049143D02*
X15855953Y-12020571D01*
X15855953Y-12020571D02*
X15865476Y-12001524D01*
X15865476Y-12001524D02*
X15875000Y-11972952D01*
X15875000Y-11972952D02*
X15884524Y-11925333D01*
X15884524Y-11925333D02*
X15884524Y-11887238D01*
X15884524Y-11887238D02*
X15875000Y-11839619D01*
X15875000Y-11839619D02*
X15865476Y-11811048D01*
X15865476Y-11811048D02*
X15855953Y-11792000D01*
X15855953Y-11792000D02*
X15836905Y-11763428D01*
X15836905Y-11763428D02*
X15827381Y-11753905D01*
D13*
X11105000Y-12083000D02*
X11105000Y-12263000D01*
X11015000Y-12173000D02*
X11195000Y-12173000D01*
D11*
X11547381Y-12246476D02*
X11433095Y-12246476D01*
X11490238Y-12246476D02*
X11490238Y-12046476D01*
X11490238Y-12046476D02*
X11471190Y-12075048D01*
X11471190Y-12075048D02*
X11452143Y-12094095D01*
X11452143Y-12094095D02*
X11433095Y-12103619D01*
X11633095Y-12227428D02*
X11642619Y-12236952D01*
X11642619Y-12236952D02*
X11633095Y-12246476D01*
X11633095Y-12246476D02*
X11623571Y-12236952D01*
X11623571Y-12236952D02*
X11633095Y-12227428D01*
X11633095Y-12227428D02*
X11633095Y-12246476D01*
X11756905Y-12132190D02*
X11737857Y-12122667D01*
X11737857Y-12122667D02*
X11728333Y-12113143D01*
X11728333Y-12113143D02*
X11718809Y-12094095D01*
X11718809Y-12094095D02*
X11718809Y-12084571D01*
X11718809Y-12084571D02*
X11728333Y-12065524D01*
X11728333Y-12065524D02*
X11737857Y-12056000D01*
X11737857Y-12056000D02*
X11756905Y-12046476D01*
X11756905Y-12046476D02*
X11795000Y-12046476D01*
X11795000Y-12046476D02*
X11814048Y-12056000D01*
X11814048Y-12056000D02*
X11823571Y-12065524D01*
X11823571Y-12065524D02*
X11833095Y-12084571D01*
X11833095Y-12084571D02*
X11833095Y-12094095D01*
X11833095Y-12094095D02*
X11823571Y-12113143D01*
X11823571Y-12113143D02*
X11814048Y-12122667D01*
X11814048Y-12122667D02*
X11795000Y-12132190D01*
X11795000Y-12132190D02*
X11756905Y-12132190D01*
X11756905Y-12132190D02*
X11737857Y-12141714D01*
X11737857Y-12141714D02*
X11728333Y-12151238D01*
X11728333Y-12151238D02*
X11718809Y-12170286D01*
X11718809Y-12170286D02*
X11718809Y-12208381D01*
X11718809Y-12208381D02*
X11728333Y-12227428D01*
X11728333Y-12227428D02*
X11737857Y-12236952D01*
X11737857Y-12236952D02*
X11756905Y-12246476D01*
X11756905Y-12246476D02*
X11795000Y-12246476D01*
X11795000Y-12246476D02*
X11814048Y-12236952D01*
X11814048Y-12236952D02*
X11823571Y-12227428D01*
X11823571Y-12227428D02*
X11833095Y-12208381D01*
X11833095Y-12208381D02*
X11833095Y-12170286D01*
X11833095Y-12170286D02*
X11823571Y-12151238D01*
X11823571Y-12151238D02*
X11814048Y-12141714D01*
X11814048Y-12141714D02*
X11795000Y-12132190D01*
X11956905Y-12046476D02*
X11975952Y-12046476D01*
X11975952Y-12046476D02*
X11995000Y-12056000D01*
X11995000Y-12056000D02*
X12004524Y-12065524D01*
X12004524Y-12065524D02*
X12014048Y-12084571D01*
X12014048Y-12084571D02*
X12023571Y-12122667D01*
X12023571Y-12122667D02*
X12023571Y-12170286D01*
X12023571Y-12170286D02*
X12014048Y-12208381D01*
X12014048Y-12208381D02*
X12004524Y-12227428D01*
X12004524Y-12227428D02*
X11995000Y-12236952D01*
X11995000Y-12236952D02*
X11975952Y-12246476D01*
X11975952Y-12246476D02*
X11956905Y-12246476D01*
X11956905Y-12246476D02*
X11937857Y-12236952D01*
X11937857Y-12236952D02*
X11928333Y-12227428D01*
X11928333Y-12227428D02*
X11918809Y-12208381D01*
X11918809Y-12208381D02*
X11909286Y-12170286D01*
X11909286Y-12170286D02*
X11909286Y-12122667D01*
X11909286Y-12122667D02*
X11918809Y-12084571D01*
X11918809Y-12084571D02*
X11928333Y-12065524D01*
X11928333Y-12065524D02*
X11937857Y-12056000D01*
X11937857Y-12056000D02*
X11956905Y-12046476D01*
X12147381Y-12046476D02*
X12166429Y-12046476D01*
X12166429Y-12046476D02*
X12185476Y-12056000D01*
X12185476Y-12056000D02*
X12195000Y-12065524D01*
X12195000Y-12065524D02*
X12204524Y-12084571D01*
X12204524Y-12084571D02*
X12214048Y-12122667D01*
X12214048Y-12122667D02*
X12214048Y-12170286D01*
X12214048Y-12170286D02*
X12204524Y-12208381D01*
X12204524Y-12208381D02*
X12195000Y-12227428D01*
X12195000Y-12227428D02*
X12185476Y-12236952D01*
X12185476Y-12236952D02*
X12166429Y-12246476D01*
X12166429Y-12246476D02*
X12147381Y-12246476D01*
X12147381Y-12246476D02*
X12128333Y-12236952D01*
X12128333Y-12236952D02*
X12118809Y-12227428D01*
X12118809Y-12227428D02*
X12109286Y-12208381D01*
X12109286Y-12208381D02*
X12099762Y-12170286D01*
X12099762Y-12170286D02*
X12099762Y-12122667D01*
X12099762Y-12122667D02*
X12109286Y-12084571D01*
X12109286Y-12084571D02*
X12118809Y-12065524D01*
X12118809Y-12065524D02*
X12128333Y-12056000D01*
X12128333Y-12056000D02*
X12147381Y-12046476D01*
X12299762Y-12246476D02*
X12299762Y-12113143D01*
X12299762Y-12132190D02*
X12309286Y-12122667D01*
X12309286Y-12122667D02*
X12328333Y-12113143D01*
X12328333Y-12113143D02*
X12356905Y-12113143D01*
X12356905Y-12113143D02*
X12375952Y-12122667D01*
X12375952Y-12122667D02*
X12385476Y-12141714D01*
X12385476Y-12141714D02*
X12385476Y-12246476D01*
X12385476Y-12141714D02*
X12395000Y-12122667D01*
X12395000Y-12122667D02*
X12414048Y-12113143D01*
X12414048Y-12113143D02*
X12442619Y-12113143D01*
X12442619Y-12113143D02*
X12461667Y-12122667D01*
X12461667Y-12122667D02*
X12471190Y-12141714D01*
X12471190Y-12141714D02*
X12471190Y-12246476D01*
X12566429Y-12246476D02*
X12566429Y-12113143D01*
X12566429Y-12132190D02*
X12575952Y-12122667D01*
X12575952Y-12122667D02*
X12595000Y-12113143D01*
X12595000Y-12113143D02*
X12623571Y-12113143D01*
X12623571Y-12113143D02*
X12642619Y-12122667D01*
X12642619Y-12122667D02*
X12652143Y-12141714D01*
X12652143Y-12141714D02*
X12652143Y-12246476D01*
X12652143Y-12141714D02*
X12661667Y-12122667D01*
X12661667Y-12122667D02*
X12680714Y-12113143D01*
X12680714Y-12113143D02*
X12709286Y-12113143D01*
X12709286Y-12113143D02*
X12728333Y-12122667D01*
X12728333Y-12122667D02*
X12737857Y-12141714D01*
X12737857Y-12141714D02*
X12737857Y-12246476D01*
X13095952Y-12036952D02*
X12924524Y-12294095D01*
X13320714Y-12046476D02*
X13339762Y-12046476D01*
X13339762Y-12046476D02*
X13358810Y-12056000D01*
X13358810Y-12056000D02*
X13368333Y-12065524D01*
X13368333Y-12065524D02*
X13377857Y-12084571D01*
X13377857Y-12084571D02*
X13387381Y-12122667D01*
X13387381Y-12122667D02*
X13387381Y-12170286D01*
X13387381Y-12170286D02*
X13377857Y-12208381D01*
X13377857Y-12208381D02*
X13368333Y-12227428D01*
X13368333Y-12227428D02*
X13358810Y-12236952D01*
X13358810Y-12236952D02*
X13339762Y-12246476D01*
X13339762Y-12246476D02*
X13320714Y-12246476D01*
X13320714Y-12246476D02*
X13301667Y-12236952D01*
X13301667Y-12236952D02*
X13292143Y-12227428D01*
X13292143Y-12227428D02*
X13282619Y-12208381D01*
X13282619Y-12208381D02*
X13273095Y-12170286D01*
X13273095Y-12170286D02*
X13273095Y-12122667D01*
X13273095Y-12122667D02*
X13282619Y-12084571D01*
X13282619Y-12084571D02*
X13292143Y-12065524D01*
X13292143Y-12065524D02*
X13301667Y-12056000D01*
X13301667Y-12056000D02*
X13320714Y-12046476D01*
X13473095Y-12227428D02*
X13482619Y-12236952D01*
X13482619Y-12236952D02*
X13473095Y-12246476D01*
X13473095Y-12246476D02*
X13463571Y-12236952D01*
X13463571Y-12236952D02*
X13473095Y-12227428D01*
X13473095Y-12227428D02*
X13473095Y-12246476D01*
X13606429Y-12046476D02*
X13625476Y-12046476D01*
X13625476Y-12046476D02*
X13644524Y-12056000D01*
X13644524Y-12056000D02*
X13654048Y-12065524D01*
X13654048Y-12065524D02*
X13663571Y-12084571D01*
X13663571Y-12084571D02*
X13673095Y-12122667D01*
X13673095Y-12122667D02*
X13673095Y-12170286D01*
X13673095Y-12170286D02*
X13663571Y-12208381D01*
X13663571Y-12208381D02*
X13654048Y-12227428D01*
X13654048Y-12227428D02*
X13644524Y-12236952D01*
X13644524Y-12236952D02*
X13625476Y-12246476D01*
X13625476Y-12246476D02*
X13606429Y-12246476D01*
X13606429Y-12246476D02*
X13587381Y-12236952D01*
X13587381Y-12236952D02*
X13577857Y-12227428D01*
X13577857Y-12227428D02*
X13568333Y-12208381D01*
X13568333Y-12208381D02*
X13558810Y-12170286D01*
X13558810Y-12170286D02*
X13558810Y-12122667D01*
X13558810Y-12122667D02*
X13568333Y-12084571D01*
X13568333Y-12084571D02*
X13577857Y-12065524D01*
X13577857Y-12065524D02*
X13587381Y-12056000D01*
X13587381Y-12056000D02*
X13606429Y-12046476D01*
X13739762Y-12046476D02*
X13873095Y-12046476D01*
X13873095Y-12046476D02*
X13787381Y-12246476D01*
X13987381Y-12046476D02*
X14006429Y-12046476D01*
X14006429Y-12046476D02*
X14025476Y-12056000D01*
X14025476Y-12056000D02*
X14035000Y-12065524D01*
X14035000Y-12065524D02*
X14044524Y-12084571D01*
X14044524Y-12084571D02*
X14054048Y-12122667D01*
X14054048Y-12122667D02*
X14054048Y-12170286D01*
X14054048Y-12170286D02*
X14044524Y-12208381D01*
X14044524Y-12208381D02*
X14035000Y-12227428D01*
X14035000Y-12227428D02*
X14025476Y-12236952D01*
X14025476Y-12236952D02*
X14006429Y-12246476D01*
X14006429Y-12246476D02*
X13987381Y-12246476D01*
X13987381Y-12246476D02*
X13968333Y-12236952D01*
X13968333Y-12236952D02*
X13958810Y-12227428D01*
X13958810Y-12227428D02*
X13949286Y-12208381D01*
X13949286Y-12208381D02*
X13939762Y-12170286D01*
X13939762Y-12170286D02*
X13939762Y-12122667D01*
X13939762Y-12122667D02*
X13949286Y-12084571D01*
X13949286Y-12084571D02*
X13958810Y-12065524D01*
X13958810Y-12065524D02*
X13968333Y-12056000D01*
X13968333Y-12056000D02*
X13987381Y-12046476D01*
X14149286Y-12246476D02*
X14187381Y-12246476D01*
X14187381Y-12246476D02*
X14206429Y-12236952D01*
X14206429Y-12236952D02*
X14215952Y-12227428D01*
X14215952Y-12227428D02*
X14235000Y-12198857D01*
X14235000Y-12198857D02*
X14244524Y-12160762D01*
X14244524Y-12160762D02*
X14244524Y-12084571D01*
X14244524Y-12084571D02*
X14235000Y-12065524D01*
X14235000Y-12065524D02*
X14225476Y-12056000D01*
X14225476Y-12056000D02*
X14206429Y-12046476D01*
X14206429Y-12046476D02*
X14168333Y-12046476D01*
X14168333Y-12046476D02*
X14149286Y-12056000D01*
X14149286Y-12056000D02*
X14139762Y-12065524D01*
X14139762Y-12065524D02*
X14130238Y-12084571D01*
X14130238Y-12084571D02*
X14130238Y-12132190D01*
X14130238Y-12132190D02*
X14139762Y-12151238D01*
X14139762Y-12151238D02*
X14149286Y-12160762D01*
X14149286Y-12160762D02*
X14168333Y-12170286D01*
X14168333Y-12170286D02*
X14206429Y-12170286D01*
X14206429Y-12170286D02*
X14225476Y-12160762D01*
X14225476Y-12160762D02*
X14235000Y-12151238D01*
X14235000Y-12151238D02*
X14244524Y-12132190D01*
X14320714Y-12046476D02*
X14320714Y-12084571D01*
X14396905Y-12046476D02*
X14396905Y-12084571D01*
X14659762Y-12322667D02*
X14650238Y-12313143D01*
X14650238Y-12313143D02*
X14631191Y-12284571D01*
X14631191Y-12284571D02*
X14621667Y-12265524D01*
X14621667Y-12265524D02*
X14612143Y-12236952D01*
X14612143Y-12236952D02*
X14602619Y-12189333D01*
X14602619Y-12189333D02*
X14602619Y-12151238D01*
X14602619Y-12151238D02*
X14612143Y-12103619D01*
X14612143Y-12103619D02*
X14621667Y-12075048D01*
X14621667Y-12075048D02*
X14631191Y-12056000D01*
X14631191Y-12056000D02*
X14650238Y-12027428D01*
X14650238Y-12027428D02*
X14659762Y-12017905D01*
X14840714Y-12246476D02*
X14726429Y-12246476D01*
X14783571Y-12246476D02*
X14783571Y-12046476D01*
X14783571Y-12046476D02*
X14764524Y-12075048D01*
X14764524Y-12075048D02*
X14745476Y-12094095D01*
X14745476Y-12094095D02*
X14726429Y-12103619D01*
X14916905Y-12065524D02*
X14926429Y-12056000D01*
X14926429Y-12056000D02*
X14945476Y-12046476D01*
X14945476Y-12046476D02*
X14993095Y-12046476D01*
X14993095Y-12046476D02*
X15012143Y-12056000D01*
X15012143Y-12056000D02*
X15021667Y-12065524D01*
X15021667Y-12065524D02*
X15031191Y-12084571D01*
X15031191Y-12084571D02*
X15031191Y-12103619D01*
X15031191Y-12103619D02*
X15021667Y-12132190D01*
X15021667Y-12132190D02*
X14907381Y-12246476D01*
X14907381Y-12246476D02*
X15031191Y-12246476D01*
X15236905Y-12246476D02*
X15236905Y-12046476D01*
X15322619Y-12246476D02*
X15322619Y-12141714D01*
X15322619Y-12141714D02*
X15313095Y-12122667D01*
X15313095Y-12122667D02*
X15294048Y-12113143D01*
X15294048Y-12113143D02*
X15265476Y-12113143D01*
X15265476Y-12113143D02*
X15246429Y-12122667D01*
X15246429Y-12122667D02*
X15236905Y-12132190D01*
X15446429Y-12246476D02*
X15427381Y-12236952D01*
X15427381Y-12236952D02*
X15417857Y-12227428D01*
X15417857Y-12227428D02*
X15408333Y-12208381D01*
X15408333Y-12208381D02*
X15408333Y-12151238D01*
X15408333Y-12151238D02*
X15417857Y-12132190D01*
X15417857Y-12132190D02*
X15427381Y-12122667D01*
X15427381Y-12122667D02*
X15446429Y-12113143D01*
X15446429Y-12113143D02*
X15475000Y-12113143D01*
X15475000Y-12113143D02*
X15494048Y-12122667D01*
X15494048Y-12122667D02*
X15503572Y-12132190D01*
X15503572Y-12132190D02*
X15513095Y-12151238D01*
X15513095Y-12151238D02*
X15513095Y-12208381D01*
X15513095Y-12208381D02*
X15503572Y-12227428D01*
X15503572Y-12227428D02*
X15494048Y-12236952D01*
X15494048Y-12236952D02*
X15475000Y-12246476D01*
X15475000Y-12246476D02*
X15446429Y-12246476D01*
X15627381Y-12246476D02*
X15608333Y-12236952D01*
X15608333Y-12236952D02*
X15598810Y-12217905D01*
X15598810Y-12217905D02*
X15598810Y-12046476D01*
X15779762Y-12236952D02*
X15760714Y-12246476D01*
X15760714Y-12246476D02*
X15722619Y-12246476D01*
X15722619Y-12246476D02*
X15703572Y-12236952D01*
X15703572Y-12236952D02*
X15694048Y-12217905D01*
X15694048Y-12217905D02*
X15694048Y-12141714D01*
X15694048Y-12141714D02*
X15703572Y-12122667D01*
X15703572Y-12122667D02*
X15722619Y-12113143D01*
X15722619Y-12113143D02*
X15760714Y-12113143D01*
X15760714Y-12113143D02*
X15779762Y-12122667D01*
X15779762Y-12122667D02*
X15789286Y-12141714D01*
X15789286Y-12141714D02*
X15789286Y-12160762D01*
X15789286Y-12160762D02*
X15694048Y-12179809D01*
X15865476Y-12236952D02*
X15884524Y-12246476D01*
X15884524Y-12246476D02*
X15922619Y-12246476D01*
X15922619Y-12246476D02*
X15941667Y-12236952D01*
X15941667Y-12236952D02*
X15951191Y-12217905D01*
X15951191Y-12217905D02*
X15951191Y-12208381D01*
X15951191Y-12208381D02*
X15941667Y-12189333D01*
X15941667Y-12189333D02*
X15922619Y-12179809D01*
X15922619Y-12179809D02*
X15894048Y-12179809D01*
X15894048Y-12179809D02*
X15875000Y-12170286D01*
X15875000Y-12170286D02*
X15865476Y-12151238D01*
X15865476Y-12151238D02*
X15865476Y-12141714D01*
X15865476Y-12141714D02*
X15875000Y-12122667D01*
X15875000Y-12122667D02*
X15894048Y-12113143D01*
X15894048Y-12113143D02*
X15922619Y-12113143D01*
X15922619Y-12113143D02*
X15941667Y-12122667D01*
X16017857Y-12322667D02*
X16027381Y-12313143D01*
X16027381Y-12313143D02*
X16046429Y-12284571D01*
X16046429Y-12284571D02*
X16055953Y-12265524D01*
X16055953Y-12265524D02*
X16065476Y-12236952D01*
X16065476Y-12236952D02*
X16075000Y-12189333D01*
X16075000Y-12189333D02*
X16075000Y-12151238D01*
X16075000Y-12151238D02*
X16065476Y-12103619D01*
X16065476Y-12103619D02*
X16055953Y-12075048D01*
X16055953Y-12075048D02*
X16046429Y-12056000D01*
X16046429Y-12056000D02*
X16027381Y-12027428D01*
X16027381Y-12027428D02*
X16017857Y-12017905D01*
X11165711Y-12543711D02*
X11165711Y-12402289D01*
X11024289Y-12402289D01*
X11024289Y-12543711D01*
X11165711Y-12543711D01*
X11423571Y-12346476D02*
X11547381Y-12346476D01*
X11547381Y-12346476D02*
X11480714Y-12422667D01*
X11480714Y-12422667D02*
X11509286Y-12422667D01*
X11509286Y-12422667D02*
X11528333Y-12432190D01*
X11528333Y-12432190D02*
X11537857Y-12441714D01*
X11537857Y-12441714D02*
X11547381Y-12460762D01*
X11547381Y-12460762D02*
X11547381Y-12508381D01*
X11547381Y-12508381D02*
X11537857Y-12527428D01*
X11537857Y-12527428D02*
X11528333Y-12536952D01*
X11528333Y-12536952D02*
X11509286Y-12546476D01*
X11509286Y-12546476D02*
X11452143Y-12546476D01*
X11452143Y-12546476D02*
X11433095Y-12536952D01*
X11433095Y-12536952D02*
X11423571Y-12527428D01*
X11633095Y-12527428D02*
X11642619Y-12536952D01*
X11642619Y-12536952D02*
X11633095Y-12546476D01*
X11633095Y-12546476D02*
X11623571Y-12536952D01*
X11623571Y-12536952D02*
X11633095Y-12527428D01*
X11633095Y-12527428D02*
X11633095Y-12546476D01*
X11718809Y-12365524D02*
X11728333Y-12356000D01*
X11728333Y-12356000D02*
X11747381Y-12346476D01*
X11747381Y-12346476D02*
X11795000Y-12346476D01*
X11795000Y-12346476D02*
X11814048Y-12356000D01*
X11814048Y-12356000D02*
X11823571Y-12365524D01*
X11823571Y-12365524D02*
X11833095Y-12384571D01*
X11833095Y-12384571D02*
X11833095Y-12403619D01*
X11833095Y-12403619D02*
X11823571Y-12432190D01*
X11823571Y-12432190D02*
X11709286Y-12546476D01*
X11709286Y-12546476D02*
X11833095Y-12546476D01*
X11956905Y-12346476D02*
X11975952Y-12346476D01*
X11975952Y-12346476D02*
X11995000Y-12356000D01*
X11995000Y-12356000D02*
X12004524Y-12365524D01*
X12004524Y-12365524D02*
X12014048Y-12384571D01*
X12014048Y-12384571D02*
X12023571Y-12422667D01*
X12023571Y-12422667D02*
X12023571Y-12470286D01*
X12023571Y-12470286D02*
X12014048Y-12508381D01*
X12014048Y-12508381D02*
X12004524Y-12527428D01*
X12004524Y-12527428D02*
X11995000Y-12536952D01*
X11995000Y-12536952D02*
X11975952Y-12546476D01*
X11975952Y-12546476D02*
X11956905Y-12546476D01*
X11956905Y-12546476D02*
X11937857Y-12536952D01*
X11937857Y-12536952D02*
X11928333Y-12527428D01*
X11928333Y-12527428D02*
X11918809Y-12508381D01*
X11918809Y-12508381D02*
X11909286Y-12470286D01*
X11909286Y-12470286D02*
X11909286Y-12422667D01*
X11909286Y-12422667D02*
X11918809Y-12384571D01*
X11918809Y-12384571D02*
X11928333Y-12365524D01*
X11928333Y-12365524D02*
X11937857Y-12356000D01*
X11937857Y-12356000D02*
X11956905Y-12346476D01*
X12147381Y-12346476D02*
X12166429Y-12346476D01*
X12166429Y-12346476D02*
X12185476Y-12356000D01*
X12185476Y-12356000D02*
X12195000Y-12365524D01*
X12195000Y-12365524D02*
X12204524Y-12384571D01*
X12204524Y-12384571D02*
X12214048Y-12422667D01*
X12214048Y-12422667D02*
X12214048Y-12470286D01*
X12214048Y-12470286D02*
X12204524Y-12508381D01*
X12204524Y-12508381D02*
X12195000Y-12527428D01*
X12195000Y-12527428D02*
X12185476Y-12536952D01*
X12185476Y-12536952D02*
X12166429Y-12546476D01*
X12166429Y-12546476D02*
X12147381Y-12546476D01*
X12147381Y-12546476D02*
X12128333Y-12536952D01*
X12128333Y-12536952D02*
X12118809Y-12527428D01*
X12118809Y-12527428D02*
X12109286Y-12508381D01*
X12109286Y-12508381D02*
X12099762Y-12470286D01*
X12099762Y-12470286D02*
X12099762Y-12422667D01*
X12099762Y-12422667D02*
X12109286Y-12384571D01*
X12109286Y-12384571D02*
X12118809Y-12365524D01*
X12118809Y-12365524D02*
X12128333Y-12356000D01*
X12128333Y-12356000D02*
X12147381Y-12346476D01*
X12299762Y-12546476D02*
X12299762Y-12413143D01*
X12299762Y-12432190D02*
X12309286Y-12422667D01*
X12309286Y-12422667D02*
X12328333Y-12413143D01*
X12328333Y-12413143D02*
X12356905Y-12413143D01*
X12356905Y-12413143D02*
X12375952Y-12422667D01*
X12375952Y-12422667D02*
X12385476Y-12441714D01*
X12385476Y-12441714D02*
X12385476Y-12546476D01*
X12385476Y-12441714D02*
X12395000Y-12422667D01*
X12395000Y-12422667D02*
X12414048Y-12413143D01*
X12414048Y-12413143D02*
X12442619Y-12413143D01*
X12442619Y-12413143D02*
X12461667Y-12422667D01*
X12461667Y-12422667D02*
X12471190Y-12441714D01*
X12471190Y-12441714D02*
X12471190Y-12546476D01*
X12566429Y-12546476D02*
X12566429Y-12413143D01*
X12566429Y-12432190D02*
X12575952Y-12422667D01*
X12575952Y-12422667D02*
X12595000Y-12413143D01*
X12595000Y-12413143D02*
X12623571Y-12413143D01*
X12623571Y-12413143D02*
X12642619Y-12422667D01*
X12642619Y-12422667D02*
X12652143Y-12441714D01*
X12652143Y-12441714D02*
X12652143Y-12546476D01*
X12652143Y-12441714D02*
X12661667Y-12422667D01*
X12661667Y-12422667D02*
X12680714Y-12413143D01*
X12680714Y-12413143D02*
X12709286Y-12413143D01*
X12709286Y-12413143D02*
X12728333Y-12422667D01*
X12728333Y-12422667D02*
X12737857Y-12441714D01*
X12737857Y-12441714D02*
X12737857Y-12546476D01*
X13095952Y-12336952D02*
X12924524Y-12594095D01*
X13320714Y-12346476D02*
X13339762Y-12346476D01*
X13339762Y-12346476D02*
X13358810Y-12356000D01*
X13358810Y-12356000D02*
X13368333Y-12365524D01*
X13368333Y-12365524D02*
X13377857Y-12384571D01*
X13377857Y-12384571D02*
X13387381Y-12422667D01*
X13387381Y-12422667D02*
X13387381Y-12470286D01*
X13387381Y-12470286D02*
X13377857Y-12508381D01*
X13377857Y-12508381D02*
X13368333Y-12527428D01*
X13368333Y-12527428D02*
X13358810Y-12536952D01*
X13358810Y-12536952D02*
X13339762Y-12546476D01*
X13339762Y-12546476D02*
X13320714Y-12546476D01*
X13320714Y-12546476D02*
X13301667Y-12536952D01*
X13301667Y-12536952D02*
X13292143Y-12527428D01*
X13292143Y-12527428D02*
X13282619Y-12508381D01*
X13282619Y-12508381D02*
X13273095Y-12470286D01*
X13273095Y-12470286D02*
X13273095Y-12422667D01*
X13273095Y-12422667D02*
X13282619Y-12384571D01*
X13282619Y-12384571D02*
X13292143Y-12365524D01*
X13292143Y-12365524D02*
X13301667Y-12356000D01*
X13301667Y-12356000D02*
X13320714Y-12346476D01*
X13473095Y-12527428D02*
X13482619Y-12536952D01*
X13482619Y-12536952D02*
X13473095Y-12546476D01*
X13473095Y-12546476D02*
X13463571Y-12536952D01*
X13463571Y-12536952D02*
X13473095Y-12527428D01*
X13473095Y-12527428D02*
X13473095Y-12546476D01*
X13673095Y-12546476D02*
X13558810Y-12546476D01*
X13615952Y-12546476D02*
X13615952Y-12346476D01*
X13615952Y-12346476D02*
X13596905Y-12375048D01*
X13596905Y-12375048D02*
X13577857Y-12394095D01*
X13577857Y-12394095D02*
X13558810Y-12403619D01*
X13749286Y-12365524D02*
X13758810Y-12356000D01*
X13758810Y-12356000D02*
X13777857Y-12346476D01*
X13777857Y-12346476D02*
X13825476Y-12346476D01*
X13825476Y-12346476D02*
X13844524Y-12356000D01*
X13844524Y-12356000D02*
X13854048Y-12365524D01*
X13854048Y-12365524D02*
X13863571Y-12384571D01*
X13863571Y-12384571D02*
X13863571Y-12403619D01*
X13863571Y-12403619D02*
X13854048Y-12432190D01*
X13854048Y-12432190D02*
X13739762Y-12546476D01*
X13739762Y-12546476D02*
X13863571Y-12546476D01*
X14035000Y-12346476D02*
X13996905Y-12346476D01*
X13996905Y-12346476D02*
X13977857Y-12356000D01*
X13977857Y-12356000D02*
X13968333Y-12365524D01*
X13968333Y-12365524D02*
X13949286Y-12394095D01*
X13949286Y-12394095D02*
X13939762Y-12432190D01*
X13939762Y-12432190D02*
X13939762Y-12508381D01*
X13939762Y-12508381D02*
X13949286Y-12527428D01*
X13949286Y-12527428D02*
X13958810Y-12536952D01*
X13958810Y-12536952D02*
X13977857Y-12546476D01*
X13977857Y-12546476D02*
X14015952Y-12546476D01*
X14015952Y-12546476D02*
X14035000Y-12536952D01*
X14035000Y-12536952D02*
X14044524Y-12527428D01*
X14044524Y-12527428D02*
X14054048Y-12508381D01*
X14054048Y-12508381D02*
X14054048Y-12460762D01*
X14054048Y-12460762D02*
X14044524Y-12441714D01*
X14044524Y-12441714D02*
X14035000Y-12432190D01*
X14035000Y-12432190D02*
X14015952Y-12422667D01*
X14015952Y-12422667D02*
X13977857Y-12422667D01*
X13977857Y-12422667D02*
X13958810Y-12432190D01*
X13958810Y-12432190D02*
X13949286Y-12441714D01*
X13949286Y-12441714D02*
X13939762Y-12460762D01*
X14177857Y-12346476D02*
X14196905Y-12346476D01*
X14196905Y-12346476D02*
X14215952Y-12356000D01*
X14215952Y-12356000D02*
X14225476Y-12365524D01*
X14225476Y-12365524D02*
X14235000Y-12384571D01*
X14235000Y-12384571D02*
X14244524Y-12422667D01*
X14244524Y-12422667D02*
X14244524Y-12470286D01*
X14244524Y-12470286D02*
X14235000Y-12508381D01*
X14235000Y-12508381D02*
X14225476Y-12527428D01*
X14225476Y-12527428D02*
X14215952Y-12536952D01*
X14215952Y-12536952D02*
X14196905Y-12546476D01*
X14196905Y-12546476D02*
X14177857Y-12546476D01*
X14177857Y-12546476D02*
X14158810Y-12536952D01*
X14158810Y-12536952D02*
X14149286Y-12527428D01*
X14149286Y-12527428D02*
X14139762Y-12508381D01*
X14139762Y-12508381D02*
X14130238Y-12470286D01*
X14130238Y-12470286D02*
X14130238Y-12422667D01*
X14130238Y-12422667D02*
X14139762Y-12384571D01*
X14139762Y-12384571D02*
X14149286Y-12365524D01*
X14149286Y-12365524D02*
X14158810Y-12356000D01*
X14158810Y-12356000D02*
X14177857Y-12346476D01*
X14320714Y-12346476D02*
X14320714Y-12384571D01*
X14396905Y-12346476D02*
X14396905Y-12384571D01*
X14659762Y-12622667D02*
X14650238Y-12613143D01*
X14650238Y-12613143D02*
X14631191Y-12584571D01*
X14631191Y-12584571D02*
X14621667Y-12565524D01*
X14621667Y-12565524D02*
X14612143Y-12536952D01*
X14612143Y-12536952D02*
X14602619Y-12489333D01*
X14602619Y-12489333D02*
X14602619Y-12451238D01*
X14602619Y-12451238D02*
X14612143Y-12403619D01*
X14612143Y-12403619D02*
X14621667Y-12375048D01*
X14621667Y-12375048D02*
X14631191Y-12356000D01*
X14631191Y-12356000D02*
X14650238Y-12327428D01*
X14650238Y-12327428D02*
X14659762Y-12317905D01*
X14821667Y-12413143D02*
X14821667Y-12546476D01*
X14774048Y-12336952D02*
X14726429Y-12479809D01*
X14726429Y-12479809D02*
X14850238Y-12479809D01*
X15046429Y-12546476D02*
X15046429Y-12346476D01*
X15132143Y-12546476D02*
X15132143Y-12441714D01*
X15132143Y-12441714D02*
X15122619Y-12422667D01*
X15122619Y-12422667D02*
X15103572Y-12413143D01*
X15103572Y-12413143D02*
X15075000Y-12413143D01*
X15075000Y-12413143D02*
X15055952Y-12422667D01*
X15055952Y-12422667D02*
X15046429Y-12432190D01*
X15255952Y-12546476D02*
X15236905Y-12536952D01*
X15236905Y-12536952D02*
X15227381Y-12527428D01*
X15227381Y-12527428D02*
X15217857Y-12508381D01*
X15217857Y-12508381D02*
X15217857Y-12451238D01*
X15217857Y-12451238D02*
X15227381Y-12432190D01*
X15227381Y-12432190D02*
X15236905Y-12422667D01*
X15236905Y-12422667D02*
X15255952Y-12413143D01*
X15255952Y-12413143D02*
X15284524Y-12413143D01*
X15284524Y-12413143D02*
X15303572Y-12422667D01*
X15303572Y-12422667D02*
X15313095Y-12432190D01*
X15313095Y-12432190D02*
X15322619Y-12451238D01*
X15322619Y-12451238D02*
X15322619Y-12508381D01*
X15322619Y-12508381D02*
X15313095Y-12527428D01*
X15313095Y-12527428D02*
X15303572Y-12536952D01*
X15303572Y-12536952D02*
X15284524Y-12546476D01*
X15284524Y-12546476D02*
X15255952Y-12546476D01*
X15436905Y-12546476D02*
X15417857Y-12536952D01*
X15417857Y-12536952D02*
X15408333Y-12517905D01*
X15408333Y-12517905D02*
X15408333Y-12346476D01*
X15589286Y-12536952D02*
X15570238Y-12546476D01*
X15570238Y-12546476D02*
X15532143Y-12546476D01*
X15532143Y-12546476D02*
X15513095Y-12536952D01*
X15513095Y-12536952D02*
X15503572Y-12517905D01*
X15503572Y-12517905D02*
X15503572Y-12441714D01*
X15503572Y-12441714D02*
X15513095Y-12422667D01*
X15513095Y-12422667D02*
X15532143Y-12413143D01*
X15532143Y-12413143D02*
X15570238Y-12413143D01*
X15570238Y-12413143D02*
X15589286Y-12422667D01*
X15589286Y-12422667D02*
X15598810Y-12441714D01*
X15598810Y-12441714D02*
X15598810Y-12460762D01*
X15598810Y-12460762D02*
X15503572Y-12479809D01*
X15675000Y-12536952D02*
X15694048Y-12546476D01*
X15694048Y-12546476D02*
X15732143Y-12546476D01*
X15732143Y-12546476D02*
X15751191Y-12536952D01*
X15751191Y-12536952D02*
X15760714Y-12517905D01*
X15760714Y-12517905D02*
X15760714Y-12508381D01*
X15760714Y-12508381D02*
X15751191Y-12489333D01*
X15751191Y-12489333D02*
X15732143Y-12479809D01*
X15732143Y-12479809D02*
X15703572Y-12479809D01*
X15703572Y-12479809D02*
X15684524Y-12470286D01*
X15684524Y-12470286D02*
X15675000Y-12451238D01*
X15675000Y-12451238D02*
X15675000Y-12441714D01*
X15675000Y-12441714D02*
X15684524Y-12422667D01*
X15684524Y-12422667D02*
X15703572Y-12413143D01*
X15703572Y-12413143D02*
X15732143Y-12413143D01*
X15732143Y-12413143D02*
X15751191Y-12422667D01*
X15827381Y-12622667D02*
X15836905Y-12613143D01*
X15836905Y-12613143D02*
X15855953Y-12584571D01*
X15855953Y-12584571D02*
X15865476Y-12565524D01*
X15865476Y-12565524D02*
X15875000Y-12536952D01*
X15875000Y-12536952D02*
X15884524Y-12489333D01*
X15884524Y-12489333D02*
X15884524Y-12451238D01*
X15884524Y-12451238D02*
X15875000Y-12403619D01*
X15875000Y-12403619D02*
X15865476Y-12375048D01*
X15865476Y-12375048D02*
X15855953Y-12356000D01*
X15855953Y-12356000D02*
X15836905Y-12327428D01*
X15836905Y-12327428D02*
X15827381Y-12317905D01*
M02*
