M48
; DRILL file {KiCad (7.0.0)} date Fri Apr 14 14:14:31 2023
; FORMAT={-:-/ absolute / inch / decimal}
; #@! TF.CreationDate,2023-04-14T14:14:31+01:00
; #@! TF.GenerationSoftware,Kicad,Pcbnew,(7.0.0)
; #@! TF.FileFunction,Plated,1,4,PTH
FMAT,2
INCH
; #@! TA.AperFunction,Plated,PTH,ViaDrill
T1C0.0118
; #@! TA.AperFunction,Plated,PTH,ComponentDrill
T2C0.0394
; #@! TA.AperFunction,Plated,PTH,ComponentDrill
T3C0.0709
; #@! TA.AperFunction,Plated,PTH,ComponentDrill
T4C0.1260
%
G90
G05
T1
X4.4286Y-3.4834
X4.4286Y-3.5818
X4.4286Y-3.6802
X4.4286Y-3.7786
X4.4286Y-3.8771
X4.4286Y-3.9755
X4.4286Y-4.0739
X4.6257Y-3.2867
X4.6261Y-4.3119
X4.6871Y-3.4469
X4.705Y-4.1911
X4.7087Y-4.1339
X4.7242Y-3.2867
X4.7245Y-4.3119
X4.7362Y-4.0945
X4.8226Y-3.2867
X4.8229Y-4.3119
X4.8541Y-4.1818
X4.878Y-4.1091
X4.9091Y-3.3677
X4.9094Y-3.4606
X4.9167Y-4.1868
X4.921Y-3.2867
X4.9214Y-4.3119
X4.924Y-4.1575
X4.9639Y-4.0386
X4.9961Y-4.1063
X4.9984Y-4.0752
X5.0104Y-3.574
X5.0161Y-3.3972
X5.0194Y-3.2867
X5.0198Y-4.3119
X5.0201Y-4.0531
X5.0201Y-4.2096
X5.0575Y-4.052
X5.0598Y-3.7823
X5.076Y-3.5
X5.0803Y-3.939
X5.0807Y-4.0744
X5.0813Y-3.9012
X5.087Y-4.2087
X5.0945Y-4.2795
X5.1142Y-3.7953
X5.1173Y-3.411
X5.1173Y-3.5766
X5.1179Y-3.2867
X5.1182Y-4.3119
X5.1447Y-3.961
X5.1524Y-4.2665
X5.1602Y-3.4992
X5.1695Y-3.9386
X5.1805Y-3.9001
X5.212Y-4.2609
X5.2163Y-3.2867
X5.2166Y-4.3119
X5.2193Y-3.5789
X5.2323Y-3.3307
X5.2369Y-3.829
X5.2697Y-4.1283
X5.3047Y-3.7602
X5.3071Y-4.1815
X5.3147Y-3.2867
X5.3151Y-4.3119
X5.3193Y-3.3287
X5.324Y-3.9035
X5.3248Y-3.661
X5.3323Y-3.7622
X5.3587Y-3.7669
X5.3626Y-3.9016
X5.3972Y-3.7118
X5.4024Y-3.5756
X5.4107Y-4.0794
X5.4131Y-3.2867
X5.4134Y-3.3898
X5.4135Y-4.3119
X5.4665Y-4.165
X5.5116Y-3.2867
X5.5119Y-4.3119
X5.5386Y-3.5965
X5.5657Y-3.7543
X5.5882Y-3.7311
X5.5894Y-3.8131
X5.61Y-3.2867
X5.6103Y-4.3119
X5.6819Y-3.5529
X5.6826Y-3.2868
X5.6826Y-3.3852
X5.6826Y-3.9757
X5.6826Y-4.0742
X5.6826Y-4.1726
X5.6826Y-4.271
X5.6829Y-3.4836
X5.8199Y-3.3289
X5.8199Y-3.4273
X5.8199Y-3.5257
X5.8199Y-4.0178
X5.8199Y-4.1163
X5.8199Y-4.2147
X5.82Y-3.9625
X5.8425Y-3.5512
X5.8464Y-4.3117
X5.8466Y-3.2867
X5.8835Y-4.1209
X5.9016Y-3.8622
X5.9146Y-3.8159
X5.9161Y-3.7323
X5.9406Y-3.7563
X5.9449Y-4.3117
X5.945Y-3.2867
X5.9606Y-3.8465
X5.9661Y-3.7909
X5.9713Y-4.1787
X5.9848Y-3.563
X5.9886Y-3.7665
X6.0118Y-3.9331
X6.0236Y-3.7638
X6.0276Y-3.6929
X6.0433Y-4.3117
X6.0434Y-3.2867
X6.0472Y-3.8071
X6.0763Y-4.0019
X6.1059Y-4.2142
X6.1417Y-4.3117
X6.1419Y-3.2867
X6.1603Y-3.4381
X6.195Y-4.2584
X6.1952Y-4.1755
X6.1961Y-3.3465
X6.2401Y-4.3117
X6.2403Y-3.2867
X6.3024Y-3.4016
X6.3118Y-4.213
X6.3371Y-4.1408
X6.3386Y-4.3117
X6.3387Y-3.2867
X6.3937Y-3.4882
X6.437Y-4.3117
X6.4371Y-3.2867
X6.6344Y-3.5234
X6.6344Y-3.6219
X6.6344Y-3.7203
X6.6344Y-3.8187
X6.6344Y-3.9171
X6.6344Y-4.0156
X6.6344Y-4.114
T2
X5.635Y-3.4722
X5.6362Y-3.3346
X5.6395Y-4.262
X5.8653Y-4.2609
X5.8677Y-3.335
X5.8678Y-3.4721
T3
X4.6181Y-3.6339
X4.6181Y-3.7992
X4.6181Y-3.9646
X4.8346Y-3.6339
X4.8346Y-3.7992
X4.8346Y-3.9646
X6.2283Y-3.6339
X6.2283Y-3.7992
X6.2283Y-3.9646
X6.4449Y-3.6339
X6.4449Y-3.7992
X6.4449Y-3.9646
T4
X4.5276Y-3.3858
X4.5276Y-4.2126
X6.5354Y-3.3858
X6.5354Y-4.2126
T0
M30
