%TF.GenerationSoftware,KiCad,Pcbnew,(7.0.0)*%
%TF.CreationDate,2023-03-31T05:55:35+01:00*%
%TF.ProjectId,CANRepIso,43414e52-6570-4497-936f-2e6b69636164,rev?*%
%TF.SameCoordinates,Original*%
%TF.FileFunction,Copper,L4,Bot*%
%TF.FilePolarity,Positive*%
%FSLAX46Y46*%
G04 Gerber Fmt 4.6, Leading zero omitted, Abs format (unit mm)*
G04 Created by KiCad (PCBNEW (7.0.0)) date 2023-03-31 05:55:35*
%MOMM*%
%LPD*%
G01*
G04 APERTURE LIST*
G04 Aperture macros list*
%AMRoundRect*
0 Rectangle with rounded corners*
0 $1 Rounding radius*
0 $2 $3 $4 $5 $6 $7 $8 $9 X,Y pos of 4 corners*
0 Add a 4 corners polygon primitive as box body*
4,1,4,$2,$3,$4,$5,$6,$7,$8,$9,$2,$3,0*
0 Add four circle primitives for the rounded corners*
1,1,$1+$1,$2,$3*
1,1,$1+$1,$4,$5*
1,1,$1+$1,$6,$7*
1,1,$1+$1,$8,$9*
0 Add four rect primitives between the rounded corners*
20,1,$1+$1,$2,$3,$4,$5,0*
20,1,$1+$1,$4,$5,$6,$7,0*
20,1,$1+$1,$6,$7,$8,$9,0*
20,1,$1+$1,$8,$9,$2,$3,0*%
%AMFreePoly0*
4,1,19,0.500000,-0.750000,0.000000,-0.750000,0.000000,-0.744911,-0.071157,-0.744911,-0.207708,-0.704816,-0.327430,-0.627875,-0.420627,-0.520320,-0.479746,-0.390866,-0.500000,-0.250000,-0.500000,0.250000,-0.479746,0.390866,-0.420627,0.520320,-0.327430,0.627875,-0.207708,0.704816,-0.071157,0.744911,0.000000,0.744911,0.000000,0.750000,0.500000,0.750000,0.500000,-0.750000,0.500000,-0.750000,
$1*%
%AMFreePoly1*
4,1,19,0.000000,0.744911,0.071157,0.744911,0.207708,0.704816,0.327430,0.627875,0.420627,0.520320,0.479746,0.390866,0.500000,0.250000,0.500000,-0.250000,0.479746,-0.390866,0.420627,-0.520320,0.327430,-0.627875,0.207708,-0.704816,0.071157,-0.744911,0.000000,-0.744911,0.000000,-0.750000,-0.500000,-0.750000,-0.500000,0.750000,0.000000,0.750000,0.000000,0.744911,0.000000,0.744911,
$1*%
G04 Aperture macros list end*
%TA.AperFunction,SMDPad,CuDef*%
%ADD10FreePoly0,0.000000*%
%TD*%
%TA.AperFunction,SMDPad,CuDef*%
%ADD11FreePoly1,0.000000*%
%TD*%
%TA.AperFunction,ComponentPad*%
%ADD12R,1.700000X1.700000*%
%TD*%
%TA.AperFunction,ComponentPad*%
%ADD13RoundRect,0.250001X-1.599999X1.099999X-1.599999X-1.099999X1.599999X-1.099999X1.599999X1.099999X0*%
%TD*%
%TA.AperFunction,ComponentPad*%
%ADD14O,3.700000X2.700000*%
%TD*%
%TA.AperFunction,ComponentPad*%
%ADD15RoundRect,0.250001X1.599999X-1.099999X1.599999X1.099999X-1.599999X1.099999X-1.599999X-1.099999X0*%
%TD*%
%TA.AperFunction,ComponentPad*%
%ADD16C,5.600000*%
%TD*%
%TA.AperFunction,ViaPad*%
%ADD17C,0.450000*%
%TD*%
%TA.AperFunction,ViaPad*%
%ADD18C,0.600000*%
%TD*%
%TA.AperFunction,Conductor*%
%ADD19C,0.250000*%
%TD*%
%TA.AperFunction,Conductor*%
%ADD20C,0.240000*%
%TD*%
%TA.AperFunction,Conductor*%
%ADD21C,0.800000*%
%TD*%
%TA.AperFunction,Conductor*%
%ADD22C,0.400000*%
%TD*%
G04 APERTURE END LIST*
%TO.C,JP4*%
G36*
X121369999Y-89820000D02*
G01*
X120869999Y-89820000D01*
X120869999Y-89220000D01*
X121369999Y-89220000D01*
X121369999Y-89820000D01*
G37*
%TO.C,JP3*%
G36*
X160779000Y-89880000D02*
G01*
X160279000Y-89880000D01*
X160279000Y-89280000D01*
X160779000Y-89280000D01*
X160779000Y-89880000D01*
G37*
%TD*%
D10*
%TO.P,JP4,1,A*%
%TO.N,/RBUS_uC_V1*%
X120469999Y-89520000D03*
D11*
%TO.P,JP4,2,B*%
%TO.N,+3V3*%
X121769999Y-89520000D03*
%TD*%
D10*
%TO.P,JP3,1,A*%
%TO.N,+3.3VA*%
X159879000Y-89580000D03*
D11*
%TO.P,JP3,2,B*%
%TO.N,/RBUS_uC_V2*%
X161179000Y-89580000D03*
%TD*%
D12*
%TO.P,TP12,1,1*%
%TO.N,/Deploy2*%
X149040999Y-88191999D03*
%TD*%
%TO.P,TP11,1,1*%
%TO.N,/Deploy1*%
X143157999Y-88193999D03*
%TD*%
%TO.P,TP10,1,1*%
%TO.N,GND1*%
X148978999Y-108227999D03*
%TD*%
%TO.P,TP9,1,1*%
%TO.N,+3.3VA*%
X149039999Y-84709999D03*
%TD*%
%TO.P,TP8,1,1*%
%TO.N,GND*%
X143243999Y-108254999D03*
%TD*%
%TO.P,TP7,1,1*%
%TO.N,+3V3*%
X143159999Y-84699999D03*
%TD*%
D13*
%TO.P,RBUS2,1,Pin_1*%
%TO.N,GND1*%
X163700000Y-92300000D03*
D14*
%TO.P,RBUS2,2,Pin_2*%
X163699999Y-96499999D03*
%TO.P,RBUS2,3,Pin_3*%
%TO.N,/RBUS_uC_V2*%
X163699999Y-100699999D03*
%TO.P,RBUS2,4,Pin_4*%
%TO.N,/Deploy2*%
X158199999Y-92299999D03*
%TO.P,RBUS2,5,Pin_5*%
%TO.N,/CAN_OUT_+*%
X158199999Y-96499999D03*
%TO.P,RBUS2,6,Pin_6*%
%TO.N,/CAN_OUT_-*%
X158199999Y-100699999D03*
%TD*%
D15*
%TO.P,RBUS1,1,Pin_1*%
%TO.N,GND*%
X117300000Y-100700000D03*
D14*
%TO.P,RBUS1,2,Pin_2*%
X117299999Y-96499999D03*
%TO.P,RBUS1,3,Pin_3*%
%TO.N,/RBUS_uC_V1*%
X117299999Y-92299999D03*
%TO.P,RBUS1,4,Pin_4*%
%TO.N,/Deploy1*%
X122799999Y-100699999D03*
%TO.P,RBUS1,5,Pin_5*%
%TO.N,/CAN_IN_+*%
X122799999Y-96499999D03*
%TO.P,RBUS1,6,Pin_6*%
%TO.N,/CAN_IN_-*%
X122799999Y-92299999D03*
%TD*%
D16*
%TO.P,H4,1,1*%
%TO.N,GND1*%
X166000000Y-107000000D03*
%TD*%
%TO.P,H3,1,1*%
%TO.N,GND1*%
X166000000Y-86000000D03*
%TD*%
%TO.P,H2,1,1*%
%TO.N,GND*%
X115000000Y-107000000D03*
%TD*%
%TO.P,H1,1,1*%
%TO.N,GND*%
X115000000Y-86000000D03*
%TD*%
D17*
%TO.N,GND*%
X119600000Y-105000000D03*
%TO.N,GND1*%
X152700000Y-99900000D03*
X151400000Y-97700000D03*
X153600000Y-96700000D03*
%TO.N,GND*%
X137500000Y-86100000D03*
X129400000Y-108700000D03*
X129900000Y-96400000D03*
%TO.N,GND1*%
X153100000Y-93800000D03*
%TO.N,GND*%
X120300000Y-104000000D03*
X132900000Y-84600000D03*
X124700000Y-87900000D03*
X126900000Y-104300000D03*
%TO.N,GND1*%
X148400000Y-90200000D03*
X153000000Y-95600000D03*
X156600000Y-85200000D03*
X159300000Y-86600000D03*
X147827478Y-100646442D03*
X147824457Y-84552920D03*
X147824457Y-102052920D03*
X147824457Y-107052920D03*
X147824457Y-104552920D03*
X147824457Y-87052920D03*
X147824457Y-89552920D03*
X168514555Y-94495486D03*
X168514555Y-99495486D03*
X168514555Y-91995486D03*
X168514555Y-104495486D03*
X168514555Y-101995486D03*
X168514555Y-89495486D03*
X168514555Y-96995486D03*
X153503009Y-83481945D03*
X151003009Y-83481945D03*
X148503009Y-83481945D03*
X161003009Y-83481945D03*
X163503009Y-83481945D03*
X156003009Y-83481945D03*
X158503009Y-83481945D03*
X150999543Y-109516584D03*
X148499543Y-109516584D03*
X160999543Y-109516584D03*
X158499543Y-109516584D03*
X163499543Y-109516584D03*
X155999543Y-109516584D03*
X153499543Y-109516584D03*
%TO.N,GND*%
X112486459Y-98477431D03*
X112486459Y-100977431D03*
X112486459Y-88477431D03*
X112486459Y-90977431D03*
X112486459Y-93477431D03*
X112486459Y-95977431D03*
X112486459Y-103477432D03*
X144319454Y-90243736D03*
X144337873Y-108483858D03*
X144337873Y-105983858D03*
X144337873Y-100983857D03*
X144337873Y-88483857D03*
X144337873Y-85983857D03*
X144337873Y-83483857D03*
X144337873Y-103483858D03*
X117493981Y-83482435D03*
X119993981Y-83482435D03*
X127493981Y-83482435D03*
X124993981Y-83482435D03*
X137493981Y-83482435D03*
X134993981Y-83482435D03*
X139993981Y-83482435D03*
X114993981Y-83482435D03*
X132493981Y-83482435D03*
X129993981Y-83482435D03*
X142493981Y-83482435D03*
X122493981Y-83482435D03*
X137502674Y-109521398D03*
X135002674Y-109521398D03*
X142502674Y-109521398D03*
X140002674Y-109521398D03*
X127502674Y-109521398D03*
X125002674Y-109521398D03*
X132502674Y-109521398D03*
X130002674Y-109521398D03*
X122502674Y-109521398D03*
X120002674Y-109521398D03*
X117502674Y-109521398D03*
D18*
X133017000Y-97257000D03*
X127264000Y-90780000D03*
%TO.N,GND1*%
X154337000Y-101649000D03*
%TO.N,GND*%
X131584000Y-99062000D03*
X137433000Y-103616000D03*
D17*
X123295000Y-106218000D03*
X124884000Y-106345000D03*
X127510000Y-106925000D03*
D18*
%TO.N,GND1*%
X160962000Y-105177000D03*
X157354000Y-108163000D03*
X157359000Y-106058000D03*
X160320000Y-107009000D03*
D17*
X150231000Y-96923000D03*
%TO.N,+3.3VA*%
X155691000Y-87527000D03*
X149440000Y-104670000D03*
X152015000Y-90500000D03*
X151540000Y-96290000D03*
X152110000Y-95670000D03*
%TO.N,/Vref2*%
X151670000Y-106140000D03*
D18*
X155090000Y-107040000D03*
D17*
%TO.N,+3.3VA*%
X150270000Y-94800000D03*
X150890000Y-95410000D03*
%TO.N,GND*%
X137220000Y-90820000D03*
%TO.N,+3V3*%
X135110000Y-84550000D03*
D18*
%TO.N,GND*%
X127410000Y-86290000D03*
X129980000Y-86640000D03*
X128930000Y-88900000D03*
X131070000Y-88880000D03*
D17*
X133850000Y-104860000D03*
X132386000Y-108228000D03*
%TO.N,+3V3*%
X130870000Y-108370000D03*
%TO.N,GND*%
X129050000Y-103490000D03*
X128460000Y-102920000D03*
X135440000Y-95560000D03*
X134740000Y-95510000D03*
X136210000Y-99100000D03*
X141972000Y-96853000D03*
%TO.N,/RX2*%
X138850000Y-105790000D03*
X125070000Y-105600000D03*
X134800000Y-106210000D03*
%TO.N,/TX2*%
X136110000Y-95680000D03*
D18*
X140680000Y-91350000D03*
D17*
%TO.N,+3V3*%
X141940000Y-94770000D03*
X141370000Y-95360000D03*
%TO.N,Net-(U1-2A)*%
X129210000Y-106900000D03*
X137090000Y-94280000D03*
%TO.N,/TX1*%
X128520000Y-96070000D03*
X135250000Y-92990000D03*
%TO.N,+3V3*%
X123900000Y-104370000D03*
X135230000Y-99150000D03*
X126960000Y-103510000D03*
X127510000Y-102950000D03*
X126082500Y-102580000D03*
%TO.N,GND*%
X129040000Y-100050000D03*
%TO.N,+3V3*%
X119506800Y-106453201D03*
%TO.N,GND*%
X119053000Y-87551000D03*
X129065000Y-99090001D03*
%TO.N,+3V3*%
X131305000Y-100040001D03*
X130675000Y-100610001D03*
%TO.N,/Vref*%
X132570000Y-90905000D03*
D18*
X129980000Y-90845000D03*
%TO.N,+3V3*%
X124690000Y-85540000D03*
%TD*%
D19*
%TO.N,/Vref2*%
X152866984Y-107040000D02*
X155090000Y-107040000D01*
X151670000Y-106140000D02*
X152360000Y-106830000D01*
X152360004Y-106829996D02*
G75*
G03*
X152866984Y-107040000I506996J506996D01*
G01*
D20*
%TO.N,/RX2*%
X135813969Y-105790000D02*
X138850000Y-105790000D01*
X135813969Y-105789988D02*
G75*
G03*
X134800000Y-106210000I31J-1434012D01*
G01*
X132752000Y-107560005D02*
G75*
G03*
X133943560Y-107066439I0J1685105D01*
G01*
X134051500Y-106958500D02*
X134800000Y-106210000D01*
X133943560Y-107066439D02*
X134051500Y-106958500D01*
X127367997Y-107560000D02*
X132752000Y-107560000D01*
X125070000Y-105600000D02*
X126791000Y-107321000D01*
X126791001Y-107320999D02*
G75*
G03*
X127367997Y-107560000I576999J576999D01*
G01*
%TO.N,Net-(U1-2A)*%
X136527850Y-99622150D02*
X129250000Y-106900000D01*
X129250000Y-106900000D02*
X129210000Y-106900000D01*
X137090000Y-94280000D02*
X137090000Y-98265000D01*
X136527850Y-99622150D02*
G75*
G03*
X137090000Y-98265000I-1357150J1357150D01*
G01*
%TO.N,/TX2*%
X139431851Y-91350000D02*
X140680000Y-91350000D01*
X136600732Y-93519268D02*
X138302000Y-91818000D01*
X139431851Y-91350022D02*
G75*
G03*
X138302000Y-91818000I-51J-1597778D01*
G01*
X136110000Y-95680000D02*
X136110000Y-94704000D01*
X136600725Y-93519261D02*
G75*
G03*
X136110000Y-94704000I1184775J-1184739D01*
G01*
%TO.N,/TX1*%
X133029000Y-95211000D02*
X135250000Y-92990000D01*
X132924066Y-95315933D02*
X133029000Y-95211000D01*
X128760000Y-95830000D02*
X131683000Y-95830000D01*
X131683000Y-95830009D02*
G75*
G03*
X132924066Y-95315933I0J1755109D01*
G01*
D21*
%TO.N,/Deploy1*%
X122951000Y-100700000D02*
X122800000Y-100700000D01*
X125757332Y-97893668D02*
X122951000Y-100700000D01*
X126381000Y-95829000D02*
X126381000Y-96388000D01*
X128507500Y-92949500D02*
X126913452Y-94543548D01*
X137297500Y-88743500D02*
X134298271Y-91742729D01*
X132936000Y-92307000D02*
X130058632Y-92307000D01*
X130058632Y-92307014D02*
G75*
G03*
X128507500Y-92949500I-32J-2193586D01*
G01*
X126913453Y-94543549D02*
G75*
G03*
X126381000Y-95829000I1285447J-1285451D01*
G01*
X132936000Y-92307012D02*
G75*
G03*
X134298271Y-91742729I0J1926512D01*
G01*
X143158000Y-88194000D02*
X138624110Y-88194000D01*
X125757324Y-97893660D02*
G75*
G03*
X126381000Y-96388000I-1505624J1505660D01*
G01*
X138624110Y-88194005D02*
G75*
G03*
X137297501Y-88743501I-10J-1876095D01*
G01*
%TO.N,/Deploy2*%
X152171968Y-88192000D02*
X149041000Y-88192000D01*
X157318000Y-92300000D02*
X153944000Y-88926000D01*
X153944010Y-88925990D02*
G75*
G03*
X152171968Y-88192000I-1772010J-1772010D01*
G01*
X158200000Y-92300000D02*
X157318000Y-92300000D01*
D22*
%TO.N,+3.3VA*%
X157079000Y-89346000D02*
X155995763Y-88262763D01*
X159879000Y-89580000D02*
X157643925Y-89580000D01*
X155690993Y-87527000D02*
G75*
G03*
X155995763Y-88262763I1040507J0D01*
G01*
X157078992Y-89346008D02*
G75*
G03*
X157643925Y-89580000I564908J564908D01*
G01*
%TO.N,/RBUS_uC_V2*%
X160840000Y-89919000D02*
X161179000Y-89580000D01*
X160840000Y-99225469D02*
X160840000Y-89919000D01*
X161804000Y-100700000D02*
X161201000Y-100097000D01*
X160840013Y-99225469D02*
G75*
G03*
X161201000Y-100097000I1232487J-31D01*
G01*
X163700000Y-100700000D02*
X161804000Y-100700000D01*
D20*
%TO.N,/TX1*%
X128520000Y-96070000D02*
X128760000Y-95830000D01*
D22*
%TO.N,+3V3*%
X123386898Y-85540000D02*
X124690000Y-85540000D01*
X122145000Y-86195000D02*
X122385000Y-85955000D01*
X121769999Y-89520000D02*
X121769999Y-87100332D01*
X123386898Y-85540000D02*
G75*
G03*
X122385000Y-85955000I2J-1416900D01*
G01*
X122144990Y-86194990D02*
G75*
G03*
X121769999Y-87100332I905310J-905310D01*
G01*
%TO.N,/RBUS_uC_V1*%
X118500000Y-92300000D02*
X119897241Y-90902759D01*
X117300000Y-92300000D02*
X118500000Y-92300000D01*
X119897238Y-90902756D02*
G75*
G03*
X120469999Y-89520000I-1382738J1382756D01*
G01*
D19*
%TO.N,/Vref*%
X130040000Y-90905000D02*
X129980000Y-90845000D01*
X132570000Y-90905000D02*
X130040000Y-90905000D01*
%TD*%
%TA.AperFunction,Conductor*%
%TO.N,GND*%
G36*
X144527310Y-83264398D02*
G01*
X144554391Y-83291445D01*
X144564336Y-83328401D01*
X144580487Y-95951219D01*
X144590942Y-104121972D01*
X144598043Y-109671405D01*
X144588160Y-109708445D01*
X144561070Y-109735570D01*
X144524043Y-109745500D01*
X115002083Y-109745500D01*
X114997934Y-109745384D01*
X114696743Y-109728469D01*
X114688497Y-109727539D01*
X114393172Y-109677362D01*
X114385081Y-109675516D01*
X114097211Y-109592582D01*
X114089378Y-109589841D01*
X113812605Y-109475197D01*
X113805134Y-109471599D01*
X113542934Y-109326686D01*
X113535929Y-109322285D01*
X113291582Y-109148911D01*
X113285124Y-109143761D01*
X113061731Y-108944126D01*
X113055873Y-108938268D01*
X112856236Y-108714873D01*
X112851090Y-108708419D01*
X112677711Y-108464066D01*
X112673316Y-108457070D01*
X112528396Y-108194857D01*
X112524802Y-108187394D01*
X112493846Y-108112660D01*
X112410154Y-107910611D01*
X112407420Y-107902798D01*
X112324480Y-107614907D01*
X112322639Y-107606839D01*
X112272459Y-107311496D01*
X112271530Y-107303256D01*
X112267294Y-107227830D01*
X112254615Y-107002065D01*
X112254500Y-106997917D01*
X112254500Y-106453201D01*
X119075996Y-106453201D01*
X119076907Y-106458953D01*
X119093096Y-106561171D01*
X119097081Y-106586327D01*
X119158272Y-106706421D01*
X119253580Y-106801729D01*
X119373674Y-106862920D01*
X119506800Y-106884005D01*
X119639926Y-106862920D01*
X119760020Y-106801729D01*
X119855328Y-106706421D01*
X119916519Y-106586327D01*
X119937604Y-106453201D01*
X119916519Y-106320075D01*
X119855328Y-106199981D01*
X119760020Y-106104673D01*
X119639926Y-106043482D01*
X119634172Y-106042570D01*
X119634170Y-106042570D01*
X119512552Y-106023308D01*
X119506800Y-106022397D01*
X119501048Y-106023308D01*
X119379429Y-106042570D01*
X119379425Y-106042570D01*
X119373674Y-106043482D01*
X119368482Y-106046127D01*
X119368480Y-106046128D01*
X119258772Y-106102027D01*
X119258769Y-106102028D01*
X119253580Y-106104673D01*
X119249463Y-106108789D01*
X119249460Y-106108792D01*
X119162391Y-106195861D01*
X119162388Y-106195864D01*
X119158272Y-106199981D01*
X119155627Y-106205170D01*
X119155626Y-106205173D01*
X119140479Y-106234901D01*
X119097081Y-106320075D01*
X119096169Y-106325826D01*
X119096169Y-106325830D01*
X119092247Y-106350596D01*
X119075996Y-106453201D01*
X112254500Y-106453201D01*
X112254500Y-105600000D01*
X124639196Y-105600000D01*
X124640107Y-105605752D01*
X124658470Y-105721696D01*
X124660281Y-105733126D01*
X124721472Y-105853220D01*
X124816780Y-105948528D01*
X124824896Y-105952663D01*
X124863534Y-105972350D01*
X124878999Y-105982885D01*
X124885258Y-105988428D01*
X125185987Y-106172167D01*
X125199731Y-106182987D01*
X126584198Y-107567454D01*
X126584205Y-107567459D01*
X126627620Y-107610873D01*
X126772343Y-107716021D01*
X126931734Y-107797235D01*
X127101866Y-107852515D01*
X127104731Y-107852968D01*
X127104732Y-107852969D01*
X127120807Y-107855515D01*
X127278552Y-107880499D01*
X127339955Y-107880499D01*
X127339957Y-107880499D01*
X127339959Y-107880500D01*
X127367996Y-107880500D01*
X130585222Y-107880500D01*
X130631034Y-107896386D01*
X130657177Y-107937224D01*
X130652425Y-107985479D01*
X130625376Y-108013613D01*
X130626679Y-108015407D01*
X130621971Y-108018826D01*
X130616780Y-108021472D01*
X130612663Y-108025588D01*
X130612660Y-108025591D01*
X130525591Y-108112660D01*
X130525588Y-108112663D01*
X130521472Y-108116780D01*
X130518827Y-108121969D01*
X130518826Y-108121972D01*
X130481683Y-108194870D01*
X130460281Y-108236874D01*
X130459369Y-108242625D01*
X130459369Y-108242629D01*
X130440107Y-108364248D01*
X130439196Y-108370000D01*
X130460281Y-108503126D01*
X130521472Y-108623220D01*
X130616780Y-108718528D01*
X130736874Y-108779719D01*
X130870000Y-108800804D01*
X131003126Y-108779719D01*
X131123220Y-108718528D01*
X131218528Y-108623220D01*
X131279719Y-108503126D01*
X131300804Y-108370000D01*
X131279719Y-108236874D01*
X131218528Y-108116780D01*
X131123220Y-108021472D01*
X131118027Y-108018826D01*
X131113321Y-108015407D01*
X131114623Y-108013613D01*
X131087575Y-107985479D01*
X131082823Y-107937224D01*
X131108966Y-107896386D01*
X131154778Y-107880500D01*
X132701238Y-107880500D01*
X132751981Y-107880500D01*
X132752000Y-107880502D01*
X132752000Y-107880505D01*
X132862554Y-107880505D01*
X132864634Y-107880505D01*
X133088484Y-107855283D01*
X133308104Y-107805155D01*
X133520729Y-107730753D01*
X133723688Y-107633013D01*
X133914426Y-107513162D01*
X134090546Y-107372709D01*
X134150355Y-107312897D01*
X134150361Y-107312894D01*
X134297953Y-107165303D01*
X134297952Y-107165303D01*
X134670271Y-106792983D01*
X134684006Y-106782170D01*
X134984741Y-106598428D01*
X134990991Y-106592892D01*
X135006460Y-106582353D01*
X135053220Y-106558528D01*
X135148528Y-106463220D01*
X135209719Y-106343126D01*
X135213284Y-106320611D01*
X135224843Y-106291075D01*
X135247703Y-106269094D01*
X135303513Y-106234894D01*
X135313842Y-106229631D01*
X135464514Y-106167219D01*
X135475556Y-106163632D01*
X135597273Y-106134408D01*
X135634125Y-106125559D01*
X135645591Y-106123743D01*
X135787554Y-106112568D01*
X135810928Y-106110728D01*
X135816735Y-106110500D01*
X138346030Y-106110500D01*
X138363400Y-106112568D01*
X138453844Y-106134408D01*
X138621744Y-106174952D01*
X138704055Y-106194828D01*
X138709553Y-106196382D01*
X138711683Y-106197074D01*
X138716874Y-106199719D01*
X138850000Y-106220804D01*
X138983126Y-106199719D01*
X139103220Y-106138528D01*
X139198528Y-106043220D01*
X139259719Y-105923126D01*
X139280804Y-105790000D01*
X139259719Y-105656874D01*
X139198528Y-105536780D01*
X139103220Y-105441472D01*
X138983126Y-105380281D01*
X138977372Y-105379369D01*
X138977370Y-105379369D01*
X138855752Y-105360107D01*
X138850000Y-105359196D01*
X138844248Y-105360107D01*
X138722620Y-105379370D01*
X138722614Y-105379371D01*
X138716874Y-105380281D01*
X138711691Y-105382921D01*
X138709556Y-105383615D01*
X138704063Y-105385168D01*
X138363399Y-105467432D01*
X138346029Y-105469500D01*
X135864729Y-105469500D01*
X135864726Y-105469499D01*
X135864724Y-105469499D01*
X135864717Y-105469499D01*
X135814005Y-105469499D01*
X135813962Y-105469494D01*
X135813962Y-105469488D01*
X135813915Y-105469488D01*
X135701395Y-105469489D01*
X135701380Y-105469489D01*
X135698968Y-105469490D01*
X135696574Y-105469805D01*
X135696562Y-105469806D01*
X135473345Y-105499197D01*
X135473337Y-105499198D01*
X135470949Y-105499513D01*
X135468618Y-105500137D01*
X135468611Y-105500139D01*
X135251139Y-105558414D01*
X135251125Y-105558418D01*
X135248799Y-105559042D01*
X135246574Y-105559963D01*
X135246561Y-105559968D01*
X135038559Y-105646128D01*
X135038551Y-105646131D01*
X135036320Y-105647056D01*
X135034237Y-105648258D01*
X135034220Y-105648267D01*
X134839240Y-105760841D01*
X134839228Y-105760848D01*
X134837146Y-105762051D01*
X134835241Y-105763512D01*
X134835230Y-105763520D01*
X134833539Y-105764819D01*
X134799550Y-105776354D01*
X134800000Y-105779196D01*
X134672629Y-105799369D01*
X134672625Y-105799369D01*
X134666874Y-105800281D01*
X134661682Y-105802926D01*
X134661680Y-105802927D01*
X134551972Y-105858826D01*
X134551969Y-105858827D01*
X134546780Y-105861472D01*
X134542663Y-105865588D01*
X134542660Y-105865591D01*
X134455588Y-105952663D01*
X134455585Y-105952666D01*
X134451472Y-105956780D01*
X134448830Y-105961964D01*
X134448830Y-105961965D01*
X134427648Y-106003535D01*
X134417117Y-106018994D01*
X134413740Y-106022807D01*
X134413736Y-106022812D01*
X134411572Y-106025256D01*
X134409871Y-106028039D01*
X134409868Y-106028044D01*
X134227832Y-106325986D01*
X134217011Y-106339731D01*
X133805046Y-106751698D01*
X133752824Y-106803917D01*
X133752825Y-106803918D01*
X133752823Y-106803920D01*
X133718641Y-106838101D01*
X133715108Y-106841410D01*
X133586376Y-106954307D01*
X133578697Y-106960199D01*
X133438339Y-107053985D01*
X133429955Y-107058826D01*
X133278567Y-107133482D01*
X133269625Y-107137186D01*
X133109780Y-107191447D01*
X133100430Y-107193952D01*
X132934879Y-107226882D01*
X132925282Y-107228146D01*
X132754487Y-107239342D01*
X132749647Y-107239500D01*
X129636092Y-107239500D01*
X129597646Y-107228729D01*
X129570392Y-107199552D01*
X129562264Y-107160462D01*
X129575627Y-107122839D01*
X129642985Y-107027370D01*
X129791304Y-106817154D01*
X129792687Y-106814211D01*
X129792919Y-106813813D01*
X129804554Y-106798700D01*
X136718854Y-99884400D01*
X136754478Y-99848778D01*
X136843421Y-99759835D01*
X137000271Y-99563150D01*
X137134114Y-99350141D01*
X137243266Y-99123485D01*
X137326354Y-98886033D01*
X137382333Y-98640772D01*
X137410500Y-98390784D01*
X137410500Y-98265000D01*
X137410500Y-98214238D01*
X137410500Y-95360000D01*
X140939196Y-95360000D01*
X140940107Y-95365752D01*
X140954791Y-95458467D01*
X140960281Y-95493126D01*
X141021472Y-95613220D01*
X141116780Y-95708528D01*
X141236874Y-95769719D01*
X141370000Y-95790804D01*
X141503126Y-95769719D01*
X141623220Y-95708528D01*
X141718528Y-95613220D01*
X141779719Y-95493126D01*
X141800804Y-95360000D01*
X141787292Y-95274690D01*
X141794446Y-95229521D01*
X141826786Y-95197182D01*
X141871956Y-95190027D01*
X141940000Y-95200804D01*
X142073126Y-95179719D01*
X142193220Y-95118528D01*
X142288528Y-95023220D01*
X142349719Y-94903126D01*
X142370804Y-94770000D01*
X142349719Y-94636874D01*
X142288528Y-94516780D01*
X142193220Y-94421472D01*
X142073126Y-94360281D01*
X142067372Y-94359369D01*
X142067370Y-94359369D01*
X141945752Y-94340107D01*
X141940000Y-94339196D01*
X141934248Y-94340107D01*
X141812629Y-94359369D01*
X141812625Y-94359369D01*
X141806874Y-94360281D01*
X141801682Y-94362926D01*
X141801680Y-94362927D01*
X141691972Y-94418826D01*
X141691969Y-94418827D01*
X141686780Y-94421472D01*
X141682663Y-94425588D01*
X141682660Y-94425591D01*
X141595591Y-94512660D01*
X141595588Y-94512663D01*
X141591472Y-94516780D01*
X141588827Y-94521969D01*
X141588826Y-94521972D01*
X141552132Y-94593989D01*
X141530281Y-94636874D01*
X141529369Y-94642625D01*
X141529369Y-94642629D01*
X141510107Y-94764248D01*
X141509196Y-94770000D01*
X141510107Y-94775752D01*
X141522707Y-94855307D01*
X141515553Y-94900478D01*
X141483214Y-94932817D01*
X141438043Y-94939972D01*
X141375753Y-94930107D01*
X141375752Y-94930107D01*
X141370000Y-94929196D01*
X141364248Y-94930107D01*
X141242629Y-94949369D01*
X141242625Y-94949369D01*
X141236874Y-94950281D01*
X141231682Y-94952926D01*
X141231680Y-94952927D01*
X141121972Y-95008826D01*
X141121969Y-95008827D01*
X141116780Y-95011472D01*
X141112663Y-95015588D01*
X141112660Y-95015591D01*
X141025591Y-95102660D01*
X141025588Y-95102663D01*
X141021472Y-95106780D01*
X141018827Y-95111969D01*
X141018826Y-95111972D01*
X140962927Y-95221680D01*
X140960281Y-95226874D01*
X140959369Y-95232625D01*
X140959369Y-95232629D01*
X140945959Y-95317301D01*
X140939196Y-95360000D01*
X137410500Y-95360000D01*
X137410500Y-94783970D01*
X137412568Y-94766600D01*
X137494831Y-94425935D01*
X137496385Y-94420436D01*
X137497073Y-94418318D01*
X137499719Y-94413126D01*
X137520804Y-94280000D01*
X137499719Y-94146874D01*
X137438528Y-94026780D01*
X137343220Y-93931472D01*
X137223126Y-93870281D01*
X137217372Y-93869369D01*
X137217370Y-93869369D01*
X137095752Y-93850107D01*
X137090000Y-93849196D01*
X137084248Y-93850107D01*
X136962629Y-93869369D01*
X136962625Y-93869369D01*
X136956874Y-93870281D01*
X136951684Y-93872925D01*
X136951685Y-93872925D01*
X136868713Y-93915201D01*
X136819022Y-93921494D01*
X136776706Y-93894698D01*
X136761150Y-93847087D01*
X136779479Y-93800478D01*
X136825667Y-93747809D01*
X136828948Y-93744306D01*
X138493858Y-92079396D01*
X138526591Y-92046664D01*
X138530822Y-92042754D01*
X138676615Y-91918235D01*
X138686001Y-91911416D01*
X138846981Y-91812769D01*
X138857321Y-91807502D01*
X138858311Y-91807092D01*
X139031746Y-91735255D01*
X139042775Y-91731672D01*
X139226360Y-91687601D01*
X139237829Y-91685785D01*
X139429225Y-91670727D01*
X139435023Y-91670500D01*
X139482603Y-91670502D01*
X139482608Y-91670500D01*
X139482612Y-91670500D01*
X140020423Y-91670500D01*
X140043227Y-91674101D01*
X140461939Y-91809730D01*
X140491620Y-91819344D01*
X140504062Y-91820935D01*
X140515525Y-91823335D01*
X140608039Y-91850500D01*
X140746669Y-91850500D01*
X140751961Y-91850500D01*
X140890053Y-91809953D01*
X141011128Y-91732143D01*
X141105377Y-91623373D01*
X141165165Y-91492457D01*
X141185647Y-91350000D01*
X141165165Y-91207543D01*
X141105377Y-91076627D01*
X141093536Y-91062962D01*
X141014593Y-90971856D01*
X141011128Y-90967857D01*
X140890053Y-90890047D01*
X140884983Y-90888558D01*
X140884978Y-90888556D01*
X140757037Y-90850990D01*
X140757034Y-90850989D01*
X140751961Y-90849500D01*
X140608039Y-90849500D01*
X140602968Y-90850988D01*
X140602960Y-90850990D01*
X140515519Y-90876665D01*
X140504064Y-90879064D01*
X140495034Y-90880219D01*
X140495029Y-90880220D01*
X140491622Y-90880656D01*
X140488353Y-90881714D01*
X140488348Y-90881716D01*
X140043230Y-91025899D01*
X140020426Y-91029500D01*
X139403813Y-91029500D01*
X139403738Y-91029513D01*
X139403569Y-91029520D01*
X139308555Y-91029518D01*
X139308553Y-91029518D01*
X139306126Y-91029518D01*
X139303719Y-91029834D01*
X139303716Y-91029835D01*
X139059210Y-91062018D01*
X139059203Y-91062019D01*
X139056805Y-91062335D01*
X139054472Y-91062959D01*
X139054462Y-91062962D01*
X138816243Y-91126788D01*
X138816235Y-91126790D01*
X138813901Y-91127416D01*
X138811671Y-91128339D01*
X138811661Y-91128343D01*
X138583810Y-91222718D01*
X138581570Y-91223646D01*
X138579474Y-91224855D01*
X138579466Y-91224860D01*
X138365885Y-91348168D01*
X138365881Y-91348170D01*
X138363788Y-91349379D01*
X138361877Y-91350845D01*
X138361867Y-91350852D01*
X138166210Y-91500983D01*
X138166202Y-91500989D01*
X138164281Y-91502464D01*
X138162571Y-91504173D01*
X138162563Y-91504181D01*
X138095199Y-91571546D01*
X138095198Y-91571547D01*
X138075372Y-91591372D01*
X138043372Y-91623373D01*
X138043371Y-91623374D01*
X136374125Y-93292617D01*
X136374096Y-93292639D01*
X136374093Y-93292636D01*
X136374068Y-93292660D01*
X136374064Y-93292664D01*
X136296305Y-93370426D01*
X136296297Y-93370434D01*
X136294834Y-93371898D01*
X136293543Y-93373515D01*
X136293533Y-93373528D01*
X136156358Y-93545546D01*
X136156352Y-93545553D01*
X136155062Y-93547172D01*
X136153969Y-93548911D01*
X136153958Y-93548927D01*
X136036893Y-93735239D01*
X136036885Y-93735253D01*
X136035792Y-93736993D01*
X136034896Y-93738853D01*
X136034893Y-93738859D01*
X135981759Y-93849196D01*
X135938525Y-93938974D01*
X135937847Y-93940909D01*
X135937843Y-93940921D01*
X135867597Y-94141680D01*
X135864484Y-94150576D01*
X135864024Y-94152589D01*
X135864020Y-94152605D01*
X135819261Y-94348715D01*
X135814600Y-94369137D01*
X135814369Y-94371183D01*
X135814369Y-94371186D01*
X135789732Y-94589844D01*
X135789731Y-94589855D01*
X135789500Y-94591909D01*
X135789500Y-94593989D01*
X135789500Y-95176026D01*
X135787432Y-95193396D01*
X135705169Y-95534060D01*
X135703616Y-95539553D01*
X135702921Y-95541691D01*
X135700281Y-95546874D01*
X135699371Y-95552614D01*
X135699370Y-95552620D01*
X135680107Y-95674248D01*
X135679196Y-95680000D01*
X135680107Y-95685752D01*
X135696745Y-95790804D01*
X135700281Y-95813126D01*
X135761472Y-95933220D01*
X135856780Y-96028528D01*
X135976874Y-96089719D01*
X136110000Y-96110804D01*
X136243126Y-96089719D01*
X136363220Y-96028528D01*
X136458528Y-95933220D01*
X136519719Y-95813126D01*
X136540804Y-95680000D01*
X136519719Y-95546874D01*
X136517074Y-95541684D01*
X136516387Y-95539568D01*
X136514833Y-95534070D01*
X136432568Y-95193399D01*
X136430500Y-95176029D01*
X136430500Y-94706429D01*
X136430658Y-94701589D01*
X136441775Y-94531974D01*
X136443039Y-94522378D01*
X136443120Y-94521972D01*
X136475724Y-94358056D01*
X136478224Y-94348725D01*
X136518202Y-94230948D01*
X136543532Y-94195795D01*
X136584205Y-94180849D01*
X136626274Y-94191239D01*
X136655312Y-94223401D01*
X136661364Y-94266309D01*
X136659196Y-94280000D01*
X136680281Y-94413126D01*
X136682923Y-94418313D01*
X136683616Y-94420444D01*
X136685169Y-94425939D01*
X136767432Y-94766601D01*
X136769500Y-94783971D01*
X136769500Y-98262571D01*
X136769342Y-98267411D01*
X136756138Y-98468849D01*
X136754874Y-98478445D01*
X136715968Y-98674042D01*
X136713463Y-98683393D01*
X136649357Y-98872243D01*
X136645653Y-98881185D01*
X136635402Y-98901972D01*
X136575901Y-99022629D01*
X136557448Y-99060047D01*
X136552608Y-99068430D01*
X136441808Y-99234254D01*
X136435915Y-99241934D01*
X136302818Y-99393701D01*
X136299509Y-99397234D01*
X136265600Y-99431144D01*
X136265599Y-99431145D01*
X129359733Y-106337009D01*
X129341044Y-106350596D01*
X129043134Y-106502627D01*
X129043126Y-106502631D01*
X129040071Y-106504191D01*
X129037358Y-106506286D01*
X129037345Y-106506295D01*
X129027138Y-106514181D01*
X129015495Y-106521554D01*
X128961967Y-106548828D01*
X128961962Y-106548831D01*
X128956780Y-106551472D01*
X128952666Y-106555585D01*
X128952663Y-106555588D01*
X128865591Y-106642660D01*
X128865588Y-106642663D01*
X128861472Y-106646780D01*
X128858827Y-106651969D01*
X128858826Y-106651972D01*
X128802927Y-106761680D01*
X128800281Y-106766874D01*
X128799369Y-106772625D01*
X128799369Y-106772629D01*
X128781874Y-106883094D01*
X128779196Y-106900000D01*
X128780107Y-106905752D01*
X128795361Y-107002066D01*
X128800281Y-107033126D01*
X128850612Y-107131906D01*
X128857060Y-107180886D01*
X128831247Y-107223009D01*
X128784677Y-107239500D01*
X127371637Y-107239500D01*
X127364384Y-107239144D01*
X127278581Y-107230693D01*
X127264352Y-107227862D01*
X127261121Y-107226882D01*
X127203104Y-107209282D01*
X127185353Y-107203897D01*
X127171954Y-107198347D01*
X127119970Y-107170561D01*
X127099144Y-107159429D01*
X127087083Y-107151370D01*
X127020428Y-107096668D01*
X127015047Y-107091791D01*
X125652987Y-105729731D01*
X125642166Y-105715986D01*
X125606050Y-105656874D01*
X125458428Y-105415258D01*
X125452885Y-105408999D01*
X125442350Y-105393534D01*
X125437852Y-105384707D01*
X125418528Y-105346780D01*
X125323220Y-105251472D01*
X125203126Y-105190281D01*
X125197372Y-105189369D01*
X125197370Y-105189369D01*
X125075752Y-105170107D01*
X125070000Y-105169196D01*
X125064248Y-105170107D01*
X124942629Y-105189369D01*
X124942625Y-105189369D01*
X124936874Y-105190281D01*
X124931682Y-105192926D01*
X124931680Y-105192927D01*
X124821972Y-105248826D01*
X124821969Y-105248827D01*
X124816780Y-105251472D01*
X124812663Y-105255588D01*
X124812660Y-105255591D01*
X124725591Y-105342660D01*
X124725588Y-105342663D01*
X124721472Y-105346780D01*
X124718830Y-105351966D01*
X124718826Y-105351972D01*
X124671125Y-105445591D01*
X124660281Y-105466874D01*
X124659369Y-105472625D01*
X124659369Y-105472629D01*
X124645683Y-105559042D01*
X124639196Y-105600000D01*
X112254500Y-105600000D01*
X112254500Y-104370000D01*
X123469196Y-104370000D01*
X123490281Y-104503126D01*
X123551472Y-104623220D01*
X123646780Y-104718528D01*
X123766874Y-104779719D01*
X123900000Y-104800804D01*
X124033126Y-104779719D01*
X124153220Y-104718528D01*
X124248528Y-104623220D01*
X124309719Y-104503126D01*
X124330804Y-104370000D01*
X124309719Y-104236874D01*
X124248528Y-104116780D01*
X124153220Y-104021472D01*
X124033126Y-103960281D01*
X124027372Y-103959369D01*
X124027370Y-103959369D01*
X123905752Y-103940107D01*
X123900000Y-103939196D01*
X123894248Y-103940107D01*
X123772629Y-103959369D01*
X123772625Y-103959369D01*
X123766874Y-103960281D01*
X123761682Y-103962926D01*
X123761680Y-103962927D01*
X123651972Y-104018826D01*
X123651969Y-104018827D01*
X123646780Y-104021472D01*
X123642663Y-104025588D01*
X123642660Y-104025591D01*
X123555591Y-104112660D01*
X123555588Y-104112663D01*
X123551472Y-104116780D01*
X123548827Y-104121969D01*
X123548826Y-104121972D01*
X123492927Y-104231680D01*
X123490281Y-104236874D01*
X123489369Y-104242625D01*
X123489369Y-104242629D01*
X123470107Y-104364248D01*
X123469196Y-104370000D01*
X112254500Y-104370000D01*
X112254500Y-103510000D01*
X126529196Y-103510000D01*
X126550281Y-103643126D01*
X126611472Y-103763220D01*
X126706780Y-103858528D01*
X126826874Y-103919719D01*
X126960000Y-103940804D01*
X127093126Y-103919719D01*
X127213220Y-103858528D01*
X127308528Y-103763220D01*
X127369719Y-103643126D01*
X127390804Y-103510000D01*
X127382680Y-103458713D01*
X127389836Y-103413542D01*
X127422175Y-103381202D01*
X127467345Y-103374048D01*
X127510000Y-103380804D01*
X127643126Y-103359719D01*
X127763220Y-103298528D01*
X127858528Y-103203220D01*
X127919719Y-103083126D01*
X127940804Y-102950000D01*
X127919719Y-102816874D01*
X127858528Y-102696780D01*
X127763220Y-102601472D01*
X127643126Y-102540281D01*
X127637372Y-102539369D01*
X127637370Y-102539369D01*
X127515752Y-102520107D01*
X127510000Y-102519196D01*
X127504248Y-102520107D01*
X127382629Y-102539369D01*
X127382625Y-102539369D01*
X127376874Y-102540281D01*
X127371682Y-102542926D01*
X127371680Y-102542927D01*
X127261972Y-102598826D01*
X127261969Y-102598827D01*
X127256780Y-102601472D01*
X127252663Y-102605588D01*
X127252660Y-102605591D01*
X127165591Y-102692660D01*
X127165588Y-102692663D01*
X127161472Y-102696780D01*
X127158827Y-102701969D01*
X127158826Y-102701972D01*
X127156076Y-102707370D01*
X127100281Y-102816874D01*
X127099369Y-102822625D01*
X127099369Y-102822629D01*
X127083249Y-102924408D01*
X127079196Y-102950000D01*
X127080107Y-102955752D01*
X127080107Y-102955753D01*
X127087318Y-103001287D01*
X127080163Y-103046458D01*
X127047824Y-103078796D01*
X127002654Y-103085951D01*
X126965753Y-103080107D01*
X126965752Y-103080107D01*
X126960000Y-103079196D01*
X126954248Y-103080107D01*
X126832629Y-103099369D01*
X126832625Y-103099369D01*
X126826874Y-103100281D01*
X126821682Y-103102926D01*
X126821680Y-103102927D01*
X126711972Y-103158826D01*
X126711969Y-103158827D01*
X126706780Y-103161472D01*
X126702663Y-103165588D01*
X126702660Y-103165591D01*
X126615591Y-103252660D01*
X126615588Y-103252663D01*
X126611472Y-103256780D01*
X126608827Y-103261969D01*
X126608826Y-103261972D01*
X126552927Y-103371680D01*
X126550281Y-103376874D01*
X126549369Y-103382625D01*
X126549369Y-103382629D01*
X126544473Y-103413542D01*
X126529196Y-103510000D01*
X112254500Y-103510000D01*
X112254500Y-102580000D01*
X125651696Y-102580000D01*
X125652607Y-102585752D01*
X125669539Y-102692660D01*
X125672781Y-102713126D01*
X125733972Y-102833220D01*
X125829280Y-102928528D01*
X125949374Y-102989719D01*
X126082500Y-103010804D01*
X126215626Y-102989719D01*
X126335720Y-102928528D01*
X126431028Y-102833220D01*
X126492219Y-102713126D01*
X126513304Y-102580000D01*
X126492219Y-102446874D01*
X126431028Y-102326780D01*
X126335720Y-102231472D01*
X126215626Y-102170281D01*
X126209872Y-102169369D01*
X126209870Y-102169369D01*
X126088252Y-102150107D01*
X126082500Y-102149196D01*
X126076748Y-102150107D01*
X125955129Y-102169369D01*
X125955125Y-102169369D01*
X125949374Y-102170281D01*
X125944182Y-102172926D01*
X125944180Y-102172927D01*
X125834472Y-102228826D01*
X125834469Y-102228827D01*
X125829280Y-102231472D01*
X125825163Y-102235588D01*
X125825160Y-102235591D01*
X125738091Y-102322660D01*
X125738088Y-102322663D01*
X125733972Y-102326780D01*
X125731327Y-102331969D01*
X125731326Y-102331972D01*
X125706216Y-102381254D01*
X125672781Y-102446874D01*
X125671869Y-102452625D01*
X125671869Y-102452629D01*
X125671573Y-102454500D01*
X125651696Y-102580000D01*
X112254500Y-102580000D01*
X112254500Y-100762635D01*
X120745718Y-100762635D01*
X120746077Y-100765599D01*
X120746078Y-100765600D01*
X120769003Y-100954409D01*
X120775893Y-101011149D01*
X120776723Y-101014017D01*
X120776725Y-101014023D01*
X120811930Y-101135565D01*
X120845541Y-101251604D01*
X120846817Y-101254293D01*
X120846820Y-101254301D01*
X120888808Y-101342788D01*
X120952859Y-101477772D01*
X121095068Y-101683797D01*
X121268484Y-101864341D01*
X121468615Y-102014730D01*
X121690279Y-102131069D01*
X121693100Y-102132011D01*
X121693103Y-102132012D01*
X121744576Y-102149196D01*
X121927734Y-102210343D01*
X122174831Y-102250500D01*
X123360990Y-102250500D01*
X123362481Y-102250500D01*
X123549527Y-102235400D01*
X123792591Y-102175490D01*
X124022897Y-102077366D01*
X124234481Y-101943568D01*
X124421862Y-101777563D01*
X124580188Y-101583650D01*
X124705357Y-101366850D01*
X124794128Y-101132780D01*
X124844202Y-100887500D01*
X124854282Y-100637365D01*
X124850959Y-100610001D01*
X130244196Y-100610001D01*
X130265281Y-100743127D01*
X130326472Y-100863221D01*
X130421780Y-100958529D01*
X130541874Y-101019720D01*
X130675000Y-101040805D01*
X130808126Y-101019720D01*
X130928220Y-100958529D01*
X131023528Y-100863221D01*
X131084719Y-100743127D01*
X131105804Y-100610001D01*
X131093997Y-100535457D01*
X131101151Y-100490289D01*
X131133490Y-100457950D01*
X131178661Y-100450795D01*
X131305000Y-100470805D01*
X131438126Y-100449720D01*
X131558220Y-100388529D01*
X131653528Y-100293221D01*
X131714719Y-100173127D01*
X131735804Y-100040001D01*
X131714719Y-99906875D01*
X131653528Y-99786781D01*
X131558220Y-99691473D01*
X131438126Y-99630282D01*
X131432372Y-99629370D01*
X131432370Y-99629370D01*
X131310752Y-99610108D01*
X131305000Y-99609197D01*
X131299248Y-99610108D01*
X131177629Y-99629370D01*
X131177625Y-99629370D01*
X131171874Y-99630282D01*
X131166682Y-99632927D01*
X131166680Y-99632928D01*
X131056972Y-99688827D01*
X131056969Y-99688828D01*
X131051780Y-99691473D01*
X131047663Y-99695589D01*
X131047660Y-99695592D01*
X130960591Y-99782661D01*
X130960588Y-99782664D01*
X130956472Y-99786781D01*
X130953827Y-99791970D01*
X130953826Y-99791973D01*
X130897927Y-99901681D01*
X130895281Y-99906875D01*
X130894369Y-99912626D01*
X130894369Y-99912630D01*
X130875690Y-100030567D01*
X130874196Y-100040001D01*
X130875107Y-100045753D01*
X130886002Y-100114541D01*
X130878848Y-100159712D01*
X130846509Y-100192051D01*
X130801337Y-100199206D01*
X130680752Y-100180108D01*
X130675000Y-100179197D01*
X130669248Y-100180108D01*
X130547629Y-100199370D01*
X130547625Y-100199370D01*
X130541874Y-100200282D01*
X130536682Y-100202927D01*
X130536680Y-100202928D01*
X130426972Y-100258827D01*
X130426969Y-100258828D01*
X130421780Y-100261473D01*
X130417663Y-100265589D01*
X130417660Y-100265592D01*
X130330591Y-100352661D01*
X130330588Y-100352664D01*
X130326472Y-100356781D01*
X130323827Y-100361970D01*
X130323826Y-100361973D01*
X130267927Y-100471681D01*
X130265281Y-100476875D01*
X130264369Y-100482626D01*
X130264369Y-100482630D01*
X130256002Y-100535461D01*
X130244196Y-100610001D01*
X124850959Y-100610001D01*
X124826416Y-100407876D01*
X124830218Y-100373986D01*
X125218186Y-99292062D01*
X125235513Y-99264720D01*
X125350233Y-99150000D01*
X134799196Y-99150000D01*
X134820281Y-99283126D01*
X134881472Y-99403220D01*
X134976780Y-99498528D01*
X135096874Y-99559719D01*
X135230000Y-99580804D01*
X135363126Y-99559719D01*
X135483220Y-99498528D01*
X135578528Y-99403220D01*
X135639719Y-99283126D01*
X135660804Y-99150000D01*
X135639719Y-99016874D01*
X135578528Y-98896780D01*
X135483220Y-98801472D01*
X135363126Y-98740281D01*
X135357372Y-98739369D01*
X135357370Y-98739369D01*
X135235752Y-98720107D01*
X135230000Y-98719196D01*
X135224248Y-98720107D01*
X135102629Y-98739369D01*
X135102625Y-98739369D01*
X135096874Y-98740281D01*
X135091682Y-98742926D01*
X135091680Y-98742927D01*
X134981972Y-98798826D01*
X134981969Y-98798827D01*
X134976780Y-98801472D01*
X134972663Y-98805588D01*
X134972660Y-98805591D01*
X134885591Y-98892660D01*
X134885588Y-98892663D01*
X134881472Y-98896780D01*
X134878827Y-98901969D01*
X134878826Y-98901972D01*
X134849142Y-98960231D01*
X134820281Y-99016874D01*
X134819369Y-99022625D01*
X134819369Y-99022629D01*
X134803100Y-99125352D01*
X134799196Y-99150000D01*
X125350233Y-99150000D01*
X126156165Y-98344069D01*
X126181945Y-98318291D01*
X126181944Y-98318290D01*
X126209782Y-98290453D01*
X126209817Y-98290405D01*
X126209870Y-98290348D01*
X126290341Y-98209881D01*
X126481511Y-97970167D01*
X126644639Y-97710555D01*
X126777674Y-97434310D01*
X126878942Y-97144907D01*
X126947170Y-96845986D01*
X126981500Y-96541305D01*
X126981500Y-96388000D01*
X126981500Y-96315086D01*
X126981500Y-96070000D01*
X128089196Y-96070000D01*
X128090107Y-96075752D01*
X128108490Y-96191822D01*
X128110281Y-96203126D01*
X128112927Y-96208319D01*
X128167327Y-96315086D01*
X128171472Y-96323220D01*
X128266780Y-96418528D01*
X128386874Y-96479719D01*
X128520000Y-96500804D01*
X128653126Y-96479719D01*
X128773220Y-96418528D01*
X128804302Y-96387444D01*
X128810766Y-96382067D01*
X128810604Y-96381865D01*
X128810604Y-96381864D01*
X128815852Y-96377643D01*
X128836980Y-96354840D01*
X128838883Y-96352863D01*
X128868528Y-96323220D01*
X128880159Y-96300391D01*
X128885066Y-96292136D01*
X128960196Y-96182634D01*
X128986734Y-96159025D01*
X129021215Y-96150500D01*
X131632238Y-96150500D01*
X131682967Y-96150500D01*
X131683000Y-96150504D01*
X131683000Y-96150509D01*
X131799566Y-96150508D01*
X132031231Y-96124406D01*
X132258517Y-96072528D01*
X132478565Y-95995528D01*
X132688609Y-95894375D01*
X132886005Y-95770340D01*
X133068273Y-95624983D01*
X133150697Y-95542558D01*
X133167900Y-95525355D01*
X133235798Y-95457456D01*
X133235802Y-95457454D01*
X135120268Y-93572985D01*
X135134004Y-93562171D01*
X135434741Y-93378428D01*
X135440991Y-93372892D01*
X135456460Y-93362353D01*
X135503220Y-93338528D01*
X135598528Y-93243220D01*
X135659719Y-93123126D01*
X135680804Y-92990000D01*
X135659719Y-92856874D01*
X135598528Y-92736780D01*
X135503220Y-92641472D01*
X135383126Y-92580281D01*
X135377372Y-92579369D01*
X135377370Y-92579369D01*
X135255752Y-92560107D01*
X135250000Y-92559196D01*
X135244248Y-92560107D01*
X135122629Y-92579369D01*
X135122625Y-92579369D01*
X135116874Y-92580281D01*
X135111682Y-92582926D01*
X135111680Y-92582927D01*
X135001972Y-92638826D01*
X135001969Y-92638827D01*
X134996780Y-92641472D01*
X134992663Y-92645588D01*
X134992660Y-92645591D01*
X134905588Y-92732663D01*
X134905585Y-92732666D01*
X134901472Y-92736780D01*
X134898830Y-92741964D01*
X134898830Y-92741965D01*
X134877648Y-92783535D01*
X134867117Y-92798994D01*
X134863740Y-92802807D01*
X134863736Y-92802812D01*
X134861572Y-92805256D01*
X134859871Y-92808039D01*
X134859868Y-92808044D01*
X134677832Y-93105986D01*
X134667011Y-93119731D01*
X132782546Y-95004198D01*
X132733330Y-95053413D01*
X132733328Y-95053415D01*
X132699146Y-95087596D01*
X132695613Y-95090905D01*
X132559991Y-95209845D01*
X132552312Y-95215737D01*
X132404348Y-95314606D01*
X132395965Y-95319446D01*
X132236364Y-95398154D01*
X132227421Y-95401859D01*
X132058900Y-95459065D01*
X132049550Y-95461570D01*
X131875017Y-95496287D01*
X131865420Y-95497551D01*
X131690854Y-95508994D01*
X131687440Y-95509218D01*
X131685548Y-95509342D01*
X131680708Y-95509500D01*
X128777212Y-95509500D01*
X128770763Y-95509218D01*
X128738087Y-95506359D01*
X128738084Y-95506359D01*
X128731635Y-95505795D01*
X128725380Y-95507470D01*
X128725378Y-95507471D01*
X128693686Y-95515962D01*
X128687387Y-95517358D01*
X128655067Y-95523057D01*
X128655057Y-95523060D01*
X128648692Y-95524183D01*
X128643089Y-95527417D01*
X128637788Y-95529347D01*
X128633827Y-95530987D01*
X128628710Y-95533373D01*
X128622461Y-95535048D01*
X128617162Y-95538757D01*
X128617156Y-95538761D01*
X128590280Y-95557580D01*
X128584838Y-95561047D01*
X128556418Y-95577455D01*
X128556411Y-95577460D01*
X128550809Y-95580695D01*
X128546648Y-95585652D01*
X128546645Y-95585656D01*
X128536528Y-95597713D01*
X128504186Y-95620026D01*
X128390103Y-95659769D01*
X128390094Y-95659745D01*
X128390042Y-95659778D01*
X128386874Y-95660281D01*
X128383067Y-95662220D01*
X128380903Y-95662973D01*
X128380901Y-95662974D01*
X128380309Y-95663181D01*
X128377945Y-95664005D01*
X128375726Y-95665133D01*
X128375712Y-95665140D01*
X128335204Y-95685752D01*
X128328475Y-95689176D01*
X128326409Y-95690607D01*
X128324265Y-95691888D01*
X128324204Y-95691786D01*
X128319340Y-95694690D01*
X128292183Y-95708528D01*
X128266780Y-95721472D01*
X128262666Y-95725585D01*
X128262663Y-95725588D01*
X128175591Y-95812660D01*
X128175588Y-95812663D01*
X128171472Y-95816780D01*
X128168827Y-95821969D01*
X128168826Y-95821972D01*
X128112927Y-95931680D01*
X128110281Y-95936874D01*
X128109369Y-95942625D01*
X128109369Y-95942629D01*
X128090107Y-96064248D01*
X128089196Y-96070000D01*
X126981500Y-96070000D01*
X126981500Y-95831909D01*
X126981728Y-95826103D01*
X126984598Y-95789639D01*
X126996031Y-95644353D01*
X126997846Y-95632895D01*
X127039726Y-95458455D01*
X127043307Y-95447434D01*
X127111962Y-95281685D01*
X127117233Y-95271343D01*
X127127347Y-95254839D01*
X127210965Y-95118387D01*
X127217779Y-95109007D01*
X127336202Y-94970353D01*
X127340136Y-94966099D01*
X127389628Y-94916608D01*
X127389627Y-94916608D01*
X128909254Y-93396980D01*
X128930425Y-93375810D01*
X128933930Y-93372528D01*
X129085152Y-93239911D01*
X129092813Y-93234032D01*
X129258034Y-93123635D01*
X129266408Y-93118800D01*
X129444622Y-93030916D01*
X129453549Y-93027219D01*
X129641712Y-92963348D01*
X129651042Y-92960848D01*
X129845920Y-92922087D01*
X129855512Y-92920824D01*
X130056426Y-92907657D01*
X130061263Y-92907500D01*
X130131537Y-92907501D01*
X130131541Y-92907500D01*
X132863086Y-92907500D01*
X132935955Y-92907500D01*
X132936000Y-92907506D01*
X132936000Y-92907512D01*
X133075838Y-92907512D01*
X133077917Y-92907512D01*
X133359965Y-92875732D01*
X133636682Y-92812572D01*
X133904587Y-92718826D01*
X134160312Y-92595673D01*
X134400639Y-92444662D01*
X134622546Y-92267692D01*
X134722895Y-92167340D01*
X134727999Y-92162236D01*
X137706942Y-89183293D01*
X137720074Y-89170161D01*
X137724318Y-89166238D01*
X137869903Y-89041897D01*
X137879274Y-89035087D01*
X138040039Y-88936571D01*
X138050375Y-88931306D01*
X138224551Y-88859160D01*
X138235576Y-88855578D01*
X138418897Y-88811568D01*
X138430355Y-88809752D01*
X138621273Y-88794727D01*
X138627079Y-88794500D01*
X138697021Y-88794500D01*
X141379135Y-88794500D01*
X141413759Y-88803100D01*
X142201613Y-89220199D01*
X142204216Y-89221577D01*
X142207006Y-89222526D01*
X142207008Y-89222527D01*
X142213211Y-89224638D01*
X142217693Y-89226326D01*
X142223708Y-89228817D01*
X142229769Y-89232867D01*
X142236918Y-89234288D01*
X142236919Y-89234289D01*
X142243355Y-89235569D01*
X142252763Y-89238093D01*
X142265809Y-89242532D01*
X142273019Y-89243762D01*
X142282418Y-89243855D01*
X142285983Y-89244048D01*
X142288252Y-89244500D01*
X144024108Y-89244500D01*
X144027748Y-89244500D01*
X144086231Y-89232867D01*
X144152552Y-89188552D01*
X144196867Y-89122231D01*
X144208500Y-89063748D01*
X144208500Y-87324252D01*
X144196867Y-87265769D01*
X144152552Y-87199448D01*
X144086231Y-87155133D01*
X144079080Y-87153710D01*
X144079079Y-87153710D01*
X144031318Y-87144210D01*
X144031316Y-87144209D01*
X144027748Y-87143500D01*
X142288252Y-87143500D01*
X142285998Y-87143948D01*
X142282449Y-87144140D01*
X142275977Y-87144204D01*
X142275968Y-87144204D01*
X142273037Y-87144234D01*
X142270140Y-87144727D01*
X142270139Y-87144728D01*
X142268730Y-87144968D01*
X142268725Y-87144969D01*
X142265829Y-87145463D01*
X142263052Y-87146407D01*
X142263034Y-87146412D01*
X142252758Y-87149907D01*
X142243380Y-87152423D01*
X142236918Y-87153709D01*
X142236910Y-87153712D01*
X142229769Y-87155133D01*
X142223712Y-87159178D01*
X142217691Y-87161673D01*
X142213211Y-87163361D01*
X142207005Y-87165472D01*
X142206996Y-87165475D01*
X142204218Y-87166421D01*
X142201627Y-87167792D01*
X142201617Y-87167797D01*
X141413759Y-87584900D01*
X141379135Y-87593500D01*
X138584749Y-87593500D01*
X138584723Y-87593503D01*
X138584673Y-87593505D01*
X138485030Y-87593505D01*
X138482976Y-87593736D01*
X138482965Y-87593737D01*
X138210661Y-87624417D01*
X138210658Y-87624417D01*
X138208612Y-87624648D01*
X138206603Y-87625106D01*
X138206600Y-87625107D01*
X137939441Y-87686083D01*
X137939432Y-87686085D01*
X137937419Y-87686545D01*
X137935463Y-87687229D01*
X137935454Y-87687232D01*
X137676836Y-87777725D01*
X137676821Y-87777730D01*
X137674861Y-87778417D01*
X137672992Y-87779316D01*
X137672980Y-87779322D01*
X137426107Y-87898210D01*
X137426101Y-87898212D01*
X137424241Y-87899109D01*
X137422501Y-87900201D01*
X137422487Y-87900210D01*
X137190465Y-88045998D01*
X137190449Y-88046009D01*
X137188710Y-88047102D01*
X137187096Y-88048388D01*
X137187089Y-88048394D01*
X136972848Y-88219245D01*
X136972840Y-88219251D01*
X136971230Y-88220536D01*
X136969774Y-88221991D01*
X136969765Y-88222000D01*
X136900715Y-88291050D01*
X136872882Y-88318882D01*
X136852997Y-88338768D01*
X136852996Y-88338769D01*
X133925206Y-91266557D01*
X133925205Y-91266558D01*
X133925206Y-91266558D01*
X133925204Y-91266560D01*
X133889673Y-91302092D01*
X133875367Y-91316398D01*
X133871833Y-91319708D01*
X133746882Y-91429289D01*
X133739203Y-91435181D01*
X133603050Y-91526158D01*
X133594667Y-91530998D01*
X133447806Y-91603423D01*
X133438863Y-91607128D01*
X133283794Y-91659768D01*
X133274444Y-91662273D01*
X133113843Y-91694219D01*
X133104247Y-91695483D01*
X132953652Y-91705354D01*
X132938592Y-91706342D01*
X132933754Y-91706500D01*
X130019271Y-91706500D01*
X130019209Y-91706507D01*
X130019066Y-91706512D01*
X129923190Y-91706512D01*
X129923189Y-91706512D01*
X129921374Y-91706512D01*
X129919584Y-91706688D01*
X129919569Y-91706689D01*
X129649977Y-91733238D01*
X129649973Y-91733238D01*
X129648161Y-91733417D01*
X129646366Y-91733773D01*
X129646366Y-91733774D01*
X129380676Y-91786619D01*
X129380657Y-91786623D01*
X129378901Y-91786973D01*
X129377185Y-91787493D01*
X129377171Y-91787497D01*
X129117923Y-91866137D01*
X129117915Y-91866139D01*
X129116187Y-91866664D01*
X129114522Y-91867353D01*
X129114507Y-91867359D01*
X128864229Y-91971026D01*
X128864219Y-91971030D01*
X128862550Y-91971722D01*
X128860959Y-91972572D01*
X128860945Y-91972579D01*
X128622035Y-92100277D01*
X128622024Y-92100283D01*
X128620431Y-92101135D01*
X128618934Y-92102134D01*
X128618921Y-92102143D01*
X128420987Y-92234399D01*
X128392164Y-92253658D01*
X128390762Y-92254807D01*
X128390760Y-92254810D01*
X128181350Y-92426666D01*
X128181338Y-92426676D01*
X128179945Y-92427820D01*
X128178669Y-92429095D01*
X128178659Y-92429105D01*
X128110716Y-92497049D01*
X128110715Y-92497050D01*
X128082882Y-92524882D01*
X128069423Y-92538342D01*
X128069421Y-92538344D01*
X126394271Y-94213493D01*
X126394262Y-94213502D01*
X126392800Y-94214965D01*
X126391502Y-94216591D01*
X126391498Y-94216597D01*
X126226078Y-94424027D01*
X126223441Y-94427334D01*
X126222340Y-94429085D01*
X126222333Y-94429096D01*
X126080026Y-94655575D01*
X126080017Y-94655589D01*
X126078925Y-94657329D01*
X126078028Y-94659189D01*
X126078026Y-94659195D01*
X125961969Y-94900190D01*
X125961965Y-94900198D01*
X125961070Y-94902058D01*
X125960387Y-94904009D01*
X125960384Y-94904017D01*
X125872042Y-95156482D01*
X125872037Y-95156496D01*
X125871356Y-95158445D01*
X125870895Y-95160463D01*
X125870894Y-95160468D01*
X125811371Y-95421253D01*
X125811368Y-95421270D01*
X125810913Y-95423264D01*
X125810682Y-95425310D01*
X125810682Y-95425313D01*
X125780732Y-95691120D01*
X125780731Y-95691131D01*
X125780500Y-95693185D01*
X125780500Y-95695265D01*
X125780500Y-96385571D01*
X125780342Y-96390411D01*
X125767737Y-96582714D01*
X125766473Y-96592311D01*
X125729352Y-96778928D01*
X125726847Y-96788278D01*
X125665681Y-96968466D01*
X125661976Y-96977409D01*
X125577819Y-97148060D01*
X125572979Y-97156443D01*
X125467264Y-97314652D01*
X125461372Y-97322331D01*
X125334209Y-97467330D01*
X125330899Y-97470863D01*
X125281161Y-97520602D01*
X125281161Y-97520603D01*
X125281159Y-97520605D01*
X124380720Y-98421043D01*
X124358138Y-98436476D01*
X122748039Y-99143259D01*
X122718295Y-99149500D01*
X122237519Y-99149500D01*
X122236033Y-99149619D01*
X122236032Y-99149620D01*
X122053444Y-99164360D01*
X122053442Y-99164360D01*
X122050473Y-99164600D01*
X122047582Y-99165312D01*
X122047579Y-99165313D01*
X121810303Y-99223796D01*
X121810295Y-99223798D01*
X121807409Y-99224510D01*
X121804669Y-99225677D01*
X121804667Y-99225678D01*
X121579849Y-99321463D01*
X121579838Y-99321468D01*
X121577103Y-99322634D01*
X121574589Y-99324223D01*
X121574579Y-99324229D01*
X121368037Y-99454839D01*
X121368031Y-99454843D01*
X121365519Y-99456432D01*
X121363297Y-99458400D01*
X121363287Y-99458408D01*
X121180371Y-99620458D01*
X121180366Y-99620462D01*
X121178138Y-99622437D01*
X121176257Y-99624740D01*
X121176250Y-99624748D01*
X121021694Y-99814044D01*
X121021689Y-99814050D01*
X121019812Y-99816350D01*
X121018326Y-99818922D01*
X121018323Y-99818928D01*
X120896134Y-100030567D01*
X120894643Y-100033150D01*
X120893586Y-100035936D01*
X120893585Y-100035939D01*
X120806928Y-100264434D01*
X120806926Y-100264440D01*
X120805872Y-100267220D01*
X120805279Y-100270124D01*
X120805276Y-100270135D01*
X120768395Y-100450795D01*
X120755798Y-100512500D01*
X120755678Y-100515468D01*
X120755677Y-100515480D01*
X120750766Y-100637365D01*
X120745718Y-100762635D01*
X112254500Y-100762635D01*
X112254500Y-96562635D01*
X120745718Y-96562635D01*
X120775893Y-96811149D01*
X120776723Y-96814017D01*
X120776725Y-96814023D01*
X120811930Y-96935565D01*
X120845541Y-97051604D01*
X120846817Y-97054293D01*
X120846820Y-97054301D01*
X120898902Y-97164060D01*
X120952859Y-97277772D01*
X120981101Y-97318687D01*
X121084880Y-97469038D01*
X121095068Y-97483797D01*
X121268484Y-97664341D01*
X121270865Y-97666130D01*
X121270866Y-97666131D01*
X121329983Y-97710555D01*
X121468615Y-97814730D01*
X121690279Y-97931069D01*
X121693100Y-97932011D01*
X121693103Y-97932012D01*
X121758183Y-97953738D01*
X121927734Y-98010343D01*
X122174831Y-98050500D01*
X123360990Y-98050500D01*
X123362481Y-98050500D01*
X123549527Y-98035400D01*
X123792591Y-97975490D01*
X124022897Y-97877366D01*
X124234481Y-97743568D01*
X124421862Y-97577563D01*
X124580188Y-97383650D01*
X124705357Y-97166850D01*
X124794128Y-96932780D01*
X124844202Y-96687500D01*
X124851762Y-96499893D01*
X124854162Y-96440345D01*
X124854161Y-96440343D01*
X124854282Y-96437365D01*
X124824107Y-96188851D01*
X124754459Y-95948396D01*
X124749212Y-95937339D01*
X124728303Y-95893273D01*
X124647141Y-95722228D01*
X124504932Y-95516203D01*
X124331516Y-95335659D01*
X124329133Y-95333868D01*
X124133765Y-95187058D01*
X124133761Y-95187055D01*
X124131385Y-95185270D01*
X124128753Y-95183889D01*
X124128749Y-95183886D01*
X123912356Y-95070314D01*
X123909721Y-95068931D01*
X123906905Y-95067991D01*
X123906896Y-95067987D01*
X123675094Y-94990601D01*
X123675092Y-94990600D01*
X123672266Y-94989657D01*
X123669328Y-94989179D01*
X123669322Y-94989178D01*
X123428108Y-94949977D01*
X123428100Y-94949976D01*
X123425169Y-94949500D01*
X122237519Y-94949500D01*
X122236033Y-94949619D01*
X122236032Y-94949620D01*
X122053444Y-94964360D01*
X122053442Y-94964360D01*
X122050473Y-94964600D01*
X122047582Y-94965312D01*
X122047579Y-94965313D01*
X121810303Y-95023796D01*
X121810295Y-95023798D01*
X121807409Y-95024510D01*
X121804669Y-95025677D01*
X121804667Y-95025678D01*
X121579849Y-95121463D01*
X121579838Y-95121468D01*
X121577103Y-95122634D01*
X121574589Y-95124223D01*
X121574579Y-95124229D01*
X121368037Y-95254839D01*
X121368031Y-95254843D01*
X121365519Y-95256432D01*
X121363297Y-95258400D01*
X121363287Y-95258408D01*
X121180371Y-95420458D01*
X121180366Y-95420462D01*
X121178138Y-95422437D01*
X121176257Y-95424740D01*
X121176250Y-95424748D01*
X121021694Y-95614044D01*
X121021689Y-95614050D01*
X121019812Y-95616350D01*
X121018326Y-95618922D01*
X121018323Y-95618928D01*
X120897039Y-95829000D01*
X120894643Y-95833150D01*
X120893586Y-95835936D01*
X120893585Y-95835939D01*
X120806928Y-96064434D01*
X120806926Y-96064440D01*
X120805872Y-96067220D01*
X120805279Y-96070124D01*
X120805276Y-96070135D01*
X120759145Y-96296104D01*
X120755798Y-96312500D01*
X120755678Y-96315468D01*
X120755677Y-96315480D01*
X120746494Y-96543367D01*
X120745718Y-96562635D01*
X112254500Y-96562635D01*
X112254500Y-92362635D01*
X115245718Y-92362635D01*
X115246077Y-92365599D01*
X115246078Y-92365600D01*
X115273879Y-92594567D01*
X115275893Y-92611149D01*
X115276723Y-92614017D01*
X115276725Y-92614023D01*
X115344710Y-92848736D01*
X115345541Y-92851604D01*
X115346817Y-92854293D01*
X115346820Y-92854301D01*
X115398902Y-92964060D01*
X115452859Y-93077772D01*
X115595068Y-93283797D01*
X115768484Y-93464341D01*
X115770865Y-93466130D01*
X115770866Y-93466131D01*
X115902372Y-93564952D01*
X115968615Y-93614730D01*
X116190279Y-93731069D01*
X116193100Y-93732011D01*
X116193103Y-93732012D01*
X116213613Y-93738859D01*
X116427734Y-93810343D01*
X116674831Y-93850500D01*
X117860990Y-93850500D01*
X117862481Y-93850500D01*
X118049527Y-93835400D01*
X118292591Y-93775490D01*
X118522897Y-93677366D01*
X118734481Y-93543568D01*
X118921862Y-93377563D01*
X119080188Y-93183650D01*
X119205357Y-92966850D01*
X119294128Y-92732780D01*
X119327173Y-92570910D01*
X119335623Y-92548661D01*
X119443255Y-92362635D01*
X120745718Y-92362635D01*
X120746077Y-92365599D01*
X120746078Y-92365600D01*
X120773879Y-92594567D01*
X120775893Y-92611149D01*
X120776723Y-92614017D01*
X120776725Y-92614023D01*
X120844710Y-92848736D01*
X120845541Y-92851604D01*
X120846817Y-92854293D01*
X120846820Y-92854301D01*
X120898902Y-92964060D01*
X120952859Y-93077772D01*
X121095068Y-93283797D01*
X121268484Y-93464341D01*
X121270865Y-93466130D01*
X121270866Y-93466131D01*
X121402372Y-93564952D01*
X121468615Y-93614730D01*
X121690279Y-93731069D01*
X121693100Y-93732011D01*
X121693103Y-93732012D01*
X121713613Y-93738859D01*
X121927734Y-93810343D01*
X122174831Y-93850500D01*
X123360990Y-93850500D01*
X123362481Y-93850500D01*
X123549527Y-93835400D01*
X123792591Y-93775490D01*
X124022897Y-93677366D01*
X124234481Y-93543568D01*
X124421862Y-93377563D01*
X124580188Y-93183650D01*
X124705357Y-92966850D01*
X124794128Y-92732780D01*
X124844202Y-92487500D01*
X124854282Y-92237365D01*
X124824107Y-91988851D01*
X124754459Y-91748396D01*
X124748104Y-91735004D01*
X124724750Y-91685785D01*
X124647141Y-91522228D01*
X124504932Y-91316203D01*
X124331516Y-91135659D01*
X124329133Y-91133868D01*
X124133765Y-90987058D01*
X124133761Y-90987055D01*
X124131385Y-90985270D01*
X124128753Y-90983889D01*
X124128749Y-90983886D01*
X123912356Y-90870314D01*
X123909721Y-90868931D01*
X123906905Y-90867991D01*
X123906896Y-90867987D01*
X123838041Y-90845000D01*
X129474353Y-90845000D01*
X129475106Y-90850237D01*
X129485346Y-90921463D01*
X129494835Y-90987457D01*
X129554623Y-91118373D01*
X129558084Y-91122368D01*
X129558086Y-91122370D01*
X129627969Y-91203020D01*
X129648872Y-91227143D01*
X129769947Y-91304953D01*
X129775020Y-91306442D01*
X129775021Y-91306443D01*
X129814783Y-91318118D01*
X129908039Y-91345500D01*
X129958036Y-91345500D01*
X129966559Y-91346242D01*
X129966577Y-91346070D01*
X129973311Y-91346748D01*
X129998476Y-91345579D01*
X130001907Y-91345500D01*
X130046665Y-91345500D01*
X130051961Y-91345500D01*
X130101508Y-91330951D01*
X130108132Y-91329334D01*
X130598050Y-91233529D01*
X130598972Y-91233176D01*
X130618017Y-91230500D01*
X132066739Y-91230500D01*
X132083323Y-91233079D01*
X132083469Y-91232442D01*
X132425039Y-91310230D01*
X132431469Y-91312004D01*
X132431680Y-91312072D01*
X132436874Y-91314719D01*
X132570000Y-91335804D01*
X132703126Y-91314719D01*
X132823220Y-91253528D01*
X132918528Y-91158220D01*
X132979719Y-91038126D01*
X133000804Y-90905000D01*
X132979719Y-90771874D01*
X132918528Y-90651780D01*
X132823220Y-90556472D01*
X132703126Y-90495281D01*
X132697372Y-90494369D01*
X132697370Y-90494369D01*
X132575752Y-90475107D01*
X132570000Y-90474196D01*
X132564248Y-90475107D01*
X132442622Y-90494370D01*
X132442618Y-90494371D01*
X132436874Y-90495281D01*
X132431692Y-90497920D01*
X132431451Y-90497999D01*
X132425024Y-90499771D01*
X132083469Y-90577557D01*
X132083325Y-90576926D01*
X132066735Y-90579500D01*
X130639005Y-90579500D01*
X130608733Y-90573025D01*
X130192799Y-90386560D01*
X130192797Y-90386559D01*
X130191509Y-90385982D01*
X130190053Y-90385047D01*
X130184990Y-90383560D01*
X130184985Y-90383558D01*
X130057037Y-90345990D01*
X130057034Y-90345989D01*
X130051961Y-90344500D01*
X129908039Y-90344500D01*
X129902966Y-90345989D01*
X129902962Y-90345990D01*
X129775021Y-90383556D01*
X129775013Y-90383559D01*
X129769947Y-90385047D01*
X129765498Y-90387905D01*
X129765496Y-90387907D01*
X129653324Y-90459995D01*
X129653320Y-90459998D01*
X129648872Y-90462857D01*
X129645409Y-90466852D01*
X129645406Y-90466856D01*
X129558086Y-90567629D01*
X129558082Y-90567634D01*
X129554623Y-90571627D01*
X129552427Y-90576435D01*
X129552426Y-90576437D01*
X129514136Y-90660281D01*
X129494835Y-90702543D01*
X129494082Y-90707778D01*
X129494081Y-90707783D01*
X129484867Y-90771874D01*
X129474353Y-90845000D01*
X123838041Y-90845000D01*
X123675094Y-90790601D01*
X123675092Y-90790600D01*
X123672266Y-90789657D01*
X123669328Y-90789179D01*
X123669322Y-90789178D01*
X123428108Y-90749977D01*
X123428100Y-90749976D01*
X123425169Y-90749500D01*
X122237519Y-90749500D01*
X122236033Y-90749619D01*
X122236032Y-90749620D01*
X122053444Y-90764360D01*
X122053442Y-90764360D01*
X122050473Y-90764600D01*
X122047582Y-90765312D01*
X122047579Y-90765313D01*
X121810303Y-90823796D01*
X121810295Y-90823798D01*
X121807409Y-90824510D01*
X121804669Y-90825677D01*
X121804667Y-90825678D01*
X121579849Y-90921463D01*
X121579838Y-90921468D01*
X121577103Y-90922634D01*
X121574589Y-90924223D01*
X121574579Y-90924229D01*
X121368037Y-91054839D01*
X121368031Y-91054843D01*
X121365519Y-91056432D01*
X121363297Y-91058400D01*
X121363287Y-91058408D01*
X121180371Y-91220458D01*
X121180366Y-91220462D01*
X121178138Y-91222437D01*
X121176257Y-91224740D01*
X121176250Y-91224748D01*
X121021694Y-91414044D01*
X121021689Y-91414050D01*
X121019812Y-91416350D01*
X121018326Y-91418922D01*
X121018323Y-91418928D01*
X120900287Y-91623374D01*
X120894643Y-91633150D01*
X120893586Y-91635936D01*
X120893585Y-91635939D01*
X120806928Y-91864434D01*
X120806926Y-91864440D01*
X120805872Y-91867220D01*
X120805279Y-91870124D01*
X120805276Y-91870135D01*
X120762556Y-92079396D01*
X120755798Y-92112500D01*
X120755678Y-92115468D01*
X120755677Y-92115480D01*
X120750063Y-92254810D01*
X120745718Y-92362635D01*
X119443255Y-92362635D01*
X120041816Y-91328114D01*
X120053536Y-91312855D01*
X120202724Y-91163668D01*
X120202736Y-91163649D01*
X120202747Y-91163637D01*
X120273991Y-91092396D01*
X120438981Y-90885507D01*
X120579770Y-90661445D01*
X120649658Y-90516320D01*
X120676961Y-90485770D01*
X120716331Y-90474428D01*
X120966359Y-90474428D01*
X120969999Y-90474428D01*
X121048230Y-90458867D01*
X121078889Y-90438380D01*
X121119999Y-90425910D01*
X121161108Y-90438380D01*
X121191768Y-90458867D01*
X121269999Y-90474428D01*
X121839241Y-90474428D01*
X121841888Y-90474428D01*
X121899482Y-90466147D01*
X122037437Y-90425640D01*
X122090365Y-90401469D01*
X122211319Y-90323737D01*
X122255294Y-90285632D01*
X122349448Y-90176971D01*
X122380905Y-90128023D01*
X122440633Y-89997238D01*
X122457026Y-89941408D01*
X122477488Y-89799093D01*
X122477488Y-89740907D01*
X122475180Y-89724855D01*
X122474427Y-89714323D01*
X122474427Y-89325677D01*
X122475180Y-89315145D01*
X122475204Y-89314971D01*
X122477488Y-89299093D01*
X122477488Y-89240907D01*
X122457026Y-89098592D01*
X122440633Y-89042762D01*
X122380905Y-88911977D01*
X122349448Y-88863029D01*
X122255294Y-88754368D01*
X122211319Y-88716263D01*
X122204491Y-88711875D01*
X122179552Y-88685089D01*
X122170499Y-88649623D01*
X122170499Y-87157908D01*
X122170500Y-87157905D01*
X122170499Y-87103226D01*
X122170727Y-87097423D01*
X122180871Y-86968482D01*
X122182684Y-86957036D01*
X122212198Y-86834088D01*
X122215781Y-86823063D01*
X122264161Y-86706261D01*
X122269424Y-86695931D01*
X122335483Y-86588130D01*
X122342302Y-86578744D01*
X122426197Y-86480515D01*
X122430116Y-86476275D01*
X122666142Y-86240249D01*
X122670383Y-86236329D01*
X122785054Y-86138390D01*
X122794424Y-86131581D01*
X122920509Y-86054317D01*
X122930838Y-86049054D01*
X123067447Y-85992469D01*
X123078471Y-85988887D01*
X123222236Y-85954373D01*
X123233696Y-85952557D01*
X123384002Y-85940727D01*
X123389808Y-85940500D01*
X124042895Y-85940500D01*
X124061419Y-85942856D01*
X124062921Y-85943244D01*
X124065991Y-85944333D01*
X124580882Y-86030148D01*
X124589565Y-86032139D01*
X124618039Y-86040500D01*
X124644722Y-86040500D01*
X124646255Y-86040515D01*
X124701774Y-86041667D01*
X124706617Y-86041064D01*
X124715745Y-86040500D01*
X124756669Y-86040500D01*
X124761961Y-86040500D01*
X124900053Y-85999953D01*
X125021128Y-85922143D01*
X125115377Y-85813373D01*
X125175165Y-85682457D01*
X125191370Y-85569748D01*
X142109500Y-85569748D01*
X142121133Y-85628231D01*
X142153864Y-85677216D01*
X142160583Y-85687272D01*
X142165448Y-85694552D01*
X142231769Y-85738867D01*
X142290252Y-85750500D01*
X144026108Y-85750500D01*
X144029748Y-85750500D01*
X144088231Y-85738867D01*
X144154552Y-85694552D01*
X144198867Y-85628231D01*
X144210500Y-85569748D01*
X144210500Y-83830252D01*
X144198867Y-83771769D01*
X144154552Y-83705448D01*
X144088231Y-83661133D01*
X144081080Y-83659710D01*
X144081079Y-83659710D01*
X144033318Y-83650210D01*
X144033316Y-83650209D01*
X144029748Y-83649500D01*
X142290252Y-83649500D01*
X142286684Y-83650209D01*
X142286681Y-83650210D01*
X142238920Y-83659710D01*
X142238917Y-83659711D01*
X142231769Y-83661133D01*
X142225706Y-83665183D01*
X142225706Y-83665184D01*
X142171508Y-83701398D01*
X142171505Y-83701400D01*
X142165448Y-83705448D01*
X142161400Y-83711505D01*
X142161398Y-83711508D01*
X142125184Y-83765706D01*
X142121133Y-83771769D01*
X142119711Y-83778917D01*
X142119710Y-83778920D01*
X142110210Y-83826681D01*
X142109500Y-83830252D01*
X142109500Y-85569748D01*
X125191370Y-85569748D01*
X125195647Y-85540000D01*
X125175165Y-85397543D01*
X125115377Y-85266627D01*
X125086400Y-85233186D01*
X125032166Y-85170596D01*
X125021128Y-85157857D01*
X124900053Y-85080047D01*
X124894983Y-85078558D01*
X124894978Y-85078556D01*
X124767037Y-85040990D01*
X124767034Y-85040989D01*
X124761961Y-85039500D01*
X124756669Y-85039500D01*
X124715754Y-85039500D01*
X124706622Y-85038934D01*
X124705987Y-85038855D01*
X124704445Y-85038663D01*
X124704440Y-85038662D01*
X124701789Y-85038333D01*
X124699117Y-85038388D01*
X124699111Y-85038388D01*
X124646214Y-85039484D01*
X124644682Y-85039500D01*
X124618039Y-85039500D01*
X124612965Y-85040989D01*
X124612963Y-85040990D01*
X124589560Y-85047861D01*
X124580881Y-85049850D01*
X124069202Y-85135132D01*
X124069200Y-85135132D01*
X124065993Y-85135667D01*
X124062925Y-85136754D01*
X124061421Y-85137144D01*
X124042897Y-85139500D01*
X123444481Y-85139500D01*
X123386897Y-85139500D01*
X123267779Y-85139500D01*
X123265385Y-85139815D01*
X123265372Y-85139816D01*
X123033978Y-85170280D01*
X123033973Y-85170280D01*
X123031580Y-85170596D01*
X123029243Y-85171222D01*
X123029239Y-85171223D01*
X122803809Y-85231627D01*
X122803797Y-85231631D01*
X122801461Y-85232257D01*
X122799223Y-85233183D01*
X122799217Y-85233186D01*
X122583598Y-85322498D01*
X122583590Y-85322501D01*
X122581359Y-85323426D01*
X122579264Y-85324635D01*
X122579259Y-85324638D01*
X122377138Y-85441332D01*
X122377125Y-85441340D01*
X122375039Y-85442545D01*
X122373121Y-85444016D01*
X122373113Y-85444022D01*
X122187962Y-85586093D01*
X122187954Y-85586099D01*
X122186033Y-85587574D01*
X122184323Y-85589283D01*
X122184315Y-85589291D01*
X122124088Y-85649519D01*
X121861836Y-85911769D01*
X121861798Y-85911798D01*
X121861794Y-85911794D01*
X121861763Y-85911824D01*
X121861759Y-85911828D01*
X121785610Y-85987978D01*
X121785603Y-85987985D01*
X121783893Y-85989696D01*
X121782418Y-85991617D01*
X121782412Y-85991625D01*
X121651234Y-86162581D01*
X121651227Y-86162591D01*
X121649761Y-86164502D01*
X121648552Y-86166595D01*
X121648550Y-86166599D01*
X121540809Y-86353216D01*
X121540803Y-86353226D01*
X121539594Y-86355322D01*
X121538669Y-86357552D01*
X121538663Y-86357567D01*
X121456202Y-86556651D01*
X121456199Y-86556658D01*
X121455276Y-86558888D01*
X121454650Y-86561222D01*
X121454650Y-86561224D01*
X121398879Y-86769376D01*
X121398876Y-86769387D01*
X121398252Y-86771719D01*
X121369497Y-86990173D01*
X121369497Y-86992601D01*
X121369497Y-86992602D01*
X121369499Y-87100322D01*
X121369499Y-88491572D01*
X121359585Y-88528572D01*
X121332499Y-88555658D01*
X121295499Y-88565572D01*
X121269999Y-88565572D01*
X121266431Y-88566281D01*
X121266428Y-88566282D01*
X121198919Y-88579710D01*
X121198916Y-88579711D01*
X121191768Y-88581133D01*
X121185707Y-88585182D01*
X121185704Y-88585184D01*
X121161112Y-88601617D01*
X121119999Y-88614089D01*
X121078886Y-88601617D01*
X121054293Y-88585184D01*
X121054292Y-88585183D01*
X121048230Y-88581133D01*
X121041079Y-88579710D01*
X121041078Y-88579710D01*
X120973569Y-88566282D01*
X120973567Y-88566281D01*
X120969999Y-88565572D01*
X120398110Y-88565572D01*
X120395498Y-88565947D01*
X120395491Y-88565948D01*
X120343126Y-88573477D01*
X120343116Y-88573479D01*
X120340516Y-88573853D01*
X120337997Y-88574592D01*
X120337986Y-88574595D01*
X120205089Y-88613617D01*
X120205079Y-88613620D01*
X120202561Y-88614360D01*
X120200173Y-88615450D01*
X120200161Y-88615455D01*
X120152044Y-88637429D01*
X120152033Y-88637434D01*
X120149633Y-88638531D01*
X120147414Y-88639956D01*
X120147403Y-88639963D01*
X120030906Y-88714831D01*
X120030898Y-88714836D01*
X120028679Y-88716263D01*
X120026683Y-88717992D01*
X120026677Y-88717997D01*
X119986704Y-88752634D01*
X119986696Y-88752641D01*
X119984704Y-88754368D01*
X119982977Y-88756360D01*
X119982971Y-88756367D01*
X119892277Y-88861035D01*
X119892272Y-88861041D01*
X119890550Y-88863029D01*
X119889129Y-88865239D01*
X119889123Y-88865248D01*
X119860518Y-88909758D01*
X119860511Y-88909769D01*
X119859093Y-88911977D01*
X119858002Y-88914364D01*
X119857998Y-88914373D01*
X119800460Y-89040362D01*
X119800455Y-89040374D01*
X119799365Y-89042762D01*
X119782972Y-89098592D01*
X119782598Y-89101189D01*
X119782596Y-89101201D01*
X119762886Y-89238286D01*
X119762885Y-89238297D01*
X119762510Y-89240907D01*
X119762510Y-89299093D01*
X119762885Y-89301705D01*
X119762886Y-89301711D01*
X119764818Y-89315145D01*
X119765571Y-89325677D01*
X119765571Y-89714323D01*
X119764818Y-89724855D01*
X119762886Y-89738288D01*
X119762885Y-89738295D01*
X119762510Y-89740907D01*
X119762510Y-89799093D01*
X119762885Y-89801703D01*
X119762886Y-89801713D01*
X119782596Y-89938798D01*
X119782598Y-89938807D01*
X119782972Y-89941408D01*
X119799365Y-89997238D01*
X119800457Y-89999629D01*
X119800460Y-89999637D01*
X119857998Y-90125626D01*
X119859093Y-90128023D01*
X119860515Y-90130236D01*
X119860518Y-90130241D01*
X119884931Y-90168228D01*
X119896560Y-90204055D01*
X119889046Y-90240965D01*
X119863308Y-90293156D01*
X119858469Y-90301538D01*
X119750854Y-90462596D01*
X119744961Y-90470276D01*
X119615583Y-90617800D01*
X119612273Y-90621334D01*
X119573326Y-90660281D01*
X119532044Y-90701562D01*
X119508457Y-90717427D01*
X119480629Y-90723229D01*
X117761429Y-90744377D01*
X117761417Y-90744378D01*
X117758574Y-90744413D01*
X117755763Y-90744885D01*
X117755761Y-90744886D01*
X117734426Y-90748475D01*
X117722151Y-90749500D01*
X116737519Y-90749500D01*
X116736033Y-90749619D01*
X116736032Y-90749620D01*
X116553444Y-90764360D01*
X116553442Y-90764360D01*
X116550473Y-90764600D01*
X116547582Y-90765312D01*
X116547579Y-90765313D01*
X116310303Y-90823796D01*
X116310295Y-90823798D01*
X116307409Y-90824510D01*
X116304669Y-90825677D01*
X116304667Y-90825678D01*
X116079849Y-90921463D01*
X116079838Y-90921468D01*
X116077103Y-90922634D01*
X116074589Y-90924223D01*
X116074579Y-90924229D01*
X115868037Y-91054839D01*
X115868031Y-91054843D01*
X115865519Y-91056432D01*
X115863297Y-91058400D01*
X115863287Y-91058408D01*
X115680371Y-91220458D01*
X115680366Y-91220462D01*
X115678138Y-91222437D01*
X115676257Y-91224740D01*
X115676250Y-91224748D01*
X115521694Y-91414044D01*
X115521689Y-91414050D01*
X115519812Y-91416350D01*
X115518326Y-91418922D01*
X115518323Y-91418928D01*
X115400287Y-91623374D01*
X115394643Y-91633150D01*
X115393586Y-91635936D01*
X115393585Y-91635939D01*
X115306928Y-91864434D01*
X115306926Y-91864440D01*
X115305872Y-91867220D01*
X115305279Y-91870124D01*
X115305276Y-91870135D01*
X115262556Y-92079396D01*
X115255798Y-92112500D01*
X115255678Y-92115468D01*
X115255677Y-92115480D01*
X115250063Y-92254810D01*
X115245718Y-92362635D01*
X112254500Y-92362635D01*
X112254500Y-86002083D01*
X112254616Y-85997934D01*
X112259097Y-85918143D01*
X112271530Y-85696735D01*
X112272460Y-85688497D01*
X112272461Y-85688491D01*
X112322640Y-85393156D01*
X112324479Y-85385096D01*
X112407422Y-85097196D01*
X112410152Y-85089393D01*
X112524804Y-84812600D01*
X112528392Y-84805148D01*
X112669408Y-84550000D01*
X134679196Y-84550000D01*
X134700281Y-84683126D01*
X134761472Y-84803220D01*
X134856780Y-84898528D01*
X134976874Y-84959719D01*
X135110000Y-84980804D01*
X135243126Y-84959719D01*
X135363220Y-84898528D01*
X135458528Y-84803220D01*
X135519719Y-84683126D01*
X135540804Y-84550000D01*
X135519719Y-84416874D01*
X135458528Y-84296780D01*
X135363220Y-84201472D01*
X135243126Y-84140281D01*
X135237372Y-84139369D01*
X135237370Y-84139369D01*
X135115752Y-84120107D01*
X135110000Y-84119196D01*
X135104248Y-84120107D01*
X134982629Y-84139369D01*
X134982625Y-84139369D01*
X134976874Y-84140281D01*
X134971682Y-84142926D01*
X134971680Y-84142927D01*
X134861972Y-84198826D01*
X134861969Y-84198827D01*
X134856780Y-84201472D01*
X134852663Y-84205588D01*
X134852660Y-84205591D01*
X134765591Y-84292660D01*
X134765588Y-84292663D01*
X134761472Y-84296780D01*
X134758827Y-84301969D01*
X134758826Y-84301972D01*
X134702927Y-84411680D01*
X134700281Y-84416874D01*
X134699369Y-84422625D01*
X134699369Y-84422629D01*
X134683875Y-84520460D01*
X134679196Y-84550000D01*
X112669408Y-84550000D01*
X112673320Y-84542921D01*
X112677706Y-84535941D01*
X112851096Y-84291571D01*
X112856228Y-84285135D01*
X113055881Y-84061722D01*
X113061722Y-84055881D01*
X113285135Y-83856228D01*
X113291571Y-83851096D01*
X113535941Y-83677706D01*
X113542921Y-83673320D01*
X113805148Y-83528392D01*
X113812600Y-83524804D01*
X114089393Y-83410152D01*
X114097196Y-83407422D01*
X114385096Y-83324479D01*
X114393156Y-83322640D01*
X114688505Y-83272459D01*
X114696735Y-83271530D01*
X114997934Y-83254615D01*
X115002083Y-83254500D01*
X115044875Y-83254500D01*
X144490337Y-83254500D01*
X144527310Y-83264398D01*
G37*
%TD.AperFunction*%
%TD*%
%TA.AperFunction,Conductor*%
%TO.N,GND1*%
G36*
X166002065Y-83254615D02*
G01*
X166303262Y-83271530D01*
X166311496Y-83272459D01*
X166606839Y-83322639D01*
X166614907Y-83324480D01*
X166902798Y-83407420D01*
X166910611Y-83410154D01*
X167048592Y-83467308D01*
X167187394Y-83524802D01*
X167194857Y-83528396D01*
X167457070Y-83673316D01*
X167464066Y-83677711D01*
X167708419Y-83851090D01*
X167714873Y-83856236D01*
X167938268Y-84055873D01*
X167944126Y-84061731D01*
X168143761Y-84285124D01*
X168148911Y-84291582D01*
X168322285Y-84535929D01*
X168326686Y-84542934D01*
X168471597Y-84805129D01*
X168475197Y-84812605D01*
X168589841Y-85089378D01*
X168592582Y-85097211D01*
X168675516Y-85385081D01*
X168677362Y-85393172D01*
X168727539Y-85688497D01*
X168728469Y-85696743D01*
X168745384Y-85997934D01*
X168745500Y-86002083D01*
X168745500Y-106997917D01*
X168745384Y-107002066D01*
X168728469Y-107303256D01*
X168727539Y-107311502D01*
X168677362Y-107606827D01*
X168675516Y-107614918D01*
X168592582Y-107902788D01*
X168589841Y-107910621D01*
X168475197Y-108187394D01*
X168471597Y-108194870D01*
X168326693Y-108457054D01*
X168322279Y-108464078D01*
X168148917Y-108708408D01*
X168143754Y-108714883D01*
X168090067Y-108774960D01*
X167944131Y-108938263D01*
X167938263Y-108944131D01*
X167714883Y-109143754D01*
X167708408Y-109148917D01*
X167464081Y-109322278D01*
X167457054Y-109326693D01*
X167194870Y-109471597D01*
X167187394Y-109475197D01*
X166910621Y-109589841D01*
X166902788Y-109592582D01*
X166614918Y-109675516D01*
X166606827Y-109677362D01*
X166311502Y-109727539D01*
X166303256Y-109728469D01*
X166002066Y-109745384D01*
X165997917Y-109745500D01*
X147674000Y-109745500D01*
X147637000Y-109735586D01*
X147609914Y-109708500D01*
X147600000Y-109671500D01*
X147600000Y-106140000D01*
X151239196Y-106140000D01*
X151240107Y-106145752D01*
X151257012Y-106252491D01*
X151260281Y-106273126D01*
X151321472Y-106393220D01*
X151416780Y-106488528D01*
X151421966Y-106491170D01*
X151421967Y-106491171D01*
X151461695Y-106511414D01*
X151477787Y-106522510D01*
X151482804Y-106527057D01*
X151779793Y-106713867D01*
X151782491Y-106715564D01*
X151782141Y-106716119D01*
X151795694Y-106726020D01*
X152149971Y-107080298D01*
X152149991Y-107080312D01*
X152150026Y-107080344D01*
X152187855Y-107118173D01*
X152320605Y-107214623D01*
X152466808Y-107289119D01*
X152622865Y-107339827D01*
X152784933Y-107365499D01*
X152838505Y-107365499D01*
X152838507Y-107365499D01*
X152838509Y-107365500D01*
X152838513Y-107365500D01*
X152866977Y-107365500D01*
X152918531Y-107365501D01*
X152918534Y-107365500D01*
X154431260Y-107365500D01*
X154453403Y-107368890D01*
X154903518Y-107510053D01*
X154915659Y-107511505D01*
X154927708Y-107513976D01*
X155018039Y-107540500D01*
X155156669Y-107540500D01*
X155161961Y-107540500D01*
X155300053Y-107499953D01*
X155421128Y-107422143D01*
X155515377Y-107313373D01*
X155575165Y-107182457D01*
X155595647Y-107040000D01*
X155575165Y-106897543D01*
X155515377Y-106766627D01*
X155421128Y-106657857D01*
X155300053Y-106580047D01*
X155294983Y-106578558D01*
X155294978Y-106578556D01*
X155167037Y-106540990D01*
X155167034Y-106540989D01*
X155161961Y-106539500D01*
X155018039Y-106539500D01*
X155012966Y-106540989D01*
X155012962Y-106540990D01*
X154927714Y-106566021D01*
X154915656Y-106568494D01*
X154906921Y-106569538D01*
X154906911Y-106569540D01*
X154903518Y-106569946D01*
X154900255Y-106570969D01*
X154900247Y-106570971D01*
X154453403Y-106711109D01*
X154431259Y-106714500D01*
X152871845Y-106714500D01*
X152862184Y-106713867D01*
X152775324Y-106702429D01*
X152756666Y-106697429D01*
X152680248Y-106665775D01*
X152663518Y-106656116D01*
X152593976Y-106602754D01*
X152586699Y-106596372D01*
X152256021Y-106265695D01*
X152246119Y-106252141D01*
X152245564Y-106252491D01*
X152057057Y-105952804D01*
X152052510Y-105947786D01*
X152041414Y-105931695D01*
X152021171Y-105891967D01*
X152021170Y-105891966D01*
X152018528Y-105886780D01*
X151923220Y-105791472D01*
X151803126Y-105730281D01*
X151797372Y-105729369D01*
X151797370Y-105729369D01*
X151675752Y-105710107D01*
X151670000Y-105709196D01*
X151664248Y-105710107D01*
X151542629Y-105729369D01*
X151542625Y-105729369D01*
X151536874Y-105730281D01*
X151531682Y-105732926D01*
X151531680Y-105732927D01*
X151421972Y-105788826D01*
X151421969Y-105788827D01*
X151416780Y-105791472D01*
X151412663Y-105795588D01*
X151412660Y-105795591D01*
X151325591Y-105882660D01*
X151325588Y-105882663D01*
X151321472Y-105886780D01*
X151318827Y-105891969D01*
X151318826Y-105891972D01*
X151262927Y-106001680D01*
X151260281Y-106006874D01*
X151259369Y-106012625D01*
X151259369Y-106012629D01*
X151240107Y-106134248D01*
X151239196Y-106140000D01*
X147600000Y-106140000D01*
X147600000Y-104670000D01*
X149009196Y-104670000D01*
X149030281Y-104803126D01*
X149091472Y-104923220D01*
X149186780Y-105018528D01*
X149306874Y-105079719D01*
X149440000Y-105100804D01*
X149573126Y-105079719D01*
X149693220Y-105018528D01*
X149788528Y-104923220D01*
X149849719Y-104803126D01*
X149870804Y-104670000D01*
X149849719Y-104536874D01*
X149788528Y-104416780D01*
X149693220Y-104321472D01*
X149573126Y-104260281D01*
X149567372Y-104259369D01*
X149567370Y-104259369D01*
X149445752Y-104240107D01*
X149440000Y-104239196D01*
X149434248Y-104240107D01*
X149312629Y-104259369D01*
X149312625Y-104259369D01*
X149306874Y-104260281D01*
X149301682Y-104262926D01*
X149301680Y-104262927D01*
X149191972Y-104318826D01*
X149191969Y-104318827D01*
X149186780Y-104321472D01*
X149182663Y-104325588D01*
X149182660Y-104325591D01*
X149095591Y-104412660D01*
X149095588Y-104412663D01*
X149091472Y-104416780D01*
X149088827Y-104421969D01*
X149088826Y-104421972D01*
X149032927Y-104531680D01*
X149030281Y-104536874D01*
X149029369Y-104542625D01*
X149029369Y-104542629D01*
X149010107Y-104664248D01*
X149009196Y-104670000D01*
X147600000Y-104670000D01*
X147600000Y-100762635D01*
X156145718Y-100762635D01*
X156146077Y-100765599D01*
X156146078Y-100765600D01*
X156154077Y-100831482D01*
X156175893Y-101011149D01*
X156176723Y-101014017D01*
X156176725Y-101014023D01*
X156211930Y-101135565D01*
X156245541Y-101251604D01*
X156246817Y-101254293D01*
X156246820Y-101254301D01*
X156288808Y-101342788D01*
X156352859Y-101477772D01*
X156495068Y-101683797D01*
X156668484Y-101864341D01*
X156868615Y-102014730D01*
X157090279Y-102131069D01*
X157093100Y-102132011D01*
X157093103Y-102132012D01*
X157158070Y-102153701D01*
X157327734Y-102210343D01*
X157574831Y-102250500D01*
X158760990Y-102250500D01*
X158762481Y-102250500D01*
X158949527Y-102235400D01*
X159192591Y-102175490D01*
X159422897Y-102077366D01*
X159634481Y-101943568D01*
X159821862Y-101777563D01*
X159980188Y-101583650D01*
X160105357Y-101366850D01*
X160194128Y-101132780D01*
X160244202Y-100887500D01*
X160254282Y-100637365D01*
X160224107Y-100388851D01*
X160154459Y-100148396D01*
X160047141Y-99922228D01*
X159904932Y-99716203D01*
X159731516Y-99535659D01*
X159660889Y-99482586D01*
X159533765Y-99387058D01*
X159533761Y-99387055D01*
X159531385Y-99385270D01*
X159528753Y-99383889D01*
X159528749Y-99383886D01*
X159312356Y-99270314D01*
X159309721Y-99268931D01*
X159306905Y-99267991D01*
X159306896Y-99267987D01*
X159075094Y-99190601D01*
X159075092Y-99190600D01*
X159072266Y-99189657D01*
X159069328Y-99189179D01*
X159069322Y-99189178D01*
X158828108Y-99149977D01*
X158828100Y-99149976D01*
X158825169Y-99149500D01*
X157637519Y-99149500D01*
X157636033Y-99149619D01*
X157636032Y-99149620D01*
X157453444Y-99164360D01*
X157453442Y-99164360D01*
X157450473Y-99164600D01*
X157447582Y-99165312D01*
X157447579Y-99165313D01*
X157210303Y-99223796D01*
X157210295Y-99223798D01*
X157207409Y-99224510D01*
X157204669Y-99225677D01*
X157204667Y-99225678D01*
X156979849Y-99321463D01*
X156979838Y-99321468D01*
X156977103Y-99322634D01*
X156974589Y-99324223D01*
X156974579Y-99324229D01*
X156768037Y-99454839D01*
X156768031Y-99454843D01*
X156765519Y-99456432D01*
X156763297Y-99458400D01*
X156763287Y-99458408D01*
X156580371Y-99620458D01*
X156580366Y-99620462D01*
X156578138Y-99622437D01*
X156576257Y-99624740D01*
X156576250Y-99624748D01*
X156421694Y-99814044D01*
X156421689Y-99814050D01*
X156419812Y-99816350D01*
X156418326Y-99818922D01*
X156418323Y-99818928D01*
X156341851Y-99951383D01*
X156294643Y-100033150D01*
X156293586Y-100035936D01*
X156293585Y-100035939D01*
X156206928Y-100264434D01*
X156206926Y-100264440D01*
X156205872Y-100267220D01*
X156205279Y-100270124D01*
X156205276Y-100270135D01*
X156180434Y-100391822D01*
X156155798Y-100512500D01*
X156155678Y-100515468D01*
X156155677Y-100515480D01*
X156150766Y-100637365D01*
X156145718Y-100762635D01*
X147600000Y-100762635D01*
X147600000Y-96290000D01*
X151109196Y-96290000D01*
X151130281Y-96423126D01*
X151191472Y-96543220D01*
X151286780Y-96638528D01*
X151406874Y-96699719D01*
X151540000Y-96720804D01*
X151673126Y-96699719D01*
X151793220Y-96638528D01*
X151869113Y-96562635D01*
X156145718Y-96562635D01*
X156146077Y-96565599D01*
X156146078Y-96565600D01*
X156164812Y-96719893D01*
X156175893Y-96811149D01*
X156176723Y-96814017D01*
X156176725Y-96814023D01*
X156211930Y-96935565D01*
X156245541Y-97051604D01*
X156246817Y-97054293D01*
X156246820Y-97054301D01*
X156298902Y-97164060D01*
X156352859Y-97277772D01*
X156495068Y-97483797D01*
X156668484Y-97664341D01*
X156868615Y-97814730D01*
X157090279Y-97931069D01*
X157093100Y-97932011D01*
X157093103Y-97932012D01*
X157158183Y-97953738D01*
X157327734Y-98010343D01*
X157574831Y-98050500D01*
X158760990Y-98050500D01*
X158762481Y-98050500D01*
X158949527Y-98035400D01*
X159192591Y-97975490D01*
X159422897Y-97877366D01*
X159634481Y-97743568D01*
X159821862Y-97577563D01*
X159980188Y-97383650D01*
X160105357Y-97166850D01*
X160194128Y-96932780D01*
X160244202Y-96687500D01*
X160250152Y-96539843D01*
X160254162Y-96440345D01*
X160254161Y-96440343D01*
X160254282Y-96437365D01*
X160224107Y-96188851D01*
X160154459Y-95948396D01*
X160144520Y-95927451D01*
X160117613Y-95870744D01*
X160047141Y-95722228D01*
X159904932Y-95516203D01*
X159731516Y-95335659D01*
X159712637Y-95321472D01*
X159533765Y-95187058D01*
X159533761Y-95187055D01*
X159531385Y-95185270D01*
X159528753Y-95183889D01*
X159528749Y-95183886D01*
X159312356Y-95070314D01*
X159309721Y-95068931D01*
X159306905Y-95067991D01*
X159306896Y-95067987D01*
X159075094Y-94990601D01*
X159075092Y-94990600D01*
X159072266Y-94989657D01*
X159069328Y-94989179D01*
X159069322Y-94989178D01*
X158828108Y-94949977D01*
X158828100Y-94949976D01*
X158825169Y-94949500D01*
X157637519Y-94949500D01*
X157636033Y-94949619D01*
X157636032Y-94949620D01*
X157453444Y-94964360D01*
X157453442Y-94964360D01*
X157450473Y-94964600D01*
X157447582Y-94965312D01*
X157447579Y-94965313D01*
X157210303Y-95023796D01*
X157210295Y-95023798D01*
X157207409Y-95024510D01*
X157204669Y-95025677D01*
X157204667Y-95025678D01*
X156979849Y-95121463D01*
X156979838Y-95121468D01*
X156977103Y-95122634D01*
X156974589Y-95124223D01*
X156974579Y-95124229D01*
X156768037Y-95254839D01*
X156768031Y-95254843D01*
X156765519Y-95256432D01*
X156763297Y-95258400D01*
X156763287Y-95258408D01*
X156580371Y-95420458D01*
X156580366Y-95420462D01*
X156578138Y-95422437D01*
X156576257Y-95424740D01*
X156576250Y-95424748D01*
X156421694Y-95614044D01*
X156421689Y-95614050D01*
X156419812Y-95616350D01*
X156418326Y-95618922D01*
X156418323Y-95618928D01*
X156302397Y-95819719D01*
X156294643Y-95833150D01*
X156293586Y-95835936D01*
X156293585Y-95835939D01*
X156206928Y-96064434D01*
X156206926Y-96064440D01*
X156205872Y-96067220D01*
X156205279Y-96070124D01*
X156205276Y-96070135D01*
X156161565Y-96284249D01*
X156155798Y-96312500D01*
X156155678Y-96315468D01*
X156155677Y-96315480D01*
X156146500Y-96543220D01*
X156145718Y-96562635D01*
X151869113Y-96562635D01*
X151888528Y-96543220D01*
X151949719Y-96423126D01*
X151970804Y-96290000D01*
X151952418Y-96173917D01*
X151959572Y-96128749D01*
X151991912Y-96096410D01*
X152037082Y-96089255D01*
X152110000Y-96100804D01*
X152243126Y-96079719D01*
X152363220Y-96018528D01*
X152458528Y-95923220D01*
X152519719Y-95803126D01*
X152540804Y-95670000D01*
X152519719Y-95536874D01*
X152458528Y-95416780D01*
X152363220Y-95321472D01*
X152243126Y-95260281D01*
X152237372Y-95259369D01*
X152237370Y-95259369D01*
X152115752Y-95240107D01*
X152110000Y-95239196D01*
X152104248Y-95240107D01*
X151982629Y-95259369D01*
X151982625Y-95259369D01*
X151976874Y-95260281D01*
X151971682Y-95262926D01*
X151971680Y-95262927D01*
X151861972Y-95318826D01*
X151861969Y-95318827D01*
X151856780Y-95321472D01*
X151852663Y-95325588D01*
X151852660Y-95325591D01*
X151765591Y-95412660D01*
X151765588Y-95412663D01*
X151761472Y-95416780D01*
X151758827Y-95421969D01*
X151758826Y-95421972D01*
X151702927Y-95531680D01*
X151700281Y-95536874D01*
X151699369Y-95542625D01*
X151699369Y-95542629D01*
X151687693Y-95616350D01*
X151679196Y-95670000D01*
X151680107Y-95675752D01*
X151697581Y-95786079D01*
X151690427Y-95831250D01*
X151658088Y-95863589D01*
X151612917Y-95870744D01*
X151545753Y-95860107D01*
X151545752Y-95860107D01*
X151540000Y-95859196D01*
X151534248Y-95860107D01*
X151412629Y-95879369D01*
X151412625Y-95879369D01*
X151406874Y-95880281D01*
X151401682Y-95882926D01*
X151401680Y-95882927D01*
X151291972Y-95938826D01*
X151291969Y-95938827D01*
X151286780Y-95941472D01*
X151282663Y-95945588D01*
X151282660Y-95945591D01*
X151195591Y-96032660D01*
X151195588Y-96032663D01*
X151191472Y-96036780D01*
X151188827Y-96041969D01*
X151188826Y-96041972D01*
X151159314Y-96099893D01*
X151130281Y-96156874D01*
X151129369Y-96162625D01*
X151129369Y-96162629D01*
X151110107Y-96284248D01*
X151109196Y-96290000D01*
X147600000Y-96290000D01*
X147600000Y-94800000D01*
X149839196Y-94800000D01*
X149860281Y-94933126D01*
X149862927Y-94938319D01*
X149906843Y-95024510D01*
X149921472Y-95053220D01*
X150016780Y-95148528D01*
X150136874Y-95209719D01*
X150270000Y-95230804D01*
X150392579Y-95211389D01*
X150437749Y-95218543D01*
X150470088Y-95250883D01*
X150477243Y-95296054D01*
X150459196Y-95410000D01*
X150460107Y-95415752D01*
X150479290Y-95536874D01*
X150480281Y-95543126D01*
X150541472Y-95663220D01*
X150636780Y-95758528D01*
X150756874Y-95819719D01*
X150890000Y-95840804D01*
X151023126Y-95819719D01*
X151143220Y-95758528D01*
X151238528Y-95663220D01*
X151299719Y-95543126D01*
X151320804Y-95410000D01*
X151299719Y-95276874D01*
X151238528Y-95156780D01*
X151143220Y-95061472D01*
X151023126Y-95000281D01*
X151017372Y-94999369D01*
X151017370Y-94999369D01*
X150895752Y-94980107D01*
X150890000Y-94979196D01*
X150884248Y-94980107D01*
X150767421Y-94998610D01*
X150722249Y-94991455D01*
X150689910Y-94959116D01*
X150682756Y-94913947D01*
X150700804Y-94800000D01*
X150679719Y-94666874D01*
X150618528Y-94546780D01*
X150523220Y-94451472D01*
X150403126Y-94390281D01*
X150397372Y-94389369D01*
X150397370Y-94389369D01*
X150275752Y-94370107D01*
X150270000Y-94369196D01*
X150264248Y-94370107D01*
X150142629Y-94389369D01*
X150142625Y-94389369D01*
X150136874Y-94390281D01*
X150131682Y-94392926D01*
X150131680Y-94392927D01*
X150021972Y-94448826D01*
X150021969Y-94448827D01*
X150016780Y-94451472D01*
X150012663Y-94455588D01*
X150012660Y-94455591D01*
X149925591Y-94542660D01*
X149925588Y-94542663D01*
X149921472Y-94546780D01*
X149918827Y-94551969D01*
X149918826Y-94551972D01*
X149862927Y-94661680D01*
X149860281Y-94666874D01*
X149859369Y-94672625D01*
X149859369Y-94672629D01*
X149840107Y-94794248D01*
X149839196Y-94800000D01*
X147600000Y-94800000D01*
X147600000Y-90500000D01*
X151584196Y-90500000D01*
X151585107Y-90505752D01*
X151593735Y-90560231D01*
X151605281Y-90633126D01*
X151666472Y-90753220D01*
X151761780Y-90848528D01*
X151881874Y-90909719D01*
X152015000Y-90930804D01*
X152148126Y-90909719D01*
X152268220Y-90848528D01*
X152363528Y-90753220D01*
X152424719Y-90633126D01*
X152445804Y-90500000D01*
X152424719Y-90366874D01*
X152363528Y-90246780D01*
X152268220Y-90151472D01*
X152148126Y-90090281D01*
X152142372Y-90089369D01*
X152142370Y-90089369D01*
X152020752Y-90070107D01*
X152015000Y-90069196D01*
X152009248Y-90070107D01*
X151887629Y-90089369D01*
X151887625Y-90089369D01*
X151881874Y-90090281D01*
X151876682Y-90092926D01*
X151876680Y-90092927D01*
X151766972Y-90148826D01*
X151766969Y-90148827D01*
X151761780Y-90151472D01*
X151757663Y-90155588D01*
X151757660Y-90155591D01*
X151670591Y-90242660D01*
X151670588Y-90242663D01*
X151666472Y-90246780D01*
X151663827Y-90251969D01*
X151663826Y-90251972D01*
X151617123Y-90343632D01*
X151605281Y-90366874D01*
X151604369Y-90372625D01*
X151604369Y-90372629D01*
X151590299Y-90461469D01*
X151584196Y-90500000D01*
X147600000Y-90500000D01*
X147600000Y-89061748D01*
X147990500Y-89061748D01*
X147991209Y-89065316D01*
X147991210Y-89065318D01*
X147998180Y-89100362D01*
X148002133Y-89120231D01*
X148046448Y-89186552D01*
X148112769Y-89230867D01*
X148171252Y-89242500D01*
X149907107Y-89242500D01*
X149910748Y-89242500D01*
X149913013Y-89242048D01*
X149916576Y-89241855D01*
X149925980Y-89241762D01*
X149933190Y-89240532D01*
X149946240Y-89236091D01*
X149955640Y-89233570D01*
X149955910Y-89233516D01*
X149969231Y-89230867D01*
X149975296Y-89226813D01*
X149981299Y-89224327D01*
X149985760Y-89222646D01*
X149994783Y-89219577D01*
X150530461Y-88935983D01*
X150785241Y-88801100D01*
X150819865Y-88792500D01*
X152099062Y-88792500D01*
X152169548Y-88792500D01*
X152174387Y-88792658D01*
X152415863Y-88808482D01*
X152425459Y-88809746D01*
X152660411Y-88856478D01*
X152669749Y-88858980D01*
X152896600Y-88935984D01*
X152905540Y-88939687D01*
X153120393Y-89045640D01*
X153128776Y-89050480D01*
X153327958Y-89183568D01*
X153335637Y-89189461D01*
X153517407Y-89348868D01*
X153520941Y-89352177D01*
X153543630Y-89374865D01*
X155413665Y-91244900D01*
X155424527Y-91259561D01*
X155424742Y-91259422D01*
X156056245Y-92234399D01*
X156137907Y-92360476D01*
X156149257Y-92391785D01*
X156161233Y-92490419D01*
X156175893Y-92611149D01*
X156176723Y-92614017D01*
X156176725Y-92614023D01*
X156211930Y-92735565D01*
X156245541Y-92851604D01*
X156246817Y-92854293D01*
X156246820Y-92854301D01*
X156288808Y-92942788D01*
X156352859Y-93077772D01*
X156495068Y-93283797D01*
X156668484Y-93464341D01*
X156868615Y-93614730D01*
X157090279Y-93731069D01*
X157093100Y-93732011D01*
X157093103Y-93732012D01*
X157158070Y-93753701D01*
X157327734Y-93810343D01*
X157574831Y-93850500D01*
X158760990Y-93850500D01*
X158762481Y-93850500D01*
X158949527Y-93835400D01*
X159192591Y-93775490D01*
X159422897Y-93677366D01*
X159634481Y-93543568D01*
X159821862Y-93377563D01*
X159980188Y-93183650D01*
X160105357Y-92966850D01*
X160194128Y-92732780D01*
X160244202Y-92487500D01*
X160254282Y-92237365D01*
X160224107Y-91988851D01*
X160154459Y-91748396D01*
X160047141Y-91522228D01*
X159904932Y-91316203D01*
X159731516Y-91135659D01*
X159564633Y-91010254D01*
X159533765Y-90987058D01*
X159533761Y-90987055D01*
X159531385Y-90985270D01*
X159528753Y-90983889D01*
X159528749Y-90983886D01*
X159312356Y-90870314D01*
X159309721Y-90868931D01*
X159306905Y-90867991D01*
X159306896Y-90867987D01*
X159075094Y-90790601D01*
X159075092Y-90790600D01*
X159072266Y-90789657D01*
X159069328Y-90789179D01*
X159069322Y-90789178D01*
X158828108Y-90749977D01*
X158828100Y-90749976D01*
X158825169Y-90749500D01*
X158822190Y-90749500D01*
X157973265Y-90749500D01*
X157956359Y-90747097D01*
X157956290Y-90747425D01*
X156272506Y-90388423D01*
X156235611Y-90368376D01*
X154390907Y-88523672D01*
X154368650Y-88501414D01*
X154368622Y-88501377D01*
X154368627Y-88501373D01*
X154260712Y-88393458D01*
X154024765Y-88199823D01*
X153770975Y-88030247D01*
X153702117Y-87993442D01*
X153667552Y-87974966D01*
X153501786Y-87886363D01*
X153492643Y-87882576D01*
X153221468Y-87770254D01*
X153221460Y-87770251D01*
X153219789Y-87769559D01*
X153218052Y-87769032D01*
X152929431Y-87681482D01*
X152929422Y-87681479D01*
X152927702Y-87680958D01*
X152925935Y-87680606D01*
X152925925Y-87680604D01*
X152630130Y-87621769D01*
X152630113Y-87621766D01*
X152628336Y-87621413D01*
X152626520Y-87621234D01*
X152626519Y-87621234D01*
X152326379Y-87591676D01*
X152326365Y-87591675D01*
X152324575Y-87591499D01*
X152322760Y-87591499D01*
X152171960Y-87591500D01*
X150819865Y-87591500D01*
X150785241Y-87582900D01*
X150679652Y-87527000D01*
X155260196Y-87527000D01*
X155261107Y-87532751D01*
X155261107Y-87532752D01*
X155280369Y-87654372D01*
X155280370Y-87654375D01*
X155281281Y-87660126D01*
X155283924Y-87665313D01*
X155283926Y-87665319D01*
X155294795Y-87686651D01*
X155302227Y-87710585D01*
X155311149Y-87778350D01*
X155315150Y-87808736D01*
X155315776Y-87811075D01*
X155315777Y-87811076D01*
X155363413Y-87988851D01*
X155363415Y-87988858D01*
X155364043Y-87991200D01*
X155364967Y-87993432D01*
X155364971Y-87993442D01*
X155435409Y-88163489D01*
X155436334Y-88165722D01*
X155437540Y-88167810D01*
X155529577Y-88327221D01*
X155529581Y-88327227D01*
X155530786Y-88329314D01*
X155645784Y-88479178D01*
X155647494Y-88480888D01*
X155647495Y-88480889D01*
X155690275Y-88523667D01*
X155690279Y-88523672D01*
X156755087Y-89588479D01*
X156795774Y-89629166D01*
X156795800Y-89629199D01*
X156795796Y-89629204D01*
X156862546Y-89695954D01*
X156864897Y-89697662D01*
X157012941Y-89805221D01*
X157012944Y-89805223D01*
X157015287Y-89806925D01*
X157017869Y-89808240D01*
X157017873Y-89808243D01*
X157099397Y-89849780D01*
X157183508Y-89892635D01*
X157363065Y-89950973D01*
X157549539Y-89980503D01*
X157643938Y-89980500D01*
X159130438Y-89980500D01*
X159174785Y-89995260D01*
X159201441Y-90033653D01*
X159207621Y-90054704D01*
X159207625Y-90054716D01*
X159208366Y-90057238D01*
X159209458Y-90059629D01*
X159209461Y-90059637D01*
X159266999Y-90185626D01*
X159268094Y-90188023D01*
X159299551Y-90236971D01*
X159393705Y-90345632D01*
X159437680Y-90383737D01*
X159558634Y-90461469D01*
X159611562Y-90485640D01*
X159749517Y-90526147D01*
X159807111Y-90534428D01*
X159809758Y-90534428D01*
X160365500Y-90534428D01*
X160402500Y-90544342D01*
X160429586Y-90571428D01*
X160439500Y-90608428D01*
X160439500Y-99256988D01*
X160439507Y-99257032D01*
X160439511Y-99257141D01*
X160439510Y-99321463D01*
X160439510Y-99332494D01*
X160439827Y-99334902D01*
X160467130Y-99542323D01*
X160467132Y-99542334D01*
X160467448Y-99544733D01*
X160468073Y-99547067D01*
X160468076Y-99547080D01*
X160522222Y-99749168D01*
X160522224Y-99749175D01*
X160522850Y-99751510D01*
X160523771Y-99753735D01*
X160523775Y-99753745D01*
X160603842Y-99947052D01*
X160603846Y-99947060D01*
X160604768Y-99949286D01*
X160711802Y-100134677D01*
X160842119Y-100304511D01*
X160843836Y-100306228D01*
X160895089Y-100357481D01*
X160906504Y-100372217D01*
X160912459Y-100382317D01*
X160914760Y-100384935D01*
X160914762Y-100384938D01*
X161249295Y-100765600D01*
X161819846Y-101414825D01*
X161831114Y-101431946D01*
X161852859Y-101477772D01*
X161995068Y-101683797D01*
X162168484Y-101864341D01*
X162368615Y-102014730D01*
X162590279Y-102131069D01*
X162593100Y-102132011D01*
X162593103Y-102132012D01*
X162658070Y-102153701D01*
X162827734Y-102210343D01*
X163074831Y-102250500D01*
X164260990Y-102250500D01*
X164262481Y-102250500D01*
X164449527Y-102235400D01*
X164692591Y-102175490D01*
X164922897Y-102077366D01*
X165134481Y-101943568D01*
X165321862Y-101777563D01*
X165480188Y-101583650D01*
X165605357Y-101366850D01*
X165694128Y-101132780D01*
X165744202Y-100887500D01*
X165754282Y-100637365D01*
X165724107Y-100388851D01*
X165654459Y-100148396D01*
X165547141Y-99922228D01*
X165404932Y-99716203D01*
X165231516Y-99535659D01*
X165160889Y-99482586D01*
X165033765Y-99387058D01*
X165033761Y-99387055D01*
X165031385Y-99385270D01*
X165028753Y-99383889D01*
X165028749Y-99383886D01*
X164812356Y-99270314D01*
X164809721Y-99268931D01*
X164806905Y-99267991D01*
X164806896Y-99267987D01*
X164575094Y-99190601D01*
X164575092Y-99190600D01*
X164572266Y-99189657D01*
X164569328Y-99189179D01*
X164569322Y-99189178D01*
X164328108Y-99149977D01*
X164328100Y-99149976D01*
X164325169Y-99149500D01*
X163137519Y-99149500D01*
X163136033Y-99149619D01*
X163136032Y-99149620D01*
X162953444Y-99164360D01*
X162953442Y-99164360D01*
X162950473Y-99164600D01*
X162947582Y-99165312D01*
X162947579Y-99165313D01*
X162710297Y-99223798D01*
X162710295Y-99223798D01*
X162707409Y-99224510D01*
X162704676Y-99225674D01*
X162704665Y-99225678D01*
X162664239Y-99242901D01*
X162653942Y-99246096D01*
X162653998Y-99246290D01*
X162651159Y-99247101D01*
X162648278Y-99247682D01*
X162645529Y-99248710D01*
X162645516Y-99248714D01*
X161456714Y-99693417D01*
X161406701Y-99694078D01*
X161367692Y-99662773D01*
X161334233Y-99608173D01*
X161328961Y-99597826D01*
X161283459Y-99487970D01*
X161279870Y-99476925D01*
X161252113Y-99361296D01*
X161250297Y-99349828D01*
X161240728Y-99228212D01*
X161240500Y-99222406D01*
X161240501Y-99167896D01*
X161240500Y-99167893D01*
X161240500Y-90600043D01*
X161248727Y-90566133D01*
X161271577Y-90539763D01*
X161303971Y-90526796D01*
X161305868Y-90526523D01*
X161305868Y-90526522D01*
X161308483Y-90526147D01*
X161446438Y-90485640D01*
X161499366Y-90461469D01*
X161620320Y-90383737D01*
X161664295Y-90345632D01*
X161758449Y-90236971D01*
X161789906Y-90188023D01*
X161849634Y-90057238D01*
X161866027Y-90001408D01*
X161886489Y-89859093D01*
X161886489Y-89800907D01*
X161884181Y-89784855D01*
X161883428Y-89774323D01*
X161883428Y-89385677D01*
X161884181Y-89375145D01*
X161884221Y-89374865D01*
X161886489Y-89359093D01*
X161886489Y-89300907D01*
X161866027Y-89158592D01*
X161849634Y-89102762D01*
X161789906Y-88971977D01*
X161758449Y-88923029D01*
X161664295Y-88814368D01*
X161620320Y-88776263D01*
X161618092Y-88774831D01*
X161501595Y-88699963D01*
X161501589Y-88699960D01*
X161499366Y-88698531D01*
X161496959Y-88697432D01*
X161496954Y-88697429D01*
X161448837Y-88675455D01*
X161448830Y-88675452D01*
X161446438Y-88674360D01*
X161443914Y-88673618D01*
X161443909Y-88673617D01*
X161311012Y-88634595D01*
X161311004Y-88634593D01*
X161308483Y-88633853D01*
X161305879Y-88633478D01*
X161305872Y-88633477D01*
X161253507Y-88625948D01*
X161253501Y-88625947D01*
X161250889Y-88625572D01*
X160679000Y-88625572D01*
X160675432Y-88626281D01*
X160675429Y-88626282D01*
X160607920Y-88639710D01*
X160607917Y-88639711D01*
X160600769Y-88641133D01*
X160594708Y-88645182D01*
X160594705Y-88645184D01*
X160570113Y-88661617D01*
X160529000Y-88674089D01*
X160487887Y-88661617D01*
X160463294Y-88645184D01*
X160463293Y-88645183D01*
X160457231Y-88641133D01*
X160450080Y-88639710D01*
X160450079Y-88639710D01*
X160382570Y-88626282D01*
X160382568Y-88626281D01*
X160379000Y-88625572D01*
X159807111Y-88625572D01*
X159804499Y-88625947D01*
X159804492Y-88625948D01*
X159752127Y-88633477D01*
X159752117Y-88633479D01*
X159749517Y-88633853D01*
X159746998Y-88634592D01*
X159746987Y-88634595D01*
X159614090Y-88673617D01*
X159614080Y-88673620D01*
X159611562Y-88674360D01*
X159609174Y-88675450D01*
X159609162Y-88675455D01*
X159561045Y-88697429D01*
X159561034Y-88697434D01*
X159558634Y-88698531D01*
X159556415Y-88699956D01*
X159556404Y-88699963D01*
X159439907Y-88774831D01*
X159439899Y-88774836D01*
X159437680Y-88776263D01*
X159435684Y-88777992D01*
X159435678Y-88777997D01*
X159395705Y-88812634D01*
X159395697Y-88812641D01*
X159393705Y-88814368D01*
X159391978Y-88816360D01*
X159391972Y-88816367D01*
X159301278Y-88921035D01*
X159301273Y-88921041D01*
X159299551Y-88923029D01*
X159298130Y-88925239D01*
X159298124Y-88925248D01*
X159269519Y-88969758D01*
X159269512Y-88969769D01*
X159268094Y-88971977D01*
X159267003Y-88974364D01*
X159266999Y-88974373D01*
X159209461Y-89100362D01*
X159209456Y-89100374D01*
X159208366Y-89102762D01*
X159207626Y-89105279D01*
X159207621Y-89105295D01*
X159201941Y-89124642D01*
X159201506Y-89126127D01*
X159201441Y-89126347D01*
X159174785Y-89164740D01*
X159130438Y-89179500D01*
X157701501Y-89179500D01*
X157701498Y-89179499D01*
X157701496Y-89179499D01*
X157701489Y-89179499D01*
X157648759Y-89179499D01*
X157639102Y-89178866D01*
X157550455Y-89167198D01*
X157531795Y-89162199D01*
X157453703Y-89129854D01*
X157436972Y-89120194D01*
X157366099Y-89065811D01*
X157358821Y-89059429D01*
X156281528Y-87982135D01*
X156276652Y-87976755D01*
X156203982Y-87888210D01*
X156195922Y-87876148D01*
X156143647Y-87778350D01*
X156138096Y-87764948D01*
X156114344Y-87686651D01*
X156107566Y-87664309D01*
X156105291Y-87631251D01*
X156106850Y-87621413D01*
X156121804Y-87527000D01*
X156100719Y-87393874D01*
X156039528Y-87273780D01*
X155944220Y-87178472D01*
X155824126Y-87117281D01*
X155818372Y-87116369D01*
X155818370Y-87116369D01*
X155696752Y-87097107D01*
X155691000Y-87096196D01*
X155685248Y-87097107D01*
X155563629Y-87116369D01*
X155563625Y-87116369D01*
X155557874Y-87117281D01*
X155552682Y-87119926D01*
X155552680Y-87119927D01*
X155442972Y-87175826D01*
X155442969Y-87175827D01*
X155437780Y-87178472D01*
X155433663Y-87182588D01*
X155433660Y-87182591D01*
X155346591Y-87269660D01*
X155346588Y-87269663D01*
X155342472Y-87273780D01*
X155339827Y-87278969D01*
X155339826Y-87278972D01*
X155283927Y-87388680D01*
X155281281Y-87393874D01*
X155280369Y-87399625D01*
X155280369Y-87399629D01*
X155261107Y-87521248D01*
X155260196Y-87527000D01*
X150679652Y-87527000D01*
X149997385Y-87165799D01*
X149997378Y-87165796D01*
X149994781Y-87164421D01*
X149991998Y-87163474D01*
X149991986Y-87163469D01*
X149985786Y-87161360D01*
X149981308Y-87159673D01*
X149975286Y-87157178D01*
X149969231Y-87153133D01*
X149962087Y-87151711D01*
X149962085Y-87151711D01*
X149957111Y-87150722D01*
X149955624Y-87150426D01*
X149946236Y-87147907D01*
X149935961Y-87144412D01*
X149935956Y-87144410D01*
X149933170Y-87143463D01*
X149930273Y-87142969D01*
X149930265Y-87142967D01*
X149928862Y-87142728D01*
X149928856Y-87142727D01*
X149925962Y-87142234D01*
X149923022Y-87142204D01*
X149923018Y-87142204D01*
X149916542Y-87142139D01*
X149913001Y-87141947D01*
X149910748Y-87141500D01*
X148171252Y-87141500D01*
X148167684Y-87142209D01*
X148167681Y-87142210D01*
X148119920Y-87151710D01*
X148119917Y-87151711D01*
X148112769Y-87153133D01*
X148106706Y-87157183D01*
X148106706Y-87157184D01*
X148052508Y-87193398D01*
X148052505Y-87193400D01*
X148046448Y-87197448D01*
X148042400Y-87203505D01*
X148042398Y-87203508D01*
X148006184Y-87257706D01*
X148002133Y-87263769D01*
X148000711Y-87270917D01*
X148000710Y-87270920D01*
X147991210Y-87318681D01*
X147990500Y-87322252D01*
X147990500Y-89061748D01*
X147600000Y-89061748D01*
X147600000Y-85579748D01*
X147989500Y-85579748D01*
X148001133Y-85638231D01*
X148045448Y-85704552D01*
X148111769Y-85748867D01*
X148170252Y-85760500D01*
X149906108Y-85760500D01*
X149909748Y-85760500D01*
X149968231Y-85748867D01*
X150034552Y-85704552D01*
X150078867Y-85638231D01*
X150090500Y-85579748D01*
X150090500Y-83840252D01*
X150078867Y-83781769D01*
X150034552Y-83715448D01*
X149968231Y-83671133D01*
X149961080Y-83669710D01*
X149961079Y-83669710D01*
X149913318Y-83660210D01*
X149913316Y-83660209D01*
X149909748Y-83659500D01*
X148170252Y-83659500D01*
X148166684Y-83660209D01*
X148166681Y-83660210D01*
X148118920Y-83669710D01*
X148118917Y-83669711D01*
X148111769Y-83671133D01*
X148105706Y-83675183D01*
X148105706Y-83675184D01*
X148051508Y-83711398D01*
X148051505Y-83711400D01*
X148045448Y-83715448D01*
X148041400Y-83721505D01*
X148041398Y-83721508D01*
X148005184Y-83775706D01*
X148001133Y-83781769D01*
X147999711Y-83788917D01*
X147999710Y-83788920D01*
X147990210Y-83836681D01*
X147989500Y-83840252D01*
X147989500Y-85579748D01*
X147600000Y-85579748D01*
X147600000Y-83328500D01*
X147609914Y-83291500D01*
X147637000Y-83264414D01*
X147674000Y-83254500D01*
X165955125Y-83254500D01*
X165997917Y-83254500D01*
X166002065Y-83254615D01*
G37*
%TD.AperFunction*%
%TD*%
%TA.AperFunction,Conductor*%
%TO.N,/Vref2*%
G36*
X154973449Y-106766585D02*
G01*
X154979309Y-106772682D01*
X155089115Y-107035489D01*
X155090019Y-107040000D01*
X155089115Y-107044511D01*
X154979309Y-107307317D01*
X154973449Y-107313414D01*
X154965012Y-107313970D01*
X154498199Y-107167571D01*
X154492270Y-107163333D01*
X154490000Y-107156407D01*
X154490000Y-106923593D01*
X154492270Y-106916667D01*
X154498199Y-106912429D01*
X154674143Y-106857249D01*
X154965013Y-106766029D01*
X154973449Y-106766585D01*
G37*
%TD.AperFunction*%
%TD*%
%TA.AperFunction,Conductor*%
%TO.N,/Vref2*%
G36*
X151883108Y-106062220D02*
G01*
X152071615Y-106361907D01*
X152073338Y-106369444D01*
X152069984Y-106376410D01*
X151906410Y-106539984D01*
X151899444Y-106543338D01*
X151891907Y-106541615D01*
X151592220Y-106353108D01*
X151587309Y-106346777D01*
X151587621Y-106338772D01*
X151667436Y-106143828D01*
X151669990Y-106139990D01*
X151673828Y-106137436D01*
X151868772Y-106057621D01*
X151876777Y-106057309D01*
X151883108Y-106062220D01*
G37*
%TD.AperFunction*%
%TD*%
%TA.AperFunction,Conductor*%
%TO.N,/RX2*%
G36*
X138762238Y-105585399D02*
G01*
X138767746Y-105591316D01*
X138849105Y-105785478D01*
X138850014Y-105790000D01*
X138849105Y-105794522D01*
X138767746Y-105988683D01*
X138762238Y-105994600D01*
X138754209Y-105995533D01*
X138580010Y-105953468D01*
X138408954Y-105912162D01*
X138402507Y-105908026D01*
X138400000Y-105900789D01*
X138400000Y-105679211D01*
X138402507Y-105671974D01*
X138408954Y-105667838D01*
X138457620Y-105656085D01*
X138754212Y-105584465D01*
X138762238Y-105585399D01*
G37*
%TD.AperFunction*%
%TD*%
%TA.AperFunction,Conductor*%
%TO.N,/RX2*%
G36*
X134601347Y-106127670D02*
G01*
X134796169Y-106207435D01*
X134800009Y-106209990D01*
X134802564Y-106213830D01*
X134882328Y-106408651D01*
X134882618Y-106416730D01*
X134877600Y-106423068D01*
X134574514Y-106608247D01*
X134567031Y-106609881D01*
X134560141Y-106606536D01*
X134403463Y-106449858D01*
X134400118Y-106442968D01*
X134401752Y-106435485D01*
X134418147Y-106408651D01*
X134586932Y-106132397D01*
X134593269Y-106127381D01*
X134601347Y-106127670D01*
G37*
%TD.AperFunction*%
%TD*%
%TA.AperFunction,Conductor*%
%TO.N,/RX2*%
G36*
X125283068Y-105522399D02*
G01*
X125468247Y-105825485D01*
X125469881Y-105832968D01*
X125466536Y-105839858D01*
X125309858Y-105996536D01*
X125302968Y-105999881D01*
X125295485Y-105998247D01*
X124992399Y-105813068D01*
X124987381Y-105806730D01*
X124987670Y-105798652D01*
X125067436Y-105603828D01*
X125069990Y-105599990D01*
X125073828Y-105597436D01*
X125268652Y-105517670D01*
X125276730Y-105517381D01*
X125283068Y-105522399D01*
G37*
%TD.AperFunction*%
%TD*%
%TA.AperFunction,Conductor*%
%TO.N,Net-(U1-2A)*%
G36*
X129465381Y-106526942D02*
G01*
X129622104Y-106683665D01*
X129625488Y-106690939D01*
X129623391Y-106698683D01*
X129377072Y-107047798D01*
X129371822Y-107051930D01*
X129365166Y-107052515D01*
X129359276Y-107049363D01*
X129210983Y-106902382D01*
X129208391Y-106898505D01*
X129127974Y-106702087D01*
X129127832Y-106693585D01*
X129133482Y-106687234D01*
X129451792Y-106524793D01*
X129458935Y-106523658D01*
X129465381Y-106526942D01*
G37*
%TD.AperFunction*%
%TD*%
%TA.AperFunction,Conductor*%
%TO.N,Net-(U1-2A)*%
G36*
X137094518Y-94280893D02*
G01*
X137288683Y-94362253D01*
X137294600Y-94367761D01*
X137295534Y-94375790D01*
X137212162Y-94721046D01*
X137208026Y-94727493D01*
X137200789Y-94730000D01*
X136979211Y-94730000D01*
X136971974Y-94727493D01*
X136967838Y-94721046D01*
X136953631Y-94662214D01*
X136884465Y-94375787D01*
X136885399Y-94367761D01*
X136891314Y-94362254D01*
X137085481Y-94280893D01*
X137090000Y-94279985D01*
X137094518Y-94280893D01*
G37*
%TD.AperFunction*%
%TD*%
%TA.AperFunction,Conductor*%
%TO.N,/TX2*%
G36*
X140563438Y-91076655D02*
G01*
X140569347Y-91082775D01*
X140679115Y-91345489D01*
X140680019Y-91350000D01*
X140679115Y-91354511D01*
X140569347Y-91617224D01*
X140563438Y-91623344D01*
X140554946Y-91623844D01*
X140088095Y-91472622D01*
X140082238Y-91468372D01*
X140080000Y-91461491D01*
X140080000Y-91238509D01*
X140082238Y-91231628D01*
X140088095Y-91227378D01*
X140148598Y-91207779D01*
X140554948Y-91076155D01*
X140563438Y-91076655D01*
G37*
%TD.AperFunction*%
%TD*%
%TA.AperFunction,Conductor*%
%TO.N,/TX2*%
G36*
X136228026Y-95232507D02*
G01*
X136232162Y-95238954D01*
X136315534Y-95584209D01*
X136314600Y-95592238D01*
X136308683Y-95597746D01*
X136114521Y-95679105D01*
X136109999Y-95680014D01*
X136105478Y-95679105D01*
X136033106Y-95648779D01*
X135911316Y-95597746D01*
X135905399Y-95592238D01*
X135904465Y-95584212D01*
X135987837Y-95238954D01*
X135991974Y-95232507D01*
X135999211Y-95230000D01*
X136220789Y-95230000D01*
X136228026Y-95232507D01*
G37*
%TD.AperFunction*%
%TD*%
%TA.AperFunction,Conductor*%
%TO.N,/TX1*%
G36*
X135051347Y-92907670D02*
G01*
X135246169Y-92987435D01*
X135250009Y-92989990D01*
X135252564Y-92993830D01*
X135332328Y-93188651D01*
X135332618Y-93196730D01*
X135327600Y-93203068D01*
X135024514Y-93388247D01*
X135017031Y-93389881D01*
X135010141Y-93386536D01*
X134853463Y-93229858D01*
X134850118Y-93222968D01*
X134851752Y-93215485D01*
X134868147Y-93188651D01*
X135036932Y-92912397D01*
X135043269Y-92907381D01*
X135051347Y-92907670D01*
G37*
%TD.AperFunction*%
%TD*%
%TA.AperFunction,Conductor*%
%TO.N,/Deploy1*%
G36*
X124481915Y-98614708D02*
G01*
X125036703Y-99169496D01*
X125039847Y-99175209D01*
X125039443Y-99181718D01*
X124606401Y-100389341D01*
X124602898Y-100394364D01*
X124597337Y-100396929D01*
X122812830Y-100698419D01*
X122806225Y-100697616D01*
X122801125Y-100693341D01*
X122799181Y-100686978D01*
X122788395Y-99357707D01*
X122790273Y-99351256D01*
X122795391Y-99346901D01*
X124468939Y-98612267D01*
X124475804Y-98611483D01*
X124481915Y-98614708D01*
G37*
%TD.AperFunction*%
%TD*%
%TA.AperFunction,Conductor*%
%TO.N,/Deploy1*%
G36*
X142314109Y-87350102D02*
G01*
X143150712Y-88185722D01*
X143153745Y-88190970D01*
X143153745Y-88197030D01*
X143150712Y-88202278D01*
X142314109Y-89037897D01*
X142307577Y-89041189D01*
X142300367Y-89039959D01*
X141464226Y-88597296D01*
X141459677Y-88592991D01*
X141458000Y-88586956D01*
X141458000Y-87801044D01*
X141459677Y-87795009D01*
X141464226Y-87790704D01*
X141552240Y-87744107D01*
X142300369Y-87348039D01*
X142307577Y-87346810D01*
X142314109Y-87350102D01*
G37*
%TD.AperFunction*%
%TD*%
%TA.AperFunction,Conductor*%
%TO.N,/Deploy2*%
G36*
X149898630Y-87346039D02*
G01*
X150567545Y-87700171D01*
X150734774Y-87788704D01*
X150739323Y-87793009D01*
X150741000Y-87799044D01*
X150741000Y-88584956D01*
X150739323Y-88590991D01*
X150734774Y-88595296D01*
X149898632Y-89037959D01*
X149891422Y-89039189D01*
X149884890Y-89035897D01*
X149443770Y-88595296D01*
X149048285Y-88200276D01*
X149045254Y-88195030D01*
X149045254Y-88188970D01*
X149048285Y-88183723D01*
X149884891Y-87348101D01*
X149891422Y-87344810D01*
X149898630Y-87346039D01*
G37*
%TD.AperFunction*%
%TD*%
%TA.AperFunction,Conductor*%
%TO.N,/Deploy2*%
G36*
X157913438Y-90948408D02*
G01*
X157919293Y-90951601D01*
X157922453Y-90957477D01*
X158197857Y-92286950D01*
X158197265Y-92293663D01*
X158193070Y-92298936D01*
X158186661Y-92301020D01*
X156377040Y-92341436D01*
X156371305Y-92340080D01*
X156366959Y-92336100D01*
X156344237Y-92301020D01*
X155597222Y-91147705D01*
X155595408Y-91140115D01*
X155598769Y-91133073D01*
X156153270Y-90578572D01*
X156158222Y-90575628D01*
X156163978Y-90575404D01*
X157913438Y-90948408D01*
G37*
%TD.AperFunction*%
%TD*%
%TA.AperFunction,Conductor*%
%TO.N,/RBUS_uC_V2*%
G36*
X162733648Y-99443980D02*
G01*
X163690993Y-100688083D01*
X163693415Y-100694855D01*
X163691418Y-100701764D01*
X163685756Y-100706200D01*
X162018908Y-101318700D01*
X162011992Y-101319058D01*
X162006085Y-101315441D01*
X161066821Y-100246661D01*
X161063915Y-100238561D01*
X161067335Y-100230666D01*
X161340628Y-99957373D01*
X161344798Y-99954691D01*
X162720278Y-99440156D01*
X162727592Y-99439866D01*
X162733648Y-99443980D01*
G37*
%TD.AperFunction*%
%TD*%
%TA.AperFunction,Conductor*%
%TO.N,/TX1*%
G36*
X128868306Y-95719523D02*
G01*
X128870589Y-95726466D01*
X128870589Y-95946372D01*
X128868537Y-95952991D01*
X128687039Y-96217526D01*
X128681791Y-96221748D01*
X128675085Y-96222378D01*
X128669144Y-96219206D01*
X128630144Y-96180450D01*
X128520680Y-96071670D01*
X128518102Y-96067808D01*
X128438572Y-95873548D01*
X128437836Y-95867334D01*
X128440408Y-95861630D01*
X128445548Y-95858067D01*
X128740765Y-95755225D01*
X128855040Y-95715417D01*
X128862348Y-95715289D01*
X128868306Y-95719523D01*
G37*
%TD.AperFunction*%
%TD*%
%TA.AperFunction,Conductor*%
%TO.N,+3V3*%
G36*
X124683034Y-85243084D02*
G01*
X124688126Y-85247383D01*
X124690045Y-85253764D01*
X124691000Y-85540000D01*
X124691000Y-85540078D01*
X124690045Y-85826235D01*
X124688126Y-85832616D01*
X124683034Y-85836915D01*
X124676422Y-85837737D01*
X124099775Y-85741629D01*
X124092773Y-85737652D01*
X124090000Y-85730089D01*
X124090000Y-85349912D01*
X124092773Y-85342349D01*
X124099777Y-85338371D01*
X124291991Y-85306334D01*
X124676425Y-85242262D01*
X124683034Y-85243084D01*
G37*
%TD.AperFunction*%
%TD*%
%TA.AperFunction,Conductor*%
%TO.N,/RBUS_uC_V1*%
G36*
X119589378Y-90928325D02*
G01*
X119593240Y-90930889D01*
X119866242Y-91203891D01*
X119869570Y-91210642D01*
X119868096Y-91218023D01*
X119133294Y-92488016D01*
X119128470Y-92492586D01*
X119121934Y-92493792D01*
X117313793Y-92302243D01*
X117307471Y-92299542D01*
X117303758Y-92293757D01*
X117303934Y-92286884D01*
X117750158Y-90957869D01*
X117754360Y-90952139D01*
X117761102Y-90949897D01*
X119584826Y-90927463D01*
X119589378Y-90928325D01*
G37*
%TD.AperFunction*%
%TD*%
%TA.AperFunction,Conductor*%
%TO.N,/Vref*%
G36*
X132482256Y-90700313D02*
G01*
X132487696Y-90706196D01*
X132569105Y-90900478D01*
X132570014Y-90905000D01*
X132569105Y-90909522D01*
X132487696Y-91103803D01*
X132482256Y-91109686D01*
X132474307Y-91110689D01*
X132256091Y-91060993D01*
X132129101Y-91032072D01*
X132122554Y-91027962D01*
X132120000Y-91020665D01*
X132120000Y-90789335D01*
X132122554Y-90782038D01*
X132129101Y-90777927D01*
X132474309Y-90699310D01*
X132482256Y-90700313D01*
G37*
%TD.AperFunction*%
%TD*%
%TA.AperFunction,Conductor*%
%TO.N,/Vref*%
G36*
X130105756Y-90572745D02*
G01*
X130561152Y-90776900D01*
X130566186Y-90781216D01*
X130568065Y-90787576D01*
X130568065Y-91020366D01*
X130565397Y-91027803D01*
X130558610Y-91031849D01*
X129993897Y-91142282D01*
X129987163Y-91141604D01*
X129981931Y-91137310D01*
X129979952Y-91130840D01*
X129979007Y-90847362D01*
X129979909Y-90842822D01*
X130090178Y-90578909D01*
X130093959Y-90574058D01*
X130099680Y-90571794D01*
X130105756Y-90572745D01*
G37*
%TD.AperFunction*%
%TD*%
M02*
