%TF.GenerationSoftware,KiCad,Pcbnew,(7.0.0)*%
%TF.CreationDate,2023-03-31T19:13:01+01:00*%
%TF.ProjectId,CANRepIso,43414e52-6570-4497-936f-2e6b69636164,rev?*%
%TF.SameCoordinates,Original*%
%TF.FileFunction,Legend,Top*%
%TF.FilePolarity,Positive*%
%FSLAX46Y46*%
G04 Gerber Fmt 4.6, Leading zero omitted, Abs format (unit mm)*
G04 Created by KiCad (PCBNEW (7.0.0)) date 2023-03-31 19:13:01*
%MOMM*%
%LPD*%
G01*
G04 APERTURE LIST*
G04 Aperture macros list*
%AMRoundRect*
0 Rectangle with rounded corners*
0 $1 Rounding radius*
0 $2 $3 $4 $5 $6 $7 $8 $9 X,Y pos of 4 corners*
0 Add a 4 corners polygon primitive as box body*
4,1,4,$2,$3,$4,$5,$6,$7,$8,$9,$2,$3,0*
0 Add four circle primitives for the rounded corners*
1,1,$1+$1,$2,$3*
1,1,$1+$1,$4,$5*
1,1,$1+$1,$6,$7*
1,1,$1+$1,$8,$9*
0 Add four rect primitives between the rounded corners*
20,1,$1+$1,$2,$3,$4,$5,0*
20,1,$1+$1,$4,$5,$6,$7,0*
20,1,$1+$1,$6,$7,$8,$9,0*
20,1,$1+$1,$8,$9,$2,$3,0*%
%AMFreePoly0*
4,1,19,0.500000,-0.750000,0.000000,-0.750000,0.000000,-0.744911,-0.071157,-0.744911,-0.207708,-0.704816,-0.327430,-0.627875,-0.420627,-0.520320,-0.479746,-0.390866,-0.500000,-0.250000,-0.500000,0.250000,-0.479746,0.390866,-0.420627,0.520320,-0.327430,0.627875,-0.207708,0.704816,-0.071157,0.744911,0.000000,0.744911,0.000000,0.750000,0.500000,0.750000,0.500000,-0.750000,0.500000,-0.750000,
$1*%
%AMFreePoly1*
4,1,19,0.000000,0.744911,0.071157,0.744911,0.207708,0.704816,0.327430,0.627875,0.420627,0.520320,0.479746,0.390866,0.500000,0.250000,0.500000,-0.250000,0.479746,-0.390866,0.420627,-0.520320,0.327430,-0.627875,0.207708,-0.704816,0.071157,-0.744911,0.000000,-0.744911,0.000000,-0.750000,-0.500000,-0.750000,-0.500000,0.750000,0.000000,0.750000,0.000000,0.744911,0.000000,0.744911,
$1*%
G04 Aperture macros list end*
%ADD10C,0.150000*%
%ADD11C,0.125000*%
%ADD12C,0.152400*%
%ADD13C,0.120000*%
%ADD14C,0.200000*%
%ADD15C,0.127000*%
%ADD16C,0.100000*%
%ADD17C,0.300000*%
%ADD18RoundRect,0.250001X1.599999X-1.099999X1.599999X1.099999X-1.599999X1.099999X-1.599999X-1.099999X0*%
%ADD19O,3.700000X2.700000*%
%ADD20RoundRect,0.250001X-1.599999X1.099999X-1.599999X-1.099999X1.599999X-1.099999X1.599999X1.099999X0*%
%ADD21R,1.200000X0.600000*%
%ADD22RoundRect,0.140000X0.170000X-0.140000X0.170000X0.140000X-0.170000X0.140000X-0.170000X-0.140000X0*%
%ADD23C,1.000000*%
%ADD24RoundRect,0.135000X-0.135000X-0.185000X0.135000X-0.185000X0.135000X0.185000X-0.135000X0.185000X0*%
%ADD25RoundRect,0.135000X0.185000X-0.135000X0.185000X0.135000X-0.185000X0.135000X-0.185000X-0.135000X0*%
%ADD26RoundRect,0.200000X-0.275000X0.200000X-0.275000X-0.200000X0.275000X-0.200000X0.275000X0.200000X0*%
%ADD27RoundRect,0.040600X0.564400X0.249400X-0.564400X0.249400X-0.564400X-0.249400X0.564400X-0.249400X0*%
%ADD28RoundRect,0.140000X0.140000X0.170000X-0.140000X0.170000X-0.140000X-0.170000X0.140000X-0.170000X0*%
%ADD29RoundRect,0.150000X-0.150000X0.825000X-0.150000X-0.825000X0.150000X-0.825000X0.150000X0.825000X0*%
%ADD30RoundRect,0.147500X-0.147500X-0.172500X0.147500X-0.172500X0.147500X0.172500X-0.147500X0.172500X0*%
%ADD31RoundRect,0.140000X-0.170000X0.140000X-0.170000X-0.140000X0.170000X-0.140000X0.170000X0.140000X0*%
%ADD32RoundRect,0.150000X0.825000X0.150000X-0.825000X0.150000X-0.825000X-0.150000X0.825000X-0.150000X0*%
%ADD33FreePoly0,90.000000*%
%ADD34FreePoly1,90.000000*%
%ADD35RoundRect,0.200000X-0.200000X-0.275000X0.200000X-0.275000X0.200000X0.275000X-0.200000X0.275000X0*%
%ADD36RoundRect,0.147500X0.147500X0.172500X-0.147500X0.172500X-0.147500X-0.172500X0.147500X-0.172500X0*%
%ADD37RoundRect,0.135000X0.135000X0.185000X-0.135000X0.185000X-0.135000X-0.185000X0.135000X-0.185000X0*%
%ADD38RoundRect,0.140000X-0.140000X-0.170000X0.140000X-0.170000X0.140000X0.170000X-0.140000X0.170000X0*%
%ADD39RoundRect,0.200000X0.200000X0.275000X-0.200000X0.275000X-0.200000X-0.275000X0.200000X-0.275000X0*%
%ADD40C,5.600000*%
%ADD41R,1.700000X1.700000*%
%ADD42RoundRect,0.150000X-0.150000X0.587500X-0.150000X-0.587500X0.150000X-0.587500X0.150000X0.587500X0*%
%ADD43FreePoly0,270.000000*%
%ADD44FreePoly1,270.000000*%
%ADD45RoundRect,0.135000X-0.185000X0.135000X-0.185000X-0.135000X0.185000X-0.135000X0.185000X0.135000X0*%
%ADD46RoundRect,0.150000X0.587500X0.150000X-0.587500X0.150000X-0.587500X-0.150000X0.587500X-0.150000X0*%
%ADD47RoundRect,0.147500X-0.172500X0.147500X-0.172500X-0.147500X0.172500X-0.147500X0.172500X0.147500X0*%
%ADD48RoundRect,0.150000X0.150000X-0.825000X0.150000X0.825000X-0.150000X0.825000X-0.150000X-0.825000X0*%
%ADD49RoundRect,0.150000X-0.825000X-0.150000X0.825000X-0.150000X0.825000X0.150000X-0.825000X0.150000X0*%
%ADD50RoundRect,0.040600X-0.249400X0.564400X-0.249400X-0.564400X0.249400X-0.564400X0.249400X0.564400X0*%
%ADD51RoundRect,0.008100X0.126900X-0.551900X0.126900X0.551900X-0.126900X0.551900X-0.126900X-0.551900X0*%
%ADD52RoundRect,0.008100X0.551900X0.126900X-0.551900X0.126900X-0.551900X-0.126900X0.551900X-0.126900X0*%
%ADD53R,0.240000X1.570000*%
G04 APERTURE END LIST*
D10*
X145612857Y-107394000D02*
X145555715Y-107365428D01*
X145555715Y-107365428D02*
X145470000Y-107365428D01*
X145470000Y-107365428D02*
X145384286Y-107394000D01*
X145384286Y-107394000D02*
X145327143Y-107451142D01*
X145327143Y-107451142D02*
X145298572Y-107508285D01*
X145298572Y-107508285D02*
X145270000Y-107622571D01*
X145270000Y-107622571D02*
X145270000Y-107708285D01*
X145270000Y-107708285D02*
X145298572Y-107822571D01*
X145298572Y-107822571D02*
X145327143Y-107879714D01*
X145327143Y-107879714D02*
X145384286Y-107936857D01*
X145384286Y-107936857D02*
X145470000Y-107965428D01*
X145470000Y-107965428D02*
X145527143Y-107965428D01*
X145527143Y-107965428D02*
X145612857Y-107936857D01*
X145612857Y-107936857D02*
X145641429Y-107908285D01*
X145641429Y-107908285D02*
X145641429Y-107708285D01*
X145641429Y-107708285D02*
X145527143Y-107708285D01*
X145898572Y-107965428D02*
X145898572Y-107365428D01*
X145898572Y-107365428D02*
X146241429Y-107965428D01*
X146241429Y-107965428D02*
X146241429Y-107365428D01*
X146527143Y-107965428D02*
X146527143Y-107365428D01*
X146527143Y-107365428D02*
X146670000Y-107365428D01*
X146670000Y-107365428D02*
X146755714Y-107394000D01*
X146755714Y-107394000D02*
X146812857Y-107451142D01*
X146812857Y-107451142D02*
X146841428Y-107508285D01*
X146841428Y-107508285D02*
X146870000Y-107622571D01*
X146870000Y-107622571D02*
X146870000Y-107708285D01*
X146870000Y-107708285D02*
X146841428Y-107822571D01*
X146841428Y-107822571D02*
X146812857Y-107879714D01*
X146812857Y-107879714D02*
X146755714Y-107936857D01*
X146755714Y-107936857D02*
X146670000Y-107965428D01*
X146670000Y-107965428D02*
X146527143Y-107965428D01*
X144984286Y-108623142D02*
X145070000Y-108651714D01*
X145070000Y-108651714D02*
X145098571Y-108680285D01*
X145098571Y-108680285D02*
X145127143Y-108737428D01*
X145127143Y-108737428D02*
X145127143Y-108823142D01*
X145127143Y-108823142D02*
X145098571Y-108880285D01*
X145098571Y-108880285D02*
X145070000Y-108908857D01*
X145070000Y-108908857D02*
X145012857Y-108937428D01*
X145012857Y-108937428D02*
X144784286Y-108937428D01*
X144784286Y-108937428D02*
X144784286Y-108337428D01*
X144784286Y-108337428D02*
X144984286Y-108337428D01*
X144984286Y-108337428D02*
X145041429Y-108366000D01*
X145041429Y-108366000D02*
X145070000Y-108394571D01*
X145070000Y-108394571D02*
X145098571Y-108451714D01*
X145098571Y-108451714D02*
X145098571Y-108508857D01*
X145098571Y-108508857D02*
X145070000Y-108566000D01*
X145070000Y-108566000D02*
X145041429Y-108594571D01*
X145041429Y-108594571D02*
X144984286Y-108623142D01*
X144984286Y-108623142D02*
X144784286Y-108623142D01*
X145384286Y-108937428D02*
X145384286Y-108537428D01*
X145384286Y-108651714D02*
X145412857Y-108594571D01*
X145412857Y-108594571D02*
X145441429Y-108566000D01*
X145441429Y-108566000D02*
X145498571Y-108537428D01*
X145498571Y-108537428D02*
X145555714Y-108537428D01*
X145755715Y-108937428D02*
X145755715Y-108537428D01*
X145755715Y-108337428D02*
X145727143Y-108366000D01*
X145727143Y-108366000D02*
X145755715Y-108394571D01*
X145755715Y-108394571D02*
X145784286Y-108366000D01*
X145784286Y-108366000D02*
X145755715Y-108337428D01*
X145755715Y-108337428D02*
X145755715Y-108394571D01*
X146298572Y-108937428D02*
X146298572Y-108337428D01*
X146298572Y-108908857D02*
X146241429Y-108937428D01*
X146241429Y-108937428D02*
X146127143Y-108937428D01*
X146127143Y-108937428D02*
X146070000Y-108908857D01*
X146070000Y-108908857D02*
X146041429Y-108880285D01*
X146041429Y-108880285D02*
X146012857Y-108823142D01*
X146012857Y-108823142D02*
X146012857Y-108651714D01*
X146012857Y-108651714D02*
X146041429Y-108594571D01*
X146041429Y-108594571D02*
X146070000Y-108566000D01*
X146070000Y-108566000D02*
X146127143Y-108537428D01*
X146127143Y-108537428D02*
X146241429Y-108537428D01*
X146241429Y-108537428D02*
X146298572Y-108566000D01*
X146841429Y-108537428D02*
X146841429Y-109023142D01*
X146841429Y-109023142D02*
X146812857Y-109080285D01*
X146812857Y-109080285D02*
X146784286Y-109108857D01*
X146784286Y-109108857D02*
X146727143Y-109137428D01*
X146727143Y-109137428D02*
X146641429Y-109137428D01*
X146641429Y-109137428D02*
X146584286Y-109108857D01*
X146841429Y-108908857D02*
X146784286Y-108937428D01*
X146784286Y-108937428D02*
X146670000Y-108937428D01*
X146670000Y-108937428D02*
X146612857Y-108908857D01*
X146612857Y-108908857D02*
X146584286Y-108880285D01*
X146584286Y-108880285D02*
X146555714Y-108823142D01*
X146555714Y-108823142D02*
X146555714Y-108651714D01*
X146555714Y-108651714D02*
X146584286Y-108594571D01*
X146584286Y-108594571D02*
X146612857Y-108566000D01*
X146612857Y-108566000D02*
X146670000Y-108537428D01*
X146670000Y-108537428D02*
X146784286Y-108537428D01*
X146784286Y-108537428D02*
X146841429Y-108566000D01*
X147355714Y-108908857D02*
X147298571Y-108937428D01*
X147298571Y-108937428D02*
X147184286Y-108937428D01*
X147184286Y-108937428D02*
X147127143Y-108908857D01*
X147127143Y-108908857D02*
X147098571Y-108851714D01*
X147098571Y-108851714D02*
X147098571Y-108623142D01*
X147098571Y-108623142D02*
X147127143Y-108566000D01*
X147127143Y-108566000D02*
X147184286Y-108537428D01*
X147184286Y-108537428D02*
X147298571Y-108537428D01*
X147298571Y-108537428D02*
X147355714Y-108566000D01*
X147355714Y-108566000D02*
X147384286Y-108623142D01*
X147384286Y-108623142D02*
X147384286Y-108680285D01*
X147384286Y-108680285D02*
X147098571Y-108737428D01*
X144514143Y-87858428D02*
X144514143Y-87258428D01*
X144514143Y-87258428D02*
X144657000Y-87258428D01*
X144657000Y-87258428D02*
X144742714Y-87287000D01*
X144742714Y-87287000D02*
X144799857Y-87344142D01*
X144799857Y-87344142D02*
X144828428Y-87401285D01*
X144828428Y-87401285D02*
X144857000Y-87515571D01*
X144857000Y-87515571D02*
X144857000Y-87601285D01*
X144857000Y-87601285D02*
X144828428Y-87715571D01*
X144828428Y-87715571D02*
X144799857Y-87772714D01*
X144799857Y-87772714D02*
X144742714Y-87829857D01*
X144742714Y-87829857D02*
X144657000Y-87858428D01*
X144657000Y-87858428D02*
X144514143Y-87858428D01*
X145114143Y-87544142D02*
X145314143Y-87544142D01*
X145399857Y-87858428D02*
X145114143Y-87858428D01*
X145114143Y-87858428D02*
X145114143Y-87258428D01*
X145114143Y-87258428D02*
X145399857Y-87258428D01*
X145657000Y-87858428D02*
X145657000Y-87258428D01*
X145657000Y-87258428D02*
X145885571Y-87258428D01*
X145885571Y-87258428D02*
X145942714Y-87287000D01*
X145942714Y-87287000D02*
X145971285Y-87315571D01*
X145971285Y-87315571D02*
X145999857Y-87372714D01*
X145999857Y-87372714D02*
X145999857Y-87458428D01*
X145999857Y-87458428D02*
X145971285Y-87515571D01*
X145971285Y-87515571D02*
X145942714Y-87544142D01*
X145942714Y-87544142D02*
X145885571Y-87572714D01*
X145885571Y-87572714D02*
X145657000Y-87572714D01*
X146542714Y-87858428D02*
X146257000Y-87858428D01*
X146257000Y-87858428D02*
X146257000Y-87258428D01*
X146856999Y-87258428D02*
X146971285Y-87258428D01*
X146971285Y-87258428D02*
X147028428Y-87287000D01*
X147028428Y-87287000D02*
X147085571Y-87344142D01*
X147085571Y-87344142D02*
X147114142Y-87458428D01*
X147114142Y-87458428D02*
X147114142Y-87658428D01*
X147114142Y-87658428D02*
X147085571Y-87772714D01*
X147085571Y-87772714D02*
X147028428Y-87829857D01*
X147028428Y-87829857D02*
X146971285Y-87858428D01*
X146971285Y-87858428D02*
X146856999Y-87858428D01*
X146856999Y-87858428D02*
X146799857Y-87829857D01*
X146799857Y-87829857D02*
X146742714Y-87772714D01*
X146742714Y-87772714D02*
X146714142Y-87658428D01*
X146714142Y-87658428D02*
X146714142Y-87458428D01*
X146714142Y-87458428D02*
X146742714Y-87344142D01*
X146742714Y-87344142D02*
X146799857Y-87287000D01*
X146799857Y-87287000D02*
X146856999Y-87258428D01*
X147485570Y-87572714D02*
X147485570Y-87858428D01*
X147285570Y-87258428D02*
X147485570Y-87572714D01*
X147485570Y-87572714D02*
X147685570Y-87258428D01*
X144971286Y-88516142D02*
X145057000Y-88544714D01*
X145057000Y-88544714D02*
X145085571Y-88573285D01*
X145085571Y-88573285D02*
X145114143Y-88630428D01*
X145114143Y-88630428D02*
X145114143Y-88716142D01*
X145114143Y-88716142D02*
X145085571Y-88773285D01*
X145085571Y-88773285D02*
X145057000Y-88801857D01*
X145057000Y-88801857D02*
X144999857Y-88830428D01*
X144999857Y-88830428D02*
X144771286Y-88830428D01*
X144771286Y-88830428D02*
X144771286Y-88230428D01*
X144771286Y-88230428D02*
X144971286Y-88230428D01*
X144971286Y-88230428D02*
X145028429Y-88259000D01*
X145028429Y-88259000D02*
X145057000Y-88287571D01*
X145057000Y-88287571D02*
X145085571Y-88344714D01*
X145085571Y-88344714D02*
X145085571Y-88401857D01*
X145085571Y-88401857D02*
X145057000Y-88459000D01*
X145057000Y-88459000D02*
X145028429Y-88487571D01*
X145028429Y-88487571D02*
X144971286Y-88516142D01*
X144971286Y-88516142D02*
X144771286Y-88516142D01*
X145371286Y-88830428D02*
X145371286Y-88430428D01*
X145371286Y-88544714D02*
X145399857Y-88487571D01*
X145399857Y-88487571D02*
X145428429Y-88459000D01*
X145428429Y-88459000D02*
X145485571Y-88430428D01*
X145485571Y-88430428D02*
X145542714Y-88430428D01*
X145742715Y-88830428D02*
X145742715Y-88430428D01*
X145742715Y-88230428D02*
X145714143Y-88259000D01*
X145714143Y-88259000D02*
X145742715Y-88287571D01*
X145742715Y-88287571D02*
X145771286Y-88259000D01*
X145771286Y-88259000D02*
X145742715Y-88230428D01*
X145742715Y-88230428D02*
X145742715Y-88287571D01*
X146285572Y-88830428D02*
X146285572Y-88230428D01*
X146285572Y-88801857D02*
X146228429Y-88830428D01*
X146228429Y-88830428D02*
X146114143Y-88830428D01*
X146114143Y-88830428D02*
X146057000Y-88801857D01*
X146057000Y-88801857D02*
X146028429Y-88773285D01*
X146028429Y-88773285D02*
X145999857Y-88716142D01*
X145999857Y-88716142D02*
X145999857Y-88544714D01*
X145999857Y-88544714D02*
X146028429Y-88487571D01*
X146028429Y-88487571D02*
X146057000Y-88459000D01*
X146057000Y-88459000D02*
X146114143Y-88430428D01*
X146114143Y-88430428D02*
X146228429Y-88430428D01*
X146228429Y-88430428D02*
X146285572Y-88459000D01*
X146828429Y-88430428D02*
X146828429Y-88916142D01*
X146828429Y-88916142D02*
X146799857Y-88973285D01*
X146799857Y-88973285D02*
X146771286Y-89001857D01*
X146771286Y-89001857D02*
X146714143Y-89030428D01*
X146714143Y-89030428D02*
X146628429Y-89030428D01*
X146628429Y-89030428D02*
X146571286Y-89001857D01*
X146828429Y-88801857D02*
X146771286Y-88830428D01*
X146771286Y-88830428D02*
X146657000Y-88830428D01*
X146657000Y-88830428D02*
X146599857Y-88801857D01*
X146599857Y-88801857D02*
X146571286Y-88773285D01*
X146571286Y-88773285D02*
X146542714Y-88716142D01*
X146542714Y-88716142D02*
X146542714Y-88544714D01*
X146542714Y-88544714D02*
X146571286Y-88487571D01*
X146571286Y-88487571D02*
X146599857Y-88459000D01*
X146599857Y-88459000D02*
X146657000Y-88430428D01*
X146657000Y-88430428D02*
X146771286Y-88430428D01*
X146771286Y-88430428D02*
X146828429Y-88459000D01*
X147342714Y-88801857D02*
X147285571Y-88830428D01*
X147285571Y-88830428D02*
X147171286Y-88830428D01*
X147171286Y-88830428D02*
X147114143Y-88801857D01*
X147114143Y-88801857D02*
X147085571Y-88744714D01*
X147085571Y-88744714D02*
X147085571Y-88516142D01*
X147085571Y-88516142D02*
X147114143Y-88459000D01*
X147114143Y-88459000D02*
X147171286Y-88430428D01*
X147171286Y-88430428D02*
X147285571Y-88430428D01*
X147285571Y-88430428D02*
X147342714Y-88459000D01*
X147342714Y-88459000D02*
X147371286Y-88516142D01*
X147371286Y-88516142D02*
X147371286Y-88573285D01*
X147371286Y-88573285D02*
X147085571Y-88630428D01*
D11*
X166607690Y-98773523D02*
X166964833Y-98773523D01*
X166964833Y-98773523D02*
X167036261Y-98797332D01*
X167036261Y-98797332D02*
X167083880Y-98844951D01*
X167083880Y-98844951D02*
X167107690Y-98916380D01*
X167107690Y-98916380D02*
X167107690Y-98963999D01*
X167107690Y-98297333D02*
X167107690Y-98535428D01*
X167107690Y-98535428D02*
X166607690Y-98535428D01*
X167060071Y-97844952D02*
X167083880Y-97868761D01*
X167083880Y-97868761D02*
X167107690Y-97940190D01*
X167107690Y-97940190D02*
X167107690Y-97987809D01*
X167107690Y-97987809D02*
X167083880Y-98059237D01*
X167083880Y-98059237D02*
X167036261Y-98106856D01*
X167036261Y-98106856D02*
X166988642Y-98130666D01*
X166988642Y-98130666D02*
X166893404Y-98154475D01*
X166893404Y-98154475D02*
X166821976Y-98154475D01*
X166821976Y-98154475D02*
X166726738Y-98130666D01*
X166726738Y-98130666D02*
X166679119Y-98106856D01*
X166679119Y-98106856D02*
X166631500Y-98059237D01*
X166631500Y-98059237D02*
X166607690Y-97987809D01*
X166607690Y-97987809D02*
X166607690Y-97940190D01*
X166607690Y-97940190D02*
X166631500Y-97868761D01*
X166631500Y-97868761D02*
X166655309Y-97844952D01*
X166607690Y-97487809D02*
X166964833Y-97487809D01*
X166964833Y-97487809D02*
X167036261Y-97511618D01*
X167036261Y-97511618D02*
X167083880Y-97559237D01*
X167083880Y-97559237D02*
X167107690Y-97630666D01*
X167107690Y-97630666D02*
X167107690Y-97678285D01*
X167107690Y-97011619D02*
X167107690Y-97249714D01*
X167107690Y-97249714D02*
X166607690Y-97249714D01*
X167060071Y-96559238D02*
X167083880Y-96583047D01*
X167083880Y-96583047D02*
X167107690Y-96654476D01*
X167107690Y-96654476D02*
X167107690Y-96702095D01*
X167107690Y-96702095D02*
X167083880Y-96773523D01*
X167083880Y-96773523D02*
X167036261Y-96821142D01*
X167036261Y-96821142D02*
X166988642Y-96844952D01*
X166988642Y-96844952D02*
X166893404Y-96868761D01*
X166893404Y-96868761D02*
X166821976Y-96868761D01*
X166821976Y-96868761D02*
X166726738Y-96844952D01*
X166726738Y-96844952D02*
X166679119Y-96821142D01*
X166679119Y-96821142D02*
X166631500Y-96773523D01*
X166631500Y-96773523D02*
X166607690Y-96702095D01*
X166607690Y-96702095D02*
X166607690Y-96654476D01*
X166607690Y-96654476D02*
X166631500Y-96583047D01*
X166631500Y-96583047D02*
X166655309Y-96559238D01*
X166607690Y-96202095D02*
X166964833Y-96202095D01*
X166964833Y-96202095D02*
X167036261Y-96225904D01*
X167036261Y-96225904D02*
X167083880Y-96273523D01*
X167083880Y-96273523D02*
X167107690Y-96344952D01*
X167107690Y-96344952D02*
X167107690Y-96392571D01*
X167107690Y-95725905D02*
X167107690Y-95964000D01*
X167107690Y-95964000D02*
X166607690Y-95964000D01*
X167060071Y-95273524D02*
X167083880Y-95297333D01*
X167083880Y-95297333D02*
X167107690Y-95368762D01*
X167107690Y-95368762D02*
X167107690Y-95416381D01*
X167107690Y-95416381D02*
X167083880Y-95487809D01*
X167083880Y-95487809D02*
X167036261Y-95535428D01*
X167036261Y-95535428D02*
X166988642Y-95559238D01*
X166988642Y-95559238D02*
X166893404Y-95583047D01*
X166893404Y-95583047D02*
X166821976Y-95583047D01*
X166821976Y-95583047D02*
X166726738Y-95559238D01*
X166726738Y-95559238D02*
X166679119Y-95535428D01*
X166679119Y-95535428D02*
X166631500Y-95487809D01*
X166631500Y-95487809D02*
X166607690Y-95416381D01*
X166607690Y-95416381D02*
X166607690Y-95368762D01*
X166607690Y-95368762D02*
X166631500Y-95297333D01*
X166631500Y-95297333D02*
X166655309Y-95273524D01*
X166607690Y-94916381D02*
X166964833Y-94916381D01*
X166964833Y-94916381D02*
X167036261Y-94940190D01*
X167036261Y-94940190D02*
X167083880Y-94987809D01*
X167083880Y-94987809D02*
X167107690Y-95059238D01*
X167107690Y-95059238D02*
X167107690Y-95106857D01*
X167107690Y-94440191D02*
X167107690Y-94678286D01*
X167107690Y-94678286D02*
X166607690Y-94678286D01*
X167060071Y-93987810D02*
X167083880Y-94011619D01*
X167083880Y-94011619D02*
X167107690Y-94083048D01*
X167107690Y-94083048D02*
X167107690Y-94130667D01*
X167107690Y-94130667D02*
X167083880Y-94202095D01*
X167083880Y-94202095D02*
X167036261Y-94249714D01*
X167036261Y-94249714D02*
X166988642Y-94273524D01*
X166988642Y-94273524D02*
X166893404Y-94297333D01*
X166893404Y-94297333D02*
X166821976Y-94297333D01*
X166821976Y-94297333D02*
X166726738Y-94273524D01*
X166726738Y-94273524D02*
X166679119Y-94249714D01*
X166679119Y-94249714D02*
X166631500Y-94202095D01*
X166631500Y-94202095D02*
X166607690Y-94130667D01*
X166607690Y-94130667D02*
X166607690Y-94083048D01*
X166607690Y-94083048D02*
X166631500Y-94011619D01*
X166631500Y-94011619D02*
X166655309Y-93987810D01*
D10*
X145174285Y-83894428D02*
X145545713Y-83894428D01*
X145545713Y-83894428D02*
X145345713Y-84123000D01*
X145345713Y-84123000D02*
X145431428Y-84123000D01*
X145431428Y-84123000D02*
X145488571Y-84151571D01*
X145488571Y-84151571D02*
X145517142Y-84180142D01*
X145517142Y-84180142D02*
X145545713Y-84237285D01*
X145545713Y-84237285D02*
X145545713Y-84380142D01*
X145545713Y-84380142D02*
X145517142Y-84437285D01*
X145517142Y-84437285D02*
X145488571Y-84465857D01*
X145488571Y-84465857D02*
X145431428Y-84494428D01*
X145431428Y-84494428D02*
X145259999Y-84494428D01*
X145259999Y-84494428D02*
X145202856Y-84465857D01*
X145202856Y-84465857D02*
X145174285Y-84437285D01*
X145802857Y-84437285D02*
X145831428Y-84465857D01*
X145831428Y-84465857D02*
X145802857Y-84494428D01*
X145802857Y-84494428D02*
X145774285Y-84465857D01*
X145774285Y-84465857D02*
X145802857Y-84437285D01*
X145802857Y-84437285D02*
X145802857Y-84494428D01*
X146031428Y-83894428D02*
X146402856Y-83894428D01*
X146402856Y-83894428D02*
X146202856Y-84123000D01*
X146202856Y-84123000D02*
X146288571Y-84123000D01*
X146288571Y-84123000D02*
X146345714Y-84151571D01*
X146345714Y-84151571D02*
X146374285Y-84180142D01*
X146374285Y-84180142D02*
X146402856Y-84237285D01*
X146402856Y-84237285D02*
X146402856Y-84380142D01*
X146402856Y-84380142D02*
X146374285Y-84437285D01*
X146374285Y-84437285D02*
X146345714Y-84465857D01*
X146345714Y-84465857D02*
X146288571Y-84494428D01*
X146288571Y-84494428D02*
X146117142Y-84494428D01*
X146117142Y-84494428D02*
X146059999Y-84465857D01*
X146059999Y-84465857D02*
X146031428Y-84437285D01*
X146574285Y-83894428D02*
X146774285Y-84494428D01*
X146774285Y-84494428D02*
X146974285Y-83894428D01*
X144974286Y-85152142D02*
X145060000Y-85180714D01*
X145060000Y-85180714D02*
X145088571Y-85209285D01*
X145088571Y-85209285D02*
X145117143Y-85266428D01*
X145117143Y-85266428D02*
X145117143Y-85352142D01*
X145117143Y-85352142D02*
X145088571Y-85409285D01*
X145088571Y-85409285D02*
X145060000Y-85437857D01*
X145060000Y-85437857D02*
X145002857Y-85466428D01*
X145002857Y-85466428D02*
X144774286Y-85466428D01*
X144774286Y-85466428D02*
X144774286Y-84866428D01*
X144774286Y-84866428D02*
X144974286Y-84866428D01*
X144974286Y-84866428D02*
X145031429Y-84895000D01*
X145031429Y-84895000D02*
X145060000Y-84923571D01*
X145060000Y-84923571D02*
X145088571Y-84980714D01*
X145088571Y-84980714D02*
X145088571Y-85037857D01*
X145088571Y-85037857D02*
X145060000Y-85095000D01*
X145060000Y-85095000D02*
X145031429Y-85123571D01*
X145031429Y-85123571D02*
X144974286Y-85152142D01*
X144974286Y-85152142D02*
X144774286Y-85152142D01*
X145374286Y-85466428D02*
X145374286Y-85066428D01*
X145374286Y-85180714D02*
X145402857Y-85123571D01*
X145402857Y-85123571D02*
X145431429Y-85095000D01*
X145431429Y-85095000D02*
X145488571Y-85066428D01*
X145488571Y-85066428D02*
X145545714Y-85066428D01*
X145745715Y-85466428D02*
X145745715Y-85066428D01*
X145745715Y-84866428D02*
X145717143Y-84895000D01*
X145717143Y-84895000D02*
X145745715Y-84923571D01*
X145745715Y-84923571D02*
X145774286Y-84895000D01*
X145774286Y-84895000D02*
X145745715Y-84866428D01*
X145745715Y-84866428D02*
X145745715Y-84923571D01*
X146288572Y-85466428D02*
X146288572Y-84866428D01*
X146288572Y-85437857D02*
X146231429Y-85466428D01*
X146231429Y-85466428D02*
X146117143Y-85466428D01*
X146117143Y-85466428D02*
X146060000Y-85437857D01*
X146060000Y-85437857D02*
X146031429Y-85409285D01*
X146031429Y-85409285D02*
X146002857Y-85352142D01*
X146002857Y-85352142D02*
X146002857Y-85180714D01*
X146002857Y-85180714D02*
X146031429Y-85123571D01*
X146031429Y-85123571D02*
X146060000Y-85095000D01*
X146060000Y-85095000D02*
X146117143Y-85066428D01*
X146117143Y-85066428D02*
X146231429Y-85066428D01*
X146231429Y-85066428D02*
X146288572Y-85095000D01*
X146831429Y-85066428D02*
X146831429Y-85552142D01*
X146831429Y-85552142D02*
X146802857Y-85609285D01*
X146802857Y-85609285D02*
X146774286Y-85637857D01*
X146774286Y-85637857D02*
X146717143Y-85666428D01*
X146717143Y-85666428D02*
X146631429Y-85666428D01*
X146631429Y-85666428D02*
X146574286Y-85637857D01*
X146831429Y-85437857D02*
X146774286Y-85466428D01*
X146774286Y-85466428D02*
X146660000Y-85466428D01*
X146660000Y-85466428D02*
X146602857Y-85437857D01*
X146602857Y-85437857D02*
X146574286Y-85409285D01*
X146574286Y-85409285D02*
X146545714Y-85352142D01*
X146545714Y-85352142D02*
X146545714Y-85180714D01*
X146545714Y-85180714D02*
X146574286Y-85123571D01*
X146574286Y-85123571D02*
X146602857Y-85095000D01*
X146602857Y-85095000D02*
X146660000Y-85066428D01*
X146660000Y-85066428D02*
X146774286Y-85066428D01*
X146774286Y-85066428D02*
X146831429Y-85095000D01*
X147345714Y-85437857D02*
X147288571Y-85466428D01*
X147288571Y-85466428D02*
X147174286Y-85466428D01*
X147174286Y-85466428D02*
X147117143Y-85437857D01*
X147117143Y-85437857D02*
X147088571Y-85380714D01*
X147088571Y-85380714D02*
X147088571Y-85152142D01*
X147088571Y-85152142D02*
X147117143Y-85095000D01*
X147117143Y-85095000D02*
X147174286Y-85066428D01*
X147174286Y-85066428D02*
X147288571Y-85066428D01*
X147288571Y-85066428D02*
X147345714Y-85095000D01*
X147345714Y-85095000D02*
X147374286Y-85152142D01*
X147374286Y-85152142D02*
X147374286Y-85209285D01*
X147374286Y-85209285D02*
X147088571Y-85266428D01*
D12*
%TO.C,U11*%
X157842333Y-83445166D02*
X157842333Y-84011833D01*
X157842333Y-84011833D02*
X157875667Y-84078500D01*
X157875667Y-84078500D02*
X157909000Y-84111833D01*
X157909000Y-84111833D02*
X157975667Y-84145166D01*
X157975667Y-84145166D02*
X158109000Y-84145166D01*
X158109000Y-84145166D02*
X158175667Y-84111833D01*
X158175667Y-84111833D02*
X158209000Y-84078500D01*
X158209000Y-84078500D02*
X158242333Y-84011833D01*
X158242333Y-84011833D02*
X158242333Y-83445166D01*
X158942333Y-84145166D02*
X158542333Y-84145166D01*
X158742333Y-84145166D02*
X158742333Y-83445166D01*
X158742333Y-83445166D02*
X158675666Y-83545166D01*
X158675666Y-83545166D02*
X158609000Y-83611833D01*
X158609000Y-83611833D02*
X158542333Y-83645166D01*
X159609000Y-84145166D02*
X159209000Y-84145166D01*
X159409000Y-84145166D02*
X159409000Y-83445166D01*
X159409000Y-83445166D02*
X159342333Y-83545166D01*
X159342333Y-83545166D02*
X159275667Y-83611833D01*
X159275667Y-83611833D02*
X159209000Y-83645166D01*
%TO.C,C15*%
X118359999Y-105840500D02*
X118326666Y-105873833D01*
X118326666Y-105873833D02*
X118226666Y-105907166D01*
X118226666Y-105907166D02*
X118159999Y-105907166D01*
X118159999Y-105907166D02*
X118059999Y-105873833D01*
X118059999Y-105873833D02*
X117993333Y-105807166D01*
X117993333Y-105807166D02*
X117959999Y-105740500D01*
X117959999Y-105740500D02*
X117926666Y-105607166D01*
X117926666Y-105607166D02*
X117926666Y-105507166D01*
X117926666Y-105507166D02*
X117959999Y-105373833D01*
X117959999Y-105373833D02*
X117993333Y-105307166D01*
X117993333Y-105307166D02*
X118059999Y-105240500D01*
X118059999Y-105240500D02*
X118159999Y-105207166D01*
X118159999Y-105207166D02*
X118226666Y-105207166D01*
X118226666Y-105207166D02*
X118326666Y-105240500D01*
X118326666Y-105240500D02*
X118359999Y-105273833D01*
X119026666Y-105907166D02*
X118626666Y-105907166D01*
X118826666Y-105907166D02*
X118826666Y-105207166D01*
X118826666Y-105207166D02*
X118759999Y-105307166D01*
X118759999Y-105307166D02*
X118693333Y-105373833D01*
X118693333Y-105373833D02*
X118626666Y-105407166D01*
X119660000Y-105207166D02*
X119326666Y-105207166D01*
X119326666Y-105207166D02*
X119293333Y-105540500D01*
X119293333Y-105540500D02*
X119326666Y-105507166D01*
X119326666Y-105507166D02*
X119393333Y-105473833D01*
X119393333Y-105473833D02*
X119560000Y-105473833D01*
X119560000Y-105473833D02*
X119626666Y-105507166D01*
X119626666Y-105507166D02*
X119660000Y-105540500D01*
X119660000Y-105540500D02*
X119693333Y-105607166D01*
X119693333Y-105607166D02*
X119693333Y-105773833D01*
X119693333Y-105773833D02*
X119660000Y-105840500D01*
X119660000Y-105840500D02*
X119626666Y-105873833D01*
X119626666Y-105873833D02*
X119560000Y-105907166D01*
X119560000Y-105907166D02*
X119393333Y-105907166D01*
X119393333Y-105907166D02*
X119326666Y-105873833D01*
X119326666Y-105873833D02*
X119293333Y-105840500D01*
%TO.C,TP6*%
X151468666Y-88568166D02*
X151868666Y-88568166D01*
X151668666Y-89268166D02*
X151668666Y-88568166D01*
X152101999Y-89268166D02*
X152101999Y-88568166D01*
X152101999Y-88568166D02*
X152368666Y-88568166D01*
X152368666Y-88568166D02*
X152435333Y-88601500D01*
X152435333Y-88601500D02*
X152468666Y-88634833D01*
X152468666Y-88634833D02*
X152501999Y-88701500D01*
X152501999Y-88701500D02*
X152501999Y-88801500D01*
X152501999Y-88801500D02*
X152468666Y-88868166D01*
X152468666Y-88868166D02*
X152435333Y-88901500D01*
X152435333Y-88901500D02*
X152368666Y-88934833D01*
X152368666Y-88934833D02*
X152101999Y-88934833D01*
X153101999Y-88568166D02*
X152968666Y-88568166D01*
X152968666Y-88568166D02*
X152901999Y-88601500D01*
X152901999Y-88601500D02*
X152868666Y-88634833D01*
X152868666Y-88634833D02*
X152801999Y-88734833D01*
X152801999Y-88734833D02*
X152768666Y-88868166D01*
X152768666Y-88868166D02*
X152768666Y-89134833D01*
X152768666Y-89134833D02*
X152801999Y-89201500D01*
X152801999Y-89201500D02*
X152835333Y-89234833D01*
X152835333Y-89234833D02*
X152901999Y-89268166D01*
X152901999Y-89268166D02*
X153035333Y-89268166D01*
X153035333Y-89268166D02*
X153101999Y-89234833D01*
X153101999Y-89234833D02*
X153135333Y-89201500D01*
X153135333Y-89201500D02*
X153168666Y-89134833D01*
X153168666Y-89134833D02*
X153168666Y-88968166D01*
X153168666Y-88968166D02*
X153135333Y-88901500D01*
X153135333Y-88901500D02*
X153101999Y-88868166D01*
X153101999Y-88868166D02*
X153035333Y-88834833D01*
X153035333Y-88834833D02*
X152901999Y-88834833D01*
X152901999Y-88834833D02*
X152835333Y-88868166D01*
X152835333Y-88868166D02*
X152801999Y-88901500D01*
X152801999Y-88901500D02*
X152768666Y-88968166D01*
%TO.C,R4*%
X131353333Y-103247166D02*
X131120000Y-102913833D01*
X130953333Y-103247166D02*
X130953333Y-102547166D01*
X130953333Y-102547166D02*
X131220000Y-102547166D01*
X131220000Y-102547166D02*
X131286667Y-102580500D01*
X131286667Y-102580500D02*
X131320000Y-102613833D01*
X131320000Y-102613833D02*
X131353333Y-102680500D01*
X131353333Y-102680500D02*
X131353333Y-102780500D01*
X131353333Y-102780500D02*
X131320000Y-102847166D01*
X131320000Y-102847166D02*
X131286667Y-102880500D01*
X131286667Y-102880500D02*
X131220000Y-102913833D01*
X131220000Y-102913833D02*
X130953333Y-102913833D01*
X131953333Y-102780500D02*
X131953333Y-103247166D01*
X131786667Y-102513833D02*
X131620000Y-103013833D01*
X131620000Y-103013833D02*
X132053333Y-103013833D01*
%TO.C,R7*%
X149847166Y-105806666D02*
X149513833Y-106039999D01*
X149847166Y-106206666D02*
X149147166Y-106206666D01*
X149147166Y-106206666D02*
X149147166Y-105939999D01*
X149147166Y-105939999D02*
X149180500Y-105873333D01*
X149180500Y-105873333D02*
X149213833Y-105839999D01*
X149213833Y-105839999D02*
X149280500Y-105806666D01*
X149280500Y-105806666D02*
X149380500Y-105806666D01*
X149380500Y-105806666D02*
X149447166Y-105839999D01*
X149447166Y-105839999D02*
X149480500Y-105873333D01*
X149480500Y-105873333D02*
X149513833Y-105939999D01*
X149513833Y-105939999D02*
X149513833Y-106206666D01*
X149147166Y-105573333D02*
X149147166Y-105106666D01*
X149147166Y-105106666D02*
X149847166Y-105406666D01*
%TO.C,R3*%
X126463333Y-97827166D02*
X126230000Y-97493833D01*
X126063333Y-97827166D02*
X126063333Y-97127166D01*
X126063333Y-97127166D02*
X126330000Y-97127166D01*
X126330000Y-97127166D02*
X126396667Y-97160500D01*
X126396667Y-97160500D02*
X126430000Y-97193833D01*
X126430000Y-97193833D02*
X126463333Y-97260500D01*
X126463333Y-97260500D02*
X126463333Y-97360500D01*
X126463333Y-97360500D02*
X126430000Y-97427166D01*
X126430000Y-97427166D02*
X126396667Y-97460500D01*
X126396667Y-97460500D02*
X126330000Y-97493833D01*
X126330000Y-97493833D02*
X126063333Y-97493833D01*
X126696667Y-97127166D02*
X127130000Y-97127166D01*
X127130000Y-97127166D02*
X126896667Y-97393833D01*
X126896667Y-97393833D02*
X126996667Y-97393833D01*
X126996667Y-97393833D02*
X127063333Y-97427166D01*
X127063333Y-97427166D02*
X127096667Y-97460500D01*
X127096667Y-97460500D02*
X127130000Y-97527166D01*
X127130000Y-97527166D02*
X127130000Y-97693833D01*
X127130000Y-97693833D02*
X127096667Y-97760500D01*
X127096667Y-97760500D02*
X127063333Y-97793833D01*
X127063333Y-97793833D02*
X126996667Y-97827166D01*
X126996667Y-97827166D02*
X126796667Y-97827166D01*
X126796667Y-97827166D02*
X126730000Y-97793833D01*
X126730000Y-97793833D02*
X126696667Y-97760500D01*
%TO.C,U3*%
X122920132Y-109621034D02*
X122920132Y-109054367D01*
X122920132Y-109054367D02*
X122886799Y-108987701D01*
X122886799Y-108987701D02*
X122853465Y-108954367D01*
X122853465Y-108954367D02*
X122786799Y-108921034D01*
X122786799Y-108921034D02*
X122653465Y-108921034D01*
X122653465Y-108921034D02*
X122586799Y-108954367D01*
X122586799Y-108954367D02*
X122553465Y-108987701D01*
X122553465Y-108987701D02*
X122520132Y-109054367D01*
X122520132Y-109054367D02*
X122520132Y-109621034D01*
X122253466Y-109621034D02*
X121820132Y-109621034D01*
X121820132Y-109621034D02*
X122053466Y-109354367D01*
X122053466Y-109354367D02*
X121953466Y-109354367D01*
X121953466Y-109354367D02*
X121886799Y-109321034D01*
X121886799Y-109321034D02*
X121853466Y-109287701D01*
X121853466Y-109287701D02*
X121820132Y-109221034D01*
X121820132Y-109221034D02*
X121820132Y-109054367D01*
X121820132Y-109054367D02*
X121853466Y-108987701D01*
X121853466Y-108987701D02*
X121886799Y-108954367D01*
X121886799Y-108954367D02*
X121953466Y-108921034D01*
X121953466Y-108921034D02*
X122153466Y-108921034D01*
X122153466Y-108921034D02*
X122220132Y-108954367D01*
X122220132Y-108954367D02*
X122253466Y-108987701D01*
%TO.C,C4*%
X129713333Y-101220500D02*
X129680000Y-101253833D01*
X129680000Y-101253833D02*
X129580000Y-101287166D01*
X129580000Y-101287166D02*
X129513333Y-101287166D01*
X129513333Y-101287166D02*
X129413333Y-101253833D01*
X129413333Y-101253833D02*
X129346667Y-101187166D01*
X129346667Y-101187166D02*
X129313333Y-101120500D01*
X129313333Y-101120500D02*
X129280000Y-100987166D01*
X129280000Y-100987166D02*
X129280000Y-100887166D01*
X129280000Y-100887166D02*
X129313333Y-100753833D01*
X129313333Y-100753833D02*
X129346667Y-100687166D01*
X129346667Y-100687166D02*
X129413333Y-100620500D01*
X129413333Y-100620500D02*
X129513333Y-100587166D01*
X129513333Y-100587166D02*
X129580000Y-100587166D01*
X129580000Y-100587166D02*
X129680000Y-100620500D01*
X129680000Y-100620500D02*
X129713333Y-100653833D01*
X130313333Y-100820500D02*
X130313333Y-101287166D01*
X130146667Y-100553833D02*
X129980000Y-101053833D01*
X129980000Y-101053833D02*
X130413333Y-101053833D01*
%TO.C,U8*%
X156447833Y-100841666D02*
X155881166Y-100841666D01*
X155881166Y-100841666D02*
X155814500Y-100875000D01*
X155814500Y-100875000D02*
X155781166Y-100908333D01*
X155781166Y-100908333D02*
X155747833Y-100975000D01*
X155747833Y-100975000D02*
X155747833Y-101108333D01*
X155747833Y-101108333D02*
X155781166Y-101175000D01*
X155781166Y-101175000D02*
X155814500Y-101208333D01*
X155814500Y-101208333D02*
X155881166Y-101241666D01*
X155881166Y-101241666D02*
X156447833Y-101241666D01*
X156147833Y-101674999D02*
X156181166Y-101608333D01*
X156181166Y-101608333D02*
X156214500Y-101574999D01*
X156214500Y-101574999D02*
X156281166Y-101541666D01*
X156281166Y-101541666D02*
X156314500Y-101541666D01*
X156314500Y-101541666D02*
X156381166Y-101574999D01*
X156381166Y-101574999D02*
X156414500Y-101608333D01*
X156414500Y-101608333D02*
X156447833Y-101674999D01*
X156447833Y-101674999D02*
X156447833Y-101808333D01*
X156447833Y-101808333D02*
X156414500Y-101874999D01*
X156414500Y-101874999D02*
X156381166Y-101908333D01*
X156381166Y-101908333D02*
X156314500Y-101941666D01*
X156314500Y-101941666D02*
X156281166Y-101941666D01*
X156281166Y-101941666D02*
X156214500Y-101908333D01*
X156214500Y-101908333D02*
X156181166Y-101874999D01*
X156181166Y-101874999D02*
X156147833Y-101808333D01*
X156147833Y-101808333D02*
X156147833Y-101674999D01*
X156147833Y-101674999D02*
X156114500Y-101608333D01*
X156114500Y-101608333D02*
X156081166Y-101574999D01*
X156081166Y-101574999D02*
X156014500Y-101541666D01*
X156014500Y-101541666D02*
X155881166Y-101541666D01*
X155881166Y-101541666D02*
X155814500Y-101574999D01*
X155814500Y-101574999D02*
X155781166Y-101608333D01*
X155781166Y-101608333D02*
X155747833Y-101674999D01*
X155747833Y-101674999D02*
X155747833Y-101808333D01*
X155747833Y-101808333D02*
X155781166Y-101874999D01*
X155781166Y-101874999D02*
X155814500Y-101908333D01*
X155814500Y-101908333D02*
X155881166Y-101941666D01*
X155881166Y-101941666D02*
X156014500Y-101941666D01*
X156014500Y-101941666D02*
X156081166Y-101908333D01*
X156081166Y-101908333D02*
X156114500Y-101874999D01*
X156114500Y-101874999D02*
X156147833Y-101808333D01*
%TO.C,D5*%
X154347166Y-92016666D02*
X154013833Y-92249999D01*
X154347166Y-92416666D02*
X153647166Y-92416666D01*
X153647166Y-92416666D02*
X153647166Y-92149999D01*
X153647166Y-92149999D02*
X153680500Y-92083333D01*
X153680500Y-92083333D02*
X153713833Y-92049999D01*
X153713833Y-92049999D02*
X153780500Y-92016666D01*
X153780500Y-92016666D02*
X153880500Y-92016666D01*
X153880500Y-92016666D02*
X153947166Y-92049999D01*
X153947166Y-92049999D02*
X153980500Y-92083333D01*
X153980500Y-92083333D02*
X154013833Y-92149999D01*
X154013833Y-92149999D02*
X154013833Y-92416666D01*
X153647166Y-91783333D02*
X154347166Y-91316666D01*
X153647166Y-91316666D02*
X154347166Y-91783333D01*
X154347166Y-90716666D02*
X154347166Y-91049999D01*
X154347166Y-91049999D02*
X153647166Y-91049999D01*
X153980500Y-90483332D02*
X153980500Y-90249999D01*
X154347166Y-90149999D02*
X154347166Y-90483332D01*
X154347166Y-90483332D02*
X153647166Y-90483332D01*
X153647166Y-90483332D02*
X153647166Y-90149999D01*
X154347166Y-89849999D02*
X153647166Y-89849999D01*
X153647166Y-89849999D02*
X153647166Y-89683332D01*
X153647166Y-89683332D02*
X153680500Y-89583332D01*
X153680500Y-89583332D02*
X153747166Y-89516666D01*
X153747166Y-89516666D02*
X153813833Y-89483332D01*
X153813833Y-89483332D02*
X153947166Y-89449999D01*
X153947166Y-89449999D02*
X154047166Y-89449999D01*
X154047166Y-89449999D02*
X154180500Y-89483332D01*
X154180500Y-89483332D02*
X154247166Y-89516666D01*
X154247166Y-89516666D02*
X154313833Y-89583332D01*
X154313833Y-89583332D02*
X154347166Y-89683332D01*
X154347166Y-89683332D02*
X154347166Y-89849999D01*
%TO.C,C23*%
X125329500Y-86309999D02*
X125296166Y-86276666D01*
X125296166Y-86276666D02*
X125262833Y-86176666D01*
X125262833Y-86176666D02*
X125262833Y-86109999D01*
X125262833Y-86109999D02*
X125296166Y-86009999D01*
X125296166Y-86009999D02*
X125362833Y-85943333D01*
X125362833Y-85943333D02*
X125429500Y-85909999D01*
X125429500Y-85909999D02*
X125562833Y-85876666D01*
X125562833Y-85876666D02*
X125662833Y-85876666D01*
X125662833Y-85876666D02*
X125796166Y-85909999D01*
X125796166Y-85909999D02*
X125862833Y-85943333D01*
X125862833Y-85943333D02*
X125929500Y-86009999D01*
X125929500Y-86009999D02*
X125962833Y-86109999D01*
X125962833Y-86109999D02*
X125962833Y-86176666D01*
X125962833Y-86176666D02*
X125929500Y-86276666D01*
X125929500Y-86276666D02*
X125896166Y-86309999D01*
X125896166Y-86576666D02*
X125929500Y-86609999D01*
X125929500Y-86609999D02*
X125962833Y-86676666D01*
X125962833Y-86676666D02*
X125962833Y-86843333D01*
X125962833Y-86843333D02*
X125929500Y-86909999D01*
X125929500Y-86909999D02*
X125896166Y-86943333D01*
X125896166Y-86943333D02*
X125829500Y-86976666D01*
X125829500Y-86976666D02*
X125762833Y-86976666D01*
X125762833Y-86976666D02*
X125662833Y-86943333D01*
X125662833Y-86943333D02*
X125262833Y-86543333D01*
X125262833Y-86543333D02*
X125262833Y-86976666D01*
X125962833Y-87210000D02*
X125962833Y-87643333D01*
X125962833Y-87643333D02*
X125696166Y-87410000D01*
X125696166Y-87410000D02*
X125696166Y-87510000D01*
X125696166Y-87510000D02*
X125662833Y-87576666D01*
X125662833Y-87576666D02*
X125629500Y-87610000D01*
X125629500Y-87610000D02*
X125562833Y-87643333D01*
X125562833Y-87643333D02*
X125396166Y-87643333D01*
X125396166Y-87643333D02*
X125329500Y-87610000D01*
X125329500Y-87610000D02*
X125296166Y-87576666D01*
X125296166Y-87576666D02*
X125262833Y-87510000D01*
X125262833Y-87510000D02*
X125262833Y-87310000D01*
X125262833Y-87310000D02*
X125296166Y-87243333D01*
X125296166Y-87243333D02*
X125329500Y-87210000D01*
%TO.C,JP1*%
X138427166Y-90253333D02*
X138927166Y-90253333D01*
X138927166Y-90253333D02*
X139027166Y-90286666D01*
X139027166Y-90286666D02*
X139093833Y-90353333D01*
X139093833Y-90353333D02*
X139127166Y-90453333D01*
X139127166Y-90453333D02*
X139127166Y-90520000D01*
X139127166Y-89920000D02*
X138427166Y-89920000D01*
X138427166Y-89920000D02*
X138427166Y-89653333D01*
X138427166Y-89653333D02*
X138460500Y-89586667D01*
X138460500Y-89586667D02*
X138493833Y-89553333D01*
X138493833Y-89553333D02*
X138560500Y-89520000D01*
X138560500Y-89520000D02*
X138660500Y-89520000D01*
X138660500Y-89520000D02*
X138727166Y-89553333D01*
X138727166Y-89553333D02*
X138760500Y-89586667D01*
X138760500Y-89586667D02*
X138793833Y-89653333D01*
X138793833Y-89653333D02*
X138793833Y-89920000D01*
X139127166Y-88853333D02*
X139127166Y-89253333D01*
X139127166Y-89053333D02*
X138427166Y-89053333D01*
X138427166Y-89053333D02*
X138527166Y-89120000D01*
X138527166Y-89120000D02*
X138593833Y-89186667D01*
X138593833Y-89186667D02*
X138627166Y-89253333D01*
%TO.C,C3*%
X130083333Y-91090500D02*
X130050000Y-91123833D01*
X130050000Y-91123833D02*
X129950000Y-91157166D01*
X129950000Y-91157166D02*
X129883333Y-91157166D01*
X129883333Y-91157166D02*
X129783333Y-91123833D01*
X129783333Y-91123833D02*
X129716667Y-91057166D01*
X129716667Y-91057166D02*
X129683333Y-90990500D01*
X129683333Y-90990500D02*
X129650000Y-90857166D01*
X129650000Y-90857166D02*
X129650000Y-90757166D01*
X129650000Y-90757166D02*
X129683333Y-90623833D01*
X129683333Y-90623833D02*
X129716667Y-90557166D01*
X129716667Y-90557166D02*
X129783333Y-90490500D01*
X129783333Y-90490500D02*
X129883333Y-90457166D01*
X129883333Y-90457166D02*
X129950000Y-90457166D01*
X129950000Y-90457166D02*
X130050000Y-90490500D01*
X130050000Y-90490500D02*
X130083333Y-90523833D01*
X130316667Y-90457166D02*
X130750000Y-90457166D01*
X130750000Y-90457166D02*
X130516667Y-90723833D01*
X130516667Y-90723833D02*
X130616667Y-90723833D01*
X130616667Y-90723833D02*
X130683333Y-90757166D01*
X130683333Y-90757166D02*
X130716667Y-90790500D01*
X130716667Y-90790500D02*
X130750000Y-90857166D01*
X130750000Y-90857166D02*
X130750000Y-91023833D01*
X130750000Y-91023833D02*
X130716667Y-91090500D01*
X130716667Y-91090500D02*
X130683333Y-91123833D01*
X130683333Y-91123833D02*
X130616667Y-91157166D01*
X130616667Y-91157166D02*
X130416667Y-91157166D01*
X130416667Y-91157166D02*
X130350000Y-91123833D01*
X130350000Y-91123833D02*
X130316667Y-91090500D01*
%TO.C,R8*%
X159223333Y-103457166D02*
X158990000Y-103123833D01*
X158823333Y-103457166D02*
X158823333Y-102757166D01*
X158823333Y-102757166D02*
X159090000Y-102757166D01*
X159090000Y-102757166D02*
X159156667Y-102790500D01*
X159156667Y-102790500D02*
X159190000Y-102823833D01*
X159190000Y-102823833D02*
X159223333Y-102890500D01*
X159223333Y-102890500D02*
X159223333Y-102990500D01*
X159223333Y-102990500D02*
X159190000Y-103057166D01*
X159190000Y-103057166D02*
X159156667Y-103090500D01*
X159156667Y-103090500D02*
X159090000Y-103123833D01*
X159090000Y-103123833D02*
X158823333Y-103123833D01*
X159623333Y-103057166D02*
X159556667Y-103023833D01*
X159556667Y-103023833D02*
X159523333Y-102990500D01*
X159523333Y-102990500D02*
X159490000Y-102923833D01*
X159490000Y-102923833D02*
X159490000Y-102890500D01*
X159490000Y-102890500D02*
X159523333Y-102823833D01*
X159523333Y-102823833D02*
X159556667Y-102790500D01*
X159556667Y-102790500D02*
X159623333Y-102757166D01*
X159623333Y-102757166D02*
X159756667Y-102757166D01*
X159756667Y-102757166D02*
X159823333Y-102790500D01*
X159823333Y-102790500D02*
X159856667Y-102823833D01*
X159856667Y-102823833D02*
X159890000Y-102890500D01*
X159890000Y-102890500D02*
X159890000Y-102923833D01*
X159890000Y-102923833D02*
X159856667Y-102990500D01*
X159856667Y-102990500D02*
X159823333Y-103023833D01*
X159823333Y-103023833D02*
X159756667Y-103057166D01*
X159756667Y-103057166D02*
X159623333Y-103057166D01*
X159623333Y-103057166D02*
X159556667Y-103090500D01*
X159556667Y-103090500D02*
X159523333Y-103123833D01*
X159523333Y-103123833D02*
X159490000Y-103190500D01*
X159490000Y-103190500D02*
X159490000Y-103323833D01*
X159490000Y-103323833D02*
X159523333Y-103390500D01*
X159523333Y-103390500D02*
X159556667Y-103423833D01*
X159556667Y-103423833D02*
X159623333Y-103457166D01*
X159623333Y-103457166D02*
X159756667Y-103457166D01*
X159756667Y-103457166D02*
X159823333Y-103423833D01*
X159823333Y-103423833D02*
X159856667Y-103390500D01*
X159856667Y-103390500D02*
X159890000Y-103323833D01*
X159890000Y-103323833D02*
X159890000Y-103190500D01*
X159890000Y-103190500D02*
X159856667Y-103123833D01*
X159856667Y-103123833D02*
X159823333Y-103090500D01*
X159823333Y-103090500D02*
X159756667Y-103057166D01*
%TO.C,R6*%
X152678333Y-90487166D02*
X152445000Y-90153833D01*
X152278333Y-90487166D02*
X152278333Y-89787166D01*
X152278333Y-89787166D02*
X152545000Y-89787166D01*
X152545000Y-89787166D02*
X152611667Y-89820500D01*
X152611667Y-89820500D02*
X152645000Y-89853833D01*
X152645000Y-89853833D02*
X152678333Y-89920500D01*
X152678333Y-89920500D02*
X152678333Y-90020500D01*
X152678333Y-90020500D02*
X152645000Y-90087166D01*
X152645000Y-90087166D02*
X152611667Y-90120500D01*
X152611667Y-90120500D02*
X152545000Y-90153833D01*
X152545000Y-90153833D02*
X152278333Y-90153833D01*
X153278333Y-89787166D02*
X153145000Y-89787166D01*
X153145000Y-89787166D02*
X153078333Y-89820500D01*
X153078333Y-89820500D02*
X153045000Y-89853833D01*
X153045000Y-89853833D02*
X152978333Y-89953833D01*
X152978333Y-89953833D02*
X152945000Y-90087166D01*
X152945000Y-90087166D02*
X152945000Y-90353833D01*
X152945000Y-90353833D02*
X152978333Y-90420500D01*
X152978333Y-90420500D02*
X153011667Y-90453833D01*
X153011667Y-90453833D02*
X153078333Y-90487166D01*
X153078333Y-90487166D02*
X153211667Y-90487166D01*
X153211667Y-90487166D02*
X153278333Y-90453833D01*
X153278333Y-90453833D02*
X153311667Y-90420500D01*
X153311667Y-90420500D02*
X153345000Y-90353833D01*
X153345000Y-90353833D02*
X153345000Y-90187166D01*
X153345000Y-90187166D02*
X153311667Y-90120500D01*
X153311667Y-90120500D02*
X153278333Y-90087166D01*
X153278333Y-90087166D02*
X153211667Y-90053833D01*
X153211667Y-90053833D02*
X153078333Y-90053833D01*
X153078333Y-90053833D02*
X153011667Y-90087166D01*
X153011667Y-90087166D02*
X152978333Y-90120500D01*
X152978333Y-90120500D02*
X152945000Y-90187166D01*
%TO.C,D7*%
X118998333Y-83607166D02*
X119431666Y-83607166D01*
X119431666Y-83607166D02*
X119198333Y-83873833D01*
X119198333Y-83873833D02*
X119298333Y-83873833D01*
X119298333Y-83873833D02*
X119364999Y-83907166D01*
X119364999Y-83907166D02*
X119398333Y-83940500D01*
X119398333Y-83940500D02*
X119431666Y-84007166D01*
X119431666Y-84007166D02*
X119431666Y-84173833D01*
X119431666Y-84173833D02*
X119398333Y-84240500D01*
X119398333Y-84240500D02*
X119364999Y-84273833D01*
X119364999Y-84273833D02*
X119298333Y-84307166D01*
X119298333Y-84307166D02*
X119098333Y-84307166D01*
X119098333Y-84307166D02*
X119031666Y-84273833D01*
X119031666Y-84273833D02*
X118998333Y-84240500D01*
X119631666Y-83607166D02*
X119865000Y-84307166D01*
X119865000Y-84307166D02*
X120098333Y-83607166D01*
X120265000Y-83607166D02*
X120698333Y-83607166D01*
X120698333Y-83607166D02*
X120465000Y-83873833D01*
X120465000Y-83873833D02*
X120565000Y-83873833D01*
X120565000Y-83873833D02*
X120631666Y-83907166D01*
X120631666Y-83907166D02*
X120665000Y-83940500D01*
X120665000Y-83940500D02*
X120698333Y-84007166D01*
X120698333Y-84007166D02*
X120698333Y-84173833D01*
X120698333Y-84173833D02*
X120665000Y-84240500D01*
X120665000Y-84240500D02*
X120631666Y-84273833D01*
X120631666Y-84273833D02*
X120565000Y-84307166D01*
X120565000Y-84307166D02*
X120365000Y-84307166D01*
X120365000Y-84307166D02*
X120298333Y-84273833D01*
X120298333Y-84273833D02*
X120265000Y-84240500D01*
X121331667Y-84307166D02*
X120998333Y-84307166D01*
X120998333Y-84307166D02*
X120998333Y-83607166D01*
X121565000Y-83940500D02*
X121798334Y-83940500D01*
X121898334Y-84307166D02*
X121565000Y-84307166D01*
X121565000Y-84307166D02*
X121565000Y-83607166D01*
X121565000Y-83607166D02*
X121898334Y-83607166D01*
X122198333Y-84307166D02*
X122198333Y-83607166D01*
X122198333Y-83607166D02*
X122365000Y-83607166D01*
X122365000Y-83607166D02*
X122465000Y-83640500D01*
X122465000Y-83640500D02*
X122531667Y-83707166D01*
X122531667Y-83707166D02*
X122565000Y-83773833D01*
X122565000Y-83773833D02*
X122598333Y-83907166D01*
X122598333Y-83907166D02*
X122598333Y-84007166D01*
X122598333Y-84007166D02*
X122565000Y-84140500D01*
X122565000Y-84140500D02*
X122531667Y-84207166D01*
X122531667Y-84207166D02*
X122465000Y-84273833D01*
X122465000Y-84273833D02*
X122365000Y-84307166D01*
X122365000Y-84307166D02*
X122198333Y-84307166D01*
%TO.C,D4*%
X127932833Y-99476666D02*
X127932833Y-99876666D01*
X127232833Y-99676666D02*
X127932833Y-99676666D01*
X127932833Y-100043333D02*
X127232833Y-100509999D01*
X127932833Y-100509999D02*
X127232833Y-100043333D01*
X127232833Y-101110000D02*
X127232833Y-100776666D01*
X127232833Y-100776666D02*
X127932833Y-100776666D01*
X127599500Y-101343333D02*
X127599500Y-101576667D01*
X127232833Y-101676667D02*
X127232833Y-101343333D01*
X127232833Y-101343333D02*
X127932833Y-101343333D01*
X127932833Y-101343333D02*
X127932833Y-101676667D01*
X127232833Y-101976666D02*
X127932833Y-101976666D01*
X127932833Y-101976666D02*
X127932833Y-102143333D01*
X127932833Y-102143333D02*
X127899500Y-102243333D01*
X127899500Y-102243333D02*
X127832833Y-102310000D01*
X127832833Y-102310000D02*
X127766166Y-102343333D01*
X127766166Y-102343333D02*
X127632833Y-102376666D01*
X127632833Y-102376666D02*
X127532833Y-102376666D01*
X127532833Y-102376666D02*
X127399500Y-102343333D01*
X127399500Y-102343333D02*
X127332833Y-102310000D01*
X127332833Y-102310000D02*
X127266166Y-102243333D01*
X127266166Y-102243333D02*
X127232833Y-102143333D01*
X127232833Y-102143333D02*
X127232833Y-101976666D01*
%TO.C,R13*%
X124079999Y-84427166D02*
X123846666Y-84093833D01*
X123679999Y-84427166D02*
X123679999Y-83727166D01*
X123679999Y-83727166D02*
X123946666Y-83727166D01*
X123946666Y-83727166D02*
X124013333Y-83760500D01*
X124013333Y-83760500D02*
X124046666Y-83793833D01*
X124046666Y-83793833D02*
X124079999Y-83860500D01*
X124079999Y-83860500D02*
X124079999Y-83960500D01*
X124079999Y-83960500D02*
X124046666Y-84027166D01*
X124046666Y-84027166D02*
X124013333Y-84060500D01*
X124013333Y-84060500D02*
X123946666Y-84093833D01*
X123946666Y-84093833D02*
X123679999Y-84093833D01*
X124746666Y-84427166D02*
X124346666Y-84427166D01*
X124546666Y-84427166D02*
X124546666Y-83727166D01*
X124546666Y-83727166D02*
X124479999Y-83827166D01*
X124479999Y-83827166D02*
X124413333Y-83893833D01*
X124413333Y-83893833D02*
X124346666Y-83927166D01*
X124980000Y-83727166D02*
X125413333Y-83727166D01*
X125413333Y-83727166D02*
X125180000Y-83993833D01*
X125180000Y-83993833D02*
X125280000Y-83993833D01*
X125280000Y-83993833D02*
X125346666Y-84027166D01*
X125346666Y-84027166D02*
X125380000Y-84060500D01*
X125380000Y-84060500D02*
X125413333Y-84127166D01*
X125413333Y-84127166D02*
X125413333Y-84293833D01*
X125413333Y-84293833D02*
X125380000Y-84360500D01*
X125380000Y-84360500D02*
X125346666Y-84393833D01*
X125346666Y-84393833D02*
X125280000Y-84427166D01*
X125280000Y-84427166D02*
X125080000Y-84427166D01*
X125080000Y-84427166D02*
X125013333Y-84393833D01*
X125013333Y-84393833D02*
X124980000Y-84360500D01*
%TO.C,C19*%
X132969999Y-107970500D02*
X132936666Y-108003833D01*
X132936666Y-108003833D02*
X132836666Y-108037166D01*
X132836666Y-108037166D02*
X132769999Y-108037166D01*
X132769999Y-108037166D02*
X132669999Y-108003833D01*
X132669999Y-108003833D02*
X132603333Y-107937166D01*
X132603333Y-107937166D02*
X132569999Y-107870500D01*
X132569999Y-107870500D02*
X132536666Y-107737166D01*
X132536666Y-107737166D02*
X132536666Y-107637166D01*
X132536666Y-107637166D02*
X132569999Y-107503833D01*
X132569999Y-107503833D02*
X132603333Y-107437166D01*
X132603333Y-107437166D02*
X132669999Y-107370500D01*
X132669999Y-107370500D02*
X132769999Y-107337166D01*
X132769999Y-107337166D02*
X132836666Y-107337166D01*
X132836666Y-107337166D02*
X132936666Y-107370500D01*
X132936666Y-107370500D02*
X132969999Y-107403833D01*
X133636666Y-108037166D02*
X133236666Y-108037166D01*
X133436666Y-108037166D02*
X133436666Y-107337166D01*
X133436666Y-107337166D02*
X133369999Y-107437166D01*
X133369999Y-107437166D02*
X133303333Y-107503833D01*
X133303333Y-107503833D02*
X133236666Y-107537166D01*
X133970000Y-108037166D02*
X134103333Y-108037166D01*
X134103333Y-108037166D02*
X134170000Y-108003833D01*
X134170000Y-108003833D02*
X134203333Y-107970500D01*
X134203333Y-107970500D02*
X134270000Y-107870500D01*
X134270000Y-107870500D02*
X134303333Y-107737166D01*
X134303333Y-107737166D02*
X134303333Y-107470500D01*
X134303333Y-107470500D02*
X134270000Y-107403833D01*
X134270000Y-107403833D02*
X134236666Y-107370500D01*
X134236666Y-107370500D02*
X134170000Y-107337166D01*
X134170000Y-107337166D02*
X134036666Y-107337166D01*
X134036666Y-107337166D02*
X133970000Y-107370500D01*
X133970000Y-107370500D02*
X133936666Y-107403833D01*
X133936666Y-107403833D02*
X133903333Y-107470500D01*
X133903333Y-107470500D02*
X133903333Y-107637166D01*
X133903333Y-107637166D02*
X133936666Y-107703833D01*
X133936666Y-107703833D02*
X133970000Y-107737166D01*
X133970000Y-107737166D02*
X134036666Y-107770500D01*
X134036666Y-107770500D02*
X134170000Y-107770500D01*
X134170000Y-107770500D02*
X134236666Y-107737166D01*
X134236666Y-107737166D02*
X134270000Y-107703833D01*
X134270000Y-107703833D02*
X134303333Y-107637166D01*
%TO.C,TP4*%
X139386666Y-98439166D02*
X139786666Y-98439166D01*
X139586666Y-99139166D02*
X139586666Y-98439166D01*
X140019999Y-99139166D02*
X140019999Y-98439166D01*
X140019999Y-98439166D02*
X140286666Y-98439166D01*
X140286666Y-98439166D02*
X140353333Y-98472500D01*
X140353333Y-98472500D02*
X140386666Y-98505833D01*
X140386666Y-98505833D02*
X140419999Y-98572500D01*
X140419999Y-98572500D02*
X140419999Y-98672500D01*
X140419999Y-98672500D02*
X140386666Y-98739166D01*
X140386666Y-98739166D02*
X140353333Y-98772500D01*
X140353333Y-98772500D02*
X140286666Y-98805833D01*
X140286666Y-98805833D02*
X140019999Y-98805833D01*
X141019999Y-98672500D02*
X141019999Y-99139166D01*
X140853333Y-98405833D02*
X140686666Y-98905833D01*
X140686666Y-98905833D02*
X141119999Y-98905833D01*
%TO.C,C16*%
X135849999Y-100090500D02*
X135816666Y-100123833D01*
X135816666Y-100123833D02*
X135716666Y-100157166D01*
X135716666Y-100157166D02*
X135649999Y-100157166D01*
X135649999Y-100157166D02*
X135549999Y-100123833D01*
X135549999Y-100123833D02*
X135483333Y-100057166D01*
X135483333Y-100057166D02*
X135449999Y-99990500D01*
X135449999Y-99990500D02*
X135416666Y-99857166D01*
X135416666Y-99857166D02*
X135416666Y-99757166D01*
X135416666Y-99757166D02*
X135449999Y-99623833D01*
X135449999Y-99623833D02*
X135483333Y-99557166D01*
X135483333Y-99557166D02*
X135549999Y-99490500D01*
X135549999Y-99490500D02*
X135649999Y-99457166D01*
X135649999Y-99457166D02*
X135716666Y-99457166D01*
X135716666Y-99457166D02*
X135816666Y-99490500D01*
X135816666Y-99490500D02*
X135849999Y-99523833D01*
X136516666Y-100157166D02*
X136116666Y-100157166D01*
X136316666Y-100157166D02*
X136316666Y-99457166D01*
X136316666Y-99457166D02*
X136249999Y-99557166D01*
X136249999Y-99557166D02*
X136183333Y-99623833D01*
X136183333Y-99623833D02*
X136116666Y-99657166D01*
X137116666Y-99457166D02*
X136983333Y-99457166D01*
X136983333Y-99457166D02*
X136916666Y-99490500D01*
X136916666Y-99490500D02*
X136883333Y-99523833D01*
X136883333Y-99523833D02*
X136816666Y-99623833D01*
X136816666Y-99623833D02*
X136783333Y-99757166D01*
X136783333Y-99757166D02*
X136783333Y-100023833D01*
X136783333Y-100023833D02*
X136816666Y-100090500D01*
X136816666Y-100090500D02*
X136850000Y-100123833D01*
X136850000Y-100123833D02*
X136916666Y-100157166D01*
X136916666Y-100157166D02*
X137050000Y-100157166D01*
X137050000Y-100157166D02*
X137116666Y-100123833D01*
X137116666Y-100123833D02*
X137150000Y-100090500D01*
X137150000Y-100090500D02*
X137183333Y-100023833D01*
X137183333Y-100023833D02*
X137183333Y-99857166D01*
X137183333Y-99857166D02*
X137150000Y-99790500D01*
X137150000Y-99790500D02*
X137116666Y-99757166D01*
X137116666Y-99757166D02*
X137050000Y-99723833D01*
X137050000Y-99723833D02*
X136916666Y-99723833D01*
X136916666Y-99723833D02*
X136850000Y-99757166D01*
X136850000Y-99757166D02*
X136816666Y-99790500D01*
X136816666Y-99790500D02*
X136783333Y-99857166D01*
%TO.C,R10*%
X152859999Y-108737166D02*
X152626666Y-108403833D01*
X152459999Y-108737166D02*
X152459999Y-108037166D01*
X152459999Y-108037166D02*
X152726666Y-108037166D01*
X152726666Y-108037166D02*
X152793333Y-108070500D01*
X152793333Y-108070500D02*
X152826666Y-108103833D01*
X152826666Y-108103833D02*
X152859999Y-108170500D01*
X152859999Y-108170500D02*
X152859999Y-108270500D01*
X152859999Y-108270500D02*
X152826666Y-108337166D01*
X152826666Y-108337166D02*
X152793333Y-108370500D01*
X152793333Y-108370500D02*
X152726666Y-108403833D01*
X152726666Y-108403833D02*
X152459999Y-108403833D01*
X153526666Y-108737166D02*
X153126666Y-108737166D01*
X153326666Y-108737166D02*
X153326666Y-108037166D01*
X153326666Y-108037166D02*
X153259999Y-108137166D01*
X153259999Y-108137166D02*
X153193333Y-108203833D01*
X153193333Y-108203833D02*
X153126666Y-108237166D01*
X153960000Y-108037166D02*
X154026666Y-108037166D01*
X154026666Y-108037166D02*
X154093333Y-108070500D01*
X154093333Y-108070500D02*
X154126666Y-108103833D01*
X154126666Y-108103833D02*
X154160000Y-108170500D01*
X154160000Y-108170500D02*
X154193333Y-108303833D01*
X154193333Y-108303833D02*
X154193333Y-108470500D01*
X154193333Y-108470500D02*
X154160000Y-108603833D01*
X154160000Y-108603833D02*
X154126666Y-108670500D01*
X154126666Y-108670500D02*
X154093333Y-108703833D01*
X154093333Y-108703833D02*
X154026666Y-108737166D01*
X154026666Y-108737166D02*
X153960000Y-108737166D01*
X153960000Y-108737166D02*
X153893333Y-108703833D01*
X153893333Y-108703833D02*
X153860000Y-108670500D01*
X153860000Y-108670500D02*
X153826666Y-108603833D01*
X153826666Y-108603833D02*
X153793333Y-108470500D01*
X153793333Y-108470500D02*
X153793333Y-108303833D01*
X153793333Y-108303833D02*
X153826666Y-108170500D01*
X153826666Y-108170500D02*
X153860000Y-108103833D01*
X153860000Y-108103833D02*
X153893333Y-108070500D01*
X153893333Y-108070500D02*
X153960000Y-108037166D01*
%TO.C,R5*%
X125705833Y-103717166D02*
X125472500Y-103383833D01*
X125305833Y-103717166D02*
X125305833Y-103017166D01*
X125305833Y-103017166D02*
X125572500Y-103017166D01*
X125572500Y-103017166D02*
X125639167Y-103050500D01*
X125639167Y-103050500D02*
X125672500Y-103083833D01*
X125672500Y-103083833D02*
X125705833Y-103150500D01*
X125705833Y-103150500D02*
X125705833Y-103250500D01*
X125705833Y-103250500D02*
X125672500Y-103317166D01*
X125672500Y-103317166D02*
X125639167Y-103350500D01*
X125639167Y-103350500D02*
X125572500Y-103383833D01*
X125572500Y-103383833D02*
X125305833Y-103383833D01*
X126339167Y-103017166D02*
X126005833Y-103017166D01*
X126005833Y-103017166D02*
X125972500Y-103350500D01*
X125972500Y-103350500D02*
X126005833Y-103317166D01*
X126005833Y-103317166D02*
X126072500Y-103283833D01*
X126072500Y-103283833D02*
X126239167Y-103283833D01*
X126239167Y-103283833D02*
X126305833Y-103317166D01*
X126305833Y-103317166D02*
X126339167Y-103350500D01*
X126339167Y-103350500D02*
X126372500Y-103417166D01*
X126372500Y-103417166D02*
X126372500Y-103583833D01*
X126372500Y-103583833D02*
X126339167Y-103650500D01*
X126339167Y-103650500D02*
X126305833Y-103683833D01*
X126305833Y-103683833D02*
X126239167Y-103717166D01*
X126239167Y-103717166D02*
X126072500Y-103717166D01*
X126072500Y-103717166D02*
X126005833Y-103683833D01*
X126005833Y-103683833D02*
X125972500Y-103650500D01*
%TO.C,C17*%
X133549999Y-83950500D02*
X133516666Y-83983833D01*
X133516666Y-83983833D02*
X133416666Y-84017166D01*
X133416666Y-84017166D02*
X133349999Y-84017166D01*
X133349999Y-84017166D02*
X133249999Y-83983833D01*
X133249999Y-83983833D02*
X133183333Y-83917166D01*
X133183333Y-83917166D02*
X133149999Y-83850500D01*
X133149999Y-83850500D02*
X133116666Y-83717166D01*
X133116666Y-83717166D02*
X133116666Y-83617166D01*
X133116666Y-83617166D02*
X133149999Y-83483833D01*
X133149999Y-83483833D02*
X133183333Y-83417166D01*
X133183333Y-83417166D02*
X133249999Y-83350500D01*
X133249999Y-83350500D02*
X133349999Y-83317166D01*
X133349999Y-83317166D02*
X133416666Y-83317166D01*
X133416666Y-83317166D02*
X133516666Y-83350500D01*
X133516666Y-83350500D02*
X133549999Y-83383833D01*
X134216666Y-84017166D02*
X133816666Y-84017166D01*
X134016666Y-84017166D02*
X134016666Y-83317166D01*
X134016666Y-83317166D02*
X133949999Y-83417166D01*
X133949999Y-83417166D02*
X133883333Y-83483833D01*
X133883333Y-83483833D02*
X133816666Y-83517166D01*
X134450000Y-83317166D02*
X134916666Y-83317166D01*
X134916666Y-83317166D02*
X134616666Y-84017166D01*
%TO.C,R15*%
X133557166Y-93850000D02*
X133223833Y-94083333D01*
X133557166Y-94250000D02*
X132857166Y-94250000D01*
X132857166Y-94250000D02*
X132857166Y-93983333D01*
X132857166Y-93983333D02*
X132890500Y-93916667D01*
X132890500Y-93916667D02*
X132923833Y-93883333D01*
X132923833Y-93883333D02*
X132990500Y-93850000D01*
X132990500Y-93850000D02*
X133090500Y-93850000D01*
X133090500Y-93850000D02*
X133157166Y-93883333D01*
X133157166Y-93883333D02*
X133190500Y-93916667D01*
X133190500Y-93916667D02*
X133223833Y-93983333D01*
X133223833Y-93983333D02*
X133223833Y-94250000D01*
X133557166Y-93183333D02*
X133557166Y-93583333D01*
X133557166Y-93383333D02*
X132857166Y-93383333D01*
X132857166Y-93383333D02*
X132957166Y-93450000D01*
X132957166Y-93450000D02*
X133023833Y-93516667D01*
X133023833Y-93516667D02*
X133057166Y-93583333D01*
X132857166Y-92550000D02*
X132857166Y-92883333D01*
X132857166Y-92883333D02*
X133190500Y-92916666D01*
X133190500Y-92916666D02*
X133157166Y-92883333D01*
X133157166Y-92883333D02*
X133123833Y-92816666D01*
X133123833Y-92816666D02*
X133123833Y-92650000D01*
X133123833Y-92650000D02*
X133157166Y-92583333D01*
X133157166Y-92583333D02*
X133190500Y-92550000D01*
X133190500Y-92550000D02*
X133257166Y-92516666D01*
X133257166Y-92516666D02*
X133423833Y-92516666D01*
X133423833Y-92516666D02*
X133490500Y-92550000D01*
X133490500Y-92550000D02*
X133523833Y-92583333D01*
X133523833Y-92583333D02*
X133557166Y-92650000D01*
X133557166Y-92650000D02*
X133557166Y-92816666D01*
X133557166Y-92816666D02*
X133523833Y-92883333D01*
X133523833Y-92883333D02*
X133490500Y-92916666D01*
%TO.C,R14*%
X153281166Y-87466000D02*
X152947833Y-87699333D01*
X153281166Y-87866000D02*
X152581166Y-87866000D01*
X152581166Y-87866000D02*
X152581166Y-87599333D01*
X152581166Y-87599333D02*
X152614500Y-87532667D01*
X152614500Y-87532667D02*
X152647833Y-87499333D01*
X152647833Y-87499333D02*
X152714500Y-87466000D01*
X152714500Y-87466000D02*
X152814500Y-87466000D01*
X152814500Y-87466000D02*
X152881166Y-87499333D01*
X152881166Y-87499333D02*
X152914500Y-87532667D01*
X152914500Y-87532667D02*
X152947833Y-87599333D01*
X152947833Y-87599333D02*
X152947833Y-87866000D01*
X153281166Y-86799333D02*
X153281166Y-87199333D01*
X153281166Y-86999333D02*
X152581166Y-86999333D01*
X152581166Y-86999333D02*
X152681166Y-87066000D01*
X152681166Y-87066000D02*
X152747833Y-87132667D01*
X152747833Y-87132667D02*
X152781166Y-87199333D01*
X152814500Y-86199333D02*
X153281166Y-86199333D01*
X152547833Y-86366000D02*
X153047833Y-86532666D01*
X153047833Y-86532666D02*
X153047833Y-86099333D01*
%TO.C,C21*%
X118499999Y-104580500D02*
X118466666Y-104613833D01*
X118466666Y-104613833D02*
X118366666Y-104647166D01*
X118366666Y-104647166D02*
X118299999Y-104647166D01*
X118299999Y-104647166D02*
X118199999Y-104613833D01*
X118199999Y-104613833D02*
X118133333Y-104547166D01*
X118133333Y-104547166D02*
X118099999Y-104480500D01*
X118099999Y-104480500D02*
X118066666Y-104347166D01*
X118066666Y-104347166D02*
X118066666Y-104247166D01*
X118066666Y-104247166D02*
X118099999Y-104113833D01*
X118099999Y-104113833D02*
X118133333Y-104047166D01*
X118133333Y-104047166D02*
X118199999Y-103980500D01*
X118199999Y-103980500D02*
X118299999Y-103947166D01*
X118299999Y-103947166D02*
X118366666Y-103947166D01*
X118366666Y-103947166D02*
X118466666Y-103980500D01*
X118466666Y-103980500D02*
X118499999Y-104013833D01*
X118766666Y-104013833D02*
X118799999Y-103980500D01*
X118799999Y-103980500D02*
X118866666Y-103947166D01*
X118866666Y-103947166D02*
X119033333Y-103947166D01*
X119033333Y-103947166D02*
X119099999Y-103980500D01*
X119099999Y-103980500D02*
X119133333Y-104013833D01*
X119133333Y-104013833D02*
X119166666Y-104080500D01*
X119166666Y-104080500D02*
X119166666Y-104147166D01*
X119166666Y-104147166D02*
X119133333Y-104247166D01*
X119133333Y-104247166D02*
X118733333Y-104647166D01*
X118733333Y-104647166D02*
X119166666Y-104647166D01*
X119833333Y-104647166D02*
X119433333Y-104647166D01*
X119633333Y-104647166D02*
X119633333Y-103947166D01*
X119633333Y-103947166D02*
X119566666Y-104047166D01*
X119566666Y-104047166D02*
X119500000Y-104113833D01*
X119500000Y-104113833D02*
X119433333Y-104147166D01*
%TO.C,D8*%
X152953333Y-84091166D02*
X153386666Y-84091166D01*
X153386666Y-84091166D02*
X153153333Y-84357833D01*
X153153333Y-84357833D02*
X153253333Y-84357833D01*
X153253333Y-84357833D02*
X153319999Y-84391166D01*
X153319999Y-84391166D02*
X153353333Y-84424500D01*
X153353333Y-84424500D02*
X153386666Y-84491166D01*
X153386666Y-84491166D02*
X153386666Y-84657833D01*
X153386666Y-84657833D02*
X153353333Y-84724500D01*
X153353333Y-84724500D02*
X153319999Y-84757833D01*
X153319999Y-84757833D02*
X153253333Y-84791166D01*
X153253333Y-84791166D02*
X153053333Y-84791166D01*
X153053333Y-84791166D02*
X152986666Y-84757833D01*
X152986666Y-84757833D02*
X152953333Y-84724500D01*
X153586666Y-84091166D02*
X153820000Y-84791166D01*
X153820000Y-84791166D02*
X154053333Y-84091166D01*
X154220000Y-84091166D02*
X154653333Y-84091166D01*
X154653333Y-84091166D02*
X154420000Y-84357833D01*
X154420000Y-84357833D02*
X154520000Y-84357833D01*
X154520000Y-84357833D02*
X154586666Y-84391166D01*
X154586666Y-84391166D02*
X154620000Y-84424500D01*
X154620000Y-84424500D02*
X154653333Y-84491166D01*
X154653333Y-84491166D02*
X154653333Y-84657833D01*
X154653333Y-84657833D02*
X154620000Y-84724500D01*
X154620000Y-84724500D02*
X154586666Y-84757833D01*
X154586666Y-84757833D02*
X154520000Y-84791166D01*
X154520000Y-84791166D02*
X154320000Y-84791166D01*
X154320000Y-84791166D02*
X154253333Y-84757833D01*
X154253333Y-84757833D02*
X154220000Y-84724500D01*
X155286667Y-84791166D02*
X154953333Y-84791166D01*
X154953333Y-84791166D02*
X154953333Y-84091166D01*
X155520000Y-84424500D02*
X155753334Y-84424500D01*
X155853334Y-84791166D02*
X155520000Y-84791166D01*
X155520000Y-84791166D02*
X155520000Y-84091166D01*
X155520000Y-84091166D02*
X155853334Y-84091166D01*
X156153333Y-84791166D02*
X156153333Y-84091166D01*
X156153333Y-84091166D02*
X156320000Y-84091166D01*
X156320000Y-84091166D02*
X156420000Y-84124500D01*
X156420000Y-84124500D02*
X156486667Y-84191166D01*
X156486667Y-84191166D02*
X156520000Y-84257833D01*
X156520000Y-84257833D02*
X156553333Y-84391166D01*
X156553333Y-84391166D02*
X156553333Y-84491166D01*
X156553333Y-84491166D02*
X156520000Y-84624500D01*
X156520000Y-84624500D02*
X156486667Y-84691166D01*
X156486667Y-84691166D02*
X156420000Y-84757833D01*
X156420000Y-84757833D02*
X156320000Y-84791166D01*
X156320000Y-84791166D02*
X156153333Y-84791166D01*
%TO.C,D1*%
X131642833Y-85483333D02*
X132342833Y-85483333D01*
X132342833Y-85483333D02*
X132342833Y-85650000D01*
X132342833Y-85650000D02*
X132309500Y-85750000D01*
X132309500Y-85750000D02*
X132242833Y-85816667D01*
X132242833Y-85816667D02*
X132176166Y-85850000D01*
X132176166Y-85850000D02*
X132042833Y-85883333D01*
X132042833Y-85883333D02*
X131942833Y-85883333D01*
X131942833Y-85883333D02*
X131809500Y-85850000D01*
X131809500Y-85850000D02*
X131742833Y-85816667D01*
X131742833Y-85816667D02*
X131676166Y-85750000D01*
X131676166Y-85750000D02*
X131642833Y-85650000D01*
X131642833Y-85650000D02*
X131642833Y-85483333D01*
X131642833Y-86550000D02*
X131642833Y-86150000D01*
X131642833Y-86350000D02*
X132342833Y-86350000D01*
X132342833Y-86350000D02*
X132242833Y-86283333D01*
X132242833Y-86283333D02*
X132176166Y-86216667D01*
X132176166Y-86216667D02*
X132142833Y-86150000D01*
%TO.C,TP5*%
X153886666Y-94067166D02*
X154286666Y-94067166D01*
X154086666Y-94767166D02*
X154086666Y-94067166D01*
X154519999Y-94767166D02*
X154519999Y-94067166D01*
X154519999Y-94067166D02*
X154786666Y-94067166D01*
X154786666Y-94067166D02*
X154853333Y-94100500D01*
X154853333Y-94100500D02*
X154886666Y-94133833D01*
X154886666Y-94133833D02*
X154919999Y-94200500D01*
X154919999Y-94200500D02*
X154919999Y-94300500D01*
X154919999Y-94300500D02*
X154886666Y-94367166D01*
X154886666Y-94367166D02*
X154853333Y-94400500D01*
X154853333Y-94400500D02*
X154786666Y-94433833D01*
X154786666Y-94433833D02*
X154519999Y-94433833D01*
X155553333Y-94067166D02*
X155219999Y-94067166D01*
X155219999Y-94067166D02*
X155186666Y-94400500D01*
X155186666Y-94400500D02*
X155219999Y-94367166D01*
X155219999Y-94367166D02*
X155286666Y-94333833D01*
X155286666Y-94333833D02*
X155453333Y-94333833D01*
X155453333Y-94333833D02*
X155519999Y-94367166D01*
X155519999Y-94367166D02*
X155553333Y-94400500D01*
X155553333Y-94400500D02*
X155586666Y-94467166D01*
X155586666Y-94467166D02*
X155586666Y-94633833D01*
X155586666Y-94633833D02*
X155553333Y-94700500D01*
X155553333Y-94700500D02*
X155519999Y-94733833D01*
X155519999Y-94733833D02*
X155453333Y-94767166D01*
X155453333Y-94767166D02*
X155286666Y-94767166D01*
X155286666Y-94767166D02*
X155219999Y-94733833D01*
X155219999Y-94733833D02*
X155186666Y-94700500D01*
%TO.C,D3*%
X133157597Y-102956091D02*
X132756903Y-102885380D01*
X132874754Y-103238934D02*
X132379779Y-102743959D01*
X132379779Y-102743959D02*
X132568341Y-102555397D01*
X132568341Y-102555397D02*
X132639052Y-102531827D01*
X132639052Y-102531827D02*
X132686192Y-102531827D01*
X132686192Y-102531827D02*
X132756903Y-102555397D01*
X132756903Y-102555397D02*
X132827614Y-102626108D01*
X132827614Y-102626108D02*
X132851184Y-102696818D01*
X132851184Y-102696818D02*
X132851184Y-102743959D01*
X132851184Y-102743959D02*
X132827614Y-102814669D01*
X132827614Y-102814669D02*
X132639052Y-103003231D01*
X132827614Y-102296124D02*
X133652572Y-102461116D01*
X133157597Y-101966141D02*
X133322588Y-102791099D01*
X134076836Y-102036852D02*
X133841134Y-102272554D01*
X133841134Y-102272554D02*
X133346159Y-101777579D01*
X133982555Y-101612587D02*
X134147547Y-101447596D01*
X134477530Y-101636158D02*
X134241828Y-101871860D01*
X134241828Y-101871860D02*
X133746853Y-101376885D01*
X133746853Y-101376885D02*
X133982555Y-101141183D01*
X134689662Y-101424026D02*
X134194687Y-100929051D01*
X134194687Y-100929051D02*
X134312538Y-100811200D01*
X134312538Y-100811200D02*
X134406819Y-100764060D01*
X134406819Y-100764060D02*
X134501100Y-100764060D01*
X134501100Y-100764060D02*
X134571811Y-100787630D01*
X134571811Y-100787630D02*
X134689662Y-100858340D01*
X134689662Y-100858340D02*
X134760372Y-100929051D01*
X134760372Y-100929051D02*
X134831083Y-101046902D01*
X134831083Y-101046902D02*
X134854653Y-101117613D01*
X134854653Y-101117613D02*
X134854653Y-101211894D01*
X134854653Y-101211894D02*
X134807513Y-101306175D01*
X134807513Y-101306175D02*
X134689662Y-101424026D01*
%TO.C,C5*%
X129763333Y-102130500D02*
X129730000Y-102163833D01*
X129730000Y-102163833D02*
X129630000Y-102197166D01*
X129630000Y-102197166D02*
X129563333Y-102197166D01*
X129563333Y-102197166D02*
X129463333Y-102163833D01*
X129463333Y-102163833D02*
X129396667Y-102097166D01*
X129396667Y-102097166D02*
X129363333Y-102030500D01*
X129363333Y-102030500D02*
X129330000Y-101897166D01*
X129330000Y-101897166D02*
X129330000Y-101797166D01*
X129330000Y-101797166D02*
X129363333Y-101663833D01*
X129363333Y-101663833D02*
X129396667Y-101597166D01*
X129396667Y-101597166D02*
X129463333Y-101530500D01*
X129463333Y-101530500D02*
X129563333Y-101497166D01*
X129563333Y-101497166D02*
X129630000Y-101497166D01*
X129630000Y-101497166D02*
X129730000Y-101530500D01*
X129730000Y-101530500D02*
X129763333Y-101563833D01*
X130396667Y-101497166D02*
X130063333Y-101497166D01*
X130063333Y-101497166D02*
X130030000Y-101830500D01*
X130030000Y-101830500D02*
X130063333Y-101797166D01*
X130063333Y-101797166D02*
X130130000Y-101763833D01*
X130130000Y-101763833D02*
X130296667Y-101763833D01*
X130296667Y-101763833D02*
X130363333Y-101797166D01*
X130363333Y-101797166D02*
X130396667Y-101830500D01*
X130396667Y-101830500D02*
X130430000Y-101897166D01*
X130430000Y-101897166D02*
X130430000Y-102063833D01*
X130430000Y-102063833D02*
X130396667Y-102130500D01*
X130396667Y-102130500D02*
X130363333Y-102163833D01*
X130363333Y-102163833D02*
X130296667Y-102197166D01*
X130296667Y-102197166D02*
X130130000Y-102197166D01*
X130130000Y-102197166D02*
X130063333Y-102163833D01*
X130063333Y-102163833D02*
X130030000Y-102130500D01*
%TO.C,C13*%
X118900500Y-86570000D02*
X118933833Y-86603333D01*
X118933833Y-86603333D02*
X118967166Y-86703333D01*
X118967166Y-86703333D02*
X118967166Y-86770000D01*
X118967166Y-86770000D02*
X118933833Y-86870000D01*
X118933833Y-86870000D02*
X118867166Y-86936667D01*
X118867166Y-86936667D02*
X118800500Y-86970000D01*
X118800500Y-86970000D02*
X118667166Y-87003333D01*
X118667166Y-87003333D02*
X118567166Y-87003333D01*
X118567166Y-87003333D02*
X118433833Y-86970000D01*
X118433833Y-86970000D02*
X118367166Y-86936667D01*
X118367166Y-86936667D02*
X118300500Y-86870000D01*
X118300500Y-86870000D02*
X118267166Y-86770000D01*
X118267166Y-86770000D02*
X118267166Y-86703333D01*
X118267166Y-86703333D02*
X118300500Y-86603333D01*
X118300500Y-86603333D02*
X118333833Y-86570000D01*
X118967166Y-85903333D02*
X118967166Y-86303333D01*
X118967166Y-86103333D02*
X118267166Y-86103333D01*
X118267166Y-86103333D02*
X118367166Y-86170000D01*
X118367166Y-86170000D02*
X118433833Y-86236667D01*
X118433833Y-86236667D02*
X118467166Y-86303333D01*
X118267166Y-85670000D02*
X118267166Y-85236666D01*
X118267166Y-85236666D02*
X118533833Y-85470000D01*
X118533833Y-85470000D02*
X118533833Y-85370000D01*
X118533833Y-85370000D02*
X118567166Y-85303333D01*
X118567166Y-85303333D02*
X118600500Y-85270000D01*
X118600500Y-85270000D02*
X118667166Y-85236666D01*
X118667166Y-85236666D02*
X118833833Y-85236666D01*
X118833833Y-85236666D02*
X118900500Y-85270000D01*
X118900500Y-85270000D02*
X118933833Y-85303333D01*
X118933833Y-85303333D02*
X118967166Y-85370000D01*
X118967166Y-85370000D02*
X118967166Y-85570000D01*
X118967166Y-85570000D02*
X118933833Y-85636666D01*
X118933833Y-85636666D02*
X118900500Y-85670000D01*
%TO.C,R9*%
X155973333Y-104757166D02*
X155740000Y-104423833D01*
X155573333Y-104757166D02*
X155573333Y-104057166D01*
X155573333Y-104057166D02*
X155840000Y-104057166D01*
X155840000Y-104057166D02*
X155906667Y-104090500D01*
X155906667Y-104090500D02*
X155940000Y-104123833D01*
X155940000Y-104123833D02*
X155973333Y-104190500D01*
X155973333Y-104190500D02*
X155973333Y-104290500D01*
X155973333Y-104290500D02*
X155940000Y-104357166D01*
X155940000Y-104357166D02*
X155906667Y-104390500D01*
X155906667Y-104390500D02*
X155840000Y-104423833D01*
X155840000Y-104423833D02*
X155573333Y-104423833D01*
X156306667Y-104757166D02*
X156440000Y-104757166D01*
X156440000Y-104757166D02*
X156506667Y-104723833D01*
X156506667Y-104723833D02*
X156540000Y-104690500D01*
X156540000Y-104690500D02*
X156606667Y-104590500D01*
X156606667Y-104590500D02*
X156640000Y-104457166D01*
X156640000Y-104457166D02*
X156640000Y-104190500D01*
X156640000Y-104190500D02*
X156606667Y-104123833D01*
X156606667Y-104123833D02*
X156573333Y-104090500D01*
X156573333Y-104090500D02*
X156506667Y-104057166D01*
X156506667Y-104057166D02*
X156373333Y-104057166D01*
X156373333Y-104057166D02*
X156306667Y-104090500D01*
X156306667Y-104090500D02*
X156273333Y-104123833D01*
X156273333Y-104123833D02*
X156240000Y-104190500D01*
X156240000Y-104190500D02*
X156240000Y-104357166D01*
X156240000Y-104357166D02*
X156273333Y-104423833D01*
X156273333Y-104423833D02*
X156306667Y-104457166D01*
X156306667Y-104457166D02*
X156373333Y-104490500D01*
X156373333Y-104490500D02*
X156506667Y-104490500D01*
X156506667Y-104490500D02*
X156573333Y-104457166D01*
X156573333Y-104457166D02*
X156606667Y-104423833D01*
X156606667Y-104423833D02*
X156640000Y-104357166D01*
%TO.C,C18*%
X125890500Y-108125000D02*
X125923833Y-108158333D01*
X125923833Y-108158333D02*
X125957166Y-108258333D01*
X125957166Y-108258333D02*
X125957166Y-108325000D01*
X125957166Y-108325000D02*
X125923833Y-108425000D01*
X125923833Y-108425000D02*
X125857166Y-108491667D01*
X125857166Y-108491667D02*
X125790500Y-108525000D01*
X125790500Y-108525000D02*
X125657166Y-108558333D01*
X125657166Y-108558333D02*
X125557166Y-108558333D01*
X125557166Y-108558333D02*
X125423833Y-108525000D01*
X125423833Y-108525000D02*
X125357166Y-108491667D01*
X125357166Y-108491667D02*
X125290500Y-108425000D01*
X125290500Y-108425000D02*
X125257166Y-108325000D01*
X125257166Y-108325000D02*
X125257166Y-108258333D01*
X125257166Y-108258333D02*
X125290500Y-108158333D01*
X125290500Y-108158333D02*
X125323833Y-108125000D01*
X125957166Y-107458333D02*
X125957166Y-107858333D01*
X125957166Y-107658333D02*
X125257166Y-107658333D01*
X125257166Y-107658333D02*
X125357166Y-107725000D01*
X125357166Y-107725000D02*
X125423833Y-107791667D01*
X125423833Y-107791667D02*
X125457166Y-107858333D01*
X125557166Y-107058333D02*
X125523833Y-107125000D01*
X125523833Y-107125000D02*
X125490500Y-107158333D01*
X125490500Y-107158333D02*
X125423833Y-107191666D01*
X125423833Y-107191666D02*
X125390500Y-107191666D01*
X125390500Y-107191666D02*
X125323833Y-107158333D01*
X125323833Y-107158333D02*
X125290500Y-107125000D01*
X125290500Y-107125000D02*
X125257166Y-107058333D01*
X125257166Y-107058333D02*
X125257166Y-106925000D01*
X125257166Y-106925000D02*
X125290500Y-106858333D01*
X125290500Y-106858333D02*
X125323833Y-106825000D01*
X125323833Y-106825000D02*
X125390500Y-106791666D01*
X125390500Y-106791666D02*
X125423833Y-106791666D01*
X125423833Y-106791666D02*
X125490500Y-106825000D01*
X125490500Y-106825000D02*
X125523833Y-106858333D01*
X125523833Y-106858333D02*
X125557166Y-106925000D01*
X125557166Y-106925000D02*
X125557166Y-107058333D01*
X125557166Y-107058333D02*
X125590500Y-107125000D01*
X125590500Y-107125000D02*
X125623833Y-107158333D01*
X125623833Y-107158333D02*
X125690500Y-107191666D01*
X125690500Y-107191666D02*
X125823833Y-107191666D01*
X125823833Y-107191666D02*
X125890500Y-107158333D01*
X125890500Y-107158333D02*
X125923833Y-107125000D01*
X125923833Y-107125000D02*
X125957166Y-107058333D01*
X125957166Y-107058333D02*
X125957166Y-106925000D01*
X125957166Y-106925000D02*
X125923833Y-106858333D01*
X125923833Y-106858333D02*
X125890500Y-106825000D01*
X125890500Y-106825000D02*
X125823833Y-106791666D01*
X125823833Y-106791666D02*
X125690500Y-106791666D01*
X125690500Y-106791666D02*
X125623833Y-106825000D01*
X125623833Y-106825000D02*
X125590500Y-106858333D01*
X125590500Y-106858333D02*
X125557166Y-106925000D01*
%TO.C,U10*%
X122783333Y-89177166D02*
X122783333Y-89743833D01*
X122783333Y-89743833D02*
X122816667Y-89810500D01*
X122816667Y-89810500D02*
X122850000Y-89843833D01*
X122850000Y-89843833D02*
X122916667Y-89877166D01*
X122916667Y-89877166D02*
X123050000Y-89877166D01*
X123050000Y-89877166D02*
X123116667Y-89843833D01*
X123116667Y-89843833D02*
X123150000Y-89810500D01*
X123150000Y-89810500D02*
X123183333Y-89743833D01*
X123183333Y-89743833D02*
X123183333Y-89177166D01*
X123883333Y-89877166D02*
X123483333Y-89877166D01*
X123683333Y-89877166D02*
X123683333Y-89177166D01*
X123683333Y-89177166D02*
X123616666Y-89277166D01*
X123616666Y-89277166D02*
X123550000Y-89343833D01*
X123550000Y-89343833D02*
X123483333Y-89377166D01*
X124316667Y-89177166D02*
X124383333Y-89177166D01*
X124383333Y-89177166D02*
X124450000Y-89210500D01*
X124450000Y-89210500D02*
X124483333Y-89243833D01*
X124483333Y-89243833D02*
X124516667Y-89310500D01*
X124516667Y-89310500D02*
X124550000Y-89443833D01*
X124550000Y-89443833D02*
X124550000Y-89610500D01*
X124550000Y-89610500D02*
X124516667Y-89743833D01*
X124516667Y-89743833D02*
X124483333Y-89810500D01*
X124483333Y-89810500D02*
X124450000Y-89843833D01*
X124450000Y-89843833D02*
X124383333Y-89877166D01*
X124383333Y-89877166D02*
X124316667Y-89877166D01*
X124316667Y-89877166D02*
X124250000Y-89843833D01*
X124250000Y-89843833D02*
X124216667Y-89810500D01*
X124216667Y-89810500D02*
X124183333Y-89743833D01*
X124183333Y-89743833D02*
X124150000Y-89610500D01*
X124150000Y-89610500D02*
X124150000Y-89443833D01*
X124150000Y-89443833D02*
X124183333Y-89310500D01*
X124183333Y-89310500D02*
X124216667Y-89243833D01*
X124216667Y-89243833D02*
X124250000Y-89210500D01*
X124250000Y-89210500D02*
X124316667Y-89177166D01*
%TO.C,C20*%
X129519999Y-103710500D02*
X129486666Y-103743833D01*
X129486666Y-103743833D02*
X129386666Y-103777166D01*
X129386666Y-103777166D02*
X129319999Y-103777166D01*
X129319999Y-103777166D02*
X129219999Y-103743833D01*
X129219999Y-103743833D02*
X129153333Y-103677166D01*
X129153333Y-103677166D02*
X129119999Y-103610500D01*
X129119999Y-103610500D02*
X129086666Y-103477166D01*
X129086666Y-103477166D02*
X129086666Y-103377166D01*
X129086666Y-103377166D02*
X129119999Y-103243833D01*
X129119999Y-103243833D02*
X129153333Y-103177166D01*
X129153333Y-103177166D02*
X129219999Y-103110500D01*
X129219999Y-103110500D02*
X129319999Y-103077166D01*
X129319999Y-103077166D02*
X129386666Y-103077166D01*
X129386666Y-103077166D02*
X129486666Y-103110500D01*
X129486666Y-103110500D02*
X129519999Y-103143833D01*
X129786666Y-103143833D02*
X129819999Y-103110500D01*
X129819999Y-103110500D02*
X129886666Y-103077166D01*
X129886666Y-103077166D02*
X130053333Y-103077166D01*
X130053333Y-103077166D02*
X130119999Y-103110500D01*
X130119999Y-103110500D02*
X130153333Y-103143833D01*
X130153333Y-103143833D02*
X130186666Y-103210500D01*
X130186666Y-103210500D02*
X130186666Y-103277166D01*
X130186666Y-103277166D02*
X130153333Y-103377166D01*
X130153333Y-103377166D02*
X129753333Y-103777166D01*
X129753333Y-103777166D02*
X130186666Y-103777166D01*
X130620000Y-103077166D02*
X130686666Y-103077166D01*
X130686666Y-103077166D02*
X130753333Y-103110500D01*
X130753333Y-103110500D02*
X130786666Y-103143833D01*
X130786666Y-103143833D02*
X130820000Y-103210500D01*
X130820000Y-103210500D02*
X130853333Y-103343833D01*
X130853333Y-103343833D02*
X130853333Y-103510500D01*
X130853333Y-103510500D02*
X130820000Y-103643833D01*
X130820000Y-103643833D02*
X130786666Y-103710500D01*
X130786666Y-103710500D02*
X130753333Y-103743833D01*
X130753333Y-103743833D02*
X130686666Y-103777166D01*
X130686666Y-103777166D02*
X130620000Y-103777166D01*
X130620000Y-103777166D02*
X130553333Y-103743833D01*
X130553333Y-103743833D02*
X130520000Y-103710500D01*
X130520000Y-103710500D02*
X130486666Y-103643833D01*
X130486666Y-103643833D02*
X130453333Y-103510500D01*
X130453333Y-103510500D02*
X130453333Y-103343833D01*
X130453333Y-103343833D02*
X130486666Y-103210500D01*
X130486666Y-103210500D02*
X130520000Y-103143833D01*
X130520000Y-103143833D02*
X130553333Y-103110500D01*
X130553333Y-103110500D02*
X130620000Y-103077166D01*
%TO.C,JP2*%
X142912833Y-92406666D02*
X142412833Y-92406666D01*
X142412833Y-92406666D02*
X142312833Y-92373333D01*
X142312833Y-92373333D02*
X142246166Y-92306666D01*
X142246166Y-92306666D02*
X142212833Y-92206666D01*
X142212833Y-92206666D02*
X142212833Y-92140000D01*
X142212833Y-92739999D02*
X142912833Y-92739999D01*
X142912833Y-92739999D02*
X142912833Y-93006666D01*
X142912833Y-93006666D02*
X142879500Y-93073333D01*
X142879500Y-93073333D02*
X142846166Y-93106666D01*
X142846166Y-93106666D02*
X142779500Y-93139999D01*
X142779500Y-93139999D02*
X142679500Y-93139999D01*
X142679500Y-93139999D02*
X142612833Y-93106666D01*
X142612833Y-93106666D02*
X142579500Y-93073333D01*
X142579500Y-93073333D02*
X142546166Y-93006666D01*
X142546166Y-93006666D02*
X142546166Y-92739999D01*
X142846166Y-93406666D02*
X142879500Y-93439999D01*
X142879500Y-93439999D02*
X142912833Y-93506666D01*
X142912833Y-93506666D02*
X142912833Y-93673333D01*
X142912833Y-93673333D02*
X142879500Y-93739999D01*
X142879500Y-93739999D02*
X142846166Y-93773333D01*
X142846166Y-93773333D02*
X142779500Y-93806666D01*
X142779500Y-93806666D02*
X142712833Y-93806666D01*
X142712833Y-93806666D02*
X142612833Y-93773333D01*
X142612833Y-93773333D02*
X142212833Y-93373333D01*
X142212833Y-93373333D02*
X142212833Y-93806666D01*
%TO.C,R11*%
X119508965Y-108353201D02*
X119175632Y-108586534D01*
X119508965Y-108753201D02*
X118808965Y-108753201D01*
X118808965Y-108753201D02*
X118808965Y-108486534D01*
X118808965Y-108486534D02*
X118842299Y-108419868D01*
X118842299Y-108419868D02*
X118875632Y-108386534D01*
X118875632Y-108386534D02*
X118942299Y-108353201D01*
X118942299Y-108353201D02*
X119042299Y-108353201D01*
X119042299Y-108353201D02*
X119108965Y-108386534D01*
X119108965Y-108386534D02*
X119142299Y-108419868D01*
X119142299Y-108419868D02*
X119175632Y-108486534D01*
X119175632Y-108486534D02*
X119175632Y-108753201D01*
X119508965Y-107686534D02*
X119508965Y-108086534D01*
X119508965Y-107886534D02*
X118808965Y-107886534D01*
X118808965Y-107886534D02*
X118908965Y-107953201D01*
X118908965Y-107953201D02*
X118975632Y-108019868D01*
X118975632Y-108019868D02*
X119008965Y-108086534D01*
X119508965Y-107019867D02*
X119508965Y-107419867D01*
X119508965Y-107219867D02*
X118808965Y-107219867D01*
X118808965Y-107219867D02*
X118908965Y-107286534D01*
X118908965Y-107286534D02*
X118975632Y-107353201D01*
X118975632Y-107353201D02*
X119008965Y-107419867D01*
%TO.C,R1*%
X131813333Y-88622166D02*
X131580000Y-88288833D01*
X131413333Y-88622166D02*
X131413333Y-87922166D01*
X131413333Y-87922166D02*
X131680000Y-87922166D01*
X131680000Y-87922166D02*
X131746667Y-87955500D01*
X131746667Y-87955500D02*
X131780000Y-87988833D01*
X131780000Y-87988833D02*
X131813333Y-88055500D01*
X131813333Y-88055500D02*
X131813333Y-88155500D01*
X131813333Y-88155500D02*
X131780000Y-88222166D01*
X131780000Y-88222166D02*
X131746667Y-88255500D01*
X131746667Y-88255500D02*
X131680000Y-88288833D01*
X131680000Y-88288833D02*
X131413333Y-88288833D01*
X132480000Y-88622166D02*
X132080000Y-88622166D01*
X132280000Y-88622166D02*
X132280000Y-87922166D01*
X132280000Y-87922166D02*
X132213333Y-88022166D01*
X132213333Y-88022166D02*
X132146667Y-88088833D01*
X132146667Y-88088833D02*
X132080000Y-88122166D01*
%TO.C,TP3*%
X139266666Y-95277166D02*
X139666666Y-95277166D01*
X139466666Y-95977166D02*
X139466666Y-95277166D01*
X139899999Y-95977166D02*
X139899999Y-95277166D01*
X139899999Y-95277166D02*
X140166666Y-95277166D01*
X140166666Y-95277166D02*
X140233333Y-95310500D01*
X140233333Y-95310500D02*
X140266666Y-95343833D01*
X140266666Y-95343833D02*
X140299999Y-95410500D01*
X140299999Y-95410500D02*
X140299999Y-95510500D01*
X140299999Y-95510500D02*
X140266666Y-95577166D01*
X140266666Y-95577166D02*
X140233333Y-95610500D01*
X140233333Y-95610500D02*
X140166666Y-95643833D01*
X140166666Y-95643833D02*
X139899999Y-95643833D01*
X140533333Y-95277166D02*
X140966666Y-95277166D01*
X140966666Y-95277166D02*
X140733333Y-95543833D01*
X140733333Y-95543833D02*
X140833333Y-95543833D01*
X140833333Y-95543833D02*
X140899999Y-95577166D01*
X140899999Y-95577166D02*
X140933333Y-95610500D01*
X140933333Y-95610500D02*
X140966666Y-95677166D01*
X140966666Y-95677166D02*
X140966666Y-95843833D01*
X140966666Y-95843833D02*
X140933333Y-95910500D01*
X140933333Y-95910500D02*
X140899999Y-95943833D01*
X140899999Y-95943833D02*
X140833333Y-95977166D01*
X140833333Y-95977166D02*
X140633333Y-95977166D01*
X140633333Y-95977166D02*
X140566666Y-95943833D01*
X140566666Y-95943833D02*
X140533333Y-95910500D01*
%TO.C,R2*%
X127333333Y-88687166D02*
X127100000Y-88353833D01*
X126933333Y-88687166D02*
X126933333Y-87987166D01*
X126933333Y-87987166D02*
X127200000Y-87987166D01*
X127200000Y-87987166D02*
X127266667Y-88020500D01*
X127266667Y-88020500D02*
X127300000Y-88053833D01*
X127300000Y-88053833D02*
X127333333Y-88120500D01*
X127333333Y-88120500D02*
X127333333Y-88220500D01*
X127333333Y-88220500D02*
X127300000Y-88287166D01*
X127300000Y-88287166D02*
X127266667Y-88320500D01*
X127266667Y-88320500D02*
X127200000Y-88353833D01*
X127200000Y-88353833D02*
X126933333Y-88353833D01*
X127600000Y-88053833D02*
X127633333Y-88020500D01*
X127633333Y-88020500D02*
X127700000Y-87987166D01*
X127700000Y-87987166D02*
X127866667Y-87987166D01*
X127866667Y-87987166D02*
X127933333Y-88020500D01*
X127933333Y-88020500D02*
X127966667Y-88053833D01*
X127966667Y-88053833D02*
X128000000Y-88120500D01*
X128000000Y-88120500D02*
X128000000Y-88187166D01*
X128000000Y-88187166D02*
X127966667Y-88287166D01*
X127966667Y-88287166D02*
X127566667Y-88687166D01*
X127566667Y-88687166D02*
X128000000Y-88687166D01*
%TO.C,TP2*%
X124406666Y-97947166D02*
X124806666Y-97947166D01*
X124606666Y-98647166D02*
X124606666Y-97947166D01*
X124973333Y-97947166D02*
X125439999Y-98647166D01*
X125439999Y-97947166D02*
X124973333Y-98647166D01*
X124370000Y-98947166D02*
X124770000Y-98947166D01*
X124570000Y-99647166D02*
X124570000Y-98947166D01*
X125003333Y-99647166D02*
X125003333Y-98947166D01*
X125003333Y-98947166D02*
X125270000Y-98947166D01*
X125270000Y-98947166D02*
X125336667Y-98980500D01*
X125336667Y-98980500D02*
X125370000Y-99013833D01*
X125370000Y-99013833D02*
X125403333Y-99080500D01*
X125403333Y-99080500D02*
X125403333Y-99180500D01*
X125403333Y-99180500D02*
X125370000Y-99247166D01*
X125370000Y-99247166D02*
X125336667Y-99280500D01*
X125336667Y-99280500D02*
X125270000Y-99313833D01*
X125270000Y-99313833D02*
X125003333Y-99313833D01*
%TO.C,D2*%
X161103333Y-108557166D02*
X161103333Y-107857166D01*
X161103333Y-107857166D02*
X161270000Y-107857166D01*
X161270000Y-107857166D02*
X161370000Y-107890500D01*
X161370000Y-107890500D02*
X161436667Y-107957166D01*
X161436667Y-107957166D02*
X161470000Y-108023833D01*
X161470000Y-108023833D02*
X161503333Y-108157166D01*
X161503333Y-108157166D02*
X161503333Y-108257166D01*
X161503333Y-108257166D02*
X161470000Y-108390500D01*
X161470000Y-108390500D02*
X161436667Y-108457166D01*
X161436667Y-108457166D02*
X161370000Y-108523833D01*
X161370000Y-108523833D02*
X161270000Y-108557166D01*
X161270000Y-108557166D02*
X161103333Y-108557166D01*
X161770000Y-107923833D02*
X161803333Y-107890500D01*
X161803333Y-107890500D02*
X161870000Y-107857166D01*
X161870000Y-107857166D02*
X162036667Y-107857166D01*
X162036667Y-107857166D02*
X162103333Y-107890500D01*
X162103333Y-107890500D02*
X162136667Y-107923833D01*
X162136667Y-107923833D02*
X162170000Y-107990500D01*
X162170000Y-107990500D02*
X162170000Y-108057166D01*
X162170000Y-108057166D02*
X162136667Y-108157166D01*
X162136667Y-108157166D02*
X161736667Y-108557166D01*
X161736667Y-108557166D02*
X162170000Y-108557166D01*
%TO.C,C22*%
X154270500Y-87534000D02*
X154303833Y-87567333D01*
X154303833Y-87567333D02*
X154337166Y-87667333D01*
X154337166Y-87667333D02*
X154337166Y-87734000D01*
X154337166Y-87734000D02*
X154303833Y-87834000D01*
X154303833Y-87834000D02*
X154237166Y-87900667D01*
X154237166Y-87900667D02*
X154170500Y-87934000D01*
X154170500Y-87934000D02*
X154037166Y-87967333D01*
X154037166Y-87967333D02*
X153937166Y-87967333D01*
X153937166Y-87967333D02*
X153803833Y-87934000D01*
X153803833Y-87934000D02*
X153737166Y-87900667D01*
X153737166Y-87900667D02*
X153670500Y-87834000D01*
X153670500Y-87834000D02*
X153637166Y-87734000D01*
X153637166Y-87734000D02*
X153637166Y-87667333D01*
X153637166Y-87667333D02*
X153670500Y-87567333D01*
X153670500Y-87567333D02*
X153703833Y-87534000D01*
X153703833Y-87267333D02*
X153670500Y-87234000D01*
X153670500Y-87234000D02*
X153637166Y-87167333D01*
X153637166Y-87167333D02*
X153637166Y-87000667D01*
X153637166Y-87000667D02*
X153670500Y-86934000D01*
X153670500Y-86934000D02*
X153703833Y-86900667D01*
X153703833Y-86900667D02*
X153770500Y-86867333D01*
X153770500Y-86867333D02*
X153837166Y-86867333D01*
X153837166Y-86867333D02*
X153937166Y-86900667D01*
X153937166Y-86900667D02*
X154337166Y-87300667D01*
X154337166Y-87300667D02*
X154337166Y-86867333D01*
X153703833Y-86600666D02*
X153670500Y-86567333D01*
X153670500Y-86567333D02*
X153637166Y-86500666D01*
X153637166Y-86500666D02*
X153637166Y-86334000D01*
X153637166Y-86334000D02*
X153670500Y-86267333D01*
X153670500Y-86267333D02*
X153703833Y-86234000D01*
X153703833Y-86234000D02*
X153770500Y-86200666D01*
X153770500Y-86200666D02*
X153837166Y-86200666D01*
X153837166Y-86200666D02*
X153937166Y-86234000D01*
X153937166Y-86234000D02*
X154337166Y-86634000D01*
X154337166Y-86634000D02*
X154337166Y-86200666D01*
%TO.C,D6*%
X148047166Y-104353333D02*
X148047166Y-103953333D01*
X148747166Y-104153333D02*
X148047166Y-104153333D01*
X148047166Y-103786667D02*
X148747166Y-103320000D01*
X148047166Y-103320000D02*
X148747166Y-103786667D01*
X148747166Y-102720000D02*
X148747166Y-103053333D01*
X148747166Y-103053333D02*
X148047166Y-103053333D01*
X148380500Y-102486666D02*
X148380500Y-102253333D01*
X148747166Y-102153333D02*
X148747166Y-102486666D01*
X148747166Y-102486666D02*
X148047166Y-102486666D01*
X148047166Y-102486666D02*
X148047166Y-102153333D01*
X148747166Y-101853333D02*
X148047166Y-101853333D01*
X148047166Y-101853333D02*
X148047166Y-101686666D01*
X148047166Y-101686666D02*
X148080500Y-101586666D01*
X148080500Y-101586666D02*
X148147166Y-101520000D01*
X148147166Y-101520000D02*
X148213833Y-101486666D01*
X148213833Y-101486666D02*
X148347166Y-101453333D01*
X148347166Y-101453333D02*
X148447166Y-101453333D01*
X148447166Y-101453333D02*
X148580500Y-101486666D01*
X148580500Y-101486666D02*
X148647166Y-101520000D01*
X148647166Y-101520000D02*
X148713833Y-101586666D01*
X148713833Y-101586666D02*
X148747166Y-101686666D01*
X148747166Y-101686666D02*
X148747166Y-101853333D01*
%TO.C,R16*%
X150769999Y-107317166D02*
X150536666Y-106983833D01*
X150369999Y-107317166D02*
X150369999Y-106617166D01*
X150369999Y-106617166D02*
X150636666Y-106617166D01*
X150636666Y-106617166D02*
X150703333Y-106650500D01*
X150703333Y-106650500D02*
X150736666Y-106683833D01*
X150736666Y-106683833D02*
X150769999Y-106750500D01*
X150769999Y-106750500D02*
X150769999Y-106850500D01*
X150769999Y-106850500D02*
X150736666Y-106917166D01*
X150736666Y-106917166D02*
X150703333Y-106950500D01*
X150703333Y-106950500D02*
X150636666Y-106983833D01*
X150636666Y-106983833D02*
X150369999Y-106983833D01*
X151436666Y-107317166D02*
X151036666Y-107317166D01*
X151236666Y-107317166D02*
X151236666Y-106617166D01*
X151236666Y-106617166D02*
X151169999Y-106717166D01*
X151169999Y-106717166D02*
X151103333Y-106783833D01*
X151103333Y-106783833D02*
X151036666Y-106817166D01*
X152036666Y-106617166D02*
X151903333Y-106617166D01*
X151903333Y-106617166D02*
X151836666Y-106650500D01*
X151836666Y-106650500D02*
X151803333Y-106683833D01*
X151803333Y-106683833D02*
X151736666Y-106783833D01*
X151736666Y-106783833D02*
X151703333Y-106917166D01*
X151703333Y-106917166D02*
X151703333Y-107183833D01*
X151703333Y-107183833D02*
X151736666Y-107250500D01*
X151736666Y-107250500D02*
X151770000Y-107283833D01*
X151770000Y-107283833D02*
X151836666Y-107317166D01*
X151836666Y-107317166D02*
X151970000Y-107317166D01*
X151970000Y-107317166D02*
X152036666Y-107283833D01*
X152036666Y-107283833D02*
X152070000Y-107250500D01*
X152070000Y-107250500D02*
X152103333Y-107183833D01*
X152103333Y-107183833D02*
X152103333Y-107017166D01*
X152103333Y-107017166D02*
X152070000Y-106950500D01*
X152070000Y-106950500D02*
X152036666Y-106917166D01*
X152036666Y-106917166D02*
X151970000Y-106883833D01*
X151970000Y-106883833D02*
X151836666Y-106883833D01*
X151836666Y-106883833D02*
X151770000Y-106917166D01*
X151770000Y-106917166D02*
X151736666Y-106950500D01*
X151736666Y-106950500D02*
X151703333Y-107017166D01*
%TO.C,C7*%
X141639500Y-97113333D02*
X141606166Y-97080000D01*
X141606166Y-97080000D02*
X141572833Y-96980000D01*
X141572833Y-96980000D02*
X141572833Y-96913333D01*
X141572833Y-96913333D02*
X141606166Y-96813333D01*
X141606166Y-96813333D02*
X141672833Y-96746667D01*
X141672833Y-96746667D02*
X141739500Y-96713333D01*
X141739500Y-96713333D02*
X141872833Y-96680000D01*
X141872833Y-96680000D02*
X141972833Y-96680000D01*
X141972833Y-96680000D02*
X142106166Y-96713333D01*
X142106166Y-96713333D02*
X142172833Y-96746667D01*
X142172833Y-96746667D02*
X142239500Y-96813333D01*
X142239500Y-96813333D02*
X142272833Y-96913333D01*
X142272833Y-96913333D02*
X142272833Y-96980000D01*
X142272833Y-96980000D02*
X142239500Y-97080000D01*
X142239500Y-97080000D02*
X142206166Y-97113333D01*
X142272833Y-97346667D02*
X142272833Y-97813333D01*
X142272833Y-97813333D02*
X141572833Y-97513333D01*
%TO.C,C12*%
X153199999Y-107220500D02*
X153166666Y-107253833D01*
X153166666Y-107253833D02*
X153066666Y-107287166D01*
X153066666Y-107287166D02*
X152999999Y-107287166D01*
X152999999Y-107287166D02*
X152899999Y-107253833D01*
X152899999Y-107253833D02*
X152833333Y-107187166D01*
X152833333Y-107187166D02*
X152799999Y-107120500D01*
X152799999Y-107120500D02*
X152766666Y-106987166D01*
X152766666Y-106987166D02*
X152766666Y-106887166D01*
X152766666Y-106887166D02*
X152799999Y-106753833D01*
X152799999Y-106753833D02*
X152833333Y-106687166D01*
X152833333Y-106687166D02*
X152899999Y-106620500D01*
X152899999Y-106620500D02*
X152999999Y-106587166D01*
X152999999Y-106587166D02*
X153066666Y-106587166D01*
X153066666Y-106587166D02*
X153166666Y-106620500D01*
X153166666Y-106620500D02*
X153199999Y-106653833D01*
X153866666Y-107287166D02*
X153466666Y-107287166D01*
X153666666Y-107287166D02*
X153666666Y-106587166D01*
X153666666Y-106587166D02*
X153599999Y-106687166D01*
X153599999Y-106687166D02*
X153533333Y-106753833D01*
X153533333Y-106753833D02*
X153466666Y-106787166D01*
X154133333Y-106653833D02*
X154166666Y-106620500D01*
X154166666Y-106620500D02*
X154233333Y-106587166D01*
X154233333Y-106587166D02*
X154400000Y-106587166D01*
X154400000Y-106587166D02*
X154466666Y-106620500D01*
X154466666Y-106620500D02*
X154500000Y-106653833D01*
X154500000Y-106653833D02*
X154533333Y-106720500D01*
X154533333Y-106720500D02*
X154533333Y-106787166D01*
X154533333Y-106787166D02*
X154500000Y-106887166D01*
X154500000Y-106887166D02*
X154100000Y-107287166D01*
X154100000Y-107287166D02*
X154533333Y-107287166D01*
%TO.C,U6*%
X126517166Y-92603333D02*
X127083833Y-92603333D01*
X127083833Y-92603333D02*
X127150500Y-92570000D01*
X127150500Y-92570000D02*
X127183833Y-92536666D01*
X127183833Y-92536666D02*
X127217166Y-92470000D01*
X127217166Y-92470000D02*
X127217166Y-92336666D01*
X127217166Y-92336666D02*
X127183833Y-92270000D01*
X127183833Y-92270000D02*
X127150500Y-92236666D01*
X127150500Y-92236666D02*
X127083833Y-92203333D01*
X127083833Y-92203333D02*
X126517166Y-92203333D01*
X126517166Y-91570000D02*
X126517166Y-91703333D01*
X126517166Y-91703333D02*
X126550500Y-91770000D01*
X126550500Y-91770000D02*
X126583833Y-91803333D01*
X126583833Y-91803333D02*
X126683833Y-91870000D01*
X126683833Y-91870000D02*
X126817166Y-91903333D01*
X126817166Y-91903333D02*
X127083833Y-91903333D01*
X127083833Y-91903333D02*
X127150500Y-91870000D01*
X127150500Y-91870000D02*
X127183833Y-91836667D01*
X127183833Y-91836667D02*
X127217166Y-91770000D01*
X127217166Y-91770000D02*
X127217166Y-91636667D01*
X127217166Y-91636667D02*
X127183833Y-91570000D01*
X127183833Y-91570000D02*
X127150500Y-91536667D01*
X127150500Y-91536667D02*
X127083833Y-91503333D01*
X127083833Y-91503333D02*
X126917166Y-91503333D01*
X126917166Y-91503333D02*
X126850500Y-91536667D01*
X126850500Y-91536667D02*
X126817166Y-91570000D01*
X126817166Y-91570000D02*
X126783833Y-91636667D01*
X126783833Y-91636667D02*
X126783833Y-91770000D01*
X126783833Y-91770000D02*
X126817166Y-91836667D01*
X126817166Y-91836667D02*
X126850500Y-91870000D01*
X126850500Y-91870000D02*
X126917166Y-91903333D01*
%TO.C,U7*%
X145551666Y-100952166D02*
X145551666Y-101518833D01*
X145551666Y-101518833D02*
X145585000Y-101585500D01*
X145585000Y-101585500D02*
X145618333Y-101618833D01*
X145618333Y-101618833D02*
X145685000Y-101652166D01*
X145685000Y-101652166D02*
X145818333Y-101652166D01*
X145818333Y-101652166D02*
X145885000Y-101618833D01*
X145885000Y-101618833D02*
X145918333Y-101585500D01*
X145918333Y-101585500D02*
X145951666Y-101518833D01*
X145951666Y-101518833D02*
X145951666Y-100952166D01*
X146218333Y-100952166D02*
X146684999Y-100952166D01*
X146684999Y-100952166D02*
X146384999Y-101652166D01*
%TO.C,C10*%
X152099999Y-95630500D02*
X152066666Y-95663833D01*
X152066666Y-95663833D02*
X151966666Y-95697166D01*
X151966666Y-95697166D02*
X151899999Y-95697166D01*
X151899999Y-95697166D02*
X151799999Y-95663833D01*
X151799999Y-95663833D02*
X151733333Y-95597166D01*
X151733333Y-95597166D02*
X151699999Y-95530500D01*
X151699999Y-95530500D02*
X151666666Y-95397166D01*
X151666666Y-95397166D02*
X151666666Y-95297166D01*
X151666666Y-95297166D02*
X151699999Y-95163833D01*
X151699999Y-95163833D02*
X151733333Y-95097166D01*
X151733333Y-95097166D02*
X151799999Y-95030500D01*
X151799999Y-95030500D02*
X151899999Y-94997166D01*
X151899999Y-94997166D02*
X151966666Y-94997166D01*
X151966666Y-94997166D02*
X152066666Y-95030500D01*
X152066666Y-95030500D02*
X152099999Y-95063833D01*
X152766666Y-95697166D02*
X152366666Y-95697166D01*
X152566666Y-95697166D02*
X152566666Y-94997166D01*
X152566666Y-94997166D02*
X152499999Y-95097166D01*
X152499999Y-95097166D02*
X152433333Y-95163833D01*
X152433333Y-95163833D02*
X152366666Y-95197166D01*
X153200000Y-94997166D02*
X153266666Y-94997166D01*
X153266666Y-94997166D02*
X153333333Y-95030500D01*
X153333333Y-95030500D02*
X153366666Y-95063833D01*
X153366666Y-95063833D02*
X153400000Y-95130500D01*
X153400000Y-95130500D02*
X153433333Y-95263833D01*
X153433333Y-95263833D02*
X153433333Y-95430500D01*
X153433333Y-95430500D02*
X153400000Y-95563833D01*
X153400000Y-95563833D02*
X153366666Y-95630500D01*
X153366666Y-95630500D02*
X153333333Y-95663833D01*
X153333333Y-95663833D02*
X153266666Y-95697166D01*
X153266666Y-95697166D02*
X153200000Y-95697166D01*
X153200000Y-95697166D02*
X153133333Y-95663833D01*
X153133333Y-95663833D02*
X153100000Y-95630500D01*
X153100000Y-95630500D02*
X153066666Y-95563833D01*
X153066666Y-95563833D02*
X153033333Y-95430500D01*
X153033333Y-95430500D02*
X153033333Y-95263833D01*
X153033333Y-95263833D02*
X153066666Y-95130500D01*
X153066666Y-95130500D02*
X153100000Y-95063833D01*
X153100000Y-95063833D02*
X153133333Y-95030500D01*
X153133333Y-95030500D02*
X153200000Y-94997166D01*
%TO.C,U4*%
X138237833Y-95741666D02*
X137671166Y-95741666D01*
X137671166Y-95741666D02*
X137604500Y-95775000D01*
X137604500Y-95775000D02*
X137571166Y-95808333D01*
X137571166Y-95808333D02*
X137537833Y-95875000D01*
X137537833Y-95875000D02*
X137537833Y-96008333D01*
X137537833Y-96008333D02*
X137571166Y-96075000D01*
X137571166Y-96075000D02*
X137604500Y-96108333D01*
X137604500Y-96108333D02*
X137671166Y-96141666D01*
X137671166Y-96141666D02*
X138237833Y-96141666D01*
X138004500Y-96774999D02*
X137537833Y-96774999D01*
X138271166Y-96608333D02*
X137771166Y-96441666D01*
X137771166Y-96441666D02*
X137771166Y-96874999D01*
%TO.C,U5*%
X126227166Y-105778333D02*
X126793833Y-105778333D01*
X126793833Y-105778333D02*
X126860500Y-105745000D01*
X126860500Y-105745000D02*
X126893833Y-105711666D01*
X126893833Y-105711666D02*
X126927166Y-105645000D01*
X126927166Y-105645000D02*
X126927166Y-105511666D01*
X126927166Y-105511666D02*
X126893833Y-105445000D01*
X126893833Y-105445000D02*
X126860500Y-105411666D01*
X126860500Y-105411666D02*
X126793833Y-105378333D01*
X126793833Y-105378333D02*
X126227166Y-105378333D01*
X126227166Y-104711667D02*
X126227166Y-105045000D01*
X126227166Y-105045000D02*
X126560500Y-105078333D01*
X126560500Y-105078333D02*
X126527166Y-105045000D01*
X126527166Y-105045000D02*
X126493833Y-104978333D01*
X126493833Y-104978333D02*
X126493833Y-104811667D01*
X126493833Y-104811667D02*
X126527166Y-104745000D01*
X126527166Y-104745000D02*
X126560500Y-104711667D01*
X126560500Y-104711667D02*
X126627166Y-104678333D01*
X126627166Y-104678333D02*
X126793833Y-104678333D01*
X126793833Y-104678333D02*
X126860500Y-104711667D01*
X126860500Y-104711667D02*
X126893833Y-104745000D01*
X126893833Y-104745000D02*
X126927166Y-104811667D01*
X126927166Y-104811667D02*
X126927166Y-104978333D01*
X126927166Y-104978333D02*
X126893833Y-105045000D01*
X126893833Y-105045000D02*
X126860500Y-105078333D01*
%TO.C,U2*%
X131786666Y-103707166D02*
X131786666Y-104273833D01*
X131786666Y-104273833D02*
X131820000Y-104340500D01*
X131820000Y-104340500D02*
X131853333Y-104373833D01*
X131853333Y-104373833D02*
X131920000Y-104407166D01*
X131920000Y-104407166D02*
X132053333Y-104407166D01*
X132053333Y-104407166D02*
X132120000Y-104373833D01*
X132120000Y-104373833D02*
X132153333Y-104340500D01*
X132153333Y-104340500D02*
X132186666Y-104273833D01*
X132186666Y-104273833D02*
X132186666Y-103707166D01*
X132486666Y-103773833D02*
X132519999Y-103740500D01*
X132519999Y-103740500D02*
X132586666Y-103707166D01*
X132586666Y-103707166D02*
X132753333Y-103707166D01*
X132753333Y-103707166D02*
X132819999Y-103740500D01*
X132819999Y-103740500D02*
X132853333Y-103773833D01*
X132853333Y-103773833D02*
X132886666Y-103840500D01*
X132886666Y-103840500D02*
X132886666Y-103907166D01*
X132886666Y-103907166D02*
X132853333Y-104007166D01*
X132853333Y-104007166D02*
X132453333Y-104407166D01*
X132453333Y-104407166D02*
X132886666Y-104407166D01*
%TO.C,U1*%
X132957166Y-86533333D02*
X133523833Y-86533333D01*
X133523833Y-86533333D02*
X133590500Y-86500000D01*
X133590500Y-86500000D02*
X133623833Y-86466666D01*
X133623833Y-86466666D02*
X133657166Y-86400000D01*
X133657166Y-86400000D02*
X133657166Y-86266666D01*
X133657166Y-86266666D02*
X133623833Y-86200000D01*
X133623833Y-86200000D02*
X133590500Y-86166666D01*
X133590500Y-86166666D02*
X133523833Y-86133333D01*
X133523833Y-86133333D02*
X132957166Y-86133333D01*
X133657166Y-85433333D02*
X133657166Y-85833333D01*
X133657166Y-85633333D02*
X132957166Y-85633333D01*
X132957166Y-85633333D02*
X133057166Y-85700000D01*
X133057166Y-85700000D02*
X133123833Y-85766667D01*
X133123833Y-85766667D02*
X133157166Y-85833333D01*
%TO.C,C6*%
X153953333Y-93430500D02*
X153920000Y-93463833D01*
X153920000Y-93463833D02*
X153820000Y-93497166D01*
X153820000Y-93497166D02*
X153753333Y-93497166D01*
X153753333Y-93497166D02*
X153653333Y-93463833D01*
X153653333Y-93463833D02*
X153586667Y-93397166D01*
X153586667Y-93397166D02*
X153553333Y-93330500D01*
X153553333Y-93330500D02*
X153520000Y-93197166D01*
X153520000Y-93197166D02*
X153520000Y-93097166D01*
X153520000Y-93097166D02*
X153553333Y-92963833D01*
X153553333Y-92963833D02*
X153586667Y-92897166D01*
X153586667Y-92897166D02*
X153653333Y-92830500D01*
X153653333Y-92830500D02*
X153753333Y-92797166D01*
X153753333Y-92797166D02*
X153820000Y-92797166D01*
X153820000Y-92797166D02*
X153920000Y-92830500D01*
X153920000Y-92830500D02*
X153953333Y-92863833D01*
X154553333Y-92797166D02*
X154420000Y-92797166D01*
X154420000Y-92797166D02*
X154353333Y-92830500D01*
X154353333Y-92830500D02*
X154320000Y-92863833D01*
X154320000Y-92863833D02*
X154253333Y-92963833D01*
X154253333Y-92963833D02*
X154220000Y-93097166D01*
X154220000Y-93097166D02*
X154220000Y-93363833D01*
X154220000Y-93363833D02*
X154253333Y-93430500D01*
X154253333Y-93430500D02*
X154286667Y-93463833D01*
X154286667Y-93463833D02*
X154353333Y-93497166D01*
X154353333Y-93497166D02*
X154486667Y-93497166D01*
X154486667Y-93497166D02*
X154553333Y-93463833D01*
X154553333Y-93463833D02*
X154586667Y-93430500D01*
X154586667Y-93430500D02*
X154620000Y-93363833D01*
X154620000Y-93363833D02*
X154620000Y-93197166D01*
X154620000Y-93197166D02*
X154586667Y-93130500D01*
X154586667Y-93130500D02*
X154553333Y-93097166D01*
X154553333Y-93097166D02*
X154486667Y-93063833D01*
X154486667Y-93063833D02*
X154353333Y-93063833D01*
X154353333Y-93063833D02*
X154286667Y-93097166D01*
X154286667Y-93097166D02*
X154253333Y-93130500D01*
X154253333Y-93130500D02*
X154220000Y-93197166D01*
%TO.C,C9*%
X155990500Y-97316666D02*
X156023833Y-97349999D01*
X156023833Y-97349999D02*
X156057166Y-97449999D01*
X156057166Y-97449999D02*
X156057166Y-97516666D01*
X156057166Y-97516666D02*
X156023833Y-97616666D01*
X156023833Y-97616666D02*
X155957166Y-97683333D01*
X155957166Y-97683333D02*
X155890500Y-97716666D01*
X155890500Y-97716666D02*
X155757166Y-97749999D01*
X155757166Y-97749999D02*
X155657166Y-97749999D01*
X155657166Y-97749999D02*
X155523833Y-97716666D01*
X155523833Y-97716666D02*
X155457166Y-97683333D01*
X155457166Y-97683333D02*
X155390500Y-97616666D01*
X155390500Y-97616666D02*
X155357166Y-97516666D01*
X155357166Y-97516666D02*
X155357166Y-97449999D01*
X155357166Y-97449999D02*
X155390500Y-97349999D01*
X155390500Y-97349999D02*
X155423833Y-97316666D01*
X156057166Y-96983333D02*
X156057166Y-96849999D01*
X156057166Y-96849999D02*
X156023833Y-96783333D01*
X156023833Y-96783333D02*
X155990500Y-96749999D01*
X155990500Y-96749999D02*
X155890500Y-96683333D01*
X155890500Y-96683333D02*
X155757166Y-96649999D01*
X155757166Y-96649999D02*
X155490500Y-96649999D01*
X155490500Y-96649999D02*
X155423833Y-96683333D01*
X155423833Y-96683333D02*
X155390500Y-96716666D01*
X155390500Y-96716666D02*
X155357166Y-96783333D01*
X155357166Y-96783333D02*
X155357166Y-96916666D01*
X155357166Y-96916666D02*
X155390500Y-96983333D01*
X155390500Y-96983333D02*
X155423833Y-97016666D01*
X155423833Y-97016666D02*
X155490500Y-97049999D01*
X155490500Y-97049999D02*
X155657166Y-97049999D01*
X155657166Y-97049999D02*
X155723833Y-97016666D01*
X155723833Y-97016666D02*
X155757166Y-96983333D01*
X155757166Y-96983333D02*
X155790500Y-96916666D01*
X155790500Y-96916666D02*
X155790500Y-96783333D01*
X155790500Y-96783333D02*
X155757166Y-96716666D01*
X155757166Y-96716666D02*
X155723833Y-96683333D01*
X155723833Y-96683333D02*
X155657166Y-96649999D01*
%TO.C,C1*%
X132083333Y-100290500D02*
X132050000Y-100323833D01*
X132050000Y-100323833D02*
X131950000Y-100357166D01*
X131950000Y-100357166D02*
X131883333Y-100357166D01*
X131883333Y-100357166D02*
X131783333Y-100323833D01*
X131783333Y-100323833D02*
X131716667Y-100257166D01*
X131716667Y-100257166D02*
X131683333Y-100190500D01*
X131683333Y-100190500D02*
X131650000Y-100057166D01*
X131650000Y-100057166D02*
X131650000Y-99957166D01*
X131650000Y-99957166D02*
X131683333Y-99823833D01*
X131683333Y-99823833D02*
X131716667Y-99757166D01*
X131716667Y-99757166D02*
X131783333Y-99690500D01*
X131783333Y-99690500D02*
X131883333Y-99657166D01*
X131883333Y-99657166D02*
X131950000Y-99657166D01*
X131950000Y-99657166D02*
X132050000Y-99690500D01*
X132050000Y-99690500D02*
X132083333Y-99723833D01*
X132750000Y-100357166D02*
X132350000Y-100357166D01*
X132550000Y-100357166D02*
X132550000Y-99657166D01*
X132550000Y-99657166D02*
X132483333Y-99757166D01*
X132483333Y-99757166D02*
X132416667Y-99823833D01*
X132416667Y-99823833D02*
X132350000Y-99857166D01*
%TO.C,C14*%
X161714500Y-85150000D02*
X161747833Y-85183333D01*
X161747833Y-85183333D02*
X161781166Y-85283333D01*
X161781166Y-85283333D02*
X161781166Y-85350000D01*
X161781166Y-85350000D02*
X161747833Y-85450000D01*
X161747833Y-85450000D02*
X161681166Y-85516667D01*
X161681166Y-85516667D02*
X161614500Y-85550000D01*
X161614500Y-85550000D02*
X161481166Y-85583333D01*
X161481166Y-85583333D02*
X161381166Y-85583333D01*
X161381166Y-85583333D02*
X161247833Y-85550000D01*
X161247833Y-85550000D02*
X161181166Y-85516667D01*
X161181166Y-85516667D02*
X161114500Y-85450000D01*
X161114500Y-85450000D02*
X161081166Y-85350000D01*
X161081166Y-85350000D02*
X161081166Y-85283333D01*
X161081166Y-85283333D02*
X161114500Y-85183333D01*
X161114500Y-85183333D02*
X161147833Y-85150000D01*
X161781166Y-84483333D02*
X161781166Y-84883333D01*
X161781166Y-84683333D02*
X161081166Y-84683333D01*
X161081166Y-84683333D02*
X161181166Y-84750000D01*
X161181166Y-84750000D02*
X161247833Y-84816667D01*
X161247833Y-84816667D02*
X161281166Y-84883333D01*
X161314500Y-83883333D02*
X161781166Y-83883333D01*
X161047833Y-84050000D02*
X161547833Y-84216666D01*
X161547833Y-84216666D02*
X161547833Y-83783333D01*
%TO.C,C2*%
X126196666Y-101139500D02*
X126229999Y-101106166D01*
X126229999Y-101106166D02*
X126329999Y-101072833D01*
X126329999Y-101072833D02*
X126396666Y-101072833D01*
X126396666Y-101072833D02*
X126496666Y-101106166D01*
X126496666Y-101106166D02*
X126563333Y-101172833D01*
X126563333Y-101172833D02*
X126596666Y-101239500D01*
X126596666Y-101239500D02*
X126629999Y-101372833D01*
X126629999Y-101372833D02*
X126629999Y-101472833D01*
X126629999Y-101472833D02*
X126596666Y-101606166D01*
X126596666Y-101606166D02*
X126563333Y-101672833D01*
X126563333Y-101672833D02*
X126496666Y-101739500D01*
X126496666Y-101739500D02*
X126396666Y-101772833D01*
X126396666Y-101772833D02*
X126329999Y-101772833D01*
X126329999Y-101772833D02*
X126229999Y-101739500D01*
X126229999Y-101739500D02*
X126196666Y-101706166D01*
X125929999Y-101706166D02*
X125896666Y-101739500D01*
X125896666Y-101739500D02*
X125829999Y-101772833D01*
X125829999Y-101772833D02*
X125663333Y-101772833D01*
X125663333Y-101772833D02*
X125596666Y-101739500D01*
X125596666Y-101739500D02*
X125563333Y-101706166D01*
X125563333Y-101706166D02*
X125529999Y-101639500D01*
X125529999Y-101639500D02*
X125529999Y-101572833D01*
X125529999Y-101572833D02*
X125563333Y-101472833D01*
X125563333Y-101472833D02*
X125963333Y-101072833D01*
X125963333Y-101072833D02*
X125529999Y-101072833D01*
%TO.C,C8*%
X150433333Y-94990500D02*
X150400000Y-95023833D01*
X150400000Y-95023833D02*
X150300000Y-95057166D01*
X150300000Y-95057166D02*
X150233333Y-95057166D01*
X150233333Y-95057166D02*
X150133333Y-95023833D01*
X150133333Y-95023833D02*
X150066667Y-94957166D01*
X150066667Y-94957166D02*
X150033333Y-94890500D01*
X150033333Y-94890500D02*
X150000000Y-94757166D01*
X150000000Y-94757166D02*
X150000000Y-94657166D01*
X150000000Y-94657166D02*
X150033333Y-94523833D01*
X150033333Y-94523833D02*
X150066667Y-94457166D01*
X150066667Y-94457166D02*
X150133333Y-94390500D01*
X150133333Y-94390500D02*
X150233333Y-94357166D01*
X150233333Y-94357166D02*
X150300000Y-94357166D01*
X150300000Y-94357166D02*
X150400000Y-94390500D01*
X150400000Y-94390500D02*
X150433333Y-94423833D01*
X150833333Y-94657166D02*
X150766667Y-94623833D01*
X150766667Y-94623833D02*
X150733333Y-94590500D01*
X150733333Y-94590500D02*
X150700000Y-94523833D01*
X150700000Y-94523833D02*
X150700000Y-94490500D01*
X150700000Y-94490500D02*
X150733333Y-94423833D01*
X150733333Y-94423833D02*
X150766667Y-94390500D01*
X150766667Y-94390500D02*
X150833333Y-94357166D01*
X150833333Y-94357166D02*
X150966667Y-94357166D01*
X150966667Y-94357166D02*
X151033333Y-94390500D01*
X151033333Y-94390500D02*
X151066667Y-94423833D01*
X151066667Y-94423833D02*
X151100000Y-94490500D01*
X151100000Y-94490500D02*
X151100000Y-94523833D01*
X151100000Y-94523833D02*
X151066667Y-94590500D01*
X151066667Y-94590500D02*
X151033333Y-94623833D01*
X151033333Y-94623833D02*
X150966667Y-94657166D01*
X150966667Y-94657166D02*
X150833333Y-94657166D01*
X150833333Y-94657166D02*
X150766667Y-94690500D01*
X150766667Y-94690500D02*
X150733333Y-94723833D01*
X150733333Y-94723833D02*
X150700000Y-94790500D01*
X150700000Y-94790500D02*
X150700000Y-94923833D01*
X150700000Y-94923833D02*
X150733333Y-94990500D01*
X150733333Y-94990500D02*
X150766667Y-95023833D01*
X150766667Y-95023833D02*
X150833333Y-95057166D01*
X150833333Y-95057166D02*
X150966667Y-95057166D01*
X150966667Y-95057166D02*
X151033333Y-95023833D01*
X151033333Y-95023833D02*
X151066667Y-94990500D01*
X151066667Y-94990500D02*
X151100000Y-94923833D01*
X151100000Y-94923833D02*
X151100000Y-94790500D01*
X151100000Y-94790500D02*
X151066667Y-94723833D01*
X151066667Y-94723833D02*
X151033333Y-94690500D01*
X151033333Y-94690500D02*
X150966667Y-94657166D01*
%TO.C,R12*%
X124189999Y-104847166D02*
X123956666Y-104513833D01*
X123789999Y-104847166D02*
X123789999Y-104147166D01*
X123789999Y-104147166D02*
X124056666Y-104147166D01*
X124056666Y-104147166D02*
X124123333Y-104180500D01*
X124123333Y-104180500D02*
X124156666Y-104213833D01*
X124156666Y-104213833D02*
X124189999Y-104280500D01*
X124189999Y-104280500D02*
X124189999Y-104380500D01*
X124189999Y-104380500D02*
X124156666Y-104447166D01*
X124156666Y-104447166D02*
X124123333Y-104480500D01*
X124123333Y-104480500D02*
X124056666Y-104513833D01*
X124056666Y-104513833D02*
X123789999Y-104513833D01*
X124856666Y-104847166D02*
X124456666Y-104847166D01*
X124656666Y-104847166D02*
X124656666Y-104147166D01*
X124656666Y-104147166D02*
X124589999Y-104247166D01*
X124589999Y-104247166D02*
X124523333Y-104313833D01*
X124523333Y-104313833D02*
X124456666Y-104347166D01*
X125123333Y-104213833D02*
X125156666Y-104180500D01*
X125156666Y-104180500D02*
X125223333Y-104147166D01*
X125223333Y-104147166D02*
X125390000Y-104147166D01*
X125390000Y-104147166D02*
X125456666Y-104180500D01*
X125456666Y-104180500D02*
X125490000Y-104213833D01*
X125490000Y-104213833D02*
X125523333Y-104280500D01*
X125523333Y-104280500D02*
X125523333Y-104347166D01*
X125523333Y-104347166D02*
X125490000Y-104447166D01*
X125490000Y-104447166D02*
X125090000Y-104847166D01*
X125090000Y-104847166D02*
X125523333Y-104847166D01*
%TO.C,C11*%
X152099999Y-94700500D02*
X152066666Y-94733833D01*
X152066666Y-94733833D02*
X151966666Y-94767166D01*
X151966666Y-94767166D02*
X151899999Y-94767166D01*
X151899999Y-94767166D02*
X151799999Y-94733833D01*
X151799999Y-94733833D02*
X151733333Y-94667166D01*
X151733333Y-94667166D02*
X151699999Y-94600500D01*
X151699999Y-94600500D02*
X151666666Y-94467166D01*
X151666666Y-94467166D02*
X151666666Y-94367166D01*
X151666666Y-94367166D02*
X151699999Y-94233833D01*
X151699999Y-94233833D02*
X151733333Y-94167166D01*
X151733333Y-94167166D02*
X151799999Y-94100500D01*
X151799999Y-94100500D02*
X151899999Y-94067166D01*
X151899999Y-94067166D02*
X151966666Y-94067166D01*
X151966666Y-94067166D02*
X152066666Y-94100500D01*
X152066666Y-94100500D02*
X152099999Y-94133833D01*
X152766666Y-94767166D02*
X152366666Y-94767166D01*
X152566666Y-94767166D02*
X152566666Y-94067166D01*
X152566666Y-94067166D02*
X152499999Y-94167166D01*
X152499999Y-94167166D02*
X152433333Y-94233833D01*
X152433333Y-94233833D02*
X152366666Y-94267166D01*
X153433333Y-94767166D02*
X153033333Y-94767166D01*
X153233333Y-94767166D02*
X153233333Y-94067166D01*
X153233333Y-94067166D02*
X153166666Y-94167166D01*
X153166666Y-94167166D02*
X153100000Y-94233833D01*
X153100000Y-94233833D02*
X153033333Y-94267166D01*
D13*
%TO.C,RBUS1*%
X103290000Y-103510000D02*
X103290000Y-96500000D01*
X116310000Y-103510000D02*
X103290000Y-103510000D01*
X117000000Y-103300000D02*
X117300000Y-102700000D01*
X117600000Y-103300000D02*
X117000000Y-103300000D01*
X116310000Y-102700000D02*
X116310000Y-103510000D01*
X117300000Y-102700000D02*
X117600000Y-103300000D01*
X119410000Y-101000000D02*
X120690000Y-101000000D01*
X119410000Y-100400000D02*
X120690000Y-100400000D01*
X116300000Y-99090000D02*
X116300000Y-98110000D01*
X119410000Y-96800000D02*
X120690000Y-96800000D01*
X119410000Y-96200000D02*
X120690000Y-96200000D01*
X116300000Y-94890000D02*
X116300000Y-93910000D01*
X119410000Y-92600000D02*
X120690000Y-92600000D01*
X119410000Y-92000000D02*
X120690000Y-92000000D01*
X116310000Y-90300000D02*
X116310000Y-89490000D01*
X103290000Y-89490000D02*
X103290000Y-96500000D01*
X116310000Y-89490000D02*
X103290000Y-89490000D01*
%TO.C,RBUS2*%
X177710000Y-89490000D02*
X177710000Y-96500000D01*
X164690000Y-89490000D02*
X177710000Y-89490000D01*
X164000000Y-89700000D02*
X163700000Y-90300000D01*
X163400000Y-89700000D02*
X164000000Y-89700000D01*
X164690000Y-90300000D02*
X164690000Y-89490000D01*
X163700000Y-90300000D02*
X163400000Y-89700000D01*
X161590000Y-92000000D02*
X160310000Y-92000000D01*
X161590000Y-92600000D02*
X160310000Y-92600000D01*
X164700000Y-93910000D02*
X164700000Y-94890000D01*
X161590000Y-96200000D02*
X160310000Y-96200000D01*
X161590000Y-96800000D02*
X160310000Y-96800000D01*
X164700000Y-98110000D02*
X164700000Y-99090000D01*
X161590000Y-100400000D02*
X160310000Y-100400000D01*
X161590000Y-101000000D02*
X160310000Y-101000000D01*
X164690000Y-102700000D02*
X164690000Y-103510000D01*
X177710000Y-103510000D02*
X177710000Y-96500000D01*
X164690000Y-103510000D02*
X177710000Y-103510000D01*
D14*
%TO.C,U11*%
X160719000Y-88018000D02*
X159519000Y-88018000D01*
X159169000Y-87998000D02*
X158569000Y-87998000D01*
X159169000Y-85038000D02*
X159169000Y-87998000D01*
X158569000Y-87998000D02*
X158569000Y-85038000D01*
X158569000Y-85038000D02*
X159169000Y-85038000D01*
D13*
%TO.C,C15*%
X119826800Y-106081036D02*
X119826800Y-105865364D01*
X120546800Y-106081036D02*
X120546800Y-105865364D01*
%TO.C,TP6*%
X151460000Y-90520000D02*
G75*
G03*
X151460000Y-90520000I-700000J0D01*
G01*
%TO.C,R4*%
X131246359Y-101660000D02*
X131553641Y-101660000D01*
X131246359Y-102420000D02*
X131553641Y-102420000D01*
%TO.C,R7*%
X149060000Y-103793641D02*
X149060000Y-103486359D01*
X149820000Y-103793641D02*
X149820000Y-103486359D01*
%TO.C,R3*%
X127122500Y-95367742D02*
X127122500Y-95842258D01*
X126077500Y-95367742D02*
X126077500Y-95842258D01*
D15*
%TO.C,U3*%
X123561799Y-104983201D02*
X121961799Y-104983201D01*
X121961799Y-108103201D02*
X123561799Y-108103201D01*
D14*
X125361799Y-107493201D02*
G75*
G03*
X125361799Y-107493201I-100000J0D01*
G01*
D13*
%TO.C,C4*%
X130297836Y-99445000D02*
X130082164Y-99445000D01*
X130297836Y-98725000D02*
X130082164Y-98725000D01*
%TO.C,U8*%
X155165000Y-101375000D02*
X155165000Y-97925000D01*
X155165000Y-101375000D02*
X155165000Y-103325000D01*
X150045000Y-101375000D02*
X150045000Y-99425000D01*
X150045000Y-101375000D02*
X150045000Y-103325000D01*
D16*
%TO.C,D5*%
X151475000Y-92170000D02*
G75*
G03*
X151475000Y-92170000I-50000J0D01*
G01*
D13*
%TO.C,C23*%
X125040001Y-86662164D02*
X125040001Y-86877836D01*
X124320001Y-86662164D02*
X124320001Y-86877836D01*
%TO.C,U9*%
X146110000Y-95260000D02*
X149560000Y-95260000D01*
X146110000Y-95260000D02*
X144160000Y-95260000D01*
X146110000Y-90140000D02*
X148060000Y-90140000D01*
X146110000Y-90140000D02*
X144160000Y-90140000D01*
%TO.C,JP1*%
X140970000Y-91070000D02*
X140370000Y-91070000D01*
X139670000Y-90370000D02*
X139670000Y-88970000D01*
X141670000Y-88970000D02*
X141670000Y-90370000D01*
X140370000Y-88270000D02*
X140970000Y-88270000D01*
X139670000Y-90370000D02*
G75*
G03*
X140370000Y-91070000I699999J-1D01*
G01*
X140970000Y-91070000D02*
G75*
G03*
X141670000Y-90370000I1J699999D01*
G01*
X140370000Y-88270000D02*
G75*
G03*
X139670000Y-88970000I0J-700000D01*
G01*
X141670000Y-88970000D02*
G75*
G03*
X140970000Y-88270000I-700000J0D01*
G01*
%TO.C,C3*%
X129625000Y-89727836D02*
X129625000Y-89512164D01*
X130345000Y-89727836D02*
X130345000Y-89512164D01*
%TO.C,R8*%
X159102742Y-104107500D02*
X159577258Y-104107500D01*
X159102742Y-105152500D02*
X159577258Y-105152500D01*
%TO.C,R6*%
X152361359Y-90850000D02*
X152668641Y-90850000D01*
X152361359Y-91610000D02*
X152668641Y-91610000D01*
D16*
%TO.C,D7*%
X120390000Y-84970000D02*
G75*
G03*
X120390000Y-84970000I-50000J0D01*
G01*
%TO.C,D4*%
X127222500Y-101100000D02*
G75*
G03*
X127222500Y-101100000I-50000J0D01*
G01*
D13*
%TO.C,R13*%
X123448641Y-85350000D02*
X123141359Y-85350000D01*
X123448641Y-84590000D02*
X123141359Y-84590000D01*
%TO.C,C19*%
X131252164Y-107420000D02*
X131467836Y-107420000D01*
X131252164Y-108140000D02*
X131467836Y-108140000D01*
%TO.C,TP4*%
X140970000Y-100330000D02*
G75*
G03*
X140970000Y-100330000I-700000J0D01*
G01*
%TO.C,C16*%
X135602164Y-98110000D02*
X135817836Y-98110000D01*
X135602164Y-98830000D02*
X135817836Y-98830000D01*
%TO.C,R10*%
X155902258Y-108757500D02*
X155427742Y-108757500D01*
X155902258Y-107712500D02*
X155427742Y-107712500D01*
%TO.C,TP7*%
X141830000Y-83370000D02*
X143160000Y-83370000D01*
X141830000Y-84700000D02*
X141830000Y-83370000D01*
X141830000Y-85970000D02*
X141830000Y-86030000D01*
X141830000Y-85970000D02*
X144490000Y-85970000D01*
X141830000Y-86030000D02*
X144490000Y-86030000D01*
X144490000Y-85970000D02*
X144490000Y-86030000D01*
%TO.C,R5*%
X126236141Y-102420000D02*
X125928859Y-102420000D01*
X126236141Y-101660000D02*
X125928859Y-101660000D01*
%TO.C,C17*%
X134107836Y-84900000D02*
X133892164Y-84900000D01*
X134107836Y-84180000D02*
X133892164Y-84180000D01*
%TO.C,R15*%
X132830000Y-91618641D02*
X132830000Y-91311359D01*
X133590000Y-91618641D02*
X133590000Y-91311359D01*
%TO.C,R14*%
X154586000Y-87209641D02*
X154586000Y-86902359D01*
X155346000Y-87209641D02*
X155346000Y-86902359D01*
%TO.C,C21*%
X120909635Y-104953202D02*
X120693963Y-104953202D01*
X120909635Y-104233202D02*
X120693963Y-104233202D01*
D16*
%TO.C,D8*%
X156620000Y-85654000D02*
G75*
G03*
X156620000Y-85654000I-50000J0D01*
G01*
D13*
%TO.C,TP9*%
X147710000Y-83380000D02*
X149040000Y-83380000D01*
X147710000Y-84710000D02*
X147710000Y-83380000D01*
X147710000Y-85980000D02*
X147710000Y-86040000D01*
X147710000Y-85980000D02*
X150370000Y-85980000D01*
X147710000Y-86040000D02*
X150370000Y-86040000D01*
X150370000Y-85980000D02*
X150370000Y-86040000D01*
%TO.C,D1*%
X131545000Y-86782500D02*
X131545000Y-85107500D01*
X131545000Y-86782500D02*
X131545000Y-87432500D01*
X128425000Y-86782500D02*
X128425000Y-86132500D01*
X128425000Y-86782500D02*
X128425000Y-87432500D01*
%TO.C,TP5*%
X155500000Y-95750000D02*
G75*
G03*
X155500000Y-95750000I-700000J0D01*
G01*
D16*
%TO.C,D3*%
X133632500Y-101100000D02*
G75*
G03*
X133632500Y-101100000I-50000J0D01*
G01*
D13*
%TO.C,C5*%
X130297836Y-100395001D02*
X130082164Y-100395001D01*
X130297836Y-99675001D02*
X130082164Y-99675001D01*
%TO.C,C13*%
X119920001Y-86702164D02*
X119920001Y-86917836D01*
X119200001Y-86702164D02*
X119200001Y-86917836D01*
%TO.C,R9*%
X155447742Y-105312500D02*
X155922258Y-105312500D01*
X155447742Y-106357500D02*
X155922258Y-106357500D01*
%TO.C,C18*%
X126230000Y-107932836D02*
X126230000Y-107717164D01*
X126950000Y-107932836D02*
X126950000Y-107717164D01*
%TO.C,TP1*%
X133950000Y-98800000D02*
G75*
G03*
X133950000Y-98800000I-700000J0D01*
G01*
D14*
%TO.C,U10*%
X120270000Y-85740000D02*
X121470000Y-85740000D01*
X121820000Y-85760000D02*
X122420000Y-85760000D01*
X121820000Y-88720000D02*
X121820000Y-85760000D01*
X122420000Y-85760000D02*
X122420000Y-88720000D01*
X122420000Y-88720000D02*
X121820000Y-88720000D01*
D13*
%TO.C,C20*%
X127882164Y-103130000D02*
X128097836Y-103130000D01*
X127882164Y-103850000D02*
X128097836Y-103850000D01*
%TO.C,JP2*%
X140370000Y-91590000D02*
X140970000Y-91590000D01*
X141670000Y-92290000D02*
X141670000Y-93690000D01*
X139670000Y-93690000D02*
X139670000Y-92290000D01*
X140970000Y-94390000D02*
X140370000Y-94390000D01*
X141670000Y-92290000D02*
G75*
G03*
X140970000Y-91590000I-699999J1D01*
G01*
X140370000Y-91590000D02*
G75*
G03*
X139670000Y-92290000I-1J-699999D01*
G01*
X140970000Y-94390000D02*
G75*
G03*
X141670000Y-93690000I0J700000D01*
G01*
X139670000Y-93690000D02*
G75*
G03*
X140370000Y-94390000I700000J0D01*
G01*
%TO.C,R11*%
X120561799Y-107659561D02*
X120561799Y-107966843D01*
X119801799Y-107659561D02*
X119801799Y-107966843D01*
%TO.C,R1*%
X131692742Y-89272500D02*
X132167258Y-89272500D01*
X131692742Y-90317500D02*
X132167258Y-90317500D01*
%TO.C,TP11*%
X141828000Y-86864000D02*
X143158000Y-86864000D01*
X141828000Y-88194000D02*
X141828000Y-86864000D01*
X141828000Y-89464000D02*
X141828000Y-89524000D01*
X141828000Y-89464000D02*
X144488000Y-89464000D01*
X141828000Y-89524000D02*
X144488000Y-89524000D01*
X144488000Y-89464000D02*
X144488000Y-89524000D01*
%TO.C,TP3*%
X141180000Y-96980000D02*
G75*
G03*
X141180000Y-96980000I-700000J0D01*
G01*
%TO.C,R2*%
X127812742Y-89282500D02*
X128287258Y-89282500D01*
X127812742Y-90327500D02*
X128287258Y-90327500D01*
%TO.C,TP2*%
X127020000Y-98730000D02*
G75*
G03*
X127020000Y-98730000I-700000J0D01*
G01*
%TO.C,D2*%
X159090000Y-108680000D02*
X160765000Y-108680000D01*
X159090000Y-108680000D02*
X158440000Y-108680000D01*
X159090000Y-105560000D02*
X159740000Y-105560000D01*
X159090000Y-105560000D02*
X158440000Y-105560000D01*
%TO.C,C22*%
X155949000Y-87155836D02*
X155949000Y-86940164D01*
X156669000Y-87155836D02*
X156669000Y-86940164D01*
D16*
%TO.C,D6*%
X149490000Y-100700000D02*
G75*
G03*
X149490000Y-100700000I-50000J0D01*
G01*
D13*
%TO.C,R16*%
X151283642Y-105930000D02*
X150976360Y-105930000D01*
X151283642Y-105170000D02*
X150976360Y-105170000D01*
%TO.C,C7*%
X142300000Y-95732164D02*
X142300000Y-95947836D01*
X141580000Y-95732164D02*
X141580000Y-95947836D01*
%TO.C,C12*%
X156137164Y-106675000D02*
X156352836Y-106675000D01*
X156137164Y-107395000D02*
X156352836Y-107395000D01*
%TO.C,U6*%
X127475000Y-94920000D02*
X127475000Y-98370000D01*
X127475000Y-94920000D02*
X127475000Y-92970000D01*
X132595000Y-94920000D02*
X132595000Y-96870000D01*
X132595000Y-94920000D02*
X132595000Y-92970000D01*
%TO.C,U7*%
X146105000Y-95535000D02*
X142655000Y-95535000D01*
X146105000Y-95535000D02*
X148055000Y-95535000D01*
X146105000Y-100655000D02*
X144155000Y-100655000D01*
X146105000Y-100655000D02*
X148055000Y-100655000D01*
%TO.C,C10*%
X152482164Y-96860000D02*
X152697836Y-96860000D01*
X152482164Y-97580000D02*
X152697836Y-97580000D01*
%TO.C,TP12*%
X147711000Y-86862000D02*
X149041000Y-86862000D01*
X147711000Y-88192000D02*
X147711000Y-86862000D01*
X147711000Y-89462000D02*
X147711000Y-89522000D01*
X147711000Y-89462000D02*
X150371000Y-89462000D01*
X147711000Y-89522000D02*
X150371000Y-89522000D01*
X150371000Y-89462000D02*
X150371000Y-89522000D01*
D15*
%TO.C,U4*%
X133600000Y-95100000D02*
X133600000Y-96700000D01*
X136720000Y-96700000D02*
X136720000Y-95100000D01*
D14*
X136210000Y-93400000D02*
G75*
G03*
X136210000Y-93400000I-100000J0D01*
G01*
D15*
%TO.C,U5*%
X127095000Y-107675000D02*
X127095000Y-105375000D01*
X129505000Y-107675000D02*
X129505000Y-105375000D01*
D14*
X127650000Y-109050000D02*
G75*
G03*
X127650000Y-109050000I-100000J0D01*
G01*
D15*
%TO.C,U2*%
X133475000Y-107275000D02*
X131175000Y-107275000D01*
X133475000Y-104865000D02*
X131175000Y-104865000D01*
D14*
X134950000Y-106820000D02*
G75*
G03*
X134950000Y-106820000I-100000J0D01*
G01*
D15*
%TO.C,U1*%
X133950000Y-91160000D02*
X133950000Y-86660000D01*
X134300000Y-91160000D02*
X133950000Y-91160000D01*
X137650000Y-91160000D02*
X137300000Y-91160000D01*
X133950000Y-86660000D02*
X134300000Y-86660000D01*
X137300000Y-86660000D02*
X137650000Y-86660000D01*
X137650000Y-86660000D02*
X137650000Y-91160000D01*
D17*
X134120709Y-91810000D02*
G75*
G03*
X134120709Y-91810000I-70709J0D01*
G01*
D13*
%TO.C,C6*%
X152402164Y-92720000D02*
X152617836Y-92720000D01*
X152402164Y-93440000D02*
X152617836Y-93440000D01*
%TO.C,TP8*%
X144574000Y-106925000D02*
X144574000Y-108255000D01*
X143244000Y-106925000D02*
X144574000Y-106925000D01*
X141974000Y-106925000D02*
X141914000Y-106925000D01*
X141974000Y-106925000D02*
X141974000Y-109585000D01*
X141914000Y-106925000D02*
X141914000Y-109585000D01*
X141974000Y-109585000D02*
X141914000Y-109585000D01*
%TO.C,C9*%
X154517836Y-97570000D02*
X154302164Y-97570000D01*
X154517836Y-96850000D02*
X154302164Y-96850000D01*
%TO.C,C1*%
X133422164Y-99800000D02*
X133637836Y-99800000D01*
X133422164Y-100520000D02*
X133637836Y-100520000D01*
%TO.C,C14*%
X161067000Y-87057836D02*
X161067000Y-86842164D01*
X161787000Y-87057836D02*
X161787000Y-86842164D01*
%TO.C,C2*%
X126187836Y-100530000D02*
X125972164Y-100530000D01*
X126187836Y-99810000D02*
X125972164Y-99810000D01*
%TO.C,C8*%
X150630000Y-95792164D02*
X150630000Y-96007836D01*
X149910000Y-95792164D02*
X149910000Y-96007836D01*
%TO.C,R12*%
X122795440Y-104753202D02*
X122488158Y-104753202D01*
X122795440Y-103993202D02*
X122488158Y-103993202D01*
%TO.C,C11*%
X152482164Y-95930000D02*
X152697836Y-95930000D01*
X152482164Y-96650000D02*
X152697836Y-96650000D01*
%TO.C,TP10*%
X147649000Y-106898000D02*
X148979000Y-106898000D01*
X147649000Y-108228000D02*
X147649000Y-106898000D01*
X147649000Y-109498000D02*
X147649000Y-109558000D01*
X147649000Y-109498000D02*
X150309000Y-109498000D01*
X147649000Y-109558000D02*
X150309000Y-109558000D01*
X150309000Y-109498000D02*
X150309000Y-109558000D01*
%TD*%
%LPC*%
D18*
%TO.C,RBUS1*%
X117300000Y-100700000D03*
D19*
X117299999Y-96499999D03*
X117299999Y-92299999D03*
X122799999Y-100699999D03*
X122799999Y-96499999D03*
X122799999Y-92299999D03*
%TD*%
D20*
%TO.C,RBUS2*%
X163700000Y-92300000D03*
D19*
X163699999Y-96499999D03*
X163699999Y-100699999D03*
X158199999Y-92299999D03*
X158199999Y-96499999D03*
X158199999Y-100699999D03*
%TD*%
D21*
%TO.C,U11*%
X160118999Y-87467999D03*
X160118999Y-86517999D03*
X160118999Y-85567999D03*
X157618999Y-85567999D03*
X157618999Y-87467999D03*
%TD*%
D22*
%TO.C,C15*%
X120186800Y-106453200D03*
X120186800Y-105493200D03*
%TD*%
D23*
%TO.C,TP6*%
X150760000Y-90520000D03*
%TD*%
D24*
%TO.C,R4*%
X130890000Y-102040000D03*
X131910000Y-102040000D03*
%TD*%
D25*
%TO.C,R7*%
X149440000Y-104150000D03*
X149440000Y-103130000D03*
%TD*%
D26*
%TO.C,R3*%
X126600000Y-94780000D03*
X126600000Y-96430000D03*
%TD*%
D27*
%TO.C,U3*%
X124016799Y-107493201D03*
X124016799Y-106543201D03*
X124016799Y-105593201D03*
X121506799Y-105593201D03*
X121506799Y-106543201D03*
X121506799Y-107493201D03*
%TD*%
D28*
%TO.C,C4*%
X130670000Y-99085000D03*
X129710000Y-99085000D03*
%TD*%
D29*
%TO.C,U8*%
X154510000Y-98900000D03*
X153240000Y-98900000D03*
X151970000Y-98900000D03*
X150700000Y-98900000D03*
X150700000Y-103850000D03*
X151970000Y-103850000D03*
X153240000Y-103850000D03*
X154510000Y-103850000D03*
%TD*%
D30*
%TO.C,D5*%
X152030000Y-92170000D03*
X153000000Y-92170000D03*
%TD*%
D31*
%TO.C,C23*%
X124680001Y-86290000D03*
X124680001Y-87250000D03*
%TD*%
D32*
%TO.C,U9*%
X148585000Y-94605000D03*
X148585000Y-93335000D03*
X148585000Y-92065000D03*
X148585000Y-90795000D03*
X143635000Y-90795000D03*
X143635000Y-92065000D03*
X143635000Y-93335000D03*
X143635000Y-94605000D03*
%TD*%
D33*
%TO.C,JP1*%
X140670000Y-90320000D03*
D34*
X140670000Y-89020000D03*
%TD*%
D22*
%TO.C,C3*%
X129985000Y-90100000D03*
X129985000Y-89140000D03*
%TD*%
D35*
%TO.C,R8*%
X158515000Y-104630000D03*
X160165000Y-104630000D03*
%TD*%
D24*
%TO.C,R6*%
X152005000Y-91230000D03*
X153025000Y-91230000D03*
%TD*%
D30*
%TO.C,D7*%
X120945000Y-84970000D03*
X121915000Y-84970000D03*
%TD*%
D36*
%TO.C,D4*%
X126567500Y-101100000D03*
X125597500Y-101100000D03*
%TD*%
D37*
%TO.C,R13*%
X123805000Y-84970000D03*
X122785000Y-84970000D03*
%TD*%
D38*
%TO.C,C19*%
X130880000Y-107780000D03*
X131840000Y-107780000D03*
%TD*%
D23*
%TO.C,TP4*%
X140270000Y-100330000D03*
%TD*%
D38*
%TO.C,C16*%
X135230000Y-98470000D03*
X136190000Y-98470000D03*
%TD*%
D39*
%TO.C,R10*%
X156490000Y-108235000D03*
X154840000Y-108235000D03*
%TD*%
D40*
%TO.C,H3*%
X166000000Y-86000000D03*
%TD*%
D41*
%TO.C,TP7*%
X143159999Y-84699999D03*
%TD*%
D37*
%TO.C,R5*%
X126592500Y-102040000D03*
X125572500Y-102040000D03*
%TD*%
D28*
%TO.C,C17*%
X134480000Y-84540000D03*
X133520000Y-84540000D03*
%TD*%
D25*
%TO.C,R15*%
X133210000Y-91975000D03*
X133210000Y-90955000D03*
%TD*%
%TO.C,R14*%
X154966000Y-87566000D03*
X154966000Y-86546000D03*
%TD*%
D40*
%TO.C,H1*%
X115000000Y-86000000D03*
%TD*%
D28*
%TO.C,C21*%
X121281799Y-104593202D03*
X120321799Y-104593202D03*
%TD*%
D36*
%TO.C,D8*%
X155965000Y-85654000D03*
X154995000Y-85654000D03*
%TD*%
D41*
%TO.C,TP9*%
X149039999Y-84709999D03*
%TD*%
D42*
%TO.C,D1*%
X130935000Y-85845000D03*
X129035000Y-85845000D03*
X129985000Y-87720000D03*
%TD*%
D23*
%TO.C,TP5*%
X154800000Y-95750000D03*
%TD*%
D40*
%TO.C,H2*%
X115000000Y-107000000D03*
%TD*%
D36*
%TO.C,D3*%
X132977500Y-101100000D03*
X132007500Y-101100000D03*
%TD*%
D28*
%TO.C,C5*%
X130670000Y-100035001D03*
X129710000Y-100035001D03*
%TD*%
D31*
%TO.C,C13*%
X119560001Y-86330000D03*
X119560001Y-87290000D03*
%TD*%
D35*
%TO.C,R9*%
X154860000Y-105835000D03*
X156510000Y-105835000D03*
%TD*%
D22*
%TO.C,C18*%
X126590000Y-108305000D03*
X126590000Y-107345000D03*
%TD*%
D23*
%TO.C,TP1*%
X133250000Y-98800000D03*
%TD*%
D21*
%TO.C,U10*%
X120869999Y-86289999D03*
X120869999Y-87239999D03*
X120869999Y-88189999D03*
X123369999Y-88189999D03*
X123369999Y-86289999D03*
%TD*%
D38*
%TO.C,C20*%
X127510000Y-103490000D03*
X128470000Y-103490000D03*
%TD*%
D43*
%TO.C,JP2*%
X140670000Y-92340000D03*
D44*
X140670000Y-93640000D03*
%TD*%
D40*
%TO.C,H4*%
X166000000Y-107000000D03*
%TD*%
D45*
%TO.C,R11*%
X120181799Y-107303202D03*
X120181799Y-108323202D03*
%TD*%
D35*
%TO.C,R1*%
X131105000Y-89795000D03*
X132755000Y-89795000D03*
%TD*%
D41*
%TO.C,TP11*%
X143157999Y-88193999D03*
%TD*%
D23*
%TO.C,TP3*%
X140480000Y-96980000D03*
%TD*%
D35*
%TO.C,R2*%
X127225000Y-89805000D03*
X128875000Y-89805000D03*
%TD*%
D23*
%TO.C,TP2*%
X126320000Y-98730000D03*
%TD*%
D46*
%TO.C,D2*%
X160027500Y-108070000D03*
X160027500Y-106170000D03*
X158152500Y-107120000D03*
%TD*%
D22*
%TO.C,C22*%
X156309000Y-87528000D03*
X156309000Y-86568000D03*
%TD*%
D47*
%TO.C,D6*%
X149440000Y-101305000D03*
X149440000Y-102275000D03*
%TD*%
D37*
%TO.C,R16*%
X151640001Y-105550000D03*
X150620001Y-105550000D03*
%TD*%
D31*
%TO.C,C7*%
X141940000Y-95360000D03*
X141940000Y-96320000D03*
%TD*%
D38*
%TO.C,C12*%
X155765000Y-107035000D03*
X156725000Y-107035000D03*
%TD*%
D48*
%TO.C,U6*%
X128130000Y-97395000D03*
X129400000Y-97395000D03*
X130670000Y-97395000D03*
X131940000Y-97395000D03*
X131940000Y-92445000D03*
X130670000Y-92445000D03*
X129400000Y-92445000D03*
X128130000Y-92445000D03*
%TD*%
D49*
%TO.C,U7*%
X143630000Y-96190000D03*
X143630000Y-97460000D03*
X143630000Y-98730000D03*
X143630000Y-100000000D03*
X148580000Y-100000000D03*
X148580000Y-98730000D03*
X148580000Y-97460000D03*
X148580000Y-96190000D03*
%TD*%
D38*
%TO.C,C10*%
X152110000Y-97220000D03*
X153070000Y-97220000D03*
%TD*%
D41*
%TO.C,TP12*%
X149040999Y-88191999D03*
%TD*%
D50*
%TO.C,U4*%
X136110000Y-94645000D03*
X135160000Y-94645000D03*
X134210000Y-94645000D03*
X134210000Y-97155000D03*
X135160000Y-97155000D03*
X136110000Y-97155000D03*
%TD*%
D51*
%TO.C,U5*%
X127550000Y-107930000D03*
X128050000Y-107930000D03*
X128550000Y-107930000D03*
X129050000Y-107930000D03*
X129050000Y-105120000D03*
X128550000Y-105120000D03*
X128050000Y-105120000D03*
X127550000Y-105120000D03*
%TD*%
D52*
%TO.C,U2*%
X133730000Y-106820000D03*
X133730000Y-106320000D03*
X133730000Y-105820000D03*
X133730000Y-105320000D03*
X130920000Y-105320000D03*
X130920000Y-105820000D03*
X130920000Y-106320000D03*
X130920000Y-106820000D03*
%TD*%
D53*
%TO.C,U1*%
X134599999Y-91779999D03*
X134999999Y-91779999D03*
X135399999Y-91779999D03*
X135799999Y-91779999D03*
X136199999Y-91779999D03*
X136599999Y-91779999D03*
X136999999Y-91779999D03*
X136999999Y-86039999D03*
X136599999Y-86039999D03*
X136199999Y-86039999D03*
X135799999Y-86039999D03*
X135399999Y-86039999D03*
X134999999Y-86039999D03*
X134599999Y-86039999D03*
%TD*%
D38*
%TO.C,C6*%
X152030000Y-93080000D03*
X152990000Y-93080000D03*
%TD*%
D41*
%TO.C,TP8*%
X143243999Y-108254999D03*
%TD*%
D28*
%TO.C,C9*%
X154890000Y-97210000D03*
X153930000Y-97210000D03*
%TD*%
D38*
%TO.C,C1*%
X133050000Y-100160000D03*
X134010000Y-100160000D03*
%TD*%
D22*
%TO.C,C14*%
X161427000Y-87430000D03*
X161427000Y-86470000D03*
%TD*%
D28*
%TO.C,C2*%
X126560000Y-100170000D03*
X125600000Y-100170000D03*
%TD*%
D31*
%TO.C,C8*%
X150270000Y-95420000D03*
X150270000Y-96380000D03*
%TD*%
D37*
%TO.C,R12*%
X123151799Y-104373202D03*
X122131799Y-104373202D03*
%TD*%
D38*
%TO.C,C11*%
X152110000Y-96290000D03*
X153070000Y-96290000D03*
%TD*%
D41*
%TO.C,TP10*%
X148978999Y-108227999D03*
%TD*%
M02*
