%TF.GenerationSoftware,KiCad,Pcbnew,(7.0.0)*%
%TF.CreationDate,2023-04-14T14:14:43+01:00*%
%TF.ProjectId,CANRepIso,43414e52-6570-4497-936f-2e6b69636164,rev?*%
%TF.SameCoordinates,Original*%
%TF.FileFunction,Copper,L4,Bot*%
%TF.FilePolarity,Positive*%
%FSLAX46Y46*%
G04 Gerber Fmt 4.6, Leading zero omitted, Abs format (unit mm)*
G04 Created by KiCad (PCBNEW (7.0.0)) date 2023-04-14 14:14:43*
%MOMM*%
%LPD*%
G01*
G04 APERTURE LIST*
G04 Aperture macros list*
%AMRoundRect*
0 Rectangle with rounded corners*
0 $1 Rounding radius*
0 $2 $3 $4 $5 $6 $7 $8 $9 X,Y pos of 4 corners*
0 Add a 4 corners polygon primitive as box body*
4,1,4,$2,$3,$4,$5,$6,$7,$8,$9,$2,$3,0*
0 Add four circle primitives for the rounded corners*
1,1,$1+$1,$2,$3*
1,1,$1+$1,$4,$5*
1,1,$1+$1,$6,$7*
1,1,$1+$1,$8,$9*
0 Add four rect primitives between the rounded corners*
20,1,$1+$1,$2,$3,$4,$5,0*
20,1,$1+$1,$4,$5,$6,$7,0*
20,1,$1+$1,$6,$7,$8,$9,0*
20,1,$1+$1,$8,$9,$2,$3,0*%
%AMFreePoly0*
4,1,19,0.500000,-0.750000,0.000000,-0.750000,0.000000,-0.744911,-0.071157,-0.744911,-0.207708,-0.704816,-0.327430,-0.627875,-0.420627,-0.520320,-0.479746,-0.390866,-0.500000,-0.250000,-0.500000,0.250000,-0.479746,0.390866,-0.420627,0.520320,-0.327430,0.627875,-0.207708,0.704816,-0.071157,0.744911,0.000000,0.744911,0.000000,0.750000,0.500000,0.750000,0.500000,-0.750000,0.500000,-0.750000,
$1*%
%AMFreePoly1*
4,1,19,0.000000,0.744911,0.071157,0.744911,0.207708,0.704816,0.327430,0.627875,0.420627,0.520320,0.479746,0.390866,0.500000,0.250000,0.500000,-0.250000,0.479746,-0.390866,0.420627,-0.520320,0.327430,-0.627875,0.207708,-0.704816,0.071157,-0.744911,0.000000,-0.744911,0.000000,-0.750000,-0.500000,-0.750000,-0.500000,0.750000,0.000000,0.750000,0.000000,0.744911,0.000000,0.744911,
$1*%
G04 Aperture macros list end*
%TA.AperFunction,ComponentPad*%
%ADD10RoundRect,0.250001X-1.599999X1.099999X-1.599999X-1.099999X1.599999X-1.099999X1.599999X1.099999X0*%
%TD*%
%TA.AperFunction,ComponentPad*%
%ADD11O,3.700000X2.700000*%
%TD*%
%TA.AperFunction,ComponentPad*%
%ADD12RoundRect,0.250001X1.599999X-1.099999X1.599999X1.099999X-1.599999X1.099999X-1.599999X-1.099999X0*%
%TD*%
%TA.AperFunction,ComponentPad*%
%ADD13C,5.600000*%
%TD*%
%TA.AperFunction,ComponentPad*%
%ADD14R,1.700000X1.700000*%
%TD*%
%TA.AperFunction,SMDPad,CuDef*%
%ADD15FreePoly0,0.000000*%
%TD*%
%TA.AperFunction,SMDPad,CuDef*%
%ADD16FreePoly1,0.000000*%
%TD*%
%TA.AperFunction,ViaPad*%
%ADD17C,0.450000*%
%TD*%
%TA.AperFunction,ViaPad*%
%ADD18C,0.600000*%
%TD*%
%TA.AperFunction,Conductor*%
%ADD19C,0.400000*%
%TD*%
%TA.AperFunction,Conductor*%
%ADD20C,0.250000*%
%TD*%
%TA.AperFunction,Conductor*%
%ADD21C,0.240000*%
%TD*%
%TA.AperFunction,Conductor*%
%ADD22C,0.800000*%
%TD*%
G04 APERTURE END LIST*
%TO.C,JP4*%
G36*
X121369999Y-89820000D02*
G01*
X120869999Y-89820000D01*
X120869999Y-89220000D01*
X121369999Y-89220000D01*
X121369999Y-89820000D01*
G37*
%TO.C,JP3*%
G36*
X160779000Y-89880000D02*
G01*
X160279000Y-89880000D01*
X160279000Y-89280000D01*
X160779000Y-89280000D01*
X160779000Y-89880000D01*
G37*
%TD*%
D10*
%TO.P,RBUS2,1,Pin_1*%
%TO.N,GND1*%
X163700000Y-92300000D03*
D11*
%TO.P,RBUS2,2,Pin_2*%
X163699999Y-96499999D03*
%TO.P,RBUS2,3,Pin_3*%
%TO.N,/RBUS_uC_V2*%
X163699999Y-100699999D03*
%TO.P,RBUS2,4,Pin_4*%
%TO.N,/Deploy2*%
X158199999Y-92299999D03*
%TO.P,RBUS2,5,Pin_5*%
%TO.N,/CAN_OUT_+*%
X158199999Y-96499999D03*
%TO.P,RBUS2,6,Pin_6*%
%TO.N,/CAN_OUT_-*%
X158199999Y-100699999D03*
%TD*%
D12*
%TO.P,RBUS1,1,Pin_1*%
%TO.N,GND*%
X117300000Y-100700000D03*
D11*
%TO.P,RBUS1,2,Pin_2*%
X117299999Y-96499999D03*
%TO.P,RBUS1,3,Pin_3*%
%TO.N,/RBUS_uC_V1*%
X117299999Y-92299999D03*
%TO.P,RBUS1,4,Pin_4*%
%TO.N,/Deploy1*%
X122799999Y-100699999D03*
%TO.P,RBUS1,5,Pin_5*%
%TO.N,/CAN_IN_+*%
X122799999Y-96499999D03*
%TO.P,RBUS1,6,Pin_6*%
%TO.N,/CAN_IN_-*%
X122799999Y-92299999D03*
%TD*%
D13*
%TO.P,H3,1,1*%
%TO.N,GND1*%
X166000000Y-86000000D03*
%TD*%
D14*
%TO.P,TP7,1,1*%
%TO.N,+3V3*%
X143159999Y-84699999D03*
%TD*%
D13*
%TO.P,H1,1,1*%
%TO.N,GND*%
X115000000Y-86000000D03*
%TD*%
D14*
%TO.P,TP9,1,1*%
%TO.N,+3.3VA*%
X149039999Y-84709999D03*
%TD*%
D13*
%TO.P,H2,1,1*%
%TO.N,GND*%
X115000000Y-107000000D03*
%TD*%
%TO.P,H4,1,1*%
%TO.N,GND1*%
X166000000Y-107000000D03*
%TD*%
D14*
%TO.P,TP11,1,1*%
%TO.N,/Deploy1*%
X143129999Y-88193999D03*
%TD*%
%TO.P,TP12,1,1*%
%TO.N,/Deploy2*%
X149040999Y-88191999D03*
%TD*%
%TO.P,TP8,1,1*%
%TO.N,GND*%
X143243999Y-108254999D03*
%TD*%
%TO.P,TP10,1,1*%
%TO.N,GND1*%
X148978999Y-108227999D03*
%TD*%
D15*
%TO.P,JP4,1,A*%
%TO.N,/RBUS_uC_V1*%
X120469999Y-89520000D03*
D16*
%TO.P,JP4,2,B*%
%TO.N,+3V3*%
X121769999Y-89520000D03*
%TD*%
D15*
%TO.P,JP3,1,A*%
%TO.N,+3.3VA*%
X159879000Y-89580000D03*
D16*
%TO.P,JP3,2,B*%
%TO.N,/RBUS_uC_V2*%
X161179000Y-89580000D03*
%TD*%
D17*
%TO.N,GND1*%
X149900000Y-98100000D03*
X162400000Y-88600000D03*
%TO.N,GND*%
X137500000Y-86100000D03*
D18*
X127264000Y-90780000D03*
D17*
X129900000Y-96400000D03*
X132386000Y-108228000D03*
X134740000Y-95510000D03*
D18*
X131070000Y-88880000D03*
D17*
X137220000Y-90820000D03*
X134993981Y-83482435D03*
X144337873Y-85983857D03*
X112486459Y-95977431D03*
X140002674Y-109521398D03*
X136210000Y-99100000D03*
X126900000Y-104300000D03*
X137502674Y-109521398D03*
X129993981Y-83482435D03*
D18*
X129980000Y-86640000D03*
D17*
X112486459Y-98477431D03*
X117502674Y-109521398D03*
D18*
X133017000Y-97257000D03*
D17*
X122502674Y-109521398D03*
X112486459Y-93477431D03*
D18*
X127410000Y-86290000D03*
D17*
X124884000Y-106345000D03*
X127510000Y-106925000D03*
X142493981Y-83482435D03*
X144337873Y-100983857D03*
X132900000Y-84600000D03*
X135440000Y-95560000D03*
X141972000Y-96853000D03*
X132493981Y-83482435D03*
X129050000Y-103490000D03*
X125002674Y-109521398D03*
D18*
X128930000Y-88900000D03*
D17*
X139993981Y-83482435D03*
X112486459Y-88477431D03*
X144345989Y-88484670D03*
X127502674Y-109521398D03*
X127493981Y-83482435D03*
X129065000Y-99090001D03*
X144337873Y-105983858D03*
X135002674Y-109521398D03*
X128460000Y-102920000D03*
X119600000Y-105000000D03*
X124993981Y-83482435D03*
X144337873Y-83483857D03*
D18*
X137433000Y-103616000D03*
D17*
X144337873Y-108483858D03*
X129400000Y-108700000D03*
X142502674Y-109521398D03*
X144337873Y-103483858D03*
X112486459Y-100977431D03*
X112486459Y-90977431D03*
X130002674Y-109521398D03*
X132502674Y-109521398D03*
X124700000Y-87900000D03*
X122493981Y-83482435D03*
X119053000Y-87551000D03*
X129040000Y-100050000D03*
X133850000Y-104860000D03*
X123295000Y-106218000D03*
X117493981Y-83482435D03*
X120002674Y-109521398D03*
X137493981Y-83482435D03*
X120300000Y-104000000D03*
X144319454Y-90243736D03*
D18*
X131584000Y-99062000D03*
D17*
X119993981Y-83482435D03*
X112486459Y-103477432D03*
D18*
%TO.N,/Vref*%
X129980000Y-90845000D03*
D17*
X132570000Y-90905000D03*
%TO.N,+3V3*%
X135110000Y-84550000D03*
D18*
X124690000Y-85540000D03*
D17*
X126960000Y-103510000D03*
X141370000Y-95360000D03*
X141940000Y-94770000D03*
X135230000Y-99150000D03*
X119506800Y-106453201D03*
X123900000Y-104370000D03*
X126082500Y-102580000D03*
X127510000Y-102950000D03*
X130675000Y-100610001D03*
X131305000Y-100040001D03*
X130870000Y-108370000D03*
%TO.N,+3.3VA*%
X156472000Y-87327000D03*
X150270000Y-94800000D03*
X150890000Y-95410000D03*
X152015000Y-90500000D03*
X151540000Y-96290000D03*
X149440000Y-104670000D03*
X152110000Y-95670000D03*
%TO.N,GND1*%
X168514555Y-94495486D03*
X151400000Y-97700000D03*
X147824457Y-107052920D03*
X147824457Y-104552920D03*
X148400000Y-90200000D03*
X151003009Y-83481945D03*
X168514555Y-99495486D03*
X168514555Y-104495486D03*
X148503009Y-83481945D03*
X153100000Y-93800000D03*
X156003009Y-83481945D03*
X163503009Y-83481945D03*
X153503009Y-83481945D03*
X153000000Y-95600000D03*
X158503009Y-83481945D03*
X153499543Y-109516584D03*
X147824457Y-102052920D03*
X147824457Y-84552920D03*
X163499543Y-109516584D03*
D18*
X157359000Y-106058000D03*
D17*
X161003009Y-83481945D03*
X155999543Y-109516584D03*
D18*
X154337000Y-101649000D03*
D17*
X160999543Y-109516584D03*
X168514555Y-101995486D03*
D18*
X157354000Y-108163000D03*
D17*
X152700000Y-99900000D03*
X148499543Y-109516584D03*
X168514555Y-96995486D03*
X150231000Y-96923000D03*
X150999543Y-109516584D03*
X153600000Y-96700000D03*
X147824457Y-89552920D03*
X157381000Y-85000000D03*
X168514555Y-91995486D03*
D18*
X160962000Y-105177000D03*
D17*
X147827478Y-100646442D03*
X168514555Y-89495486D03*
X147824457Y-87052920D03*
D18*
X160320000Y-107009000D03*
D17*
X158499543Y-109516584D03*
X160081000Y-86400000D03*
%TO.N,/TX1*%
X128520000Y-96070000D03*
X135250000Y-92990000D03*
%TO.N,/RX2*%
X138850000Y-105790000D03*
X134800000Y-106210000D03*
X125070000Y-105600000D03*
D18*
%TO.N,/TX2*%
X140680000Y-91350000D03*
D17*
X136110000Y-95680000D03*
%TO.N,/Vref2*%
X151670000Y-106140000D03*
D18*
X155090000Y-107040000D03*
D17*
%TO.N,Net-(U1-2A)*%
X129210000Y-106900000D03*
X137090000Y-94280000D03*
%TD*%
D19*
%TO.N,+3.3VA*%
X156472000Y-87900000D02*
X156472000Y-87327000D01*
X157031962Y-88968038D02*
X156831265Y-88767341D01*
X159879000Y-89580000D02*
X157900000Y-89580000D01*
X156471999Y-87900000D02*
G75*
G03*
X156831265Y-88767341I1226601J0D01*
G01*
X157462851Y-89398927D02*
X157031962Y-88968038D01*
X157462856Y-89398922D02*
G75*
G03*
X157900000Y-89580000I437144J437122D01*
G01*
D20*
%TO.N,/Vref*%
X132570000Y-90905000D02*
X130040000Y-90905000D01*
X130040000Y-90905000D02*
X129980000Y-90845000D01*
D19*
%TO.N,+3V3*%
X121769999Y-89520000D02*
X121769999Y-87100332D01*
X122145000Y-86195000D02*
X122385000Y-85955000D01*
X123386898Y-85540000D02*
X124690000Y-85540000D01*
X122144990Y-86194990D02*
G75*
G03*
X121769999Y-87100332I905310J-905310D01*
G01*
X123386898Y-85540000D02*
G75*
G03*
X122385000Y-85955000I2J-1416900D01*
G01*
D21*
%TO.N,/TX1*%
X132924066Y-95315933D02*
X133029000Y-95211000D01*
X133029000Y-95211000D02*
X135250000Y-92990000D01*
X128520000Y-96070000D02*
X128760000Y-95830000D01*
X128760000Y-95830000D02*
X131683000Y-95830000D01*
X131683000Y-95830009D02*
G75*
G03*
X132924066Y-95315933I0J1755109D01*
G01*
%TO.N,/RX2*%
X125070000Y-105600000D02*
X126791000Y-107321000D01*
X133943560Y-107066439D02*
X134051500Y-106958500D01*
X134051500Y-106958500D02*
X134800000Y-106210000D01*
X127367997Y-107560000D02*
X132752000Y-107560000D01*
X135813969Y-105790000D02*
X138850000Y-105790000D01*
X126791001Y-107320999D02*
G75*
G03*
X127367997Y-107560000I576999J576999D01*
G01*
X132752000Y-107560005D02*
G75*
G03*
X133943560Y-107066439I0J1685105D01*
G01*
X135813969Y-105789988D02*
G75*
G03*
X134800000Y-106210000I31J-1434012D01*
G01*
%TO.N,/TX2*%
X136110000Y-95680000D02*
X136110000Y-94704000D01*
X136600732Y-93519268D02*
X138302000Y-91818000D01*
X139431851Y-91350000D02*
X140680000Y-91350000D01*
X139431851Y-91350022D02*
G75*
G03*
X138302000Y-91818000I-51J-1597778D01*
G01*
X136600725Y-93519261D02*
G75*
G03*
X136110000Y-94704000I1184775J-1184739D01*
G01*
D20*
%TO.N,/Vref2*%
X151670000Y-106140000D02*
X152360000Y-106830000D01*
X152866984Y-107040000D02*
X155090000Y-107040000D01*
X152360004Y-106829996D02*
G75*
G03*
X152866984Y-107040000I506996J506996D01*
G01*
D22*
%TO.N,/Deploy1*%
X126381000Y-95829000D02*
X126381000Y-96388000D01*
X137297500Y-88743500D02*
X134298271Y-91742729D01*
X122951000Y-100700000D02*
X122800000Y-100700000D01*
X132936000Y-92307000D02*
X130058632Y-92307000D01*
X125757332Y-97893668D02*
X122951000Y-100700000D01*
X128507500Y-92949500D02*
X126913452Y-94543548D01*
X143158000Y-88194000D02*
X138624110Y-88194000D01*
X125757324Y-97893660D02*
G75*
G03*
X126381000Y-96388000I-1505624J1505660D01*
G01*
X138624110Y-88194005D02*
G75*
G03*
X137297501Y-88743501I-10J-1876095D01*
G01*
X132936000Y-92307012D02*
G75*
G03*
X134298271Y-91742729I0J1926512D01*
G01*
X126913453Y-94543549D02*
G75*
G03*
X126381000Y-95829000I1285447J-1285451D01*
G01*
X130058632Y-92307014D02*
G75*
G03*
X128507500Y-92949500I-32J-2193586D01*
G01*
%TO.N,/Deploy2*%
X152171968Y-88192000D02*
X149041000Y-88192000D01*
X158200000Y-92300000D02*
X157318000Y-92300000D01*
X157318000Y-92300000D02*
X153944000Y-88926000D01*
X153944010Y-88925990D02*
G75*
G03*
X152171968Y-88192000I-1772010J-1772010D01*
G01*
D21*
%TO.N,Net-(U1-2A)*%
X137090000Y-94280000D02*
X137090000Y-98265000D01*
X136527850Y-99622150D02*
X129250000Y-106900000D01*
X129250000Y-106900000D02*
X129210000Y-106900000D01*
X136527850Y-99622150D02*
G75*
G03*
X137090000Y-98265000I-1357150J1357150D01*
G01*
D19*
%TO.N,/RBUS_uC_V1*%
X117300000Y-92300000D02*
X118500000Y-92300000D01*
X118500000Y-92300000D02*
X119897241Y-90902759D01*
X119897238Y-90902756D02*
G75*
G03*
X120469999Y-89520000I-1382738J1382756D01*
G01*
%TO.N,/RBUS_uC_V2*%
X163700000Y-100700000D02*
X161804000Y-100700000D01*
X160840000Y-89919000D02*
X161179000Y-89580000D01*
X161804000Y-100700000D02*
X161201000Y-100097000D01*
X160840000Y-99225469D02*
X160840000Y-89919000D01*
X160840013Y-99225469D02*
G75*
G03*
X161201000Y-100097000I1232487J-31D01*
G01*
%TD*%
%TA.AperFunction,Conductor*%
%TO.N,GND1*%
G36*
X166002065Y-83254615D02*
G01*
X166303262Y-83271530D01*
X166311496Y-83272459D01*
X166606839Y-83322639D01*
X166614907Y-83324480D01*
X166902798Y-83407420D01*
X166910611Y-83410154D01*
X167048592Y-83467308D01*
X167187394Y-83524802D01*
X167194857Y-83528396D01*
X167457070Y-83673316D01*
X167464066Y-83677711D01*
X167708419Y-83851090D01*
X167714873Y-83856236D01*
X167938268Y-84055873D01*
X167944126Y-84061731D01*
X168143761Y-84285124D01*
X168148911Y-84291582D01*
X168322285Y-84535929D01*
X168326686Y-84542934D01*
X168471597Y-84805129D01*
X168475197Y-84812605D01*
X168589841Y-85089378D01*
X168592582Y-85097211D01*
X168675516Y-85385081D01*
X168677362Y-85393172D01*
X168727539Y-85688497D01*
X168728469Y-85696743D01*
X168745384Y-85997934D01*
X168745500Y-86002083D01*
X168745500Y-106997917D01*
X168745384Y-107002066D01*
X168728469Y-107303256D01*
X168727539Y-107311502D01*
X168677362Y-107606827D01*
X168675516Y-107614918D01*
X168592582Y-107902788D01*
X168589841Y-107910621D01*
X168475197Y-108187394D01*
X168471597Y-108194870D01*
X168326693Y-108457054D01*
X168322279Y-108464078D01*
X168148917Y-108708408D01*
X168143754Y-108714883D01*
X168090067Y-108774960D01*
X167944131Y-108938263D01*
X167938263Y-108944131D01*
X167714883Y-109143754D01*
X167708408Y-109148917D01*
X167464081Y-109322278D01*
X167457054Y-109326693D01*
X167194870Y-109471597D01*
X167187394Y-109475197D01*
X166910621Y-109589841D01*
X166902788Y-109592582D01*
X166614918Y-109675516D01*
X166606827Y-109677362D01*
X166311502Y-109727539D01*
X166303256Y-109728469D01*
X166002066Y-109745384D01*
X165997917Y-109745500D01*
X147674000Y-109745500D01*
X147637000Y-109735586D01*
X147609914Y-109708500D01*
X147600000Y-109671500D01*
X147600000Y-106140000D01*
X151185569Y-106140000D01*
X151205192Y-106276480D01*
X151262471Y-106401903D01*
X151265932Y-106405898D01*
X151265934Y-106405900D01*
X151349299Y-106502109D01*
X151352765Y-106506109D01*
X151468760Y-106580654D01*
X151599567Y-106619062D01*
X151631045Y-106637739D01*
X152113886Y-107120580D01*
X152113904Y-107120592D01*
X152113935Y-107120621D01*
X152152676Y-107159362D01*
X152292302Y-107260807D01*
X152294893Y-107262127D01*
X152294896Y-107262129D01*
X152443492Y-107337844D01*
X152446079Y-107339162D01*
X152610219Y-107392497D01*
X152780682Y-107419499D01*
X152803651Y-107419499D01*
X152803655Y-107419499D01*
X152803657Y-107419500D01*
X152803663Y-107419500D01*
X152866976Y-107419500D01*
X152921539Y-107419501D01*
X152921542Y-107419500D01*
X154648795Y-107419500D01*
X154677114Y-107425133D01*
X154693869Y-107436328D01*
X154694526Y-107435474D01*
X154810357Y-107524355D01*
X154945246Y-107580228D01*
X155090000Y-107599285D01*
X155234754Y-107580228D01*
X155369643Y-107524355D01*
X155485474Y-107435474D01*
X155574355Y-107319643D01*
X155630228Y-107184754D01*
X155649285Y-107040000D01*
X155630228Y-106895246D01*
X155574355Y-106760358D01*
X155540816Y-106716649D01*
X155488428Y-106648375D01*
X155488425Y-106648372D01*
X155485474Y-106644526D01*
X155369643Y-106555645D01*
X155342593Y-106544440D01*
X155239231Y-106501626D01*
X155239227Y-106501625D01*
X155234754Y-106499772D01*
X155229950Y-106499139D01*
X155229948Y-106499139D01*
X155094808Y-106481348D01*
X155090000Y-106480715D01*
X155085192Y-106481348D01*
X154950051Y-106499139D01*
X154950047Y-106499139D01*
X154945246Y-106499772D01*
X154940773Y-106501624D01*
X154940768Y-106501626D01*
X154814837Y-106553789D01*
X154814832Y-106553791D01*
X154810358Y-106555645D01*
X154806513Y-106558594D01*
X154806510Y-106558597D01*
X154694526Y-106644526D01*
X154693870Y-106643671D01*
X154677115Y-106654867D01*
X154648796Y-106660500D01*
X152871844Y-106660500D01*
X152862185Y-106659867D01*
X152847734Y-106657964D01*
X152789303Y-106650270D01*
X152770645Y-106645270D01*
X152707245Y-106619008D01*
X152690520Y-106609352D01*
X152632158Y-106564570D01*
X152624889Y-106558195D01*
X152163070Y-106096376D01*
X152142149Y-106054581D01*
X152135561Y-106008760D01*
X152134808Y-106003520D01*
X152077529Y-105878097D01*
X151987235Y-105773891D01*
X151871240Y-105699346D01*
X151866167Y-105697856D01*
X151866164Y-105697855D01*
X151744017Y-105661990D01*
X151744016Y-105661989D01*
X151738942Y-105660500D01*
X151601058Y-105660500D01*
X151595984Y-105661989D01*
X151595982Y-105661990D01*
X151473835Y-105697855D01*
X151473829Y-105697857D01*
X151468760Y-105699346D01*
X151464311Y-105702204D01*
X151464309Y-105702206D01*
X151357217Y-105771029D01*
X151357213Y-105771032D01*
X151352765Y-105773891D01*
X151349302Y-105777886D01*
X151349299Y-105777890D01*
X151265934Y-105874099D01*
X151265930Y-105874104D01*
X151262471Y-105878097D01*
X151205192Y-106003520D01*
X151204439Y-106008756D01*
X151204438Y-106008760D01*
X151197850Y-106054581D01*
X151185569Y-106140000D01*
X147600000Y-106140000D01*
X147600000Y-104670000D01*
X148955569Y-104670000D01*
X148975192Y-104806480D01*
X149032471Y-104931903D01*
X149122765Y-105036109D01*
X149238760Y-105110654D01*
X149371058Y-105149500D01*
X149503650Y-105149500D01*
X149508942Y-105149500D01*
X149641240Y-105110654D01*
X149757235Y-105036109D01*
X149847529Y-104931903D01*
X149904808Y-104806480D01*
X149924431Y-104670000D01*
X149904808Y-104533520D01*
X149847529Y-104408097D01*
X149757235Y-104303891D01*
X149641240Y-104229346D01*
X149636167Y-104227856D01*
X149636164Y-104227855D01*
X149514017Y-104191990D01*
X149514016Y-104191989D01*
X149508942Y-104190500D01*
X149371058Y-104190500D01*
X149365984Y-104191989D01*
X149365982Y-104191990D01*
X149243835Y-104227855D01*
X149243829Y-104227857D01*
X149238760Y-104229346D01*
X149234311Y-104232204D01*
X149234309Y-104232206D01*
X149127217Y-104301029D01*
X149127213Y-104301032D01*
X149122765Y-104303891D01*
X149119302Y-104307886D01*
X149119299Y-104307890D01*
X149035934Y-104404099D01*
X149035930Y-104404104D01*
X149032471Y-104408097D01*
X148975192Y-104533520D01*
X148974439Y-104538756D01*
X148974438Y-104538760D01*
X148957127Y-104659158D01*
X148955569Y-104670000D01*
X147600000Y-104670000D01*
X147600000Y-100700000D01*
X156090539Y-100700000D01*
X156110354Y-100951775D01*
X156169312Y-101197351D01*
X156170425Y-101200038D01*
X156264847Y-101427995D01*
X156264851Y-101428003D01*
X156265960Y-101430680D01*
X156397919Y-101646017D01*
X156561939Y-101838061D01*
X156753983Y-102002081D01*
X156969320Y-102134040D01*
X156972001Y-102135150D01*
X156972004Y-102135152D01*
X157039728Y-102163204D01*
X157202649Y-102230688D01*
X157448225Y-102289646D01*
X157636964Y-102304500D01*
X158761584Y-102304500D01*
X158763036Y-102304500D01*
X158951775Y-102289646D01*
X159197351Y-102230688D01*
X159430680Y-102134040D01*
X159646017Y-102002081D01*
X159838061Y-101838061D01*
X160002081Y-101646017D01*
X160134040Y-101430680D01*
X160230688Y-101197351D01*
X160289646Y-100951775D01*
X160309461Y-100700000D01*
X160289646Y-100448225D01*
X160230688Y-100202649D01*
X160148649Y-100004589D01*
X160135152Y-99972004D01*
X160135150Y-99972001D01*
X160134040Y-99969320D01*
X160002081Y-99753983D01*
X159838061Y-99561939D01*
X159646017Y-99397919D01*
X159643532Y-99396396D01*
X159643529Y-99396394D01*
X159433159Y-99267479D01*
X159433157Y-99267478D01*
X159430680Y-99265960D01*
X159428003Y-99264851D01*
X159427995Y-99264847D01*
X159200038Y-99170425D01*
X159197351Y-99169312D01*
X159182139Y-99165660D01*
X158954599Y-99111032D01*
X158951775Y-99110354D01*
X158948885Y-99110126D01*
X158948882Y-99110126D01*
X158764482Y-99095613D01*
X158764461Y-99095612D01*
X158763036Y-99095500D01*
X157636964Y-99095500D01*
X157635539Y-99095612D01*
X157635517Y-99095613D01*
X157451117Y-99110126D01*
X157451112Y-99110126D01*
X157448225Y-99110354D01*
X157445402Y-99111031D01*
X157445400Y-99111032D01*
X157205480Y-99168632D01*
X157205476Y-99168633D01*
X157202649Y-99169312D01*
X157199965Y-99170423D01*
X157199961Y-99170425D01*
X156972004Y-99264847D01*
X156971990Y-99264853D01*
X156969320Y-99265960D01*
X156966847Y-99267475D01*
X156966840Y-99267479D01*
X156756470Y-99396394D01*
X156756461Y-99396400D01*
X156753983Y-99397919D01*
X156751767Y-99399811D01*
X156751765Y-99399813D01*
X156564152Y-99560048D01*
X156564145Y-99560054D01*
X156561939Y-99561939D01*
X156560054Y-99564145D01*
X156560048Y-99564152D01*
X156399813Y-99751765D01*
X156397919Y-99753983D01*
X156396400Y-99756461D01*
X156396394Y-99756470D01*
X156267479Y-99966840D01*
X156267475Y-99966847D01*
X156265960Y-99969320D01*
X156264853Y-99971990D01*
X156264847Y-99972004D01*
X156184218Y-100166662D01*
X156169312Y-100202649D01*
X156168633Y-100205476D01*
X156168632Y-100205480D01*
X156135878Y-100341909D01*
X156110354Y-100448225D01*
X156110126Y-100451112D01*
X156110126Y-100451117D01*
X156090891Y-100695522D01*
X156090539Y-100700000D01*
X147600000Y-100700000D01*
X147600000Y-94800000D01*
X149785569Y-94800000D01*
X149786322Y-94805237D01*
X149801435Y-94910354D01*
X149805192Y-94936480D01*
X149862471Y-95061903D01*
X149865932Y-95065898D01*
X149865934Y-95065900D01*
X149949299Y-95162109D01*
X149952765Y-95166109D01*
X150068760Y-95240654D01*
X150201058Y-95279500D01*
X150206350Y-95279500D01*
X150338931Y-95279500D01*
X150378938Y-95291247D01*
X150406244Y-95322759D01*
X150412178Y-95364031D01*
X150405569Y-95410000D01*
X150406322Y-95415237D01*
X150423328Y-95533520D01*
X150425192Y-95546480D01*
X150482471Y-95671903D01*
X150572765Y-95776109D01*
X150688760Y-95850654D01*
X150821058Y-95889500D01*
X150953650Y-95889500D01*
X150958942Y-95889500D01*
X151091240Y-95850654D01*
X151098277Y-95846131D01*
X151138283Y-95834382D01*
X151178292Y-95846127D01*
X151205599Y-95877639D01*
X151211534Y-95918912D01*
X151194213Y-95956841D01*
X151135935Y-96024099D01*
X151132471Y-96028097D01*
X151130275Y-96032905D01*
X151130274Y-96032907D01*
X151077709Y-96148009D01*
X151075192Y-96153520D01*
X151074439Y-96158756D01*
X151074438Y-96158760D01*
X151057127Y-96279158D01*
X151055569Y-96290000D01*
X151075192Y-96426480D01*
X151132471Y-96551903D01*
X151222765Y-96656109D01*
X151338760Y-96730654D01*
X151471058Y-96769500D01*
X151603650Y-96769500D01*
X151608942Y-96769500D01*
X151741240Y-96730654D01*
X151857235Y-96656109D01*
X151947529Y-96551903D01*
X152004808Y-96426480D01*
X152024431Y-96290000D01*
X152022722Y-96278115D01*
X152016384Y-96234031D01*
X152022318Y-96192759D01*
X152049624Y-96161247D01*
X152089631Y-96149500D01*
X152173650Y-96149500D01*
X152178942Y-96149500D01*
X152311240Y-96110654D01*
X152427235Y-96036109D01*
X152517529Y-95931903D01*
X152574808Y-95806480D01*
X152594431Y-95670000D01*
X152574808Y-95533520D01*
X152517529Y-95408097D01*
X152427235Y-95303891D01*
X152407560Y-95291247D01*
X152315690Y-95232206D01*
X152311240Y-95229346D01*
X152306167Y-95227856D01*
X152306164Y-95227855D01*
X152184017Y-95191990D01*
X152184016Y-95191989D01*
X152178942Y-95190500D01*
X152041058Y-95190500D01*
X152035984Y-95191989D01*
X152035982Y-95191990D01*
X151913835Y-95227855D01*
X151913829Y-95227857D01*
X151908760Y-95229346D01*
X151904311Y-95232204D01*
X151904309Y-95232206D01*
X151797217Y-95301029D01*
X151797213Y-95301032D01*
X151792765Y-95303891D01*
X151789302Y-95307886D01*
X151789299Y-95307890D01*
X151705934Y-95404099D01*
X151705930Y-95404104D01*
X151702471Y-95408097D01*
X151645192Y-95533520D01*
X151644439Y-95538756D01*
X151644438Y-95538760D01*
X151641892Y-95556470D01*
X151625569Y-95670000D01*
X151626322Y-95675237D01*
X151633616Y-95725969D01*
X151627682Y-95767241D01*
X151600376Y-95798753D01*
X151560369Y-95810500D01*
X151471058Y-95810500D01*
X151465984Y-95811989D01*
X151465982Y-95811990D01*
X151343835Y-95847855D01*
X151343829Y-95847857D01*
X151338760Y-95849346D01*
X151334313Y-95852203D01*
X151334306Y-95852207D01*
X151331713Y-95853874D01*
X151291706Y-95865617D01*
X151251701Y-95853867D01*
X151224398Y-95822355D01*
X151218465Y-95781084D01*
X151235786Y-95743158D01*
X151297529Y-95671903D01*
X151354808Y-95546480D01*
X151374431Y-95410000D01*
X151354808Y-95273520D01*
X151297529Y-95148097D01*
X151207235Y-95043891D01*
X151091240Y-94969346D01*
X151086167Y-94967856D01*
X151086164Y-94967855D01*
X150964017Y-94931990D01*
X150964016Y-94931989D01*
X150958942Y-94930500D01*
X150821069Y-94930500D01*
X150781062Y-94918753D01*
X150753756Y-94887241D01*
X150747822Y-94845969D01*
X150753678Y-94805238D01*
X150753678Y-94805237D01*
X150754431Y-94800000D01*
X150734808Y-94663520D01*
X150677529Y-94538097D01*
X150587235Y-94433891D01*
X150471240Y-94359346D01*
X150466167Y-94357856D01*
X150466164Y-94357855D01*
X150344017Y-94321990D01*
X150344016Y-94321989D01*
X150338942Y-94320500D01*
X150201058Y-94320500D01*
X150195984Y-94321989D01*
X150195982Y-94321990D01*
X150073835Y-94357855D01*
X150073829Y-94357857D01*
X150068760Y-94359346D01*
X150064311Y-94362204D01*
X150064309Y-94362206D01*
X149957217Y-94431029D01*
X149957213Y-94431032D01*
X149952765Y-94433891D01*
X149949302Y-94437886D01*
X149949299Y-94437890D01*
X149865934Y-94534099D01*
X149865930Y-94534104D01*
X149862471Y-94538097D01*
X149805192Y-94663520D01*
X149804439Y-94668756D01*
X149804438Y-94668760D01*
X149787127Y-94789158D01*
X149785569Y-94800000D01*
X147600000Y-94800000D01*
X147600000Y-90500000D01*
X151530569Y-90500000D01*
X151531322Y-90505237D01*
X151544860Y-90599400D01*
X151550192Y-90636480D01*
X151607471Y-90761903D01*
X151610932Y-90765898D01*
X151610934Y-90765900D01*
X151614855Y-90770425D01*
X151697765Y-90866109D01*
X151813760Y-90940654D01*
X151946058Y-90979500D01*
X152078650Y-90979500D01*
X152083942Y-90979500D01*
X152216240Y-90940654D01*
X152332235Y-90866109D01*
X152422529Y-90761903D01*
X152479808Y-90636480D01*
X152499431Y-90500000D01*
X152479808Y-90363520D01*
X152422529Y-90238097D01*
X152400880Y-90213113D01*
X152335700Y-90137890D01*
X152332235Y-90133891D01*
X152216240Y-90059346D01*
X152211167Y-90057856D01*
X152211164Y-90057855D01*
X152089017Y-90021990D01*
X152089016Y-90021989D01*
X152083942Y-90020500D01*
X151946058Y-90020500D01*
X151940984Y-90021989D01*
X151940982Y-90021990D01*
X151818835Y-90057855D01*
X151818829Y-90057857D01*
X151813760Y-90059346D01*
X151809311Y-90062204D01*
X151809309Y-90062206D01*
X151702217Y-90131029D01*
X151702213Y-90131032D01*
X151697765Y-90133891D01*
X151694302Y-90137886D01*
X151694299Y-90137890D01*
X151610934Y-90234099D01*
X151610930Y-90234104D01*
X151607471Y-90238097D01*
X151550192Y-90363520D01*
X151549439Y-90368756D01*
X151549438Y-90368760D01*
X151540420Y-90431484D01*
X151530569Y-90500000D01*
X147600000Y-90500000D01*
X147600000Y-89063434D01*
X147936500Y-89063434D01*
X147936501Y-89067066D01*
X147937210Y-89070632D01*
X147937211Y-89070639D01*
X147941967Y-89094550D01*
X147951266Y-89141301D01*
X148007516Y-89225484D01*
X148091699Y-89281734D01*
X148165933Y-89296500D01*
X149916066Y-89296499D01*
X149990301Y-89281734D01*
X150074484Y-89225484D01*
X150130734Y-89141301D01*
X150145500Y-89067067D01*
X150145500Y-88920500D01*
X150155414Y-88883500D01*
X150182500Y-88856414D01*
X150219500Y-88846500D01*
X152098228Y-88846500D01*
X152098232Y-88846501D01*
X152169548Y-88846500D01*
X152174387Y-88846658D01*
X152408815Y-88862020D01*
X152418411Y-88863284D01*
X152646435Y-88908638D01*
X152655773Y-88911140D01*
X152875935Y-88985874D01*
X152884875Y-88989577D01*
X153093393Y-89092405D01*
X153101776Y-89097245D01*
X153295085Y-89226409D01*
X153302765Y-89232302D01*
X153479232Y-89387059D01*
X153482766Y-89390369D01*
X156088439Y-91996042D01*
X156105539Y-92022755D01*
X156109885Y-92054174D01*
X156090827Y-92296333D01*
X156090539Y-92300000D01*
X156110354Y-92551775D01*
X156111032Y-92554599D01*
X156148297Y-92709820D01*
X156169312Y-92797351D01*
X156170425Y-92800038D01*
X156264847Y-93027995D01*
X156264851Y-93028003D01*
X156265960Y-93030680D01*
X156397919Y-93246017D01*
X156561939Y-93438061D01*
X156753983Y-93602081D01*
X156969320Y-93734040D01*
X156972001Y-93735150D01*
X156972004Y-93735152D01*
X157039728Y-93763204D01*
X157202649Y-93830688D01*
X157448225Y-93889646D01*
X157636964Y-93904500D01*
X158761584Y-93904500D01*
X158763036Y-93904500D01*
X158951775Y-93889646D01*
X159197351Y-93830688D01*
X159430680Y-93734040D01*
X159646017Y-93602081D01*
X159838061Y-93438061D01*
X160002081Y-93246017D01*
X160134040Y-93030680D01*
X160230688Y-92797351D01*
X160239545Y-92760458D01*
X160260844Y-92723790D01*
X160298777Y-92704836D01*
X160340889Y-92709820D01*
X160373350Y-92737106D01*
X160385500Y-92777734D01*
X160385500Y-96022266D01*
X160373350Y-96062894D01*
X160340889Y-96090180D01*
X160298777Y-96095164D01*
X160260844Y-96076210D01*
X160239545Y-96039541D01*
X160237761Y-96032109D01*
X160230688Y-96002649D01*
X160160990Y-95834382D01*
X160135152Y-95772004D01*
X160135150Y-95772001D01*
X160134040Y-95769320D01*
X160002081Y-95553983D01*
X159838061Y-95361939D01*
X159646017Y-95197919D01*
X159643532Y-95196396D01*
X159643529Y-95196394D01*
X159433159Y-95067479D01*
X159433157Y-95067478D01*
X159430680Y-95065960D01*
X159428003Y-95064851D01*
X159427995Y-95064847D01*
X159200038Y-94970425D01*
X159197351Y-94969312D01*
X159191282Y-94967855D01*
X158954599Y-94911032D01*
X158951775Y-94910354D01*
X158948885Y-94910126D01*
X158948882Y-94910126D01*
X158764482Y-94895613D01*
X158764461Y-94895612D01*
X158763036Y-94895500D01*
X157636964Y-94895500D01*
X157635539Y-94895612D01*
X157635517Y-94895613D01*
X157451117Y-94910126D01*
X157451112Y-94910126D01*
X157448225Y-94910354D01*
X157445402Y-94911031D01*
X157445400Y-94911032D01*
X157205480Y-94968632D01*
X157205476Y-94968633D01*
X157202649Y-94969312D01*
X157199965Y-94970423D01*
X157199961Y-94970425D01*
X156972004Y-95064847D01*
X156971990Y-95064853D01*
X156969320Y-95065960D01*
X156966847Y-95067475D01*
X156966840Y-95067479D01*
X156756470Y-95196394D01*
X156756461Y-95196400D01*
X156753983Y-95197919D01*
X156751767Y-95199811D01*
X156751765Y-95199813D01*
X156564152Y-95360048D01*
X156564145Y-95360054D01*
X156561939Y-95361939D01*
X156560054Y-95364145D01*
X156560048Y-95364152D01*
X156399813Y-95551765D01*
X156397919Y-95553983D01*
X156396400Y-95556461D01*
X156396394Y-95556470D01*
X156267479Y-95766840D01*
X156267475Y-95766847D01*
X156265960Y-95769320D01*
X156264853Y-95771990D01*
X156264847Y-95772004D01*
X156196960Y-95935900D01*
X156169312Y-96002649D01*
X156168633Y-96005476D01*
X156168632Y-96005480D01*
X156111032Y-96245400D01*
X156110354Y-96248225D01*
X156110126Y-96251112D01*
X156110126Y-96251117D01*
X156096325Y-96426480D01*
X156090539Y-96500000D01*
X156090767Y-96502897D01*
X156108691Y-96730654D01*
X156110354Y-96751775D01*
X156111032Y-96754599D01*
X156148297Y-96909820D01*
X156169312Y-96997351D01*
X156170425Y-97000038D01*
X156264847Y-97227995D01*
X156264851Y-97228003D01*
X156265960Y-97230680D01*
X156397919Y-97446017D01*
X156561939Y-97638061D01*
X156753983Y-97802081D01*
X156969320Y-97934040D01*
X156972001Y-97935150D01*
X156972004Y-97935152D01*
X157039728Y-97963204D01*
X157202649Y-98030688D01*
X157448225Y-98089646D01*
X157636964Y-98104500D01*
X158761584Y-98104500D01*
X158763036Y-98104500D01*
X158951775Y-98089646D01*
X159197351Y-98030688D01*
X159430680Y-97934040D01*
X159646017Y-97802081D01*
X159838061Y-97638061D01*
X160002081Y-97446017D01*
X160134040Y-97230680D01*
X160230688Y-96997351D01*
X160239545Y-96960458D01*
X160260844Y-96923790D01*
X160298777Y-96904836D01*
X160340889Y-96909820D01*
X160373350Y-96937106D01*
X160385500Y-96977734D01*
X160385500Y-99259531D01*
X160385507Y-99259578D01*
X160385511Y-99259692D01*
X160385510Y-99333602D01*
X160385510Y-99336032D01*
X160385826Y-99338439D01*
X160385827Y-99338441D01*
X160393905Y-99399813D01*
X160414371Y-99555290D01*
X160414996Y-99557624D01*
X160414998Y-99557632D01*
X160416152Y-99561939D01*
X160471605Y-99768904D01*
X160472528Y-99771133D01*
X160472531Y-99771141D01*
X160555302Y-99970974D01*
X160555306Y-99970982D01*
X160556233Y-99973220D01*
X160557446Y-99975321D01*
X160557448Y-99975325D01*
X160615565Y-100075988D01*
X160666806Y-100164742D01*
X160801432Y-100340192D01*
X160879620Y-100418380D01*
X160921930Y-100460691D01*
X160921932Y-100460692D01*
X161461626Y-101000386D01*
X161467155Y-101006574D01*
X161487906Y-101032595D01*
X161487910Y-101032599D01*
X161491369Y-101036936D01*
X161495953Y-101040061D01*
X161539810Y-101069962D01*
X161542068Y-101071564D01*
X161589227Y-101106369D01*
X161594466Y-101108202D01*
X161597157Y-101109624D01*
X161597203Y-101109651D01*
X161597218Y-101109658D01*
X161599993Y-101110994D01*
X161604572Y-101114116D01*
X161612303Y-101116500D01*
X161612609Y-101116595D01*
X161644760Y-101136671D01*
X161662753Y-101170032D01*
X161669312Y-101197351D01*
X161670425Y-101200038D01*
X161764847Y-101427995D01*
X161764851Y-101428003D01*
X161765960Y-101430680D01*
X161897919Y-101646017D01*
X162061939Y-101838061D01*
X162253983Y-102002081D01*
X162469320Y-102134040D01*
X162472001Y-102135150D01*
X162472004Y-102135152D01*
X162539728Y-102163204D01*
X162702649Y-102230688D01*
X162948225Y-102289646D01*
X163136964Y-102304500D01*
X164261584Y-102304500D01*
X164263036Y-102304500D01*
X164451775Y-102289646D01*
X164697351Y-102230688D01*
X164930680Y-102134040D01*
X165146017Y-102002081D01*
X165338061Y-101838061D01*
X165502081Y-101646017D01*
X165634040Y-101430680D01*
X165730688Y-101197351D01*
X165789646Y-100951775D01*
X165809461Y-100700000D01*
X165789646Y-100448225D01*
X165730688Y-100202649D01*
X165648649Y-100004589D01*
X165635152Y-99972004D01*
X165635150Y-99972001D01*
X165634040Y-99969320D01*
X165502081Y-99753983D01*
X165338061Y-99561939D01*
X165146017Y-99397919D01*
X165143532Y-99396396D01*
X165143529Y-99396394D01*
X164933159Y-99267479D01*
X164933157Y-99267478D01*
X164930680Y-99265960D01*
X164928003Y-99264851D01*
X164927995Y-99264847D01*
X164700038Y-99170425D01*
X164697351Y-99169312D01*
X164682139Y-99165660D01*
X164454599Y-99111032D01*
X164451775Y-99110354D01*
X164448885Y-99110126D01*
X164448882Y-99110126D01*
X164264482Y-99095613D01*
X164264461Y-99095612D01*
X164263036Y-99095500D01*
X163136964Y-99095500D01*
X163135539Y-99095612D01*
X163135517Y-99095613D01*
X162951117Y-99110126D01*
X162951112Y-99110126D01*
X162948225Y-99110354D01*
X162945402Y-99111031D01*
X162945400Y-99111032D01*
X162705480Y-99168632D01*
X162705476Y-99168633D01*
X162702649Y-99169312D01*
X162699965Y-99170423D01*
X162699961Y-99170425D01*
X162472004Y-99264847D01*
X162471990Y-99264853D01*
X162469320Y-99265960D01*
X162466847Y-99267475D01*
X162466840Y-99267479D01*
X162256470Y-99396394D01*
X162256461Y-99396400D01*
X162253983Y-99397919D01*
X162251767Y-99399811D01*
X162251765Y-99399813D01*
X162064152Y-99560048D01*
X162064145Y-99560054D01*
X162061939Y-99561939D01*
X162060054Y-99564145D01*
X162060048Y-99564152D01*
X161899813Y-99751765D01*
X161897919Y-99753983D01*
X161896400Y-99756461D01*
X161896394Y-99756470D01*
X161796054Y-99920211D01*
X161763057Y-99949148D01*
X161719474Y-99954307D01*
X161680633Y-99933872D01*
X161524945Y-99778184D01*
X161520068Y-99772803D01*
X161430247Y-99663354D01*
X161422188Y-99651292D01*
X161357163Y-99529636D01*
X161351617Y-99516249D01*
X161311572Y-99384231D01*
X161308745Y-99370015D01*
X161294856Y-99228963D01*
X161294500Y-99221709D01*
X161294502Y-99165644D01*
X161294500Y-99165637D01*
X161294500Y-90643031D01*
X161309260Y-90598684D01*
X161347650Y-90572028D01*
X161461949Y-90538468D01*
X161529132Y-90507787D01*
X161650086Y-90430055D01*
X161705906Y-90381687D01*
X161800060Y-90273026D01*
X161839988Y-90210895D01*
X161899716Y-90080110D01*
X161920525Y-90009244D01*
X161940987Y-89866929D01*
X161940987Y-89793071D01*
X161939239Y-89780913D01*
X161938486Y-89770382D01*
X161938486Y-89389618D01*
X161939239Y-89379087D01*
X161940610Y-89369549D01*
X161940987Y-89366929D01*
X161940987Y-89293071D01*
X161920525Y-89150756D01*
X161899716Y-89079890D01*
X161893859Y-89067066D01*
X161868952Y-89012526D01*
X161839988Y-88949105D01*
X161800060Y-88886974D01*
X161705906Y-88778313D01*
X161703919Y-88776591D01*
X161652081Y-88731673D01*
X161652075Y-88731668D01*
X161650086Y-88729945D01*
X161647861Y-88728515D01*
X161531361Y-88653645D01*
X161531355Y-88653642D01*
X161529132Y-88652213D01*
X161526725Y-88651114D01*
X161526720Y-88651111D01*
X161464348Y-88622627D01*
X161464341Y-88622624D01*
X161461949Y-88621532D01*
X161459425Y-88620790D01*
X161459420Y-88620789D01*
X161326521Y-88581767D01*
X161323994Y-88581025D01*
X161321393Y-88580651D01*
X161321384Y-88580649D01*
X161253509Y-88570890D01*
X161253499Y-88570889D01*
X161250889Y-88570514D01*
X160679000Y-88570514D01*
X160675432Y-88571223D01*
X160675429Y-88571224D01*
X160586845Y-88588844D01*
X160586842Y-88588845D01*
X160579699Y-88590266D01*
X160573645Y-88594311D01*
X160573638Y-88594314D01*
X160570109Y-88596673D01*
X160529000Y-88609142D01*
X160487891Y-88596673D01*
X160484361Y-88594314D01*
X160484356Y-88594312D01*
X160478301Y-88590266D01*
X160471155Y-88588844D01*
X160471154Y-88588844D01*
X160382570Y-88571224D01*
X160382568Y-88571223D01*
X160379000Y-88570514D01*
X159807111Y-88570514D01*
X159804501Y-88570889D01*
X159804490Y-88570890D01*
X159736615Y-88580649D01*
X159736603Y-88580651D01*
X159734006Y-88581025D01*
X159731481Y-88581766D01*
X159731478Y-88581767D01*
X159598579Y-88620789D01*
X159598569Y-88620792D01*
X159596051Y-88621532D01*
X159593663Y-88622622D01*
X159593651Y-88622627D01*
X159531279Y-88651111D01*
X159531268Y-88651116D01*
X159528868Y-88652213D01*
X159526649Y-88653638D01*
X159526638Y-88653645D01*
X159410138Y-88728515D01*
X159410131Y-88728520D01*
X159407914Y-88729945D01*
X159405930Y-88731663D01*
X159405918Y-88731673D01*
X159354080Y-88776591D01*
X159354071Y-88776599D01*
X159352094Y-88778313D01*
X159350374Y-88780297D01*
X159350369Y-88780303D01*
X159259667Y-88884980D01*
X159259662Y-88884986D01*
X159257940Y-88886974D01*
X159256519Y-88889183D01*
X159256513Y-88889193D01*
X159219437Y-88946886D01*
X159219431Y-88946896D01*
X159218012Y-88949105D01*
X159216921Y-88951492D01*
X159216917Y-88951501D01*
X159158284Y-89079890D01*
X159157679Y-89079613D01*
X159132296Y-89112286D01*
X159090094Y-89125500D01*
X157904851Y-89125500D01*
X157895192Y-89124867D01*
X157885969Y-89123652D01*
X157867286Y-89121193D01*
X157848631Y-89116194D01*
X157827143Y-89107293D01*
X157810420Y-89097637D01*
X157806397Y-89094550D01*
X157788047Y-89080468D01*
X157780771Y-89074087D01*
X157741943Y-89035256D01*
X157741942Y-89035255D01*
X157741930Y-89035243D01*
X157741924Y-89035239D01*
X157741919Y-89035235D01*
X157329257Y-88622572D01*
X157155209Y-88448524D01*
X157150332Y-88443143D01*
X157061246Y-88334591D01*
X157053187Y-88322530D01*
X156988708Y-88201900D01*
X156983156Y-88188497D01*
X156973767Y-88157547D01*
X156943449Y-88057600D01*
X156940620Y-88043375D01*
X156937588Y-88012592D01*
X156926856Y-87903624D01*
X156926500Y-87896371D01*
X156926500Y-87502150D01*
X156933187Y-87471410D01*
X156933846Y-87469965D01*
X156936808Y-87463480D01*
X156956431Y-87327000D01*
X156936808Y-87190520D01*
X156879529Y-87065097D01*
X156789235Y-86960891D01*
X156673240Y-86886346D01*
X156668167Y-86884856D01*
X156668164Y-86884855D01*
X156546017Y-86848990D01*
X156546016Y-86848989D01*
X156540942Y-86847500D01*
X156403058Y-86847500D01*
X156397984Y-86848989D01*
X156397982Y-86848990D01*
X156275835Y-86884855D01*
X156275829Y-86884857D01*
X156270760Y-86886346D01*
X156266311Y-86889204D01*
X156266309Y-86889206D01*
X156159217Y-86958029D01*
X156159213Y-86958032D01*
X156154765Y-86960891D01*
X156151302Y-86964886D01*
X156151299Y-86964890D01*
X156067934Y-87061099D01*
X156067930Y-87061104D01*
X156064471Y-87065097D01*
X156062275Y-87069905D01*
X156062274Y-87069907D01*
X156019042Y-87164573D01*
X156007192Y-87190520D01*
X156006439Y-87195756D01*
X156006438Y-87195760D01*
X155998662Y-87249847D01*
X155987569Y-87327000D01*
X156007192Y-87463480D01*
X156009391Y-87468295D01*
X156009392Y-87468298D01*
X156010813Y-87471410D01*
X156017500Y-87502150D01*
X156017500Y-87899996D01*
X156017499Y-87900000D01*
X156017499Y-88010186D01*
X156017814Y-88012580D01*
X156017815Y-88012592D01*
X156036899Y-88157547D01*
X156046263Y-88228672D01*
X156046889Y-88231011D01*
X156046890Y-88231012D01*
X156102670Y-88439185D01*
X156102672Y-88439193D01*
X156103300Y-88441534D01*
X156112270Y-88463189D01*
X156177550Y-88620789D01*
X156187633Y-88645130D01*
X156192549Y-88653645D01*
X156296606Y-88833877D01*
X156296610Y-88833883D01*
X156297819Y-88835977D01*
X156299295Y-88837900D01*
X156299296Y-88837902D01*
X156338653Y-88889193D01*
X156431973Y-89010809D01*
X156461445Y-89040281D01*
X156662142Y-89240978D01*
X157165556Y-89744392D01*
X157165572Y-89744403D01*
X157165618Y-89744446D01*
X157191552Y-89770382D01*
X157201164Y-89779994D01*
X157203515Y-89781702D01*
X157335421Y-89877541D01*
X157335425Y-89877543D01*
X157337767Y-89879245D01*
X157488214Y-89955905D01*
X157648801Y-90008085D01*
X157815574Y-90034500D01*
X157831495Y-90034500D01*
X157900000Y-90034500D01*
X157959836Y-90034500D01*
X159090094Y-90034500D01*
X159132296Y-90047714D01*
X159157679Y-90080386D01*
X159158284Y-90080110D01*
X159218012Y-90210895D01*
X159257940Y-90273026D01*
X159352094Y-90381687D01*
X159354079Y-90383407D01*
X159354080Y-90383408D01*
X159405918Y-90428326D01*
X159405922Y-90428329D01*
X159407914Y-90430055D01*
X159528868Y-90507787D01*
X159596051Y-90538468D01*
X159734006Y-90578975D01*
X159807111Y-90589486D01*
X159809760Y-90589486D01*
X160311500Y-90589486D01*
X160348500Y-90599400D01*
X160375586Y-90626486D01*
X160385500Y-90663486D01*
X160385500Y-91822266D01*
X160373350Y-91862894D01*
X160340889Y-91890180D01*
X160298777Y-91895164D01*
X160260844Y-91876210D01*
X160239545Y-91839541D01*
X160230688Y-91802649D01*
X160134040Y-91569320D01*
X160002081Y-91353983D01*
X159838061Y-91161939D01*
X159646017Y-90997919D01*
X159643532Y-90996396D01*
X159643529Y-90996394D01*
X159433159Y-90867479D01*
X159433157Y-90867478D01*
X159430680Y-90865960D01*
X159428003Y-90864851D01*
X159427995Y-90864847D01*
X159200038Y-90770425D01*
X159197351Y-90769312D01*
X159146451Y-90757092D01*
X158954599Y-90711032D01*
X158951775Y-90710354D01*
X158948885Y-90710126D01*
X158948882Y-90710126D01*
X158764482Y-90695613D01*
X158764461Y-90695612D01*
X158763036Y-90695500D01*
X157636964Y-90695500D01*
X157635539Y-90695612D01*
X157635517Y-90695613D01*
X157451117Y-90710126D01*
X157451112Y-90710126D01*
X157448225Y-90710354D01*
X157445402Y-90711031D01*
X157445400Y-90711032D01*
X157205480Y-90768632D01*
X157205476Y-90768633D01*
X157202649Y-90769312D01*
X157199965Y-90770423D01*
X157199961Y-90770425D01*
X156972006Y-90864847D01*
X156972001Y-90864849D01*
X156969320Y-90865960D01*
X156966847Y-90867475D01*
X156966836Y-90867481D01*
X156920003Y-90896180D01*
X156872641Y-90906571D01*
X156829013Y-90885410D01*
X154406835Y-88463232D01*
X154406805Y-88463193D01*
X154406811Y-88463189D01*
X154297020Y-88353398D01*
X154112419Y-88201900D01*
X154058375Y-88157547D01*
X154058369Y-88157543D01*
X154056972Y-88156396D01*
X153887823Y-88043375D01*
X153800280Y-87984881D01*
X153800276Y-87984878D01*
X153798771Y-87983873D01*
X153524902Y-87837488D01*
X153523222Y-87836792D01*
X153239682Y-87719348D01*
X153239674Y-87719345D01*
X153238003Y-87718653D01*
X153236266Y-87718126D01*
X152942567Y-87629036D01*
X152942558Y-87629033D01*
X152940838Y-87628512D01*
X152939071Y-87628160D01*
X152939061Y-87628158D01*
X152638063Y-87568288D01*
X152638046Y-87568285D01*
X152636269Y-87567932D01*
X152634453Y-87567753D01*
X152634452Y-87567753D01*
X152329032Y-87537675D01*
X152329018Y-87537674D01*
X152327228Y-87537498D01*
X152325412Y-87537498D01*
X152171960Y-87537500D01*
X150219499Y-87537500D01*
X150182499Y-87527586D01*
X150155413Y-87500500D01*
X150145499Y-87463500D01*
X150145499Y-87320575D01*
X150145499Y-87320572D01*
X150145499Y-87316934D01*
X150130734Y-87242699D01*
X150074484Y-87158516D01*
X150068426Y-87154468D01*
X149996360Y-87106314D01*
X149996357Y-87106313D01*
X149990301Y-87102266D01*
X149974229Y-87099069D01*
X149919637Y-87088210D01*
X149919635Y-87088209D01*
X149916067Y-87087500D01*
X149912427Y-87087500D01*
X148169575Y-87087500D01*
X148169564Y-87087500D01*
X148165934Y-87087501D01*
X148162368Y-87088210D01*
X148162360Y-87088211D01*
X148098848Y-87100844D01*
X148091699Y-87102266D01*
X148085642Y-87106313D01*
X148085640Y-87106314D01*
X148013573Y-87154468D01*
X148013570Y-87154470D01*
X148007516Y-87158516D01*
X148003470Y-87164570D01*
X148003468Y-87164573D01*
X147955314Y-87236639D01*
X147955312Y-87236643D01*
X147951266Y-87242699D01*
X147949844Y-87249846D01*
X147949844Y-87249847D01*
X147937211Y-87313360D01*
X147936500Y-87316933D01*
X147936500Y-87320571D01*
X147936500Y-87320572D01*
X147936500Y-89063424D01*
X147936500Y-89063434D01*
X147600000Y-89063434D01*
X147600000Y-85581434D01*
X147935500Y-85581434D01*
X147935501Y-85585066D01*
X147936210Y-85588632D01*
X147936211Y-85588639D01*
X147947136Y-85643565D01*
X147950266Y-85659301D01*
X148006516Y-85743484D01*
X148090699Y-85799734D01*
X148164933Y-85814500D01*
X149915066Y-85814499D01*
X149989301Y-85799734D01*
X150073484Y-85743484D01*
X150129734Y-85659301D01*
X150144500Y-85585067D01*
X150144499Y-83834934D01*
X150129734Y-83760699D01*
X150073484Y-83676516D01*
X150067426Y-83672468D01*
X149995360Y-83624314D01*
X149995357Y-83624313D01*
X149989301Y-83620266D01*
X149973229Y-83617069D01*
X149918637Y-83606210D01*
X149918635Y-83606209D01*
X149915067Y-83605500D01*
X149911427Y-83605500D01*
X148168575Y-83605500D01*
X148168564Y-83605500D01*
X148164934Y-83605501D01*
X148161368Y-83606210D01*
X148161360Y-83606211D01*
X148097848Y-83618844D01*
X148090699Y-83620266D01*
X148084642Y-83624313D01*
X148084640Y-83624314D01*
X148012573Y-83672468D01*
X148012570Y-83672470D01*
X148006516Y-83676516D01*
X148002470Y-83682570D01*
X148002468Y-83682573D01*
X147954314Y-83754639D01*
X147954312Y-83754643D01*
X147950266Y-83760699D01*
X147948844Y-83767846D01*
X147948844Y-83767847D01*
X147936211Y-83831360D01*
X147935500Y-83834933D01*
X147935500Y-83838571D01*
X147935500Y-83838572D01*
X147935500Y-85581424D01*
X147935500Y-85581434D01*
X147600000Y-85581434D01*
X147600000Y-83328500D01*
X147609914Y-83291500D01*
X147637000Y-83264414D01*
X147674000Y-83254500D01*
X165955125Y-83254500D01*
X165997917Y-83254500D01*
X166002065Y-83254615D01*
G37*
%TD.AperFunction*%
%TD*%
%TA.AperFunction,Conductor*%
%TO.N,GND*%
G36*
X144527310Y-83264398D02*
G01*
X144554391Y-83291445D01*
X144564336Y-83328401D01*
X144580487Y-95951219D01*
X144591428Y-104501239D01*
X144598043Y-109671405D01*
X144588160Y-109708445D01*
X144561070Y-109735570D01*
X144524043Y-109745500D01*
X115002083Y-109745500D01*
X114997934Y-109745384D01*
X114696743Y-109728469D01*
X114688497Y-109727539D01*
X114393172Y-109677362D01*
X114385081Y-109675516D01*
X114097211Y-109592582D01*
X114089378Y-109589841D01*
X113812605Y-109475197D01*
X113805134Y-109471599D01*
X113542934Y-109326686D01*
X113535929Y-109322285D01*
X113291582Y-109148911D01*
X113285124Y-109143761D01*
X113061731Y-108944126D01*
X113055873Y-108938268D01*
X112856236Y-108714873D01*
X112851090Y-108708419D01*
X112677711Y-108464066D01*
X112673316Y-108457070D01*
X112528396Y-108194857D01*
X112524802Y-108187394D01*
X112470774Y-108056959D01*
X112410154Y-107910611D01*
X112407420Y-107902798D01*
X112324480Y-107614907D01*
X112322639Y-107606839D01*
X112272459Y-107311496D01*
X112271530Y-107303256D01*
X112265808Y-107201371D01*
X112254615Y-107002065D01*
X112254500Y-106997917D01*
X112254500Y-106453201D01*
X119022369Y-106453201D01*
X119023122Y-106458438D01*
X119040040Y-106576109D01*
X119041992Y-106589681D01*
X119099271Y-106715104D01*
X119102732Y-106719099D01*
X119102734Y-106719101D01*
X119172466Y-106799577D01*
X119189565Y-106819310D01*
X119305560Y-106893855D01*
X119437858Y-106932701D01*
X119570450Y-106932701D01*
X119575742Y-106932701D01*
X119708040Y-106893855D01*
X119824035Y-106819310D01*
X119914329Y-106715104D01*
X119971608Y-106589681D01*
X119991231Y-106453201D01*
X119971608Y-106316721D01*
X119914329Y-106191298D01*
X119902403Y-106177535D01*
X119827500Y-106091091D01*
X119824035Y-106087092D01*
X119812783Y-106079861D01*
X119712490Y-106015407D01*
X119708040Y-106012547D01*
X119702967Y-106011057D01*
X119702964Y-106011056D01*
X119580817Y-105975191D01*
X119580816Y-105975190D01*
X119575742Y-105973701D01*
X119437858Y-105973701D01*
X119432784Y-105975190D01*
X119432782Y-105975191D01*
X119310635Y-106011056D01*
X119310629Y-106011058D01*
X119305560Y-106012547D01*
X119301111Y-106015405D01*
X119301109Y-106015407D01*
X119194017Y-106084230D01*
X119194013Y-106084233D01*
X119189565Y-106087092D01*
X119186102Y-106091087D01*
X119186099Y-106091091D01*
X119102734Y-106187300D01*
X119102730Y-106187305D01*
X119099271Y-106191298D01*
X119097075Y-106196106D01*
X119097074Y-106196108D01*
X119058775Y-106279972D01*
X119041992Y-106316721D01*
X119041239Y-106321957D01*
X119041238Y-106321961D01*
X119027071Y-106420500D01*
X119022369Y-106453201D01*
X112254500Y-106453201D01*
X112254500Y-105600000D01*
X124585569Y-105600000D01*
X124586322Y-105605237D01*
X124602538Y-105718027D01*
X124605192Y-105736480D01*
X124662471Y-105861903D01*
X124665932Y-105865898D01*
X124665934Y-105865900D01*
X124749299Y-105962109D01*
X124752765Y-105966109D01*
X124868760Y-106040654D01*
X125001058Y-106079500D01*
X125000951Y-106079861D01*
X125039564Y-106099187D01*
X126548129Y-107607752D01*
X126548144Y-107607766D01*
X126592441Y-107652062D01*
X126744041Y-107762206D01*
X126911005Y-107847279D01*
X126913765Y-107848175D01*
X126913768Y-107848177D01*
X126992050Y-107873612D01*
X127089221Y-107905185D01*
X127274302Y-107934499D01*
X127305500Y-107934499D01*
X127305502Y-107934499D01*
X127305504Y-107934500D01*
X127367996Y-107934500D01*
X130450856Y-107934500D01*
X130490863Y-107946247D01*
X130518169Y-107977759D01*
X130524103Y-108019031D01*
X130506782Y-108056959D01*
X130465934Y-108104099D01*
X130465930Y-108104104D01*
X130462471Y-108108097D01*
X130460275Y-108112905D01*
X130460274Y-108112907D01*
X130435156Y-108167909D01*
X130405192Y-108233520D01*
X130404439Y-108238756D01*
X130404438Y-108238760D01*
X130387127Y-108359158D01*
X130385569Y-108370000D01*
X130386322Y-108375237D01*
X130401318Y-108479540D01*
X130405192Y-108506480D01*
X130462471Y-108631903D01*
X130465932Y-108635898D01*
X130465934Y-108635900D01*
X130534378Y-108714889D01*
X130552765Y-108736109D01*
X130668760Y-108810654D01*
X130801058Y-108849500D01*
X130933650Y-108849500D01*
X130938942Y-108849500D01*
X131071240Y-108810654D01*
X131187235Y-108736109D01*
X131277529Y-108631903D01*
X131334808Y-108506480D01*
X131354431Y-108370000D01*
X131334808Y-108233520D01*
X131277529Y-108108097D01*
X131233217Y-108056958D01*
X131215897Y-108019031D01*
X131221831Y-107977759D01*
X131249137Y-107946247D01*
X131289144Y-107934500D01*
X132698155Y-107934500D01*
X132751981Y-107934500D01*
X132752000Y-107934502D01*
X132752000Y-107934505D01*
X132865587Y-107934505D01*
X132867666Y-107934505D01*
X133097544Y-107908603D01*
X133323076Y-107857127D01*
X133541427Y-107780721D01*
X133749850Y-107680349D01*
X133945724Y-107557271D01*
X134126586Y-107413037D01*
X134187286Y-107352336D01*
X134338252Y-107201371D01*
X134338252Y-107201370D01*
X134830436Y-106709186D01*
X134869047Y-106689860D01*
X134868942Y-106689500D01*
X135001240Y-106650654D01*
X135117235Y-106576109D01*
X135207529Y-106471903D01*
X135264808Y-106346480D01*
X135265305Y-106343017D01*
X135276913Y-106320134D01*
X135297012Y-106302015D01*
X135328021Y-106283013D01*
X135338363Y-106277743D01*
X135481202Y-106218575D01*
X135492244Y-106214988D01*
X135642574Y-106178894D01*
X135654040Y-106177078D01*
X135810928Y-106164728D01*
X135816736Y-106164500D01*
X138524094Y-106164500D01*
X138564100Y-106176246D01*
X138648760Y-106230654D01*
X138781058Y-106269500D01*
X138913650Y-106269500D01*
X138918942Y-106269500D01*
X139051240Y-106230654D01*
X139167235Y-106156109D01*
X139257529Y-106051903D01*
X139314808Y-105926480D01*
X139334431Y-105790000D01*
X139314808Y-105653520D01*
X139257529Y-105528097D01*
X139167235Y-105423891D01*
X139154178Y-105415500D01*
X139055690Y-105352206D01*
X139051240Y-105349346D01*
X139046167Y-105347856D01*
X139046164Y-105347855D01*
X138924017Y-105311990D01*
X138924016Y-105311989D01*
X138918942Y-105310500D01*
X138781058Y-105310500D01*
X138775984Y-105311989D01*
X138775982Y-105311990D01*
X138653835Y-105347855D01*
X138653829Y-105347857D01*
X138648760Y-105349346D01*
X138644311Y-105352204D01*
X138644309Y-105352206D01*
X138564101Y-105403753D01*
X138524094Y-105415500D01*
X135867811Y-105415500D01*
X135867808Y-105415499D01*
X135867806Y-105415499D01*
X135867799Y-105415499D01*
X135814003Y-105415499D01*
X135813961Y-105415494D01*
X135813961Y-105415488D01*
X135813913Y-105415488D01*
X135697856Y-105415490D01*
X135697841Y-105415490D01*
X135695428Y-105415491D01*
X135693034Y-105415806D01*
X135693022Y-105415807D01*
X135462787Y-105446122D01*
X135462779Y-105446123D01*
X135460391Y-105446438D01*
X135458060Y-105447062D01*
X135458053Y-105447064D01*
X135233744Y-105507171D01*
X135233730Y-105507175D01*
X135231404Y-105507799D01*
X135229179Y-105508720D01*
X135229166Y-105508725D01*
X135014617Y-105597597D01*
X135014611Y-105597599D01*
X135012385Y-105598522D01*
X135010297Y-105599727D01*
X135010296Y-105599728D01*
X134809173Y-105715848D01*
X134809160Y-105715856D01*
X134807081Y-105717057D01*
X134805753Y-105718075D01*
X134764799Y-105730500D01*
X134731058Y-105730500D01*
X134725984Y-105731989D01*
X134725982Y-105731990D01*
X134603835Y-105767855D01*
X134603829Y-105767857D01*
X134598760Y-105769346D01*
X134594311Y-105772204D01*
X134594309Y-105772206D01*
X134487217Y-105841029D01*
X134487213Y-105841032D01*
X134482765Y-105843891D01*
X134479302Y-105847886D01*
X134479299Y-105847890D01*
X134395934Y-105944099D01*
X134395930Y-105944104D01*
X134392471Y-105948097D01*
X134390275Y-105952905D01*
X134390274Y-105952907D01*
X134337388Y-106068709D01*
X134337385Y-106068715D01*
X134335192Y-106073520D01*
X134334439Y-106078751D01*
X134334439Y-106078754D01*
X134326662Y-106132841D01*
X134305741Y-106174634D01*
X133786453Y-106693924D01*
X133786452Y-106693925D01*
X133716823Y-106763552D01*
X133680798Y-106799577D01*
X133676531Y-106803521D01*
X133526789Y-106931414D01*
X133517395Y-106938239D01*
X133351975Y-107039609D01*
X133341629Y-107044881D01*
X133162382Y-107119130D01*
X133151338Y-107122718D01*
X132962691Y-107168008D01*
X132951222Y-107169825D01*
X132754961Y-107185272D01*
X132749155Y-107185500D01*
X129721899Y-107185500D01*
X129676155Y-107169668D01*
X129649985Y-107128946D01*
X129654586Y-107080759D01*
X129674808Y-107036480D01*
X129676619Y-107023877D01*
X129697539Y-106982082D01*
X136792661Y-99886961D01*
X136792662Y-99886962D01*
X136883749Y-99795874D01*
X137044381Y-99594448D01*
X137181451Y-99376303D01*
X137293234Y-99144182D01*
X137378325Y-98901006D01*
X137435654Y-98649831D01*
X137464500Y-98393817D01*
X137464500Y-98265000D01*
X137464500Y-98211155D01*
X137464500Y-95360000D01*
X140885569Y-95360000D01*
X140886322Y-95365237D01*
X140902125Y-95475154D01*
X140905192Y-95496480D01*
X140962471Y-95621903D01*
X140965932Y-95625898D01*
X140965934Y-95625900D01*
X141031033Y-95701029D01*
X141052765Y-95726109D01*
X141168760Y-95800654D01*
X141301058Y-95839500D01*
X141433650Y-95839500D01*
X141438942Y-95839500D01*
X141571240Y-95800654D01*
X141687235Y-95726109D01*
X141777529Y-95621903D01*
X141834808Y-95496480D01*
X141854431Y-95360000D01*
X141850697Y-95334030D01*
X141856631Y-95292760D01*
X141883936Y-95261247D01*
X141923944Y-95249500D01*
X142003650Y-95249500D01*
X142008942Y-95249500D01*
X142141240Y-95210654D01*
X142257235Y-95136109D01*
X142347529Y-95031903D01*
X142404808Y-94906480D01*
X142424431Y-94770000D01*
X142404808Y-94633520D01*
X142347529Y-94508097D01*
X142307350Y-94461728D01*
X142260700Y-94407890D01*
X142257235Y-94403891D01*
X142245012Y-94396036D01*
X142145690Y-94332206D01*
X142141240Y-94329346D01*
X142136167Y-94327856D01*
X142136164Y-94327855D01*
X142014017Y-94291990D01*
X142014016Y-94291989D01*
X142008942Y-94290500D01*
X141871058Y-94290500D01*
X141865984Y-94291989D01*
X141865982Y-94291990D01*
X141743835Y-94327855D01*
X141743829Y-94327857D01*
X141738760Y-94329346D01*
X141734311Y-94332204D01*
X141734309Y-94332206D01*
X141627217Y-94401029D01*
X141627213Y-94401032D01*
X141622765Y-94403891D01*
X141619302Y-94407886D01*
X141619299Y-94407890D01*
X141535934Y-94504099D01*
X141535930Y-94504104D01*
X141532471Y-94508097D01*
X141530275Y-94512905D01*
X141530274Y-94512907D01*
X141487020Y-94607621D01*
X141475192Y-94633520D01*
X141474439Y-94638756D01*
X141474438Y-94638760D01*
X141465475Y-94701103D01*
X141455569Y-94770000D01*
X141456322Y-94775236D01*
X141459303Y-94795968D01*
X141453369Y-94837240D01*
X141426064Y-94868753D01*
X141386056Y-94880500D01*
X141301058Y-94880500D01*
X141295984Y-94881989D01*
X141295982Y-94881990D01*
X141173835Y-94917855D01*
X141173829Y-94917857D01*
X141168760Y-94919346D01*
X141164311Y-94922204D01*
X141164309Y-94922206D01*
X141057217Y-94991029D01*
X141057213Y-94991032D01*
X141052765Y-94993891D01*
X141049302Y-94997886D01*
X141049299Y-94997890D01*
X140965934Y-95094099D01*
X140965930Y-95094104D01*
X140962471Y-95098097D01*
X140960275Y-95102905D01*
X140960274Y-95102907D01*
X140911068Y-95210654D01*
X140905192Y-95223520D01*
X140904439Y-95228756D01*
X140904438Y-95228760D01*
X140894077Y-95300826D01*
X140885569Y-95360000D01*
X137464500Y-95360000D01*
X137464500Y-94607621D01*
X137469166Y-94581761D01*
X137482575Y-94559161D01*
X137497529Y-94541903D01*
X137554808Y-94416480D01*
X137574431Y-94280000D01*
X137554808Y-94143520D01*
X137497529Y-94018097D01*
X137407235Y-93913891D01*
X137392622Y-93904500D01*
X137295690Y-93842206D01*
X137291240Y-93839346D01*
X137286167Y-93837856D01*
X137286164Y-93837855D01*
X137164017Y-93801990D01*
X137164016Y-93801989D01*
X137158942Y-93800500D01*
X137027774Y-93800500D01*
X136986662Y-93788029D01*
X136959407Y-93754819D01*
X136955196Y-93712063D01*
X136975448Y-93674174D01*
X137736781Y-92912841D01*
X138564757Y-92084864D01*
X138568998Y-92080944D01*
X138708357Y-91961921D01*
X138717741Y-91955104D01*
X138871492Y-91860886D01*
X138881835Y-91855616D01*
X139048433Y-91786612D01*
X139059468Y-91783027D01*
X139234808Y-91740936D01*
X139246273Y-91739121D01*
X139429222Y-91724727D01*
X139435022Y-91724500D01*
X139485684Y-91724502D01*
X139485690Y-91724500D01*
X139485695Y-91724500D01*
X140233795Y-91724500D01*
X140262114Y-91730133D01*
X140283950Y-91744723D01*
X140284526Y-91745474D01*
X140400357Y-91834355D01*
X140535246Y-91890228D01*
X140680000Y-91909285D01*
X140824754Y-91890228D01*
X140959643Y-91834355D01*
X141075474Y-91745474D01*
X141164355Y-91629643D01*
X141220228Y-91494754D01*
X141239285Y-91350000D01*
X141220228Y-91205246D01*
X141164355Y-91070358D01*
X141110610Y-91000316D01*
X141078428Y-90958375D01*
X141078425Y-90958372D01*
X141075474Y-90954526D01*
X141026315Y-90916805D01*
X140963490Y-90868597D01*
X140959643Y-90865645D01*
X140909802Y-90845000D01*
X140829231Y-90811626D01*
X140829227Y-90811625D01*
X140824754Y-90809772D01*
X140819950Y-90809139D01*
X140819948Y-90809139D01*
X140684808Y-90791348D01*
X140680000Y-90790715D01*
X140675192Y-90791348D01*
X140540051Y-90809139D01*
X140540047Y-90809139D01*
X140535246Y-90809772D01*
X140530773Y-90811624D01*
X140530768Y-90811626D01*
X140404837Y-90863789D01*
X140404832Y-90863791D01*
X140400358Y-90865645D01*
X140396513Y-90868594D01*
X140396510Y-90868597D01*
X140288376Y-90951571D01*
X140288374Y-90951573D01*
X140284526Y-90954526D01*
X140283949Y-90955277D01*
X140262115Y-90969867D01*
X140233796Y-90975500D01*
X139400821Y-90975500D01*
X139400742Y-90975512D01*
X139400566Y-90975519D01*
X139323178Y-90975518D01*
X139321098Y-90975518D01*
X139319046Y-90975749D01*
X139319030Y-90975750D01*
X139103027Y-91000082D01*
X139103008Y-91000085D01*
X139100959Y-91000316D01*
X139098933Y-91000778D01*
X139098929Y-91000779D01*
X138887015Y-91049141D01*
X138886997Y-91049145D01*
X138884982Y-91049606D01*
X138883028Y-91050289D01*
X138883013Y-91050294D01*
X138677835Y-91122085D01*
X138677824Y-91122089D01*
X138675882Y-91122769D01*
X138674016Y-91123667D01*
X138674015Y-91123668D01*
X138478164Y-91217981D01*
X138478155Y-91217985D01*
X138476288Y-91218885D01*
X138474539Y-91219983D01*
X138474528Y-91219990D01*
X138290467Y-91335641D01*
X138290451Y-91335652D01*
X138288712Y-91336745D01*
X138287098Y-91338031D01*
X138287091Y-91338037D01*
X138117131Y-91473574D01*
X138117121Y-91473582D01*
X138115512Y-91474866D01*
X138114056Y-91476321D01*
X138114047Y-91476330D01*
X138081378Y-91508999D01*
X136373992Y-93216384D01*
X136335942Y-93254434D01*
X136335912Y-93254456D01*
X136335909Y-93254453D01*
X136335884Y-93254477D01*
X136335880Y-93254481D01*
X136255977Y-93334387D01*
X136255969Y-93334395D01*
X136254506Y-93335859D01*
X136253215Y-93337476D01*
X136253205Y-93337489D01*
X136112247Y-93514249D01*
X136112233Y-93514267D01*
X136110952Y-93515875D01*
X136109859Y-93517614D01*
X136109848Y-93517630D01*
X135989556Y-93709077D01*
X135989548Y-93709091D01*
X135988455Y-93710831D01*
X135987562Y-93712683D01*
X135987556Y-93712696D01*
X135902235Y-93889873D01*
X135888557Y-93918277D01*
X135887881Y-93920206D01*
X135887875Y-93920223D01*
X135821518Y-94109868D01*
X135812513Y-94135604D01*
X135812053Y-94137617D01*
X135812049Y-94137633D01*
X135761738Y-94358066D01*
X135761279Y-94360078D01*
X135761048Y-94362124D01*
X135761048Y-94362127D01*
X135735732Y-94586812D01*
X135735731Y-94586823D01*
X135735500Y-94588877D01*
X135735500Y-94590957D01*
X135735500Y-95352379D01*
X135730834Y-95378239D01*
X135717425Y-95400838D01*
X135702471Y-95418097D01*
X135700275Y-95422905D01*
X135700274Y-95422907D01*
X135649134Y-95534889D01*
X135645192Y-95543520D01*
X135644439Y-95548756D01*
X135644438Y-95548760D01*
X135638437Y-95590500D01*
X135625569Y-95680000D01*
X135626322Y-95685237D01*
X135643986Y-95808097D01*
X135645192Y-95816480D01*
X135702471Y-95941903D01*
X135792765Y-96046109D01*
X135908760Y-96120654D01*
X136041058Y-96159500D01*
X136173650Y-96159500D01*
X136178942Y-96159500D01*
X136311240Y-96120654D01*
X136427235Y-96046109D01*
X136517529Y-95941903D01*
X136574186Y-95817840D01*
X136608376Y-95782408D01*
X136657230Y-95776272D01*
X136699119Y-95802148D01*
X136715500Y-95848581D01*
X136715500Y-98262571D01*
X136715342Y-98267411D01*
X136702600Y-98461801D01*
X136701336Y-98471398D01*
X136663808Y-98660064D01*
X136661303Y-98669414D01*
X136599467Y-98851577D01*
X136595763Y-98860519D01*
X136510681Y-99033050D01*
X136505841Y-99041433D01*
X136398967Y-99201381D01*
X136393074Y-99209061D01*
X136264642Y-99355509D01*
X136261332Y-99359043D01*
X129221551Y-106398826D01*
X129197544Y-106414867D01*
X129169225Y-106420500D01*
X129141058Y-106420500D01*
X129135984Y-106421989D01*
X129135982Y-106421990D01*
X129013835Y-106457855D01*
X129013829Y-106457857D01*
X129008760Y-106459346D01*
X129004311Y-106462204D01*
X129004309Y-106462206D01*
X128897217Y-106531029D01*
X128897213Y-106531032D01*
X128892765Y-106533891D01*
X128889302Y-106537886D01*
X128889299Y-106537890D01*
X128805934Y-106634099D01*
X128805930Y-106634104D01*
X128802471Y-106638097D01*
X128800275Y-106642905D01*
X128800274Y-106642907D01*
X128765478Y-106719101D01*
X128745192Y-106763520D01*
X128744439Y-106768756D01*
X128744438Y-106768760D01*
X128736759Y-106822171D01*
X128725569Y-106900000D01*
X128726322Y-106905237D01*
X128739874Y-106999497D01*
X128745192Y-107036480D01*
X128755245Y-107058494D01*
X128765414Y-107080759D01*
X128770015Y-107128946D01*
X128743845Y-107169668D01*
X128698101Y-107185500D01*
X127371638Y-107185500D01*
X127364384Y-107185144D01*
X127289118Y-107177730D01*
X127274891Y-107174900D01*
X127206016Y-107154007D01*
X127192614Y-107148455D01*
X127129144Y-107114530D01*
X127117082Y-107106471D01*
X127058621Y-107058494D01*
X127053240Y-107053617D01*
X125564257Y-105564634D01*
X125543336Y-105522839D01*
X125534808Y-105463520D01*
X125477529Y-105338097D01*
X125454907Y-105311990D01*
X125390700Y-105237890D01*
X125387235Y-105233891D01*
X125271240Y-105159346D01*
X125266167Y-105157856D01*
X125266164Y-105157855D01*
X125144017Y-105121990D01*
X125144016Y-105121989D01*
X125138942Y-105120500D01*
X125001058Y-105120500D01*
X124995984Y-105121989D01*
X124995982Y-105121990D01*
X124873835Y-105157855D01*
X124873829Y-105157857D01*
X124868760Y-105159346D01*
X124864311Y-105162204D01*
X124864309Y-105162206D01*
X124757217Y-105231029D01*
X124757213Y-105231032D01*
X124752765Y-105233891D01*
X124749302Y-105237886D01*
X124749299Y-105237890D01*
X124665934Y-105334099D01*
X124665930Y-105334104D01*
X124662471Y-105338097D01*
X124660275Y-105342905D01*
X124660274Y-105342907D01*
X124621464Y-105427890D01*
X124605192Y-105463520D01*
X124604439Y-105468756D01*
X124604438Y-105468760D01*
X124593158Y-105547219D01*
X124585569Y-105600000D01*
X112254500Y-105600000D01*
X112254500Y-104370000D01*
X123415569Y-104370000D01*
X123435192Y-104506480D01*
X123492471Y-104631903D01*
X123582765Y-104736109D01*
X123698760Y-104810654D01*
X123831058Y-104849500D01*
X123963650Y-104849500D01*
X123968942Y-104849500D01*
X124101240Y-104810654D01*
X124217235Y-104736109D01*
X124307529Y-104631903D01*
X124364808Y-104506480D01*
X124384431Y-104370000D01*
X124364808Y-104233520D01*
X124307529Y-104108097D01*
X124217235Y-104003891D01*
X124101240Y-103929346D01*
X124096167Y-103927856D01*
X124096164Y-103927855D01*
X123974017Y-103891990D01*
X123974016Y-103891989D01*
X123968942Y-103890500D01*
X123831058Y-103890500D01*
X123825984Y-103891989D01*
X123825982Y-103891990D01*
X123703835Y-103927855D01*
X123703829Y-103927857D01*
X123698760Y-103929346D01*
X123694311Y-103932204D01*
X123694309Y-103932206D01*
X123587217Y-104001029D01*
X123587213Y-104001032D01*
X123582765Y-104003891D01*
X123579302Y-104007886D01*
X123579299Y-104007890D01*
X123495934Y-104104099D01*
X123495930Y-104104104D01*
X123492471Y-104108097D01*
X123435192Y-104233520D01*
X123434439Y-104238756D01*
X123434438Y-104238760D01*
X123417127Y-104359158D01*
X123415569Y-104370000D01*
X112254500Y-104370000D01*
X112254500Y-103510000D01*
X126475569Y-103510000D01*
X126495192Y-103646480D01*
X126552471Y-103771903D01*
X126642765Y-103876109D01*
X126758760Y-103950654D01*
X126891058Y-103989500D01*
X127023650Y-103989500D01*
X127028942Y-103989500D01*
X127161240Y-103950654D01*
X127277235Y-103876109D01*
X127367529Y-103771903D01*
X127424808Y-103646480D01*
X127444431Y-103510000D01*
X127443678Y-103504763D01*
X127443678Y-103503500D01*
X127453592Y-103466500D01*
X127480678Y-103439414D01*
X127517678Y-103429500D01*
X127573650Y-103429500D01*
X127578942Y-103429500D01*
X127711240Y-103390654D01*
X127827235Y-103316109D01*
X127917529Y-103211903D01*
X127974808Y-103086480D01*
X127994431Y-102950000D01*
X127974808Y-102813520D01*
X127917529Y-102688097D01*
X127827235Y-102583891D01*
X127821180Y-102580000D01*
X127715690Y-102512206D01*
X127711240Y-102509346D01*
X127706167Y-102507856D01*
X127706164Y-102507855D01*
X127584017Y-102471990D01*
X127584016Y-102471989D01*
X127578942Y-102470500D01*
X127441058Y-102470500D01*
X127435984Y-102471989D01*
X127435982Y-102471990D01*
X127313835Y-102507855D01*
X127313829Y-102507857D01*
X127308760Y-102509346D01*
X127304311Y-102512204D01*
X127304309Y-102512206D01*
X127197217Y-102581029D01*
X127197213Y-102581032D01*
X127192765Y-102583891D01*
X127189302Y-102587886D01*
X127189299Y-102587890D01*
X127105934Y-102684099D01*
X127105930Y-102684104D01*
X127102471Y-102688097D01*
X127045192Y-102813520D01*
X127044439Y-102818756D01*
X127044438Y-102818760D01*
X127041111Y-102841903D01*
X127025569Y-102950000D01*
X127026322Y-102955237D01*
X127026322Y-102956500D01*
X127016408Y-102993500D01*
X126989322Y-103020586D01*
X126952322Y-103030500D01*
X126891058Y-103030500D01*
X126885984Y-103031989D01*
X126885982Y-103031990D01*
X126763835Y-103067855D01*
X126763829Y-103067857D01*
X126758760Y-103069346D01*
X126754311Y-103072204D01*
X126754309Y-103072206D01*
X126647217Y-103141029D01*
X126647213Y-103141032D01*
X126642765Y-103143891D01*
X126639302Y-103147886D01*
X126639299Y-103147890D01*
X126555934Y-103244099D01*
X126555930Y-103244104D01*
X126552471Y-103248097D01*
X126550275Y-103252905D01*
X126550274Y-103252907D01*
X126521411Y-103316109D01*
X126495192Y-103373520D01*
X126494439Y-103378756D01*
X126494438Y-103378760D01*
X126487143Y-103429500D01*
X126475569Y-103510000D01*
X112254500Y-103510000D01*
X112254500Y-102580000D01*
X125598069Y-102580000D01*
X125598822Y-102585237D01*
X125614302Y-102692907D01*
X125617692Y-102716480D01*
X125674971Y-102841903D01*
X125765265Y-102946109D01*
X125881260Y-103020654D01*
X126013558Y-103059500D01*
X126146150Y-103059500D01*
X126151442Y-103059500D01*
X126283740Y-103020654D01*
X126399735Y-102946109D01*
X126490029Y-102841903D01*
X126547308Y-102716480D01*
X126566931Y-102580000D01*
X126547308Y-102443520D01*
X126490029Y-102318097D01*
X126478148Y-102304386D01*
X126414878Y-102231367D01*
X126399735Y-102213891D01*
X126283740Y-102139346D01*
X126278667Y-102137856D01*
X126278664Y-102137855D01*
X126156517Y-102101990D01*
X126156516Y-102101989D01*
X126151442Y-102100500D01*
X126013558Y-102100500D01*
X126008484Y-102101989D01*
X126008482Y-102101990D01*
X125886335Y-102137855D01*
X125886329Y-102137857D01*
X125881260Y-102139346D01*
X125876811Y-102142204D01*
X125876809Y-102142206D01*
X125769717Y-102211029D01*
X125769713Y-102211032D01*
X125765265Y-102213891D01*
X125761802Y-102217886D01*
X125761799Y-102217890D01*
X125678434Y-102314099D01*
X125678430Y-102314104D01*
X125674971Y-102318097D01*
X125617692Y-102443520D01*
X125616939Y-102448756D01*
X125616938Y-102448760D01*
X125607816Y-102512206D01*
X125598069Y-102580000D01*
X112254500Y-102580000D01*
X112254500Y-100700000D01*
X120690539Y-100700000D01*
X120690767Y-100702897D01*
X120704382Y-100875901D01*
X120710354Y-100951775D01*
X120769312Y-101197351D01*
X120770425Y-101200038D01*
X120864847Y-101427995D01*
X120864851Y-101428003D01*
X120865960Y-101430680D01*
X120997919Y-101646017D01*
X121161939Y-101838061D01*
X121353983Y-102002081D01*
X121569320Y-102134040D01*
X121572001Y-102135150D01*
X121572004Y-102135152D01*
X121589034Y-102142206D01*
X121802649Y-102230688D01*
X122048225Y-102289646D01*
X122236964Y-102304500D01*
X123361584Y-102304500D01*
X123363036Y-102304500D01*
X123551775Y-102289646D01*
X123797351Y-102230688D01*
X124030680Y-102134040D01*
X124246017Y-102002081D01*
X124438061Y-101838061D01*
X124602081Y-101646017D01*
X124734040Y-101430680D01*
X124830688Y-101197351D01*
X124889646Y-100951775D01*
X124909461Y-100700000D01*
X124902378Y-100610001D01*
X130190569Y-100610001D01*
X130191322Y-100615238D01*
X130203925Y-100702897D01*
X130210192Y-100746481D01*
X130267471Y-100871904D01*
X130357765Y-100976110D01*
X130473760Y-101050655D01*
X130606058Y-101089501D01*
X130738650Y-101089501D01*
X130743942Y-101089501D01*
X130876240Y-101050655D01*
X130992235Y-100976110D01*
X131082529Y-100871904D01*
X131139808Y-100746481D01*
X131159431Y-100610001D01*
X131158483Y-100603413D01*
X131158678Y-100602259D01*
X131158678Y-100599469D01*
X131159147Y-100599469D01*
X131165957Y-100558968D01*
X131197827Y-100527101D01*
X131236058Y-100520677D01*
X131236058Y-100519501D01*
X131368650Y-100519501D01*
X131373942Y-100519501D01*
X131506240Y-100480655D01*
X131622235Y-100406110D01*
X131712529Y-100301904D01*
X131769808Y-100176481D01*
X131789431Y-100040001D01*
X131769808Y-99903521D01*
X131712529Y-99778098D01*
X131693788Y-99756470D01*
X131625700Y-99677891D01*
X131622235Y-99673892D01*
X131506240Y-99599347D01*
X131501167Y-99597857D01*
X131501164Y-99597856D01*
X131379017Y-99561991D01*
X131379016Y-99561990D01*
X131373942Y-99560501D01*
X131236058Y-99560501D01*
X131230984Y-99561990D01*
X131230982Y-99561991D01*
X131108835Y-99597856D01*
X131108829Y-99597858D01*
X131103760Y-99599347D01*
X131099311Y-99602205D01*
X131099309Y-99602207D01*
X130992217Y-99671030D01*
X130992213Y-99671033D01*
X130987765Y-99673892D01*
X130984302Y-99677887D01*
X130984299Y-99677891D01*
X130900934Y-99774100D01*
X130900930Y-99774105D01*
X130897471Y-99778098D01*
X130895275Y-99782906D01*
X130895274Y-99782908D01*
X130846036Y-99890725D01*
X130840192Y-99903521D01*
X130839439Y-99908757D01*
X130839438Y-99908761D01*
X130822127Y-100029159D01*
X130820569Y-100040001D01*
X130821322Y-100045238D01*
X130821322Y-100045242D01*
X130821517Y-100046599D01*
X130821322Y-100047758D01*
X130821322Y-100050532D01*
X130820855Y-100050532D01*
X130814041Y-100091035D01*
X130782177Y-100122897D01*
X130743942Y-100129327D01*
X130743942Y-100130501D01*
X130606058Y-100130501D01*
X130600984Y-100131990D01*
X130600982Y-100131991D01*
X130478835Y-100167856D01*
X130478829Y-100167858D01*
X130473760Y-100169347D01*
X130469311Y-100172205D01*
X130469309Y-100172207D01*
X130362217Y-100241030D01*
X130362213Y-100241033D01*
X130357765Y-100243892D01*
X130354302Y-100247887D01*
X130354299Y-100247891D01*
X130270934Y-100344100D01*
X130270930Y-100344105D01*
X130267471Y-100348098D01*
X130265275Y-100352906D01*
X130265274Y-100352908D01*
X130220424Y-100451117D01*
X130210192Y-100473521D01*
X130209439Y-100478757D01*
X130209438Y-100478761D01*
X130207532Y-100492020D01*
X130190569Y-100610001D01*
X124902378Y-100610001D01*
X124889646Y-100448225D01*
X124830688Y-100202649D01*
X124734040Y-99969320D01*
X124716356Y-99940463D01*
X124705966Y-99893102D01*
X124727126Y-99849475D01*
X125426602Y-99150000D01*
X134745569Y-99150000D01*
X134746322Y-99155237D01*
X134762241Y-99265960D01*
X134765192Y-99286480D01*
X134822471Y-99411903D01*
X134912765Y-99516109D01*
X135028760Y-99590654D01*
X135161058Y-99629500D01*
X135293650Y-99629500D01*
X135298942Y-99629500D01*
X135431240Y-99590654D01*
X135547235Y-99516109D01*
X135637529Y-99411903D01*
X135694808Y-99286480D01*
X135714431Y-99150000D01*
X135694808Y-99013520D01*
X135637529Y-98888097D01*
X135547235Y-98783891D01*
X135431240Y-98709346D01*
X135426167Y-98707856D01*
X135426164Y-98707855D01*
X135304017Y-98671990D01*
X135304016Y-98671989D01*
X135298942Y-98670500D01*
X135161058Y-98670500D01*
X135155984Y-98671989D01*
X135155982Y-98671990D01*
X135033835Y-98707855D01*
X135033829Y-98707857D01*
X135028760Y-98709346D01*
X135024311Y-98712204D01*
X135024309Y-98712206D01*
X134917217Y-98781029D01*
X134917213Y-98781032D01*
X134912765Y-98783891D01*
X134909302Y-98787886D01*
X134909299Y-98787890D01*
X134825934Y-98884099D01*
X134825930Y-98884104D01*
X134822471Y-98888097D01*
X134820275Y-98892905D01*
X134820274Y-98892907D01*
X134816576Y-98901006D01*
X134765192Y-99013520D01*
X134764439Y-99018756D01*
X134764438Y-99018760D01*
X134753405Y-99095500D01*
X134745569Y-99150000D01*
X125426602Y-99150000D01*
X126249251Y-98327352D01*
X126249290Y-98327300D01*
X126249351Y-98327235D01*
X126316826Y-98259763D01*
X126490349Y-98048329D01*
X126642313Y-97820905D01*
X126771252Y-97579680D01*
X126875926Y-97326979D01*
X126955327Y-97065234D01*
X127008689Y-96796967D01*
X127035500Y-96524761D01*
X127035500Y-96388000D01*
X127035500Y-96314256D01*
X127035500Y-96070000D01*
X128035569Y-96070000D01*
X128055192Y-96206480D01*
X128112471Y-96331903D01*
X128202765Y-96436109D01*
X128318760Y-96510654D01*
X128451058Y-96549500D01*
X128583650Y-96549500D01*
X128588942Y-96549500D01*
X128721240Y-96510654D01*
X128837235Y-96436109D01*
X128927529Y-96331903D01*
X128965956Y-96247757D01*
X128993261Y-96216247D01*
X129033269Y-96204500D01*
X131629155Y-96204500D01*
X131682966Y-96204500D01*
X131683000Y-96204504D01*
X131683000Y-96204509D01*
X131800519Y-96204509D01*
X131802598Y-96204509D01*
X132040291Y-96177727D01*
X132273490Y-96124500D01*
X132499263Y-96045497D01*
X132714771Y-95941712D01*
X132917304Y-95814450D01*
X133104314Y-95665311D01*
X133183475Y-95586147D01*
X133315752Y-95453872D01*
X133315754Y-95453868D01*
X135280436Y-93489186D01*
X135319047Y-93469860D01*
X135318942Y-93469500D01*
X135451240Y-93430654D01*
X135567235Y-93356109D01*
X135657529Y-93251903D01*
X135714808Y-93126480D01*
X135734431Y-92990000D01*
X135714808Y-92853520D01*
X135657529Y-92728097D01*
X135567235Y-92623891D01*
X135451240Y-92549346D01*
X135446167Y-92547856D01*
X135446164Y-92547855D01*
X135324017Y-92511990D01*
X135324016Y-92511989D01*
X135318942Y-92510500D01*
X135181058Y-92510500D01*
X135175984Y-92511989D01*
X135175982Y-92511990D01*
X135053835Y-92547855D01*
X135053829Y-92547857D01*
X135048760Y-92549346D01*
X135044311Y-92552204D01*
X135044309Y-92552206D01*
X134937217Y-92621029D01*
X134937213Y-92621032D01*
X134932765Y-92623891D01*
X134929302Y-92627886D01*
X134929299Y-92627890D01*
X134845934Y-92724099D01*
X134845930Y-92724104D01*
X134842471Y-92728097D01*
X134840275Y-92732905D01*
X134840274Y-92732907D01*
X134787388Y-92848709D01*
X134787385Y-92848715D01*
X134785192Y-92853520D01*
X134784439Y-92858751D01*
X134784439Y-92858754D01*
X134776662Y-92912841D01*
X134755741Y-92954635D01*
X132764151Y-94946226D01*
X132764150Y-94946227D01*
X132697328Y-95013047D01*
X132660963Y-95049412D01*
X132657429Y-95052722D01*
X132527118Y-95167004D01*
X132519439Y-95172896D01*
X132377347Y-95267841D01*
X132368964Y-95272681D01*
X132215699Y-95348265D01*
X132206756Y-95351970D01*
X132044924Y-95406905D01*
X132035574Y-95409410D01*
X131867969Y-95442749D01*
X131858372Y-95444013D01*
X131685548Y-95455342D01*
X131680708Y-95455500D01*
X128806509Y-95455500D01*
X128791324Y-95453925D01*
X128781693Y-95451905D01*
X128781689Y-95451904D01*
X128775690Y-95450647D01*
X128769607Y-95451405D01*
X128769604Y-95451405D01*
X128741312Y-95454932D01*
X128732159Y-95455500D01*
X128728970Y-95455500D01*
X128725958Y-95456002D01*
X128725952Y-95456003D01*
X128707504Y-95459081D01*
X128704481Y-95459522D01*
X128660156Y-95465047D01*
X128651664Y-95466106D01*
X128646267Y-95468744D01*
X128645667Y-95468883D01*
X128643215Y-95469668D01*
X128642641Y-95469905D01*
X128636719Y-95470894D01*
X128631333Y-95473808D01*
X128631326Y-95473811D01*
X128589909Y-95496224D01*
X128587193Y-95497622D01*
X128544883Y-95518307D01*
X128544880Y-95518309D01*
X128539378Y-95520999D01*
X128535128Y-95525248D01*
X128534593Y-95525582D01*
X128532548Y-95527108D01*
X128532079Y-95527521D01*
X128526797Y-95530381D01*
X128522649Y-95534886D01*
X128522646Y-95534889D01*
X128491595Y-95568619D01*
X128450922Y-95590039D01*
X128451058Y-95590500D01*
X128448775Y-95591170D01*
X128448773Y-95591170D01*
X128445984Y-95591989D01*
X128445982Y-95591990D01*
X128323835Y-95627855D01*
X128323829Y-95627857D01*
X128318760Y-95629346D01*
X128314311Y-95632204D01*
X128314309Y-95632206D01*
X128207217Y-95701029D01*
X128207213Y-95701032D01*
X128202765Y-95703891D01*
X128199302Y-95707886D01*
X128199299Y-95707890D01*
X128115934Y-95804099D01*
X128115930Y-95804104D01*
X128112471Y-95808097D01*
X128110275Y-95812905D01*
X128110274Y-95812907D01*
X128093983Y-95848581D01*
X128055192Y-95933520D01*
X128054439Y-95938756D01*
X128054438Y-95938760D01*
X128039092Y-96045497D01*
X128035569Y-96070000D01*
X127035500Y-96070000D01*
X127035500Y-95831909D01*
X127035728Y-95826103D01*
X127036747Y-95813155D01*
X127049366Y-95652801D01*
X127051181Y-95641343D01*
X127091083Y-95475142D01*
X127094664Y-95464121D01*
X127160075Y-95306206D01*
X127165345Y-95295863D01*
X127180866Y-95270536D01*
X127254650Y-95150128D01*
X127261475Y-95140737D01*
X127374379Y-95008544D01*
X127378313Y-95004290D01*
X127428392Y-94954211D01*
X127428392Y-94954210D01*
X127428398Y-94954205D01*
X127428398Y-94954204D01*
X128968594Y-93414007D01*
X128972098Y-93410726D01*
X129118025Y-93282752D01*
X129125686Y-93276873D01*
X129285033Y-93170401D01*
X129293407Y-93165566D01*
X129465287Y-93080806D01*
X129474214Y-93077109D01*
X129655688Y-93015508D01*
X129665018Y-93013008D01*
X129852970Y-92975625D01*
X129862558Y-92974362D01*
X130056425Y-92961657D01*
X130061262Y-92961500D01*
X130132367Y-92961501D01*
X130132371Y-92961500D01*
X132862256Y-92961500D01*
X132935955Y-92961500D01*
X132936000Y-92961506D01*
X132936000Y-92961512D01*
X133078870Y-92961512D01*
X133080949Y-92961512D01*
X133369025Y-92929053D01*
X133651655Y-92864543D01*
X133925285Y-92768794D01*
X134186474Y-92643009D01*
X134431937Y-92488771D01*
X134658586Y-92308019D01*
X134733347Y-92233256D01*
X137758247Y-89208354D01*
X137762488Y-89204434D01*
X137901644Y-89085584D01*
X137911015Y-89078774D01*
X138064555Y-88984686D01*
X138074884Y-88979423D01*
X138241242Y-88910516D01*
X138252263Y-88906935D01*
X138427345Y-88864903D01*
X138438804Y-88863087D01*
X138595796Y-88850732D01*
X138621274Y-88848728D01*
X138627079Y-88848500D01*
X138697851Y-88848500D01*
X141951501Y-88848500D01*
X141988501Y-88858414D01*
X142015587Y-88885500D01*
X142025501Y-88922500D01*
X142025501Y-89069066D01*
X142026210Y-89072632D01*
X142026211Y-89072639D01*
X142037136Y-89127565D01*
X142040266Y-89143301D01*
X142096516Y-89227484D01*
X142180699Y-89283734D01*
X142254933Y-89298500D01*
X144005066Y-89298499D01*
X144079301Y-89283734D01*
X144163484Y-89227484D01*
X144219734Y-89143301D01*
X144234500Y-89069067D01*
X144234499Y-87318934D01*
X144219734Y-87244699D01*
X144163484Y-87160516D01*
X144157426Y-87156468D01*
X144085360Y-87108314D01*
X144085357Y-87108313D01*
X144079301Y-87104266D01*
X144044889Y-87097421D01*
X144008637Y-87090210D01*
X144008635Y-87090209D01*
X144005067Y-87089500D01*
X144001427Y-87089500D01*
X142258575Y-87089500D01*
X142258564Y-87089500D01*
X142254934Y-87089501D01*
X142251368Y-87090210D01*
X142251360Y-87090211D01*
X142187848Y-87102844D01*
X142180699Y-87104266D01*
X142174642Y-87108313D01*
X142174640Y-87108314D01*
X142102573Y-87156468D01*
X142102570Y-87156470D01*
X142096516Y-87160516D01*
X142092470Y-87166570D01*
X142092468Y-87166573D01*
X142044314Y-87238639D01*
X142044312Y-87238643D01*
X142040266Y-87244699D01*
X142038844Y-87251846D01*
X142038844Y-87251847D01*
X142026211Y-87315360D01*
X142025500Y-87318933D01*
X142025500Y-87322573D01*
X142025500Y-87465500D01*
X142015586Y-87502500D01*
X141988500Y-87529586D01*
X141951500Y-87539500D01*
X138582932Y-87539500D01*
X138582905Y-87539503D01*
X138582852Y-87539505D01*
X138481997Y-87539505D01*
X138479943Y-87539736D01*
X138479932Y-87539737D01*
X138201601Y-87571096D01*
X138201598Y-87571096D01*
X138199552Y-87571327D01*
X138197560Y-87571781D01*
X138197540Y-87571785D01*
X137924468Y-87634112D01*
X137924459Y-87634114D01*
X137922446Y-87634574D01*
X137920490Y-87635258D01*
X137920481Y-87635261D01*
X137656139Y-87727757D01*
X137656124Y-87727762D01*
X137654164Y-87728449D01*
X137652295Y-87729348D01*
X137652283Y-87729354D01*
X137399945Y-87850873D01*
X137399939Y-87850876D01*
X137398079Y-87851772D01*
X137396339Y-87852864D01*
X137396325Y-87852873D01*
X137159168Y-88001888D01*
X137159152Y-88001899D01*
X137157413Y-88002992D01*
X137155800Y-88004278D01*
X137155792Y-88004284D01*
X136936810Y-88178916D01*
X136936800Y-88178924D01*
X136935191Y-88180208D01*
X136933733Y-88181665D01*
X136933725Y-88181673D01*
X136893167Y-88222230D01*
X136893164Y-88222233D01*
X133887609Y-91227786D01*
X133887608Y-91227787D01*
X133887609Y-91227787D01*
X133887607Y-91227789D01*
X133848288Y-91267109D01*
X133837527Y-91277870D01*
X133833261Y-91281813D01*
X133688114Y-91405785D01*
X133678720Y-91412611D01*
X133518457Y-91510823D01*
X133508110Y-91516095D01*
X133334459Y-91588025D01*
X133323415Y-91591613D01*
X133140655Y-91635490D01*
X133129186Y-91637307D01*
X132939049Y-91652272D01*
X132933243Y-91652500D01*
X130017454Y-91652500D01*
X130017389Y-91652507D01*
X130017239Y-91652512D01*
X129920537Y-91652512D01*
X129920536Y-91652512D01*
X129918721Y-91652512D01*
X129916931Y-91652688D01*
X129916916Y-91652689D01*
X129642044Y-91679758D01*
X129642040Y-91679758D01*
X129640228Y-91679937D01*
X129638453Y-91680289D01*
X129638433Y-91680293D01*
X129367541Y-91734175D01*
X129367526Y-91734178D01*
X129365765Y-91734529D01*
X129364049Y-91735049D01*
X129364035Y-91735053D01*
X129099710Y-91815232D01*
X129099702Y-91815234D01*
X129097974Y-91815759D01*
X129096309Y-91816448D01*
X129096294Y-91816454D01*
X128841113Y-91922152D01*
X128841103Y-91922156D01*
X128839434Y-91922848D01*
X128837843Y-91923698D01*
X128837829Y-91923705D01*
X128594240Y-92053904D01*
X128594229Y-92053910D01*
X128592636Y-92054762D01*
X128591139Y-92055761D01*
X128591126Y-92055770D01*
X128361466Y-92209223D01*
X128361456Y-92209230D01*
X128359957Y-92210232D01*
X128358568Y-92211371D01*
X128358553Y-92211383D01*
X128145042Y-92386607D01*
X128145030Y-92386617D01*
X128143637Y-92387761D01*
X128142361Y-92389036D01*
X128142351Y-92389046D01*
X126353943Y-94177454D01*
X126353934Y-94177463D01*
X126352472Y-94178926D01*
X126351174Y-94180552D01*
X126351170Y-94180558D01*
X126180633Y-94394404D01*
X126179332Y-94396036D01*
X126178231Y-94397787D01*
X126178224Y-94397798D01*
X126032690Y-94629413D01*
X126032681Y-94629427D01*
X126031589Y-94631167D01*
X126030692Y-94633027D01*
X126030690Y-94633033D01*
X125912001Y-94879493D01*
X125911997Y-94879501D01*
X125911102Y-94881361D01*
X125910419Y-94883312D01*
X125910416Y-94883320D01*
X125820070Y-95141512D01*
X125820066Y-95141525D01*
X125819385Y-95143472D01*
X125818927Y-95145478D01*
X125818924Y-95145489D01*
X125758053Y-95412181D01*
X125758050Y-95412193D01*
X125757592Y-95414204D01*
X125757360Y-95416257D01*
X125757359Y-95416267D01*
X125726732Y-95688088D01*
X125726731Y-95688099D01*
X125726500Y-95690153D01*
X125726500Y-95692233D01*
X125726500Y-96385570D01*
X125726342Y-96390410D01*
X125714198Y-96575666D01*
X125712934Y-96585263D01*
X125677192Y-96764952D01*
X125674687Y-96774302D01*
X125615791Y-96947801D01*
X125612086Y-96956744D01*
X125531056Y-97121054D01*
X125526216Y-97129437D01*
X125424420Y-97281783D01*
X125418528Y-97289462D01*
X125296026Y-97429146D01*
X125292716Y-97432680D01*
X123632097Y-99093298D01*
X123599858Y-99112194D01*
X123562497Y-99112928D01*
X123554594Y-99111030D01*
X123554584Y-99111028D01*
X123551775Y-99110354D01*
X123548885Y-99110126D01*
X123548882Y-99110126D01*
X123364482Y-99095613D01*
X123364461Y-99095612D01*
X123363036Y-99095500D01*
X122236964Y-99095500D01*
X122235539Y-99095612D01*
X122235517Y-99095613D01*
X122051117Y-99110126D01*
X122051112Y-99110126D01*
X122048225Y-99110354D01*
X122045402Y-99111031D01*
X122045400Y-99111032D01*
X121805480Y-99168632D01*
X121805476Y-99168633D01*
X121802649Y-99169312D01*
X121799965Y-99170423D01*
X121799961Y-99170425D01*
X121572004Y-99264847D01*
X121571990Y-99264853D01*
X121569320Y-99265960D01*
X121566847Y-99267475D01*
X121566840Y-99267479D01*
X121356470Y-99396394D01*
X121356461Y-99396400D01*
X121353983Y-99397919D01*
X121351767Y-99399811D01*
X121351765Y-99399813D01*
X121164152Y-99560048D01*
X121164145Y-99560054D01*
X121161939Y-99561939D01*
X121160054Y-99564145D01*
X121160048Y-99564152D01*
X121062907Y-99677891D01*
X120997919Y-99753983D01*
X120996400Y-99756461D01*
X120996394Y-99756470D01*
X120867479Y-99966840D01*
X120867475Y-99966847D01*
X120865960Y-99969320D01*
X120864853Y-99971990D01*
X120864847Y-99972004D01*
X120770425Y-100199961D01*
X120769312Y-100202649D01*
X120768633Y-100205476D01*
X120768632Y-100205480D01*
X120721425Y-100402110D01*
X120710354Y-100448225D01*
X120710126Y-100451112D01*
X120710126Y-100451117D01*
X120698034Y-100604762D01*
X120690539Y-100700000D01*
X112254500Y-100700000D01*
X112254500Y-96500000D01*
X120690539Y-96500000D01*
X120710354Y-96751775D01*
X120769312Y-96997351D01*
X120770425Y-97000038D01*
X120864847Y-97227995D01*
X120864851Y-97228003D01*
X120865960Y-97230680D01*
X120867478Y-97233157D01*
X120867479Y-97233159D01*
X120899745Y-97285813D01*
X120997919Y-97446017D01*
X121161939Y-97638061D01*
X121353983Y-97802081D01*
X121569320Y-97934040D01*
X121572001Y-97935150D01*
X121572004Y-97935152D01*
X121639728Y-97963204D01*
X121802649Y-98030688D01*
X122048225Y-98089646D01*
X122236964Y-98104500D01*
X123361584Y-98104500D01*
X123363036Y-98104500D01*
X123551775Y-98089646D01*
X123797351Y-98030688D01*
X124030680Y-97934040D01*
X124246017Y-97802081D01*
X124438061Y-97638061D01*
X124602081Y-97446017D01*
X124734040Y-97230680D01*
X124830688Y-96997351D01*
X124889646Y-96751775D01*
X124909461Y-96500000D01*
X124889646Y-96248225D01*
X124830688Y-96002649D01*
X124753191Y-95815555D01*
X124735152Y-95772004D01*
X124735150Y-95772001D01*
X124734040Y-95769320D01*
X124602081Y-95553983D01*
X124438061Y-95361939D01*
X124246017Y-95197919D01*
X124243532Y-95196396D01*
X124243529Y-95196394D01*
X124033159Y-95067479D01*
X124033157Y-95067478D01*
X124030680Y-95065960D01*
X124028003Y-95064851D01*
X124027995Y-95064847D01*
X123800038Y-94970425D01*
X123797351Y-94969312D01*
X123734451Y-94954211D01*
X123583019Y-94917855D01*
X123551775Y-94910354D01*
X123548885Y-94910126D01*
X123548882Y-94910126D01*
X123364482Y-94895613D01*
X123364461Y-94895612D01*
X123363036Y-94895500D01*
X122236964Y-94895500D01*
X122235539Y-94895612D01*
X122235517Y-94895613D01*
X122051117Y-94910126D01*
X122051112Y-94910126D01*
X122048225Y-94910354D01*
X122045402Y-94911031D01*
X122045400Y-94911032D01*
X121805480Y-94968632D01*
X121805476Y-94968633D01*
X121802649Y-94969312D01*
X121799965Y-94970423D01*
X121799961Y-94970425D01*
X121572004Y-95064847D01*
X121571990Y-95064853D01*
X121569320Y-95065960D01*
X121566847Y-95067475D01*
X121566840Y-95067479D01*
X121356470Y-95196394D01*
X121356461Y-95196400D01*
X121353983Y-95197919D01*
X121351767Y-95199811D01*
X121351765Y-95199813D01*
X121164152Y-95360048D01*
X121164145Y-95360054D01*
X121161939Y-95361939D01*
X121160054Y-95364145D01*
X121160048Y-95364152D01*
X120999813Y-95551765D01*
X120997919Y-95553983D01*
X120996400Y-95556461D01*
X120996394Y-95556470D01*
X120867479Y-95766840D01*
X120867475Y-95766847D01*
X120865960Y-95769320D01*
X120864853Y-95771990D01*
X120864847Y-95772004D01*
X120770425Y-95999961D01*
X120769312Y-96002649D01*
X120768633Y-96005476D01*
X120768632Y-96005480D01*
X120720849Y-96204509D01*
X120710354Y-96248225D01*
X120710126Y-96251112D01*
X120710126Y-96251117D01*
X120699164Y-96390410D01*
X120690539Y-96500000D01*
X112254500Y-96500000D01*
X112254500Y-92300000D01*
X115190539Y-92300000D01*
X115190767Y-92302897D01*
X115207105Y-92510500D01*
X115210354Y-92551775D01*
X115211032Y-92554599D01*
X115232257Y-92643009D01*
X115269312Y-92797351D01*
X115270425Y-92800038D01*
X115364847Y-93027995D01*
X115364851Y-93028003D01*
X115365960Y-93030680D01*
X115367478Y-93033157D01*
X115367479Y-93033159D01*
X115449931Y-93167709D01*
X115497919Y-93246017D01*
X115661939Y-93438061D01*
X115853983Y-93602081D01*
X116069320Y-93734040D01*
X116072001Y-93735150D01*
X116072004Y-93735152D01*
X116119485Y-93754819D01*
X116302649Y-93830688D01*
X116548225Y-93889646D01*
X116736964Y-93904500D01*
X117861584Y-93904500D01*
X117863036Y-93904500D01*
X118051775Y-93889646D01*
X118297351Y-93830688D01*
X118530680Y-93734040D01*
X118746017Y-93602081D01*
X118938061Y-93438061D01*
X119102081Y-93246017D01*
X119234040Y-93030680D01*
X119330688Y-92797351D01*
X119389646Y-92551775D01*
X119409461Y-92300000D01*
X120690539Y-92300000D01*
X120690767Y-92302897D01*
X120707105Y-92510500D01*
X120710354Y-92551775D01*
X120711032Y-92554599D01*
X120732257Y-92643009D01*
X120769312Y-92797351D01*
X120770425Y-92800038D01*
X120864847Y-93027995D01*
X120864851Y-93028003D01*
X120865960Y-93030680D01*
X120867478Y-93033157D01*
X120867479Y-93033159D01*
X120949931Y-93167709D01*
X120997919Y-93246017D01*
X121161939Y-93438061D01*
X121353983Y-93602081D01*
X121569320Y-93734040D01*
X121572001Y-93735150D01*
X121572004Y-93735152D01*
X121619485Y-93754819D01*
X121802649Y-93830688D01*
X122048225Y-93889646D01*
X122236964Y-93904500D01*
X123361584Y-93904500D01*
X123363036Y-93904500D01*
X123551775Y-93889646D01*
X123797351Y-93830688D01*
X124030680Y-93734040D01*
X124246017Y-93602081D01*
X124438061Y-93438061D01*
X124602081Y-93246017D01*
X124734040Y-93030680D01*
X124830688Y-92797351D01*
X124889646Y-92551775D01*
X124909461Y-92300000D01*
X124889646Y-92048225D01*
X124830688Y-91802649D01*
X124734040Y-91569320D01*
X124602081Y-91353983D01*
X124438061Y-91161939D01*
X124416916Y-91143880D01*
X124393251Y-91123668D01*
X124246017Y-90997919D01*
X124243532Y-90996396D01*
X124243529Y-90996394D01*
X124033159Y-90867479D01*
X124033157Y-90867478D01*
X124030680Y-90865960D01*
X124028003Y-90864851D01*
X124027995Y-90864847D01*
X123980080Y-90845000D01*
X129420715Y-90845000D01*
X129421348Y-90849808D01*
X129429303Y-90910237D01*
X129439772Y-90989754D01*
X129441625Y-90994227D01*
X129441626Y-90994231D01*
X129471565Y-91066510D01*
X129495645Y-91124643D01*
X129584526Y-91240474D01*
X129700357Y-91329355D01*
X129835246Y-91385228D01*
X129980000Y-91404285D01*
X130124754Y-91385228D01*
X130259643Y-91329355D01*
X130298171Y-91299791D01*
X130343218Y-91284500D01*
X132251874Y-91284500D01*
X132291880Y-91296246D01*
X132368760Y-91345654D01*
X132501058Y-91384500D01*
X132633650Y-91384500D01*
X132638942Y-91384500D01*
X132771240Y-91345654D01*
X132887235Y-91271109D01*
X132977529Y-91166903D01*
X133034808Y-91041480D01*
X133054431Y-90905000D01*
X133034808Y-90768520D01*
X132977529Y-90643097D01*
X132960710Y-90623687D01*
X132914050Y-90569837D01*
X132887235Y-90538891D01*
X132872600Y-90529486D01*
X132791509Y-90477372D01*
X132771240Y-90464346D01*
X132766167Y-90462856D01*
X132766164Y-90462855D01*
X132644017Y-90426990D01*
X132644016Y-90426989D01*
X132638942Y-90425500D01*
X132501058Y-90425500D01*
X132495984Y-90426989D01*
X132495982Y-90426990D01*
X132373835Y-90462855D01*
X132373829Y-90462857D01*
X132368760Y-90464346D01*
X132364311Y-90467204D01*
X132364309Y-90467206D01*
X132291881Y-90513753D01*
X132251874Y-90525500D01*
X130470263Y-90525500D01*
X130437534Y-90517869D01*
X130411555Y-90496548D01*
X130375474Y-90449526D01*
X130371340Y-90446354D01*
X130283480Y-90378936D01*
X130259643Y-90360645D01*
X130232593Y-90349440D01*
X130129231Y-90306626D01*
X130129227Y-90306625D01*
X130124754Y-90304772D01*
X130119950Y-90304139D01*
X130119948Y-90304139D01*
X129984808Y-90286348D01*
X129980000Y-90285715D01*
X129975192Y-90286348D01*
X129840051Y-90304139D01*
X129840047Y-90304139D01*
X129835246Y-90304772D01*
X129830773Y-90306624D01*
X129830768Y-90306626D01*
X129704837Y-90358789D01*
X129704832Y-90358791D01*
X129700358Y-90360645D01*
X129696513Y-90363594D01*
X129696510Y-90363597D01*
X129588376Y-90446571D01*
X129588374Y-90446573D01*
X129584526Y-90449526D01*
X129581574Y-90453372D01*
X129581571Y-90453376D01*
X129498597Y-90561510D01*
X129498594Y-90561513D01*
X129495645Y-90565358D01*
X129493791Y-90569832D01*
X129493789Y-90569837D01*
X129441626Y-90695768D01*
X129441624Y-90695773D01*
X129439772Y-90700246D01*
X129439139Y-90705047D01*
X129439139Y-90705051D01*
X129430769Y-90768632D01*
X129420715Y-90845000D01*
X123980080Y-90845000D01*
X123800038Y-90770425D01*
X123797351Y-90769312D01*
X123773992Y-90763704D01*
X123554599Y-90711032D01*
X123551775Y-90710354D01*
X123548885Y-90710126D01*
X123548882Y-90710126D01*
X123364482Y-90695613D01*
X123364461Y-90695612D01*
X123363036Y-90695500D01*
X122236964Y-90695500D01*
X122235539Y-90695612D01*
X122235517Y-90695613D01*
X122051117Y-90710126D01*
X122051112Y-90710126D01*
X122048225Y-90710354D01*
X122045402Y-90711031D01*
X122045400Y-90711032D01*
X121805480Y-90768632D01*
X121805476Y-90768633D01*
X121802649Y-90769312D01*
X121799965Y-90770423D01*
X121799961Y-90770425D01*
X121572004Y-90864847D01*
X121571990Y-90864853D01*
X121569320Y-90865960D01*
X121566847Y-90867475D01*
X121566840Y-90867479D01*
X121356470Y-90996394D01*
X121356461Y-90996400D01*
X121353983Y-90997919D01*
X121351767Y-90999811D01*
X121351765Y-90999813D01*
X121164152Y-91160048D01*
X121164145Y-91160054D01*
X121161939Y-91161939D01*
X121160054Y-91164145D01*
X121160048Y-91164152D01*
X120999813Y-91351765D01*
X120997919Y-91353983D01*
X120996400Y-91356461D01*
X120996394Y-91356470D01*
X120867479Y-91566840D01*
X120867475Y-91566847D01*
X120865960Y-91569320D01*
X120864853Y-91571990D01*
X120864847Y-91572004D01*
X120770425Y-91799961D01*
X120769312Y-91802649D01*
X120768633Y-91805476D01*
X120768632Y-91805480D01*
X120740249Y-91923705D01*
X120710354Y-92048225D01*
X120710126Y-92051112D01*
X120710126Y-92051117D01*
X120697683Y-92209223D01*
X120690539Y-92300000D01*
X119409461Y-92300000D01*
X119392678Y-92086763D01*
X119397024Y-92055347D01*
X119414122Y-92028636D01*
X120242706Y-91200054D01*
X120242719Y-91200034D01*
X120242731Y-91200021D01*
X120314318Y-91128436D01*
X120483090Y-90916805D01*
X120627106Y-90687608D01*
X120673832Y-90590579D01*
X120683080Y-90571378D01*
X120710382Y-90540828D01*
X120749752Y-90529486D01*
X120966359Y-90529486D01*
X120969999Y-90529486D01*
X121069300Y-90509734D01*
X121078884Y-90503329D01*
X121119999Y-90490856D01*
X121161113Y-90503329D01*
X121170698Y-90509734D01*
X121269999Y-90529486D01*
X121839239Y-90529486D01*
X121841888Y-90529486D01*
X121914993Y-90518975D01*
X122052948Y-90478468D01*
X122120131Y-90447787D01*
X122241085Y-90370055D01*
X122296905Y-90321687D01*
X122391059Y-90213026D01*
X122430987Y-90150895D01*
X122490715Y-90020110D01*
X122511524Y-89949244D01*
X122531986Y-89806929D01*
X122531986Y-89733071D01*
X122530238Y-89720913D01*
X122529485Y-89710382D01*
X122529485Y-89329618D01*
X122530238Y-89319087D01*
X122531609Y-89309549D01*
X122531986Y-89306929D01*
X122531986Y-89233071D01*
X122511524Y-89090756D01*
X122490715Y-89019890D01*
X122430987Y-88889105D01*
X122391059Y-88826974D01*
X122296905Y-88718313D01*
X122294918Y-88716591D01*
X122294911Y-88716584D01*
X122250040Y-88677704D01*
X122231186Y-88652519D01*
X122224499Y-88621778D01*
X122224499Y-87160169D01*
X122224499Y-87160163D01*
X122224501Y-87160157D01*
X122224499Y-87103225D01*
X122224727Y-87097421D01*
X122225350Y-87089500D01*
X122234206Y-86976929D01*
X122236019Y-86965484D01*
X122263556Y-86850774D01*
X122267139Y-86839748D01*
X122312273Y-86730781D01*
X122317538Y-86720446D01*
X122379175Y-86619862D01*
X122385989Y-86610485D01*
X122464380Y-86518700D01*
X122468300Y-86514459D01*
X122508691Y-86474070D01*
X122508692Y-86474067D01*
X122664067Y-86318692D01*
X122664070Y-86318691D01*
X122704338Y-86278421D01*
X122708579Y-86274501D01*
X122816790Y-86182080D01*
X122826174Y-86175262D01*
X122895932Y-86132516D01*
X122945017Y-86102437D01*
X122955359Y-86097167D01*
X123084134Y-86043826D01*
X123095154Y-86040245D01*
X123230685Y-86007708D01*
X123242143Y-86005892D01*
X123384002Y-85994727D01*
X123389808Y-85994500D01*
X123446735Y-85994500D01*
X124346330Y-85994500D01*
X124391379Y-86009792D01*
X124410357Y-86024355D01*
X124545246Y-86080228D01*
X124690000Y-86099285D01*
X124834754Y-86080228D01*
X124969643Y-86024355D01*
X125085474Y-85935474D01*
X125174355Y-85819643D01*
X125230228Y-85684754D01*
X125245147Y-85571434D01*
X142055500Y-85571434D01*
X142055501Y-85575066D01*
X142056210Y-85578632D01*
X142056211Y-85578639D01*
X142060427Y-85599835D01*
X142070266Y-85649301D01*
X142126516Y-85733484D01*
X142210699Y-85789734D01*
X142284933Y-85804500D01*
X144035066Y-85804499D01*
X144109301Y-85789734D01*
X144193484Y-85733484D01*
X144249734Y-85649301D01*
X144264500Y-85575067D01*
X144264499Y-83824934D01*
X144249734Y-83750699D01*
X144193484Y-83666516D01*
X144187426Y-83662468D01*
X144115360Y-83614314D01*
X144115357Y-83614313D01*
X144109301Y-83610266D01*
X144093229Y-83607069D01*
X144038637Y-83596210D01*
X144038635Y-83596209D01*
X144035067Y-83595500D01*
X144031427Y-83595500D01*
X142288575Y-83595500D01*
X142288564Y-83595500D01*
X142284934Y-83595501D01*
X142281368Y-83596210D01*
X142281360Y-83596211D01*
X142217848Y-83608844D01*
X142210699Y-83610266D01*
X142204642Y-83614313D01*
X142204640Y-83614314D01*
X142132573Y-83662468D01*
X142132570Y-83662470D01*
X142126516Y-83666516D01*
X142122470Y-83672570D01*
X142122468Y-83672573D01*
X142074314Y-83744639D01*
X142074312Y-83744643D01*
X142070266Y-83750699D01*
X142068844Y-83757846D01*
X142068844Y-83757847D01*
X142056211Y-83821360D01*
X142055500Y-83824933D01*
X142055500Y-83828571D01*
X142055500Y-83828572D01*
X142055500Y-85571424D01*
X142055500Y-85571434D01*
X125245147Y-85571434D01*
X125249285Y-85540000D01*
X125230228Y-85395246D01*
X125174355Y-85260358D01*
X125114185Y-85181943D01*
X125088428Y-85148375D01*
X125088425Y-85148372D01*
X125085474Y-85144526D01*
X125023812Y-85097211D01*
X124973490Y-85058597D01*
X124969643Y-85055645D01*
X124902924Y-85028009D01*
X124839231Y-85001626D01*
X124839227Y-85001625D01*
X124834754Y-84999772D01*
X124829950Y-84999139D01*
X124829948Y-84999139D01*
X124694808Y-84981348D01*
X124690000Y-84980715D01*
X124685192Y-84981348D01*
X124550051Y-84999139D01*
X124550047Y-84999139D01*
X124545246Y-84999772D01*
X124540773Y-85001624D01*
X124540768Y-85001626D01*
X124414837Y-85053789D01*
X124414832Y-85053791D01*
X124410358Y-85055645D01*
X124406513Y-85058594D01*
X124406510Y-85058597D01*
X124391379Y-85070208D01*
X124346331Y-85085500D01*
X123266668Y-85085500D01*
X123266653Y-85085500D01*
X123264240Y-85085501D01*
X123261847Y-85085815D01*
X123261832Y-85085817D01*
X123023421Y-85117205D01*
X123023416Y-85117205D01*
X123021023Y-85117521D01*
X123018685Y-85118147D01*
X123018682Y-85118148D01*
X122786414Y-85180384D01*
X122786402Y-85180388D01*
X122784066Y-85181014D01*
X122781828Y-85181940D01*
X122781822Y-85181943D01*
X122559663Y-85273964D01*
X122559655Y-85273967D01*
X122557424Y-85274892D01*
X122555329Y-85276101D01*
X122555324Y-85276104D01*
X122347074Y-85396337D01*
X122347061Y-85396345D01*
X122344975Y-85397550D01*
X122343057Y-85399021D01*
X122343049Y-85399027D01*
X122152274Y-85545413D01*
X122152265Y-85545420D01*
X122150353Y-85546888D01*
X122148650Y-85548590D01*
X122148643Y-85548597D01*
X122063620Y-85633620D01*
X122021309Y-85675930D01*
X122021308Y-85675931D01*
X121823651Y-85873586D01*
X121823614Y-85873614D01*
X121823610Y-85873610D01*
X121823578Y-85873641D01*
X121823574Y-85873645D01*
X121744916Y-85952305D01*
X121744909Y-85952312D01*
X121743207Y-85954015D01*
X121741739Y-85955927D01*
X121741732Y-85955936D01*
X121606238Y-86132516D01*
X121606231Y-86132526D01*
X121604765Y-86134437D01*
X121603556Y-86136530D01*
X121603554Y-86136534D01*
X121492273Y-86329281D01*
X121492267Y-86329291D01*
X121491058Y-86331387D01*
X121490134Y-86333617D01*
X121490127Y-86333632D01*
X121404958Y-86539256D01*
X121404953Y-86539269D01*
X121404032Y-86541494D01*
X121403406Y-86543828D01*
X121403406Y-86543830D01*
X121345803Y-86758820D01*
X121345800Y-86758831D01*
X121345176Y-86761163D01*
X121344859Y-86763564D01*
X121344859Y-86763569D01*
X121317538Y-86971133D01*
X121315497Y-86986635D01*
X121315497Y-86989063D01*
X121315497Y-86989064D01*
X121315499Y-87089500D01*
X121315499Y-88440733D01*
X121298702Y-88487678D01*
X121255936Y-88513311D01*
X121177844Y-88528844D01*
X121177841Y-88528845D01*
X121170698Y-88530266D01*
X121164643Y-88534311D01*
X121164635Y-88534315D01*
X121161104Y-88536675D01*
X121119995Y-88549142D01*
X121078888Y-88536672D01*
X121075364Y-88534317D01*
X121075360Y-88534315D01*
X121069300Y-88530266D01*
X121062149Y-88528843D01*
X121062148Y-88528843D01*
X120973569Y-88511224D01*
X120973567Y-88511223D01*
X120969999Y-88510514D01*
X120398110Y-88510514D01*
X120395500Y-88510889D01*
X120395489Y-88510890D01*
X120327614Y-88520649D01*
X120327602Y-88520651D01*
X120325005Y-88521025D01*
X120322480Y-88521766D01*
X120322477Y-88521767D01*
X120189578Y-88560789D01*
X120189568Y-88560792D01*
X120187050Y-88561532D01*
X120184662Y-88562622D01*
X120184650Y-88562627D01*
X120122278Y-88591111D01*
X120122267Y-88591116D01*
X120119867Y-88592213D01*
X120117648Y-88593638D01*
X120117637Y-88593645D01*
X120001137Y-88668515D01*
X120001130Y-88668520D01*
X119998913Y-88669945D01*
X119996929Y-88671663D01*
X119996917Y-88671673D01*
X119945079Y-88716591D01*
X119945070Y-88716599D01*
X119943093Y-88718313D01*
X119941373Y-88720297D01*
X119941368Y-88720303D01*
X119850666Y-88824980D01*
X119850661Y-88824986D01*
X119848939Y-88826974D01*
X119847518Y-88829183D01*
X119847512Y-88829193D01*
X119810436Y-88886886D01*
X119810430Y-88886896D01*
X119809011Y-88889105D01*
X119807920Y-88891492D01*
X119807916Y-88891501D01*
X119750376Y-89017494D01*
X119750370Y-89017508D01*
X119749283Y-89019890D01*
X119748540Y-89022418D01*
X119748540Y-89022420D01*
X119729218Y-89088220D01*
X119729216Y-89088228D01*
X119728474Y-89090756D01*
X119728098Y-89093364D01*
X119728098Y-89093369D01*
X119708388Y-89230450D01*
X119708387Y-89230461D01*
X119708012Y-89233071D01*
X119708012Y-89306929D01*
X119708387Y-89309539D01*
X119708388Y-89309549D01*
X119709760Y-89319087D01*
X119710513Y-89329618D01*
X119710513Y-89710382D01*
X119709760Y-89720913D01*
X119708388Y-89730450D01*
X119708387Y-89730461D01*
X119708012Y-89733071D01*
X119708012Y-89806929D01*
X119708387Y-89809539D01*
X119708388Y-89809549D01*
X119728098Y-89946630D01*
X119728474Y-89949244D01*
X119749283Y-90020110D01*
X119750372Y-90022495D01*
X119750376Y-90022505D01*
X119807916Y-90148498D01*
X119809011Y-90150895D01*
X119810432Y-90153106D01*
X119810439Y-90153119D01*
X119822810Y-90172369D01*
X119834439Y-90208196D01*
X119826925Y-90245106D01*
X119816543Y-90266157D01*
X119811704Y-90274538D01*
X119708013Y-90429723D01*
X119702120Y-90437403D01*
X119577407Y-90579608D01*
X119574097Y-90583142D01*
X119533550Y-90623689D01*
X119017302Y-91139936D01*
X118985993Y-91158563D01*
X118949591Y-91159993D01*
X118916917Y-91143880D01*
X118826327Y-91066510D01*
X118746017Y-90997919D01*
X118743532Y-90996396D01*
X118743529Y-90996394D01*
X118533159Y-90867479D01*
X118533157Y-90867478D01*
X118530680Y-90865960D01*
X118528003Y-90864851D01*
X118527995Y-90864847D01*
X118300038Y-90770425D01*
X118297351Y-90769312D01*
X118273992Y-90763704D01*
X118054599Y-90711032D01*
X118051775Y-90710354D01*
X118048885Y-90710126D01*
X118048882Y-90710126D01*
X117864482Y-90695613D01*
X117864461Y-90695612D01*
X117863036Y-90695500D01*
X116736964Y-90695500D01*
X116735539Y-90695612D01*
X116735517Y-90695613D01*
X116551117Y-90710126D01*
X116551112Y-90710126D01*
X116548225Y-90710354D01*
X116545402Y-90711031D01*
X116545400Y-90711032D01*
X116305480Y-90768632D01*
X116305476Y-90768633D01*
X116302649Y-90769312D01*
X116299965Y-90770423D01*
X116299961Y-90770425D01*
X116072004Y-90864847D01*
X116071990Y-90864853D01*
X116069320Y-90865960D01*
X116066847Y-90867475D01*
X116066840Y-90867479D01*
X115856470Y-90996394D01*
X115856461Y-90996400D01*
X115853983Y-90997919D01*
X115851767Y-90999811D01*
X115851765Y-90999813D01*
X115664152Y-91160048D01*
X115664145Y-91160054D01*
X115661939Y-91161939D01*
X115660054Y-91164145D01*
X115660048Y-91164152D01*
X115499813Y-91351765D01*
X115497919Y-91353983D01*
X115496400Y-91356461D01*
X115496394Y-91356470D01*
X115367479Y-91566840D01*
X115367475Y-91566847D01*
X115365960Y-91569320D01*
X115364853Y-91571990D01*
X115364847Y-91572004D01*
X115270425Y-91799961D01*
X115269312Y-91802649D01*
X115268633Y-91805476D01*
X115268632Y-91805480D01*
X115240249Y-91923705D01*
X115210354Y-92048225D01*
X115210126Y-92051112D01*
X115210126Y-92051117D01*
X115197683Y-92209223D01*
X115190539Y-92300000D01*
X112254500Y-92300000D01*
X112254500Y-86002083D01*
X112254616Y-85997934D01*
X112255908Y-85974933D01*
X112271530Y-85696735D01*
X112272460Y-85688497D01*
X112274595Y-85675931D01*
X112322640Y-85393156D01*
X112324479Y-85385096D01*
X112407422Y-85097196D01*
X112410152Y-85089393D01*
X112524804Y-84812600D01*
X112528392Y-84805148D01*
X112669408Y-84550000D01*
X134625569Y-84550000D01*
X134645192Y-84686480D01*
X134702471Y-84811903D01*
X134705932Y-84815898D01*
X134705934Y-84815900D01*
X134789299Y-84912109D01*
X134792765Y-84916109D01*
X134908760Y-84990654D01*
X135041058Y-85029500D01*
X135173650Y-85029500D01*
X135178942Y-85029500D01*
X135311240Y-84990654D01*
X135427235Y-84916109D01*
X135517529Y-84811903D01*
X135574808Y-84686480D01*
X135594431Y-84550000D01*
X135574808Y-84413520D01*
X135517529Y-84288097D01*
X135427235Y-84183891D01*
X135311240Y-84109346D01*
X135306167Y-84107856D01*
X135306164Y-84107855D01*
X135184017Y-84071990D01*
X135184016Y-84071989D01*
X135178942Y-84070500D01*
X135041058Y-84070500D01*
X135035984Y-84071989D01*
X135035982Y-84071990D01*
X134913835Y-84107855D01*
X134913829Y-84107857D01*
X134908760Y-84109346D01*
X134904311Y-84112204D01*
X134904309Y-84112206D01*
X134797217Y-84181029D01*
X134797213Y-84181032D01*
X134792765Y-84183891D01*
X134789302Y-84187886D01*
X134789299Y-84187890D01*
X134705934Y-84284099D01*
X134705930Y-84284104D01*
X134702471Y-84288097D01*
X134645192Y-84413520D01*
X134644439Y-84418756D01*
X134644438Y-84418760D01*
X134629816Y-84520460D01*
X134625569Y-84550000D01*
X112669408Y-84550000D01*
X112673320Y-84542921D01*
X112677706Y-84535941D01*
X112851096Y-84291571D01*
X112856228Y-84285135D01*
X113055881Y-84061722D01*
X113061722Y-84055881D01*
X113285135Y-83856228D01*
X113291571Y-83851096D01*
X113535941Y-83677706D01*
X113542921Y-83673320D01*
X113805148Y-83528392D01*
X113812600Y-83524804D01*
X114089393Y-83410152D01*
X114097196Y-83407422D01*
X114385096Y-83324479D01*
X114393156Y-83322640D01*
X114688505Y-83272459D01*
X114696735Y-83271530D01*
X114997934Y-83254615D01*
X115002083Y-83254500D01*
X115044875Y-83254500D01*
X144490337Y-83254500D01*
X144527310Y-83264398D01*
G37*
%TD.AperFunction*%
%TD*%
M02*
