%TF.GenerationSoftware,KiCad,Pcbnew,(7.0.0)*%
%TF.CreationDate,2023-03-31T05:55:35+01:00*%
%TF.ProjectId,CANRepIso,43414e52-6570-4497-936f-2e6b69636164,rev?*%
%TF.SameCoordinates,Original*%
%TF.FileFunction,Copper,L2,Inr*%
%TF.FilePolarity,Positive*%
%FSLAX46Y46*%
G04 Gerber Fmt 4.6, Leading zero omitted, Abs format (unit mm)*
G04 Created by KiCad (PCBNEW (7.0.0)) date 2023-03-31 05:55:35*
%MOMM*%
%LPD*%
G01*
G04 APERTURE LIST*
G04 Aperture macros list*
%AMRoundRect*
0 Rectangle with rounded corners*
0 $1 Rounding radius*
0 $2 $3 $4 $5 $6 $7 $8 $9 X,Y pos of 4 corners*
0 Add a 4 corners polygon primitive as box body*
4,1,4,$2,$3,$4,$5,$6,$7,$8,$9,$2,$3,0*
0 Add four circle primitives for the rounded corners*
1,1,$1+$1,$2,$3*
1,1,$1+$1,$4,$5*
1,1,$1+$1,$6,$7*
1,1,$1+$1,$8,$9*
0 Add four rect primitives between the rounded corners*
20,1,$1+$1,$2,$3,$4,$5,0*
20,1,$1+$1,$4,$5,$6,$7,0*
20,1,$1+$1,$6,$7,$8,$9,0*
20,1,$1+$1,$8,$9,$2,$3,0*%
G04 Aperture macros list end*
%TA.AperFunction,ComponentPad*%
%ADD10R,1.700000X1.700000*%
%TD*%
%TA.AperFunction,ComponentPad*%
%ADD11RoundRect,0.250001X-1.599999X1.099999X-1.599999X-1.099999X1.599999X-1.099999X1.599999X1.099999X0*%
%TD*%
%TA.AperFunction,ComponentPad*%
%ADD12O,3.700000X2.700000*%
%TD*%
%TA.AperFunction,ComponentPad*%
%ADD13RoundRect,0.250001X1.599999X-1.099999X1.599999X1.099999X-1.599999X1.099999X-1.599999X-1.099999X0*%
%TD*%
%TA.AperFunction,ComponentPad*%
%ADD14C,5.600000*%
%TD*%
%TA.AperFunction,ViaPad*%
%ADD15C,0.450000*%
%TD*%
%TA.AperFunction,ViaPad*%
%ADD16C,0.600000*%
%TD*%
G04 APERTURE END LIST*
D10*
%TO.N,/Deploy2*%
%TO.C,TP12*%
X149040999Y-88191999D03*
%TD*%
%TO.N,/Deploy1*%
%TO.C,TP11*%
X143157999Y-88193999D03*
%TD*%
%TO.N,GND1*%
%TO.C,TP10*%
X148978999Y-108227999D03*
%TD*%
%TO.N,+3.3VA*%
%TO.C,TP9*%
X149039999Y-84709999D03*
%TD*%
%TO.N,GND*%
%TO.C,TP8*%
X143243999Y-108254999D03*
%TD*%
%TO.N,+3V3*%
%TO.C,TP7*%
X143159999Y-84699999D03*
%TD*%
D11*
%TO.N,GND1*%
%TO.C,RBUS2*%
X163700000Y-92300000D03*
D12*
X163699999Y-96499999D03*
%TO.N,/RBUS_uC_V2*%
X163699999Y-100699999D03*
%TO.N,/Deploy2*%
X158199999Y-92299999D03*
%TO.N,/CAN_OUT_+*%
X158199999Y-96499999D03*
%TO.N,/CAN_OUT_-*%
X158199999Y-100699999D03*
%TD*%
D13*
%TO.N,GND*%
%TO.C,RBUS1*%
X117300000Y-100700000D03*
D12*
X117299999Y-96499999D03*
%TO.N,/RBUS_uC_V1*%
X117299999Y-92299999D03*
%TO.N,/Deploy1*%
X122799999Y-100699999D03*
%TO.N,/CAN_IN_+*%
X122799999Y-96499999D03*
%TO.N,/CAN_IN_-*%
X122799999Y-92299999D03*
%TD*%
D14*
%TO.N,GND1*%
%TO.C,H4*%
X166000000Y-107000000D03*
%TD*%
%TO.N,GND1*%
%TO.C,H3*%
X166000000Y-86000000D03*
%TD*%
%TO.N,GND*%
%TO.C,H2*%
X115000000Y-107000000D03*
%TD*%
%TO.N,GND*%
%TO.C,H1*%
X115000000Y-86000000D03*
%TD*%
D15*
%TO.N,GND*%
X119600000Y-105000000D03*
%TO.N,GND1*%
X152700000Y-99900000D03*
X151400000Y-97700000D03*
X153600000Y-96700000D03*
%TO.N,GND*%
X137500000Y-86100000D03*
X129400000Y-108700000D03*
X129900000Y-96400000D03*
%TO.N,GND1*%
X153100000Y-93800000D03*
%TO.N,GND*%
X120300000Y-104000000D03*
X132900000Y-84600000D03*
X124700000Y-87900000D03*
X126900000Y-104300000D03*
%TO.N,GND1*%
X148400000Y-90200000D03*
X153000000Y-95600000D03*
X156600000Y-85200000D03*
X159300000Y-86600000D03*
X147827478Y-100646442D03*
X147824457Y-84552920D03*
X147824457Y-102052920D03*
X147824457Y-107052920D03*
X147824457Y-104552920D03*
X147824457Y-87052920D03*
X147824457Y-89552920D03*
X168514555Y-94495486D03*
X168514555Y-99495486D03*
X168514555Y-91995486D03*
X168514555Y-104495486D03*
X168514555Y-101995486D03*
X168514555Y-89495486D03*
X168514555Y-96995486D03*
X153503009Y-83481945D03*
X151003009Y-83481945D03*
X148503009Y-83481945D03*
X161003009Y-83481945D03*
X163503009Y-83481945D03*
X156003009Y-83481945D03*
X158503009Y-83481945D03*
X150999543Y-109516584D03*
X148499543Y-109516584D03*
X160999543Y-109516584D03*
X158499543Y-109516584D03*
X163499543Y-109516584D03*
X155999543Y-109516584D03*
X153499543Y-109516584D03*
%TO.N,GND*%
X112486459Y-98477431D03*
X112486459Y-100977431D03*
X112486459Y-88477431D03*
X112486459Y-90977431D03*
X112486459Y-93477431D03*
X112486459Y-95977431D03*
X112486459Y-103477432D03*
X144319454Y-90243736D03*
X144337873Y-108483858D03*
X144337873Y-105983858D03*
X144337873Y-100983857D03*
X144337873Y-88483857D03*
X144337873Y-85983857D03*
X144337873Y-83483857D03*
X144337873Y-103483858D03*
X117493981Y-83482435D03*
X119993981Y-83482435D03*
X127493981Y-83482435D03*
X124993981Y-83482435D03*
X137493981Y-83482435D03*
X134993981Y-83482435D03*
X139993981Y-83482435D03*
X114993981Y-83482435D03*
X132493981Y-83482435D03*
X129993981Y-83482435D03*
X142493981Y-83482435D03*
X122493981Y-83482435D03*
X137502674Y-109521398D03*
X135002674Y-109521398D03*
X142502674Y-109521398D03*
X140002674Y-109521398D03*
X127502674Y-109521398D03*
X125002674Y-109521398D03*
X132502674Y-109521398D03*
X130002674Y-109521398D03*
X122502674Y-109521398D03*
X120002674Y-109521398D03*
X117502674Y-109521398D03*
D16*
X133017000Y-97257000D03*
X127264000Y-90780000D03*
%TO.N,GND1*%
X154337000Y-101649000D03*
%TO.N,GND*%
X131584000Y-99062000D03*
X137433000Y-103616000D03*
D15*
X123295000Y-106218000D03*
X124884000Y-106345000D03*
X127510000Y-106925000D03*
D16*
%TO.N,GND1*%
X160962000Y-105177000D03*
X157354000Y-108163000D03*
X157359000Y-106058000D03*
X160320000Y-107009000D03*
D15*
X150231000Y-96923000D03*
%TO.N,+3.3VA*%
X155691000Y-87527000D03*
X149440000Y-104670000D03*
X152015000Y-90500000D03*
X151540000Y-96290000D03*
X152110000Y-95670000D03*
%TO.N,/Vref2*%
X151670000Y-106140000D03*
D16*
X155090000Y-107040000D03*
D15*
%TO.N,+3.3VA*%
X150270000Y-94800000D03*
X150890000Y-95410000D03*
%TO.N,GND*%
X137220000Y-90820000D03*
%TO.N,+3V3*%
X135110000Y-84550000D03*
D16*
%TO.N,GND*%
X127410000Y-86290000D03*
X129980000Y-86640000D03*
X128930000Y-88900000D03*
X131070000Y-88880000D03*
D15*
X133850000Y-104860000D03*
X132386000Y-108228000D03*
%TO.N,+3V3*%
X130870000Y-108370000D03*
%TO.N,GND*%
X129050000Y-103490000D03*
X128460000Y-102920000D03*
X135440000Y-95560000D03*
X134740000Y-95510000D03*
X136210000Y-99100000D03*
X141972000Y-96853000D03*
%TO.N,/RX2*%
X138850000Y-105790000D03*
X125070000Y-105600000D03*
X134800000Y-106210000D03*
%TO.N,/TX2*%
X136110000Y-95680000D03*
D16*
X140680000Y-91350000D03*
D15*
%TO.N,+3V3*%
X141940000Y-94770000D03*
X141370000Y-95360000D03*
%TO.N,Net-(U1-2A)*%
X129210000Y-106900000D03*
X137090000Y-94280000D03*
%TO.N,/TX1*%
X128520000Y-96070000D03*
X135250000Y-92990000D03*
%TO.N,+3V3*%
X123900000Y-104370000D03*
X135230000Y-99150000D03*
X126960000Y-103510000D03*
X127510000Y-102950000D03*
X126082500Y-102580000D03*
%TO.N,GND*%
X129040000Y-100050000D03*
%TO.N,+3V3*%
X119506800Y-106453201D03*
%TO.N,GND*%
X119053000Y-87551000D03*
X129065000Y-99090001D03*
%TO.N,+3V3*%
X131305000Y-100040001D03*
X130675000Y-100610001D03*
%TO.N,/Vref*%
X132570000Y-90905000D03*
D16*
X129980000Y-90845000D03*
%TO.N,+3V3*%
X124690000Y-85540000D03*
%TD*%
%TA.AperFunction,Conductor*%
%TO.N,GND*%
G36*
X144527310Y-83264398D02*
G01*
X144554391Y-83291445D01*
X144564336Y-83328401D01*
X144580487Y-95951219D01*
X144590942Y-104121972D01*
X144598043Y-109671405D01*
X144588160Y-109708445D01*
X144561070Y-109735570D01*
X144524043Y-109745500D01*
X115002083Y-109745500D01*
X114997934Y-109745384D01*
X114696743Y-109728469D01*
X114688497Y-109727539D01*
X114393172Y-109677362D01*
X114385081Y-109675516D01*
X114097211Y-109592582D01*
X114089378Y-109589841D01*
X113812605Y-109475197D01*
X113805134Y-109471599D01*
X113542934Y-109326686D01*
X113535929Y-109322285D01*
X113291582Y-109148911D01*
X113285124Y-109143761D01*
X113061731Y-108944126D01*
X113055873Y-108938268D01*
X112856236Y-108714873D01*
X112851090Y-108708419D01*
X112677711Y-108464066D01*
X112673316Y-108457070D01*
X112625194Y-108370000D01*
X130439196Y-108370000D01*
X130460281Y-108503126D01*
X130521472Y-108623220D01*
X130616780Y-108718528D01*
X130736874Y-108779719D01*
X130870000Y-108800804D01*
X131003126Y-108779719D01*
X131123220Y-108718528D01*
X131218528Y-108623220D01*
X131279719Y-108503126D01*
X131300804Y-108370000D01*
X131279719Y-108236874D01*
X131218528Y-108116780D01*
X131123220Y-108021472D01*
X131003126Y-107960281D01*
X130997372Y-107959369D01*
X130997370Y-107959369D01*
X130875752Y-107940107D01*
X130870000Y-107939196D01*
X130864248Y-107940107D01*
X130742629Y-107959369D01*
X130742625Y-107959369D01*
X130736874Y-107960281D01*
X130731682Y-107962926D01*
X130731680Y-107962927D01*
X130621972Y-108018826D01*
X130621969Y-108018827D01*
X130616780Y-108021472D01*
X130612663Y-108025588D01*
X130612660Y-108025591D01*
X130525591Y-108112660D01*
X130525588Y-108112663D01*
X130521472Y-108116780D01*
X130518827Y-108121969D01*
X130518826Y-108121972D01*
X130481683Y-108194870D01*
X130460281Y-108236874D01*
X130459369Y-108242625D01*
X130459369Y-108242629D01*
X130440107Y-108364248D01*
X130439196Y-108370000D01*
X112625194Y-108370000D01*
X112528396Y-108194857D01*
X112524802Y-108187394D01*
X112493846Y-108112660D01*
X112410154Y-107910611D01*
X112407420Y-107902798D01*
X112324480Y-107614907D01*
X112322639Y-107606839D01*
X112272459Y-107311496D01*
X112271530Y-107303256D01*
X112268225Y-107244408D01*
X112254615Y-107002065D01*
X112254500Y-106997917D01*
X112254500Y-106900000D01*
X128779196Y-106900000D01*
X128780107Y-106905752D01*
X128795361Y-107002066D01*
X128800281Y-107033126D01*
X128861472Y-107153220D01*
X128956780Y-107248528D01*
X129076874Y-107309719D01*
X129210000Y-107330804D01*
X129343126Y-107309719D01*
X129463220Y-107248528D01*
X129558528Y-107153220D01*
X129619719Y-107033126D01*
X129640804Y-106900000D01*
X129619719Y-106766874D01*
X129558528Y-106646780D01*
X129463220Y-106551472D01*
X129343126Y-106490281D01*
X129337372Y-106489369D01*
X129337370Y-106489369D01*
X129215752Y-106470107D01*
X129210000Y-106469196D01*
X129204248Y-106470107D01*
X129082629Y-106489369D01*
X129082625Y-106489369D01*
X129076874Y-106490281D01*
X129071682Y-106492926D01*
X129071680Y-106492927D01*
X128961972Y-106548826D01*
X128961969Y-106548827D01*
X128956780Y-106551472D01*
X128952663Y-106555588D01*
X128952660Y-106555591D01*
X128865591Y-106642660D01*
X128865588Y-106642663D01*
X128861472Y-106646780D01*
X128858827Y-106651969D01*
X128858826Y-106651972D01*
X128802927Y-106761680D01*
X128800281Y-106766874D01*
X128799369Y-106772625D01*
X128799369Y-106772629D01*
X128781874Y-106883094D01*
X128779196Y-106900000D01*
X112254500Y-106900000D01*
X112254500Y-106453201D01*
X119075996Y-106453201D01*
X119076907Y-106458953D01*
X119092025Y-106554408D01*
X119097081Y-106586327D01*
X119158272Y-106706421D01*
X119253580Y-106801729D01*
X119373674Y-106862920D01*
X119506800Y-106884005D01*
X119639926Y-106862920D01*
X119760020Y-106801729D01*
X119855328Y-106706421D01*
X119916519Y-106586327D01*
X119937604Y-106453201D01*
X119916519Y-106320075D01*
X119860433Y-106210000D01*
X134369196Y-106210000D01*
X134370107Y-106215752D01*
X134387541Y-106325830D01*
X134390281Y-106343126D01*
X134451472Y-106463220D01*
X134546780Y-106558528D01*
X134666874Y-106619719D01*
X134800000Y-106640804D01*
X134933126Y-106619719D01*
X135053220Y-106558528D01*
X135148528Y-106463220D01*
X135209719Y-106343126D01*
X135230804Y-106210000D01*
X135209719Y-106076874D01*
X135148528Y-105956780D01*
X135053220Y-105861472D01*
X134933126Y-105800281D01*
X134927372Y-105799369D01*
X134927370Y-105799369D01*
X134868215Y-105790000D01*
X138419196Y-105790000D01*
X138420107Y-105795752D01*
X138428386Y-105848027D01*
X138440281Y-105923126D01*
X138501472Y-106043220D01*
X138596780Y-106138528D01*
X138716874Y-106199719D01*
X138850000Y-106220804D01*
X138983126Y-106199719D01*
X139103220Y-106138528D01*
X139198528Y-106043220D01*
X139259719Y-105923126D01*
X139280804Y-105790000D01*
X139259719Y-105656874D01*
X139198528Y-105536780D01*
X139103220Y-105441472D01*
X138983126Y-105380281D01*
X138977372Y-105379369D01*
X138977370Y-105379369D01*
X138855752Y-105360107D01*
X138850000Y-105359196D01*
X138844248Y-105360107D01*
X138722629Y-105379369D01*
X138722625Y-105379369D01*
X138716874Y-105380281D01*
X138711682Y-105382926D01*
X138711680Y-105382927D01*
X138601972Y-105438826D01*
X138601969Y-105438827D01*
X138596780Y-105441472D01*
X138592663Y-105445588D01*
X138592660Y-105445591D01*
X138505591Y-105532660D01*
X138505588Y-105532663D01*
X138501472Y-105536780D01*
X138498827Y-105541969D01*
X138498826Y-105541972D01*
X138442927Y-105651680D01*
X138440281Y-105656874D01*
X138439369Y-105662625D01*
X138439369Y-105662629D01*
X138428204Y-105733126D01*
X138419196Y-105790000D01*
X134868215Y-105790000D01*
X134805752Y-105780107D01*
X134800000Y-105779196D01*
X134794248Y-105780107D01*
X134672629Y-105799369D01*
X134672625Y-105799369D01*
X134666874Y-105800281D01*
X134661682Y-105802926D01*
X134661680Y-105802927D01*
X134551972Y-105858826D01*
X134551969Y-105858827D01*
X134546780Y-105861472D01*
X134542663Y-105865588D01*
X134542660Y-105865591D01*
X134455591Y-105952660D01*
X134455588Y-105952663D01*
X134451472Y-105956780D01*
X134448827Y-105961969D01*
X134448826Y-105961972D01*
X134392927Y-106071680D01*
X134390281Y-106076874D01*
X134389369Y-106082625D01*
X134389369Y-106082629D01*
X134380516Y-106138528D01*
X134369196Y-106210000D01*
X119860433Y-106210000D01*
X119855328Y-106199981D01*
X119760020Y-106104673D01*
X119639926Y-106043482D01*
X119634172Y-106042570D01*
X119634170Y-106042570D01*
X119512552Y-106023308D01*
X119506800Y-106022397D01*
X119501048Y-106023308D01*
X119379429Y-106042570D01*
X119379425Y-106042570D01*
X119373674Y-106043482D01*
X119368482Y-106046127D01*
X119368480Y-106046128D01*
X119258772Y-106102027D01*
X119258769Y-106102028D01*
X119253580Y-106104673D01*
X119249463Y-106108789D01*
X119249460Y-106108792D01*
X119162391Y-106195861D01*
X119162388Y-106195864D01*
X119158272Y-106199981D01*
X119155627Y-106205170D01*
X119155626Y-106205173D01*
X119153167Y-106210000D01*
X119097081Y-106320075D01*
X119096169Y-106325826D01*
X119096169Y-106325830D01*
X119076907Y-106447449D01*
X119075996Y-106453201D01*
X112254500Y-106453201D01*
X112254500Y-105600000D01*
X124639196Y-105600000D01*
X124660281Y-105733126D01*
X124721472Y-105853220D01*
X124816780Y-105948528D01*
X124936874Y-106009719D01*
X125070000Y-106030804D01*
X125203126Y-106009719D01*
X125323220Y-105948528D01*
X125418528Y-105853220D01*
X125479719Y-105733126D01*
X125500804Y-105600000D01*
X125479719Y-105466874D01*
X125418528Y-105346780D01*
X125323220Y-105251472D01*
X125203126Y-105190281D01*
X125197372Y-105189369D01*
X125197370Y-105189369D01*
X125075752Y-105170107D01*
X125070000Y-105169196D01*
X125064248Y-105170107D01*
X124942629Y-105189369D01*
X124942625Y-105189369D01*
X124936874Y-105190281D01*
X124931682Y-105192926D01*
X124931680Y-105192927D01*
X124821972Y-105248826D01*
X124821969Y-105248827D01*
X124816780Y-105251472D01*
X124812663Y-105255588D01*
X124812660Y-105255591D01*
X124725591Y-105342660D01*
X124725588Y-105342663D01*
X124721472Y-105346780D01*
X124718827Y-105351969D01*
X124718826Y-105351972D01*
X124671125Y-105445591D01*
X124660281Y-105466874D01*
X124659369Y-105472625D01*
X124659369Y-105472629D01*
X124640107Y-105594248D01*
X124639196Y-105600000D01*
X112254500Y-105600000D01*
X112254500Y-104370000D01*
X123469196Y-104370000D01*
X123490281Y-104503126D01*
X123551472Y-104623220D01*
X123646780Y-104718528D01*
X123766874Y-104779719D01*
X123900000Y-104800804D01*
X124033126Y-104779719D01*
X124153220Y-104718528D01*
X124248528Y-104623220D01*
X124309719Y-104503126D01*
X124330804Y-104370000D01*
X124309719Y-104236874D01*
X124248528Y-104116780D01*
X124153220Y-104021472D01*
X124033126Y-103960281D01*
X124027372Y-103959369D01*
X124027370Y-103959369D01*
X123905752Y-103940107D01*
X123900000Y-103939196D01*
X123894248Y-103940107D01*
X123772629Y-103959369D01*
X123772625Y-103959369D01*
X123766874Y-103960281D01*
X123761682Y-103962926D01*
X123761680Y-103962927D01*
X123651972Y-104018826D01*
X123651969Y-104018827D01*
X123646780Y-104021472D01*
X123642663Y-104025588D01*
X123642660Y-104025591D01*
X123555591Y-104112660D01*
X123555588Y-104112663D01*
X123551472Y-104116780D01*
X123548827Y-104121969D01*
X123548826Y-104121972D01*
X123492927Y-104231680D01*
X123490281Y-104236874D01*
X123489369Y-104242625D01*
X123489369Y-104242629D01*
X123470107Y-104364248D01*
X123469196Y-104370000D01*
X112254500Y-104370000D01*
X112254500Y-103510000D01*
X126529196Y-103510000D01*
X126550281Y-103643126D01*
X126611472Y-103763220D01*
X126706780Y-103858528D01*
X126826874Y-103919719D01*
X126960000Y-103940804D01*
X127093126Y-103919719D01*
X127213220Y-103858528D01*
X127308528Y-103763220D01*
X127369719Y-103643126D01*
X127390804Y-103510000D01*
X127382680Y-103458713D01*
X127389836Y-103413542D01*
X127422175Y-103381202D01*
X127467345Y-103374048D01*
X127510000Y-103380804D01*
X127643126Y-103359719D01*
X127763220Y-103298528D01*
X127858528Y-103203220D01*
X127919719Y-103083126D01*
X127940804Y-102950000D01*
X127919719Y-102816874D01*
X127858528Y-102696780D01*
X127763220Y-102601472D01*
X127643126Y-102540281D01*
X127637372Y-102539369D01*
X127637370Y-102539369D01*
X127515752Y-102520107D01*
X127510000Y-102519196D01*
X127504248Y-102520107D01*
X127382629Y-102539369D01*
X127382625Y-102539369D01*
X127376874Y-102540281D01*
X127371682Y-102542926D01*
X127371680Y-102542927D01*
X127261972Y-102598826D01*
X127261969Y-102598827D01*
X127256780Y-102601472D01*
X127252663Y-102605588D01*
X127252660Y-102605591D01*
X127165591Y-102692660D01*
X127165588Y-102692663D01*
X127161472Y-102696780D01*
X127158827Y-102701969D01*
X127158826Y-102701972D01*
X127156076Y-102707370D01*
X127100281Y-102816874D01*
X127099369Y-102822625D01*
X127099369Y-102822629D01*
X127083249Y-102924408D01*
X127079196Y-102950000D01*
X127080107Y-102955752D01*
X127080107Y-102955753D01*
X127087318Y-103001287D01*
X127080163Y-103046458D01*
X127047824Y-103078796D01*
X127002654Y-103085951D01*
X126965753Y-103080107D01*
X126965752Y-103080107D01*
X126960000Y-103079196D01*
X126954248Y-103080107D01*
X126832629Y-103099369D01*
X126832625Y-103099369D01*
X126826874Y-103100281D01*
X126821682Y-103102926D01*
X126821680Y-103102927D01*
X126711972Y-103158826D01*
X126711969Y-103158827D01*
X126706780Y-103161472D01*
X126702663Y-103165588D01*
X126702660Y-103165591D01*
X126615591Y-103252660D01*
X126615588Y-103252663D01*
X126611472Y-103256780D01*
X126608827Y-103261969D01*
X126608826Y-103261972D01*
X126552927Y-103371680D01*
X126550281Y-103376874D01*
X126549369Y-103382625D01*
X126549369Y-103382629D01*
X126544473Y-103413542D01*
X126529196Y-103510000D01*
X112254500Y-103510000D01*
X112254500Y-102580000D01*
X125651696Y-102580000D01*
X125652607Y-102585752D01*
X125669539Y-102692660D01*
X125672781Y-102713126D01*
X125733972Y-102833220D01*
X125829280Y-102928528D01*
X125949374Y-102989719D01*
X126082500Y-103010804D01*
X126215626Y-102989719D01*
X126335720Y-102928528D01*
X126431028Y-102833220D01*
X126492219Y-102713126D01*
X126513304Y-102580000D01*
X126492219Y-102446874D01*
X126431028Y-102326780D01*
X126335720Y-102231472D01*
X126215626Y-102170281D01*
X126209872Y-102169369D01*
X126209870Y-102169369D01*
X126088252Y-102150107D01*
X126082500Y-102149196D01*
X126076748Y-102150107D01*
X125955129Y-102169369D01*
X125955125Y-102169369D01*
X125949374Y-102170281D01*
X125944182Y-102172926D01*
X125944180Y-102172927D01*
X125834472Y-102228826D01*
X125834469Y-102228827D01*
X125829280Y-102231472D01*
X125825163Y-102235588D01*
X125825160Y-102235591D01*
X125738091Y-102322660D01*
X125738088Y-102322663D01*
X125733972Y-102326780D01*
X125731327Y-102331969D01*
X125731326Y-102331972D01*
X125706216Y-102381254D01*
X125672781Y-102446874D01*
X125671869Y-102452625D01*
X125671869Y-102452629D01*
X125671573Y-102454500D01*
X125651696Y-102580000D01*
X112254500Y-102580000D01*
X112254500Y-100762635D01*
X120745718Y-100762635D01*
X120746077Y-100765599D01*
X120746078Y-100765600D01*
X120769003Y-100954409D01*
X120775893Y-101011149D01*
X120776723Y-101014017D01*
X120776725Y-101014023D01*
X120811930Y-101135565D01*
X120845541Y-101251604D01*
X120846817Y-101254293D01*
X120846820Y-101254301D01*
X120888808Y-101342788D01*
X120952859Y-101477772D01*
X121095068Y-101683797D01*
X121268484Y-101864341D01*
X121468615Y-102014730D01*
X121690279Y-102131069D01*
X121693100Y-102132011D01*
X121693103Y-102132012D01*
X121744576Y-102149196D01*
X121927734Y-102210343D01*
X122174831Y-102250500D01*
X123360990Y-102250500D01*
X123362481Y-102250500D01*
X123549527Y-102235400D01*
X123792591Y-102175490D01*
X124022897Y-102077366D01*
X124234481Y-101943568D01*
X124421862Y-101777563D01*
X124580188Y-101583650D01*
X124705357Y-101366850D01*
X124794128Y-101132780D01*
X124844202Y-100887500D01*
X124854282Y-100637365D01*
X124850959Y-100610001D01*
X130244196Y-100610001D01*
X130265281Y-100743127D01*
X130326472Y-100863221D01*
X130421780Y-100958529D01*
X130541874Y-101019720D01*
X130675000Y-101040805D01*
X130808126Y-101019720D01*
X130928220Y-100958529D01*
X131023528Y-100863221D01*
X131084719Y-100743127D01*
X131105804Y-100610001D01*
X131093997Y-100535457D01*
X131101151Y-100490289D01*
X131133490Y-100457950D01*
X131178661Y-100450795D01*
X131305000Y-100470805D01*
X131438126Y-100449720D01*
X131558220Y-100388529D01*
X131653528Y-100293221D01*
X131714719Y-100173127D01*
X131735804Y-100040001D01*
X131714719Y-99906875D01*
X131653528Y-99786781D01*
X131558220Y-99691473D01*
X131438126Y-99630282D01*
X131432372Y-99629370D01*
X131432370Y-99629370D01*
X131310752Y-99610108D01*
X131305000Y-99609197D01*
X131299248Y-99610108D01*
X131177629Y-99629370D01*
X131177625Y-99629370D01*
X131171874Y-99630282D01*
X131166682Y-99632927D01*
X131166680Y-99632928D01*
X131056972Y-99688827D01*
X131056969Y-99688828D01*
X131051780Y-99691473D01*
X131047663Y-99695589D01*
X131047660Y-99695592D01*
X130960591Y-99782661D01*
X130960588Y-99782664D01*
X130956472Y-99786781D01*
X130953827Y-99791970D01*
X130953826Y-99791973D01*
X130940092Y-99818928D01*
X130895281Y-99906875D01*
X130894369Y-99912626D01*
X130894369Y-99912630D01*
X130892849Y-99922228D01*
X130874196Y-100040001D01*
X130875107Y-100045753D01*
X130886002Y-100114541D01*
X130878848Y-100159712D01*
X130846509Y-100192051D01*
X130801337Y-100199206D01*
X130680752Y-100180108D01*
X130675000Y-100179197D01*
X130669248Y-100180108D01*
X130547629Y-100199370D01*
X130547625Y-100199370D01*
X130541874Y-100200282D01*
X130536682Y-100202927D01*
X130536680Y-100202928D01*
X130426972Y-100258827D01*
X130426969Y-100258828D01*
X130421780Y-100261473D01*
X130417663Y-100265589D01*
X130417660Y-100265592D01*
X130330591Y-100352661D01*
X130330588Y-100352664D01*
X130326472Y-100356781D01*
X130323827Y-100361970D01*
X130323826Y-100361973D01*
X130267927Y-100471681D01*
X130265281Y-100476875D01*
X130264369Y-100482626D01*
X130264369Y-100482630D01*
X130256002Y-100535461D01*
X130244196Y-100610001D01*
X124850959Y-100610001D01*
X124824107Y-100388851D01*
X124754459Y-100148396D01*
X124647141Y-99922228D01*
X124504932Y-99716203D01*
X124331516Y-99535659D01*
X124228714Y-99458408D01*
X124133765Y-99387058D01*
X124133761Y-99387055D01*
X124131385Y-99385270D01*
X124128753Y-99383889D01*
X124128749Y-99383886D01*
X123912356Y-99270314D01*
X123909721Y-99268931D01*
X123906905Y-99267991D01*
X123906896Y-99267987D01*
X123675094Y-99190601D01*
X123675092Y-99190600D01*
X123672266Y-99189657D01*
X123669328Y-99189179D01*
X123669322Y-99189178D01*
X123428250Y-99150000D01*
X134799196Y-99150000D01*
X134800107Y-99155752D01*
X134818251Y-99270314D01*
X134820281Y-99283126D01*
X134881472Y-99403220D01*
X134976780Y-99498528D01*
X135096874Y-99559719D01*
X135230000Y-99580804D01*
X135363126Y-99559719D01*
X135483220Y-99498528D01*
X135578528Y-99403220D01*
X135639719Y-99283126D01*
X135660804Y-99150000D01*
X135639719Y-99016874D01*
X135578528Y-98896780D01*
X135483220Y-98801472D01*
X135363126Y-98740281D01*
X135357372Y-98739369D01*
X135357370Y-98739369D01*
X135235752Y-98720107D01*
X135230000Y-98719196D01*
X135224248Y-98720107D01*
X135102629Y-98739369D01*
X135102625Y-98739369D01*
X135096874Y-98740281D01*
X135091682Y-98742926D01*
X135091680Y-98742927D01*
X134981972Y-98798826D01*
X134981969Y-98798827D01*
X134976780Y-98801472D01*
X134972663Y-98805588D01*
X134972660Y-98805591D01*
X134885591Y-98892660D01*
X134885588Y-98892663D01*
X134881472Y-98896780D01*
X134878827Y-98901969D01*
X134878826Y-98901972D01*
X134849142Y-98960231D01*
X134820281Y-99016874D01*
X134819369Y-99022625D01*
X134819369Y-99022629D01*
X134804768Y-99114817D01*
X134799196Y-99150000D01*
X123428250Y-99150000D01*
X123428108Y-99149977D01*
X123428100Y-99149976D01*
X123425169Y-99149500D01*
X122237519Y-99149500D01*
X122236033Y-99149619D01*
X122236032Y-99149620D01*
X122053444Y-99164360D01*
X122053442Y-99164360D01*
X122050473Y-99164600D01*
X122047582Y-99165312D01*
X122047579Y-99165313D01*
X121810303Y-99223796D01*
X121810295Y-99223798D01*
X121807409Y-99224510D01*
X121804669Y-99225677D01*
X121804667Y-99225678D01*
X121579849Y-99321463D01*
X121579838Y-99321468D01*
X121577103Y-99322634D01*
X121574589Y-99324223D01*
X121574579Y-99324229D01*
X121368037Y-99454839D01*
X121368031Y-99454843D01*
X121365519Y-99456432D01*
X121363297Y-99458400D01*
X121363287Y-99458408D01*
X121180371Y-99620458D01*
X121180366Y-99620462D01*
X121178138Y-99622437D01*
X121176257Y-99624740D01*
X121176250Y-99624748D01*
X121021694Y-99814044D01*
X121021689Y-99814050D01*
X121019812Y-99816350D01*
X121018326Y-99818922D01*
X121018323Y-99818928D01*
X120896134Y-100030567D01*
X120894643Y-100033150D01*
X120893586Y-100035936D01*
X120893585Y-100035939D01*
X120806928Y-100264434D01*
X120806926Y-100264440D01*
X120805872Y-100267220D01*
X120805279Y-100270124D01*
X120805276Y-100270135D01*
X120768395Y-100450795D01*
X120755798Y-100512500D01*
X120755678Y-100515468D01*
X120755677Y-100515480D01*
X120750766Y-100637365D01*
X120745718Y-100762635D01*
X112254500Y-100762635D01*
X112254500Y-96562635D01*
X120745718Y-96562635D01*
X120775893Y-96811149D01*
X120776723Y-96814017D01*
X120776725Y-96814023D01*
X120811930Y-96935565D01*
X120845541Y-97051604D01*
X120846817Y-97054293D01*
X120846820Y-97054301D01*
X120898902Y-97164060D01*
X120952859Y-97277772D01*
X121095068Y-97483797D01*
X121268484Y-97664341D01*
X121468615Y-97814730D01*
X121690279Y-97931069D01*
X121693100Y-97932011D01*
X121693103Y-97932012D01*
X121758183Y-97953738D01*
X121927734Y-98010343D01*
X122174831Y-98050500D01*
X123360990Y-98050500D01*
X123362481Y-98050500D01*
X123549527Y-98035400D01*
X123792591Y-97975490D01*
X124022897Y-97877366D01*
X124234481Y-97743568D01*
X124421862Y-97577563D01*
X124580188Y-97383650D01*
X124705357Y-97166850D01*
X124794128Y-96932780D01*
X124844202Y-96687500D01*
X124851762Y-96499893D01*
X124854162Y-96440345D01*
X124854161Y-96440343D01*
X124854282Y-96437365D01*
X124824107Y-96188851D01*
X124789682Y-96070000D01*
X128089196Y-96070000D01*
X128090107Y-96075752D01*
X128108490Y-96191822D01*
X128110281Y-96203126D01*
X128171472Y-96323220D01*
X128266780Y-96418528D01*
X128386874Y-96479719D01*
X128520000Y-96500804D01*
X128653126Y-96479719D01*
X128773220Y-96418528D01*
X128868528Y-96323220D01*
X128929719Y-96203126D01*
X128950804Y-96070000D01*
X128929719Y-95936874D01*
X128868528Y-95816780D01*
X128773220Y-95721472D01*
X128691827Y-95680000D01*
X135679196Y-95680000D01*
X135680107Y-95685752D01*
X135696745Y-95790804D01*
X135700281Y-95813126D01*
X135761472Y-95933220D01*
X135856780Y-96028528D01*
X135976874Y-96089719D01*
X136110000Y-96110804D01*
X136243126Y-96089719D01*
X136363220Y-96028528D01*
X136458528Y-95933220D01*
X136519719Y-95813126D01*
X136540804Y-95680000D01*
X136519719Y-95546874D01*
X136458528Y-95426780D01*
X136391748Y-95360000D01*
X140939196Y-95360000D01*
X140940107Y-95365752D01*
X140948771Y-95420458D01*
X140960281Y-95493126D01*
X141021472Y-95613220D01*
X141116780Y-95708528D01*
X141236874Y-95769719D01*
X141370000Y-95790804D01*
X141503126Y-95769719D01*
X141623220Y-95708528D01*
X141718528Y-95613220D01*
X141779719Y-95493126D01*
X141800804Y-95360000D01*
X141787292Y-95274690D01*
X141794446Y-95229521D01*
X141826786Y-95197182D01*
X141871956Y-95190027D01*
X141940000Y-95200804D01*
X142073126Y-95179719D01*
X142193220Y-95118528D01*
X142288528Y-95023220D01*
X142349719Y-94903126D01*
X142370804Y-94770000D01*
X142349719Y-94636874D01*
X142288528Y-94516780D01*
X142193220Y-94421472D01*
X142073126Y-94360281D01*
X142067372Y-94359369D01*
X142067370Y-94359369D01*
X141945752Y-94340107D01*
X141940000Y-94339196D01*
X141934248Y-94340107D01*
X141812629Y-94359369D01*
X141812625Y-94359369D01*
X141806874Y-94360281D01*
X141801682Y-94362926D01*
X141801680Y-94362927D01*
X141691972Y-94418826D01*
X141691969Y-94418827D01*
X141686780Y-94421472D01*
X141682663Y-94425588D01*
X141682660Y-94425591D01*
X141595591Y-94512660D01*
X141595588Y-94512663D01*
X141591472Y-94516780D01*
X141588827Y-94521969D01*
X141588826Y-94521972D01*
X141532927Y-94631680D01*
X141530281Y-94636874D01*
X141529369Y-94642625D01*
X141529369Y-94642629D01*
X141510107Y-94764248D01*
X141509196Y-94770000D01*
X141510107Y-94775752D01*
X141522707Y-94855307D01*
X141515553Y-94900478D01*
X141483214Y-94932817D01*
X141438043Y-94939972D01*
X141375753Y-94930107D01*
X141375752Y-94930107D01*
X141370000Y-94929196D01*
X141364248Y-94930107D01*
X141242629Y-94949369D01*
X141242625Y-94949369D01*
X141236874Y-94950281D01*
X141231682Y-94952926D01*
X141231680Y-94952927D01*
X141121972Y-95008826D01*
X141121969Y-95008827D01*
X141116780Y-95011472D01*
X141112663Y-95015588D01*
X141112660Y-95015591D01*
X141025591Y-95102660D01*
X141025588Y-95102663D01*
X141021472Y-95106780D01*
X141018827Y-95111969D01*
X141018826Y-95111972D01*
X140973564Y-95200804D01*
X140960281Y-95226874D01*
X140959369Y-95232625D01*
X140959369Y-95232629D01*
X140953550Y-95269369D01*
X140939196Y-95360000D01*
X136391748Y-95360000D01*
X136363220Y-95331472D01*
X136243126Y-95270281D01*
X136237372Y-95269369D01*
X136237370Y-95269369D01*
X136115752Y-95250107D01*
X136110000Y-95249196D01*
X136104248Y-95250107D01*
X135982629Y-95269369D01*
X135982625Y-95269369D01*
X135976874Y-95270281D01*
X135971682Y-95272926D01*
X135971680Y-95272927D01*
X135861972Y-95328826D01*
X135861969Y-95328827D01*
X135856780Y-95331472D01*
X135852663Y-95335588D01*
X135852660Y-95335591D01*
X135765591Y-95422660D01*
X135765588Y-95422663D01*
X135761472Y-95426780D01*
X135758827Y-95431969D01*
X135758826Y-95431972D01*
X135702927Y-95541680D01*
X135700281Y-95546874D01*
X135699369Y-95552625D01*
X135699369Y-95552629D01*
X135690595Y-95608027D01*
X135679196Y-95680000D01*
X128691827Y-95680000D01*
X128653126Y-95660281D01*
X128647372Y-95659369D01*
X128647370Y-95659369D01*
X128525752Y-95640107D01*
X128520000Y-95639196D01*
X128514248Y-95640107D01*
X128392629Y-95659369D01*
X128392625Y-95659369D01*
X128386874Y-95660281D01*
X128381682Y-95662926D01*
X128381680Y-95662927D01*
X128271972Y-95718826D01*
X128271969Y-95718827D01*
X128266780Y-95721472D01*
X128262663Y-95725588D01*
X128262660Y-95725591D01*
X128175591Y-95812660D01*
X128175588Y-95812663D01*
X128171472Y-95816780D01*
X128168827Y-95821969D01*
X128168826Y-95821972D01*
X128112927Y-95931680D01*
X128110281Y-95936874D01*
X128109369Y-95942625D01*
X128109369Y-95942629D01*
X128090107Y-96064248D01*
X128089196Y-96070000D01*
X124789682Y-96070000D01*
X124754459Y-95948396D01*
X124749212Y-95937339D01*
X124730722Y-95898372D01*
X124647141Y-95722228D01*
X124504932Y-95516203D01*
X124331516Y-95335659D01*
X124329133Y-95333868D01*
X124133765Y-95187058D01*
X124133761Y-95187055D01*
X124131385Y-95185270D01*
X124128753Y-95183889D01*
X124128749Y-95183886D01*
X123912356Y-95070314D01*
X123909721Y-95068931D01*
X123906905Y-95067991D01*
X123906896Y-95067987D01*
X123675094Y-94990601D01*
X123675092Y-94990600D01*
X123672266Y-94989657D01*
X123669328Y-94989179D01*
X123669322Y-94989178D01*
X123428108Y-94949977D01*
X123428100Y-94949976D01*
X123425169Y-94949500D01*
X122237519Y-94949500D01*
X122236033Y-94949619D01*
X122236032Y-94949620D01*
X122053444Y-94964360D01*
X122053442Y-94964360D01*
X122050473Y-94964600D01*
X122047582Y-94965312D01*
X122047579Y-94965313D01*
X121810303Y-95023796D01*
X121810295Y-95023798D01*
X121807409Y-95024510D01*
X121804669Y-95025677D01*
X121804667Y-95025678D01*
X121579849Y-95121463D01*
X121579838Y-95121468D01*
X121577103Y-95122634D01*
X121574589Y-95124223D01*
X121574579Y-95124229D01*
X121368037Y-95254839D01*
X121368031Y-95254843D01*
X121365519Y-95256432D01*
X121363297Y-95258400D01*
X121363287Y-95258408D01*
X121180371Y-95420458D01*
X121180366Y-95420462D01*
X121178138Y-95422437D01*
X121176257Y-95424740D01*
X121176250Y-95424748D01*
X121021694Y-95614044D01*
X121021689Y-95614050D01*
X121019812Y-95616350D01*
X121018326Y-95618922D01*
X121018323Y-95618928D01*
X120896134Y-95830567D01*
X120894643Y-95833150D01*
X120893586Y-95835936D01*
X120893585Y-95835939D01*
X120806928Y-96064434D01*
X120806926Y-96064440D01*
X120805872Y-96067220D01*
X120805279Y-96070124D01*
X120805276Y-96070135D01*
X120756394Y-96309580D01*
X120755798Y-96312500D01*
X120755678Y-96315468D01*
X120755677Y-96315480D01*
X120745838Y-96559652D01*
X120745718Y-96562635D01*
X112254500Y-96562635D01*
X112254500Y-94280000D01*
X136659196Y-94280000D01*
X136680281Y-94413126D01*
X136741472Y-94533220D01*
X136836780Y-94628528D01*
X136956874Y-94689719D01*
X137090000Y-94710804D01*
X137223126Y-94689719D01*
X137343220Y-94628528D01*
X137438528Y-94533220D01*
X137499719Y-94413126D01*
X137520804Y-94280000D01*
X137499719Y-94146874D01*
X137438528Y-94026780D01*
X137343220Y-93931472D01*
X137223126Y-93870281D01*
X137217372Y-93869369D01*
X137217370Y-93869369D01*
X137095752Y-93850107D01*
X137090000Y-93849196D01*
X137084248Y-93850107D01*
X136962629Y-93869369D01*
X136962625Y-93869369D01*
X136956874Y-93870281D01*
X136951682Y-93872926D01*
X136951680Y-93872927D01*
X136841972Y-93928826D01*
X136841969Y-93928827D01*
X136836780Y-93931472D01*
X136832663Y-93935588D01*
X136832660Y-93935591D01*
X136745591Y-94022660D01*
X136745588Y-94022663D01*
X136741472Y-94026780D01*
X136738827Y-94031969D01*
X136738826Y-94031972D01*
X136682927Y-94141680D01*
X136680281Y-94146874D01*
X136679369Y-94152625D01*
X136679369Y-94152629D01*
X136660107Y-94274248D01*
X136659196Y-94280000D01*
X112254500Y-94280000D01*
X112254500Y-92362635D01*
X115245718Y-92362635D01*
X115246077Y-92365599D01*
X115246078Y-92365600D01*
X115254077Y-92431482D01*
X115275893Y-92611149D01*
X115276723Y-92614017D01*
X115276725Y-92614023D01*
X115311930Y-92735565D01*
X115345541Y-92851604D01*
X115346817Y-92854293D01*
X115346820Y-92854301D01*
X115350772Y-92862629D01*
X115452859Y-93077772D01*
X115595068Y-93283797D01*
X115768484Y-93464341D01*
X115968615Y-93614730D01*
X116190279Y-93731069D01*
X116193100Y-93732011D01*
X116193103Y-93732012D01*
X116258070Y-93753701D01*
X116427734Y-93810343D01*
X116674831Y-93850500D01*
X117860990Y-93850500D01*
X117862481Y-93850500D01*
X118049527Y-93835400D01*
X118292591Y-93775490D01*
X118522897Y-93677366D01*
X118734481Y-93543568D01*
X118921862Y-93377563D01*
X119080188Y-93183650D01*
X119205357Y-92966850D01*
X119294128Y-92732780D01*
X119344202Y-92487500D01*
X119349234Y-92362635D01*
X120745718Y-92362635D01*
X120746077Y-92365599D01*
X120746078Y-92365600D01*
X120754077Y-92431482D01*
X120775893Y-92611149D01*
X120776723Y-92614017D01*
X120776725Y-92614023D01*
X120811930Y-92735565D01*
X120845541Y-92851604D01*
X120846817Y-92854293D01*
X120846820Y-92854301D01*
X120850772Y-92862629D01*
X120952859Y-93077772D01*
X121095068Y-93283797D01*
X121268484Y-93464341D01*
X121468615Y-93614730D01*
X121690279Y-93731069D01*
X121693100Y-93732011D01*
X121693103Y-93732012D01*
X121758070Y-93753701D01*
X121927734Y-93810343D01*
X122174831Y-93850500D01*
X123360990Y-93850500D01*
X123362481Y-93850500D01*
X123549527Y-93835400D01*
X123792591Y-93775490D01*
X124022897Y-93677366D01*
X124234481Y-93543568D01*
X124421862Y-93377563D01*
X124580188Y-93183650D01*
X124691991Y-92990000D01*
X134819196Y-92990000D01*
X134820107Y-92995752D01*
X134833097Y-93077772D01*
X134840281Y-93123126D01*
X134901472Y-93243220D01*
X134996780Y-93338528D01*
X135116874Y-93399719D01*
X135250000Y-93420804D01*
X135383126Y-93399719D01*
X135503220Y-93338528D01*
X135598528Y-93243220D01*
X135659719Y-93123126D01*
X135680804Y-92990000D01*
X135659719Y-92856874D01*
X135598528Y-92736780D01*
X135503220Y-92641472D01*
X135383126Y-92580281D01*
X135377372Y-92579369D01*
X135377370Y-92579369D01*
X135255752Y-92560107D01*
X135250000Y-92559196D01*
X135244248Y-92560107D01*
X135122629Y-92579369D01*
X135122625Y-92579369D01*
X135116874Y-92580281D01*
X135111682Y-92582926D01*
X135111680Y-92582927D01*
X135001972Y-92638826D01*
X135001969Y-92638827D01*
X134996780Y-92641472D01*
X134992663Y-92645588D01*
X134992660Y-92645591D01*
X134905591Y-92732660D01*
X134905588Y-92732663D01*
X134901472Y-92736780D01*
X134898827Y-92741969D01*
X134898826Y-92741972D01*
X134842966Y-92851604D01*
X134840281Y-92856874D01*
X134839369Y-92862625D01*
X134839369Y-92862629D01*
X134822454Y-92969432D01*
X134819196Y-92990000D01*
X124691991Y-92990000D01*
X124705357Y-92966850D01*
X124794128Y-92732780D01*
X124844202Y-92487500D01*
X124854282Y-92237365D01*
X124824107Y-91988851D01*
X124754459Y-91748396D01*
X124748104Y-91735004D01*
X124730722Y-91698372D01*
X124647141Y-91522228D01*
X124528260Y-91350000D01*
X140174353Y-91350000D01*
X140175106Y-91355237D01*
X140183892Y-91416350D01*
X140194835Y-91492457D01*
X140254623Y-91623373D01*
X140258084Y-91627368D01*
X140258086Y-91627370D01*
X140265511Y-91635939D01*
X140348872Y-91732143D01*
X140469947Y-91809953D01*
X140475020Y-91811442D01*
X140475021Y-91811443D01*
X140521350Y-91825046D01*
X140608039Y-91850500D01*
X140746669Y-91850500D01*
X140751961Y-91850500D01*
X140890053Y-91809953D01*
X141011128Y-91732143D01*
X141105377Y-91623373D01*
X141165165Y-91492457D01*
X141185647Y-91350000D01*
X141165165Y-91207543D01*
X141105377Y-91076627D01*
X141011128Y-90967857D01*
X140890053Y-90890047D01*
X140884983Y-90888558D01*
X140884978Y-90888556D01*
X140757037Y-90850990D01*
X140757034Y-90850989D01*
X140751961Y-90849500D01*
X140608039Y-90849500D01*
X140602966Y-90850989D01*
X140602962Y-90850990D01*
X140475021Y-90888556D01*
X140475013Y-90888559D01*
X140469947Y-90890047D01*
X140465498Y-90892905D01*
X140465496Y-90892907D01*
X140353324Y-90964995D01*
X140353320Y-90964998D01*
X140348872Y-90967857D01*
X140345409Y-90971852D01*
X140345406Y-90971856D01*
X140258086Y-91072629D01*
X140258082Y-91072634D01*
X140254623Y-91076627D01*
X140252427Y-91081435D01*
X140252426Y-91081437D01*
X140227664Y-91135659D01*
X140194835Y-91207543D01*
X140194082Y-91212778D01*
X140194081Y-91212783D01*
X140176525Y-91334893D01*
X140174353Y-91350000D01*
X124528260Y-91350000D01*
X124504932Y-91316203D01*
X124331516Y-91135659D01*
X124308513Y-91118373D01*
X124133765Y-90987058D01*
X124133761Y-90987055D01*
X124131385Y-90985270D01*
X124128753Y-90983889D01*
X124128749Y-90983886D01*
X123912356Y-90870314D01*
X123909721Y-90868931D01*
X123906905Y-90867991D01*
X123906896Y-90867987D01*
X123838041Y-90845000D01*
X129474353Y-90845000D01*
X129475106Y-90850237D01*
X129485346Y-90921463D01*
X129494835Y-90987457D01*
X129554623Y-91118373D01*
X129558084Y-91122368D01*
X129558086Y-91122370D01*
X129627969Y-91203020D01*
X129648872Y-91227143D01*
X129769947Y-91304953D01*
X129775020Y-91306442D01*
X129775021Y-91306443D01*
X129803207Y-91314719D01*
X129908039Y-91345500D01*
X130046669Y-91345500D01*
X130051961Y-91345500D01*
X130190053Y-91304953D01*
X130311128Y-91227143D01*
X130405377Y-91118373D01*
X130465165Y-90987457D01*
X130477020Y-90905000D01*
X132139196Y-90905000D01*
X132140107Y-90910752D01*
X132155866Y-91010254D01*
X132160281Y-91038126D01*
X132221472Y-91158220D01*
X132316780Y-91253528D01*
X132436874Y-91314719D01*
X132570000Y-91335804D01*
X132703126Y-91314719D01*
X132823220Y-91253528D01*
X132918528Y-91158220D01*
X132979719Y-91038126D01*
X133000804Y-90905000D01*
X132979719Y-90771874D01*
X132918528Y-90651780D01*
X132823220Y-90556472D01*
X132703126Y-90495281D01*
X132697372Y-90494369D01*
X132697370Y-90494369D01*
X132575752Y-90475107D01*
X132570000Y-90474196D01*
X132564248Y-90475107D01*
X132442629Y-90494369D01*
X132442625Y-90494369D01*
X132436874Y-90495281D01*
X132431682Y-90497926D01*
X132431680Y-90497927D01*
X132321972Y-90553826D01*
X132321969Y-90553827D01*
X132316780Y-90556472D01*
X132312663Y-90560588D01*
X132312660Y-90560591D01*
X132225591Y-90647660D01*
X132225588Y-90647663D01*
X132221472Y-90651780D01*
X132218827Y-90656969D01*
X132218826Y-90656972D01*
X132163987Y-90764600D01*
X132160281Y-90771874D01*
X132159369Y-90777625D01*
X132159369Y-90777629D01*
X132147750Y-90850990D01*
X132139196Y-90905000D01*
X130477020Y-90905000D01*
X130485647Y-90845000D01*
X130465165Y-90702543D01*
X130405377Y-90571627D01*
X130395814Y-90560591D01*
X130314593Y-90466856D01*
X130311128Y-90462857D01*
X130190053Y-90385047D01*
X130184983Y-90383558D01*
X130184978Y-90383556D01*
X130057037Y-90345990D01*
X130057034Y-90345989D01*
X130051961Y-90344500D01*
X129908039Y-90344500D01*
X129902966Y-90345989D01*
X129902962Y-90345990D01*
X129775021Y-90383556D01*
X129775013Y-90383559D01*
X129769947Y-90385047D01*
X129765498Y-90387905D01*
X129765496Y-90387907D01*
X129653324Y-90459995D01*
X129653320Y-90459998D01*
X129648872Y-90462857D01*
X129645409Y-90466852D01*
X129645406Y-90466856D01*
X129558086Y-90567629D01*
X129558082Y-90567634D01*
X129554623Y-90571627D01*
X129552427Y-90576435D01*
X129552426Y-90576437D01*
X129515647Y-90656972D01*
X129494835Y-90702543D01*
X129494082Y-90707778D01*
X129494081Y-90707783D01*
X129484867Y-90771874D01*
X129474353Y-90845000D01*
X123838041Y-90845000D01*
X123675094Y-90790601D01*
X123675092Y-90790600D01*
X123672266Y-90789657D01*
X123669328Y-90789179D01*
X123669322Y-90789178D01*
X123428108Y-90749977D01*
X123428100Y-90749976D01*
X123425169Y-90749500D01*
X122237519Y-90749500D01*
X122236033Y-90749619D01*
X122236032Y-90749620D01*
X122053444Y-90764360D01*
X122053442Y-90764360D01*
X122050473Y-90764600D01*
X122047582Y-90765312D01*
X122047579Y-90765313D01*
X121810303Y-90823796D01*
X121810295Y-90823798D01*
X121807409Y-90824510D01*
X121804669Y-90825677D01*
X121804667Y-90825678D01*
X121579849Y-90921463D01*
X121579838Y-90921468D01*
X121577103Y-90922634D01*
X121574589Y-90924223D01*
X121574579Y-90924229D01*
X121368037Y-91054839D01*
X121368031Y-91054843D01*
X121365519Y-91056432D01*
X121363297Y-91058400D01*
X121363287Y-91058408D01*
X121180371Y-91220458D01*
X121180366Y-91220462D01*
X121178138Y-91222437D01*
X121176257Y-91224740D01*
X121176250Y-91224748D01*
X121021694Y-91414044D01*
X121021689Y-91414050D01*
X121019812Y-91416350D01*
X121018326Y-91418922D01*
X121018323Y-91418928D01*
X120897980Y-91627370D01*
X120894643Y-91633150D01*
X120893586Y-91635936D01*
X120893585Y-91635939D01*
X120806928Y-91864434D01*
X120806926Y-91864440D01*
X120805872Y-91867220D01*
X120805279Y-91870124D01*
X120805276Y-91870135D01*
X120780434Y-91991822D01*
X120755798Y-92112500D01*
X120755678Y-92115468D01*
X120755677Y-92115480D01*
X120750766Y-92237365D01*
X120745718Y-92362635D01*
X119349234Y-92362635D01*
X119354282Y-92237365D01*
X119324107Y-91988851D01*
X119254459Y-91748396D01*
X119248104Y-91735004D01*
X119230722Y-91698372D01*
X119147141Y-91522228D01*
X119004932Y-91316203D01*
X118831516Y-91135659D01*
X118808513Y-91118373D01*
X118633765Y-90987058D01*
X118633761Y-90987055D01*
X118631385Y-90985270D01*
X118628753Y-90983889D01*
X118628749Y-90983886D01*
X118412356Y-90870314D01*
X118409721Y-90868931D01*
X118406905Y-90867991D01*
X118406896Y-90867987D01*
X118175094Y-90790601D01*
X118175092Y-90790600D01*
X118172266Y-90789657D01*
X118169328Y-90789179D01*
X118169322Y-90789178D01*
X117928108Y-90749977D01*
X117928100Y-90749976D01*
X117925169Y-90749500D01*
X116737519Y-90749500D01*
X116736033Y-90749619D01*
X116736032Y-90749620D01*
X116553444Y-90764360D01*
X116553442Y-90764360D01*
X116550473Y-90764600D01*
X116547582Y-90765312D01*
X116547579Y-90765313D01*
X116310303Y-90823796D01*
X116310295Y-90823798D01*
X116307409Y-90824510D01*
X116304669Y-90825677D01*
X116304667Y-90825678D01*
X116079849Y-90921463D01*
X116079838Y-90921468D01*
X116077103Y-90922634D01*
X116074589Y-90924223D01*
X116074579Y-90924229D01*
X115868037Y-91054839D01*
X115868031Y-91054843D01*
X115865519Y-91056432D01*
X115863297Y-91058400D01*
X115863287Y-91058408D01*
X115680371Y-91220458D01*
X115680366Y-91220462D01*
X115678138Y-91222437D01*
X115676257Y-91224740D01*
X115676250Y-91224748D01*
X115521694Y-91414044D01*
X115521689Y-91414050D01*
X115519812Y-91416350D01*
X115518326Y-91418922D01*
X115518323Y-91418928D01*
X115397980Y-91627370D01*
X115394643Y-91633150D01*
X115393586Y-91635936D01*
X115393585Y-91635939D01*
X115306928Y-91864434D01*
X115306926Y-91864440D01*
X115305872Y-91867220D01*
X115305279Y-91870124D01*
X115305276Y-91870135D01*
X115280434Y-91991822D01*
X115255798Y-92112500D01*
X115255678Y-92115468D01*
X115255677Y-92115480D01*
X115250766Y-92237365D01*
X115245718Y-92362635D01*
X112254500Y-92362635D01*
X112254500Y-89063748D01*
X142107500Y-89063748D01*
X142119133Y-89122231D01*
X142163448Y-89188552D01*
X142229769Y-89232867D01*
X142288252Y-89244500D01*
X144024108Y-89244500D01*
X144027748Y-89244500D01*
X144086231Y-89232867D01*
X144152552Y-89188552D01*
X144196867Y-89122231D01*
X144208500Y-89063748D01*
X144208500Y-87324252D01*
X144196867Y-87265769D01*
X144152552Y-87199448D01*
X144086231Y-87155133D01*
X144079080Y-87153710D01*
X144079079Y-87153710D01*
X144031318Y-87144210D01*
X144031316Y-87144209D01*
X144027748Y-87143500D01*
X142288252Y-87143500D01*
X142284684Y-87144209D01*
X142284681Y-87144210D01*
X142236920Y-87153710D01*
X142236917Y-87153711D01*
X142229769Y-87155133D01*
X142223706Y-87159183D01*
X142223706Y-87159184D01*
X142169508Y-87195398D01*
X142169505Y-87195400D01*
X142163448Y-87199448D01*
X142159400Y-87205505D01*
X142159398Y-87205508D01*
X142123184Y-87259706D01*
X142119133Y-87265769D01*
X142117711Y-87272917D01*
X142117710Y-87272920D01*
X142108210Y-87320681D01*
X142107500Y-87324252D01*
X142107500Y-89063748D01*
X112254500Y-89063748D01*
X112254500Y-86002083D01*
X112254616Y-85997934D01*
X112264756Y-85817370D01*
X112271530Y-85696735D01*
X112272460Y-85688497D01*
X112272461Y-85688491D01*
X112297690Y-85540000D01*
X124184353Y-85540000D01*
X124185106Y-85545237D01*
X124197038Y-85628231D01*
X124204835Y-85682457D01*
X124264623Y-85813373D01*
X124358872Y-85922143D01*
X124479947Y-85999953D01*
X124485020Y-86001442D01*
X124485021Y-86001443D01*
X124487201Y-86002083D01*
X124618039Y-86040500D01*
X124756669Y-86040500D01*
X124761961Y-86040500D01*
X124900053Y-85999953D01*
X125021128Y-85922143D01*
X125115377Y-85813373D01*
X125175165Y-85682457D01*
X125191370Y-85569748D01*
X142109500Y-85569748D01*
X142121133Y-85628231D01*
X142125184Y-85634293D01*
X142160583Y-85687272D01*
X142165448Y-85694552D01*
X142231769Y-85738867D01*
X142290252Y-85750500D01*
X144026108Y-85750500D01*
X144029748Y-85750500D01*
X144088231Y-85738867D01*
X144154552Y-85694552D01*
X144198867Y-85628231D01*
X144210500Y-85569748D01*
X144210500Y-83830252D01*
X144198867Y-83771769D01*
X144154552Y-83705448D01*
X144088231Y-83661133D01*
X144081080Y-83659710D01*
X144081079Y-83659710D01*
X144033318Y-83650210D01*
X144033316Y-83650209D01*
X144029748Y-83649500D01*
X142290252Y-83649500D01*
X142286684Y-83650209D01*
X142286681Y-83650210D01*
X142238920Y-83659710D01*
X142238917Y-83659711D01*
X142231769Y-83661133D01*
X142225706Y-83665183D01*
X142225706Y-83665184D01*
X142171508Y-83701398D01*
X142171505Y-83701400D01*
X142165448Y-83705448D01*
X142161400Y-83711505D01*
X142161398Y-83711508D01*
X142125184Y-83765706D01*
X142121133Y-83771769D01*
X142119711Y-83778917D01*
X142119710Y-83778920D01*
X142110210Y-83826681D01*
X142109500Y-83830252D01*
X142109500Y-85569748D01*
X125191370Y-85569748D01*
X125195647Y-85540000D01*
X125175165Y-85397543D01*
X125115377Y-85266627D01*
X125021128Y-85157857D01*
X124900053Y-85080047D01*
X124894983Y-85078558D01*
X124894978Y-85078556D01*
X124767037Y-85040990D01*
X124767034Y-85040989D01*
X124761961Y-85039500D01*
X124618039Y-85039500D01*
X124612966Y-85040989D01*
X124612962Y-85040990D01*
X124485021Y-85078556D01*
X124485013Y-85078559D01*
X124479947Y-85080047D01*
X124475498Y-85082905D01*
X124475496Y-85082907D01*
X124363324Y-85154995D01*
X124363320Y-85154998D01*
X124358872Y-85157857D01*
X124355409Y-85161852D01*
X124355406Y-85161856D01*
X124268086Y-85262629D01*
X124268082Y-85262634D01*
X124264623Y-85266627D01*
X124204835Y-85397543D01*
X124204082Y-85402778D01*
X124204081Y-85402783D01*
X124191515Y-85490185D01*
X124184353Y-85540000D01*
X112297690Y-85540000D01*
X112322640Y-85393156D01*
X112324479Y-85385096D01*
X112407422Y-85097196D01*
X112410152Y-85089393D01*
X112524804Y-84812600D01*
X112528392Y-84805148D01*
X112669408Y-84550000D01*
X134679196Y-84550000D01*
X134700281Y-84683126D01*
X134761472Y-84803220D01*
X134856780Y-84898528D01*
X134976874Y-84959719D01*
X135110000Y-84980804D01*
X135243126Y-84959719D01*
X135363220Y-84898528D01*
X135458528Y-84803220D01*
X135519719Y-84683126D01*
X135540804Y-84550000D01*
X135519719Y-84416874D01*
X135458528Y-84296780D01*
X135363220Y-84201472D01*
X135243126Y-84140281D01*
X135237372Y-84139369D01*
X135237370Y-84139369D01*
X135115752Y-84120107D01*
X135110000Y-84119196D01*
X135104248Y-84120107D01*
X134982629Y-84139369D01*
X134982625Y-84139369D01*
X134976874Y-84140281D01*
X134971682Y-84142926D01*
X134971680Y-84142927D01*
X134861972Y-84198826D01*
X134861969Y-84198827D01*
X134856780Y-84201472D01*
X134852663Y-84205588D01*
X134852660Y-84205591D01*
X134765591Y-84292660D01*
X134765588Y-84292663D01*
X134761472Y-84296780D01*
X134758827Y-84301969D01*
X134758826Y-84301972D01*
X134702927Y-84411680D01*
X134700281Y-84416874D01*
X134699369Y-84422625D01*
X134699369Y-84422629D01*
X134683875Y-84520460D01*
X134679196Y-84550000D01*
X112669408Y-84550000D01*
X112673320Y-84542921D01*
X112677706Y-84535941D01*
X112851096Y-84291571D01*
X112856228Y-84285135D01*
X113055881Y-84061722D01*
X113061722Y-84055881D01*
X113285135Y-83856228D01*
X113291571Y-83851096D01*
X113535941Y-83677706D01*
X113542921Y-83673320D01*
X113805148Y-83528392D01*
X113812600Y-83524804D01*
X114089393Y-83410152D01*
X114097196Y-83407422D01*
X114385096Y-83324479D01*
X114393156Y-83322640D01*
X114688505Y-83272459D01*
X114696735Y-83271530D01*
X114997934Y-83254615D01*
X115002083Y-83254500D01*
X115044875Y-83254500D01*
X144490337Y-83254500D01*
X144527310Y-83264398D01*
G37*
%TD.AperFunction*%
%TD*%
%TA.AperFunction,Conductor*%
%TO.N,GND1*%
G36*
X166002065Y-83254615D02*
G01*
X166303262Y-83271530D01*
X166311496Y-83272459D01*
X166606839Y-83322639D01*
X166614907Y-83324480D01*
X166902798Y-83407420D01*
X166910611Y-83410154D01*
X167048592Y-83467308D01*
X167187394Y-83524802D01*
X167194857Y-83528396D01*
X167457070Y-83673316D01*
X167464066Y-83677711D01*
X167708419Y-83851090D01*
X167714873Y-83856236D01*
X167938268Y-84055873D01*
X167944126Y-84061731D01*
X168143761Y-84285124D01*
X168148911Y-84291582D01*
X168322285Y-84535929D01*
X168326686Y-84542934D01*
X168471597Y-84805129D01*
X168475197Y-84812605D01*
X168589841Y-85089378D01*
X168592582Y-85097211D01*
X168675516Y-85385081D01*
X168677362Y-85393172D01*
X168727539Y-85688497D01*
X168728469Y-85696743D01*
X168745384Y-85997934D01*
X168745500Y-86002083D01*
X168745500Y-106997917D01*
X168745384Y-107002066D01*
X168728469Y-107303256D01*
X168727539Y-107311502D01*
X168677362Y-107606827D01*
X168675516Y-107614918D01*
X168592582Y-107902788D01*
X168589841Y-107910621D01*
X168475197Y-108187394D01*
X168471597Y-108194870D01*
X168326693Y-108457054D01*
X168322279Y-108464078D01*
X168148917Y-108708408D01*
X168143754Y-108714883D01*
X168090067Y-108774960D01*
X167944131Y-108938263D01*
X167938263Y-108944131D01*
X167714883Y-109143754D01*
X167708408Y-109148917D01*
X167464081Y-109322278D01*
X167457054Y-109326693D01*
X167194870Y-109471597D01*
X167187394Y-109475197D01*
X166910621Y-109589841D01*
X166902788Y-109592582D01*
X166614918Y-109675516D01*
X166606827Y-109677362D01*
X166311502Y-109727539D01*
X166303256Y-109728469D01*
X166002066Y-109745384D01*
X165997917Y-109745500D01*
X147674000Y-109745500D01*
X147637000Y-109735586D01*
X147609914Y-109708500D01*
X147600000Y-109671500D01*
X147600000Y-107040000D01*
X154584353Y-107040000D01*
X154585106Y-107045237D01*
X154603124Y-107170561D01*
X154604835Y-107182457D01*
X154664623Y-107313373D01*
X154758872Y-107422143D01*
X154879947Y-107499953D01*
X154885020Y-107501442D01*
X154885021Y-107501443D01*
X154913534Y-107509815D01*
X155018039Y-107540500D01*
X155156669Y-107540500D01*
X155161961Y-107540500D01*
X155300053Y-107499953D01*
X155421128Y-107422143D01*
X155515377Y-107313373D01*
X155575165Y-107182457D01*
X155595647Y-107040000D01*
X155575165Y-106897543D01*
X155515377Y-106766627D01*
X155421128Y-106657857D01*
X155300053Y-106580047D01*
X155294983Y-106578558D01*
X155294978Y-106578556D01*
X155167037Y-106540990D01*
X155167034Y-106540989D01*
X155161961Y-106539500D01*
X155018039Y-106539500D01*
X155012966Y-106540989D01*
X155012962Y-106540990D01*
X154885021Y-106578556D01*
X154885013Y-106578559D01*
X154879947Y-106580047D01*
X154875498Y-106582905D01*
X154875496Y-106582907D01*
X154763324Y-106654995D01*
X154763320Y-106654998D01*
X154758872Y-106657857D01*
X154755409Y-106661852D01*
X154755406Y-106661856D01*
X154668086Y-106762629D01*
X154668082Y-106762634D01*
X154664623Y-106766627D01*
X154604835Y-106897543D01*
X154604082Y-106902778D01*
X154604081Y-106902783D01*
X154590104Y-107000000D01*
X154584353Y-107040000D01*
X147600000Y-107040000D01*
X147600000Y-106140000D01*
X151239196Y-106140000D01*
X151260281Y-106273126D01*
X151321472Y-106393220D01*
X151416780Y-106488528D01*
X151536874Y-106549719D01*
X151670000Y-106570804D01*
X151803126Y-106549719D01*
X151923220Y-106488528D01*
X152018528Y-106393220D01*
X152079719Y-106273126D01*
X152100804Y-106140000D01*
X152079719Y-106006874D01*
X152018528Y-105886780D01*
X151923220Y-105791472D01*
X151803126Y-105730281D01*
X151797372Y-105729369D01*
X151797370Y-105729369D01*
X151675752Y-105710107D01*
X151670000Y-105709196D01*
X151664248Y-105710107D01*
X151542629Y-105729369D01*
X151542625Y-105729369D01*
X151536874Y-105730281D01*
X151531682Y-105732926D01*
X151531680Y-105732927D01*
X151421972Y-105788826D01*
X151421969Y-105788827D01*
X151416780Y-105791472D01*
X151412663Y-105795588D01*
X151412660Y-105795591D01*
X151325591Y-105882660D01*
X151325588Y-105882663D01*
X151321472Y-105886780D01*
X151318827Y-105891969D01*
X151318826Y-105891972D01*
X151262927Y-106001680D01*
X151260281Y-106006874D01*
X151259369Y-106012625D01*
X151259369Y-106012629D01*
X151240107Y-106134248D01*
X151239196Y-106140000D01*
X147600000Y-106140000D01*
X147600000Y-104670000D01*
X149009196Y-104670000D01*
X149030281Y-104803126D01*
X149091472Y-104923220D01*
X149186780Y-105018528D01*
X149306874Y-105079719D01*
X149440000Y-105100804D01*
X149573126Y-105079719D01*
X149693220Y-105018528D01*
X149788528Y-104923220D01*
X149849719Y-104803126D01*
X149870804Y-104670000D01*
X149849719Y-104536874D01*
X149788528Y-104416780D01*
X149693220Y-104321472D01*
X149573126Y-104260281D01*
X149567372Y-104259369D01*
X149567370Y-104259369D01*
X149445752Y-104240107D01*
X149440000Y-104239196D01*
X149434248Y-104240107D01*
X149312629Y-104259369D01*
X149312625Y-104259369D01*
X149306874Y-104260281D01*
X149301682Y-104262926D01*
X149301680Y-104262927D01*
X149191972Y-104318826D01*
X149191969Y-104318827D01*
X149186780Y-104321472D01*
X149182663Y-104325588D01*
X149182660Y-104325591D01*
X149095591Y-104412660D01*
X149095588Y-104412663D01*
X149091472Y-104416780D01*
X149088827Y-104421969D01*
X149088826Y-104421972D01*
X149032927Y-104531680D01*
X149030281Y-104536874D01*
X149029369Y-104542625D01*
X149029369Y-104542629D01*
X149010107Y-104664248D01*
X149009196Y-104670000D01*
X147600000Y-104670000D01*
X147600000Y-100762635D01*
X156145718Y-100762635D01*
X156146077Y-100765599D01*
X156146078Y-100765600D01*
X156154077Y-100831482D01*
X156175893Y-101011149D01*
X156176723Y-101014017D01*
X156176725Y-101014023D01*
X156211930Y-101135565D01*
X156245541Y-101251604D01*
X156246817Y-101254293D01*
X156246820Y-101254301D01*
X156288808Y-101342788D01*
X156352859Y-101477772D01*
X156495068Y-101683797D01*
X156668484Y-101864341D01*
X156868615Y-102014730D01*
X157090279Y-102131069D01*
X157093100Y-102132011D01*
X157093103Y-102132012D01*
X157158070Y-102153701D01*
X157327734Y-102210343D01*
X157574831Y-102250500D01*
X158760990Y-102250500D01*
X158762481Y-102250500D01*
X158949527Y-102235400D01*
X159192591Y-102175490D01*
X159422897Y-102077366D01*
X159634481Y-101943568D01*
X159821862Y-101777563D01*
X159980188Y-101583650D01*
X160105357Y-101366850D01*
X160194128Y-101132780D01*
X160244202Y-100887500D01*
X160249234Y-100762635D01*
X161645718Y-100762635D01*
X161646077Y-100765599D01*
X161646078Y-100765600D01*
X161654077Y-100831482D01*
X161675893Y-101011149D01*
X161676723Y-101014017D01*
X161676725Y-101014023D01*
X161711930Y-101135565D01*
X161745541Y-101251604D01*
X161746817Y-101254293D01*
X161746820Y-101254301D01*
X161788808Y-101342788D01*
X161852859Y-101477772D01*
X161995068Y-101683797D01*
X162168484Y-101864341D01*
X162368615Y-102014730D01*
X162590279Y-102131069D01*
X162593100Y-102132011D01*
X162593103Y-102132012D01*
X162658070Y-102153701D01*
X162827734Y-102210343D01*
X163074831Y-102250500D01*
X164260990Y-102250500D01*
X164262481Y-102250500D01*
X164449527Y-102235400D01*
X164692591Y-102175490D01*
X164922897Y-102077366D01*
X165134481Y-101943568D01*
X165321862Y-101777563D01*
X165480188Y-101583650D01*
X165605357Y-101366850D01*
X165694128Y-101132780D01*
X165744202Y-100887500D01*
X165754282Y-100637365D01*
X165724107Y-100388851D01*
X165654459Y-100148396D01*
X165547141Y-99922228D01*
X165404932Y-99716203D01*
X165231516Y-99535659D01*
X165128714Y-99458408D01*
X165033765Y-99387058D01*
X165033761Y-99387055D01*
X165031385Y-99385270D01*
X165028753Y-99383889D01*
X165028749Y-99383886D01*
X164812356Y-99270314D01*
X164809721Y-99268931D01*
X164806905Y-99267991D01*
X164806896Y-99267987D01*
X164575094Y-99190601D01*
X164575092Y-99190600D01*
X164572266Y-99189657D01*
X164569328Y-99189179D01*
X164569322Y-99189178D01*
X164328108Y-99149977D01*
X164328100Y-99149976D01*
X164325169Y-99149500D01*
X163137519Y-99149500D01*
X163136033Y-99149619D01*
X163136032Y-99149620D01*
X162953444Y-99164360D01*
X162953442Y-99164360D01*
X162950473Y-99164600D01*
X162947582Y-99165312D01*
X162947579Y-99165313D01*
X162710303Y-99223796D01*
X162710295Y-99223798D01*
X162707409Y-99224510D01*
X162704669Y-99225677D01*
X162704667Y-99225678D01*
X162479849Y-99321463D01*
X162479838Y-99321468D01*
X162477103Y-99322634D01*
X162474589Y-99324223D01*
X162474579Y-99324229D01*
X162268037Y-99454839D01*
X162268031Y-99454843D01*
X162265519Y-99456432D01*
X162263297Y-99458400D01*
X162263287Y-99458408D01*
X162080371Y-99620458D01*
X162080366Y-99620462D01*
X162078138Y-99622437D01*
X162076257Y-99624740D01*
X162076250Y-99624748D01*
X161921694Y-99814044D01*
X161921689Y-99814050D01*
X161919812Y-99816350D01*
X161918326Y-99818922D01*
X161918323Y-99818928D01*
X161796134Y-100030567D01*
X161794643Y-100033150D01*
X161793586Y-100035936D01*
X161793585Y-100035939D01*
X161706928Y-100264434D01*
X161706926Y-100264440D01*
X161705872Y-100267220D01*
X161705279Y-100270124D01*
X161705276Y-100270135D01*
X161680434Y-100391822D01*
X161655798Y-100512500D01*
X161655678Y-100515468D01*
X161655677Y-100515480D01*
X161650766Y-100637365D01*
X161645718Y-100762635D01*
X160249234Y-100762635D01*
X160254282Y-100637365D01*
X160224107Y-100388851D01*
X160154459Y-100148396D01*
X160047141Y-99922228D01*
X159904932Y-99716203D01*
X159731516Y-99535659D01*
X159628714Y-99458408D01*
X159533765Y-99387058D01*
X159533761Y-99387055D01*
X159531385Y-99385270D01*
X159528753Y-99383889D01*
X159528749Y-99383886D01*
X159312356Y-99270314D01*
X159309721Y-99268931D01*
X159306905Y-99267991D01*
X159306896Y-99267987D01*
X159075094Y-99190601D01*
X159075092Y-99190600D01*
X159072266Y-99189657D01*
X159069328Y-99189179D01*
X159069322Y-99189178D01*
X158828108Y-99149977D01*
X158828100Y-99149976D01*
X158825169Y-99149500D01*
X157637519Y-99149500D01*
X157636033Y-99149619D01*
X157636032Y-99149620D01*
X157453444Y-99164360D01*
X157453442Y-99164360D01*
X157450473Y-99164600D01*
X157447582Y-99165312D01*
X157447579Y-99165313D01*
X157210303Y-99223796D01*
X157210295Y-99223798D01*
X157207409Y-99224510D01*
X157204669Y-99225677D01*
X157204667Y-99225678D01*
X156979849Y-99321463D01*
X156979838Y-99321468D01*
X156977103Y-99322634D01*
X156974589Y-99324223D01*
X156974579Y-99324229D01*
X156768037Y-99454839D01*
X156768031Y-99454843D01*
X156765519Y-99456432D01*
X156763297Y-99458400D01*
X156763287Y-99458408D01*
X156580371Y-99620458D01*
X156580366Y-99620462D01*
X156578138Y-99622437D01*
X156576257Y-99624740D01*
X156576250Y-99624748D01*
X156421694Y-99814044D01*
X156421689Y-99814050D01*
X156419812Y-99816350D01*
X156418326Y-99818922D01*
X156418323Y-99818928D01*
X156296134Y-100030567D01*
X156294643Y-100033150D01*
X156293586Y-100035936D01*
X156293585Y-100035939D01*
X156206928Y-100264434D01*
X156206926Y-100264440D01*
X156205872Y-100267220D01*
X156205279Y-100270124D01*
X156205276Y-100270135D01*
X156180434Y-100391822D01*
X156155798Y-100512500D01*
X156155678Y-100515468D01*
X156155677Y-100515480D01*
X156150766Y-100637365D01*
X156145718Y-100762635D01*
X147600000Y-100762635D01*
X147600000Y-96290000D01*
X151109196Y-96290000D01*
X151130281Y-96423126D01*
X151191472Y-96543220D01*
X151286780Y-96638528D01*
X151406874Y-96699719D01*
X151540000Y-96720804D01*
X151673126Y-96699719D01*
X151793220Y-96638528D01*
X151869113Y-96562635D01*
X156145718Y-96562635D01*
X156146077Y-96565599D01*
X156146078Y-96565600D01*
X156164812Y-96719893D01*
X156175893Y-96811149D01*
X156176723Y-96814017D01*
X156176725Y-96814023D01*
X156211930Y-96935565D01*
X156245541Y-97051604D01*
X156246817Y-97054293D01*
X156246820Y-97054301D01*
X156298902Y-97164060D01*
X156352859Y-97277772D01*
X156495068Y-97483797D01*
X156668484Y-97664341D01*
X156868615Y-97814730D01*
X157090279Y-97931069D01*
X157093100Y-97932011D01*
X157093103Y-97932012D01*
X157158183Y-97953738D01*
X157327734Y-98010343D01*
X157574831Y-98050500D01*
X158760990Y-98050500D01*
X158762481Y-98050500D01*
X158949527Y-98035400D01*
X159192591Y-97975490D01*
X159422897Y-97877366D01*
X159634481Y-97743568D01*
X159821862Y-97577563D01*
X159980188Y-97383650D01*
X160105357Y-97166850D01*
X160194128Y-96932780D01*
X160244202Y-96687500D01*
X160250152Y-96539843D01*
X160254162Y-96440345D01*
X160254161Y-96440343D01*
X160254282Y-96437365D01*
X160224107Y-96188851D01*
X160154459Y-95948396D01*
X160144520Y-95927451D01*
X160117613Y-95870744D01*
X160047141Y-95722228D01*
X159904932Y-95516203D01*
X159731516Y-95335659D01*
X159712637Y-95321472D01*
X159533765Y-95187058D01*
X159533761Y-95187055D01*
X159531385Y-95185270D01*
X159528753Y-95183889D01*
X159528749Y-95183886D01*
X159312356Y-95070314D01*
X159309721Y-95068931D01*
X159306905Y-95067991D01*
X159306896Y-95067987D01*
X159075094Y-94990601D01*
X159075092Y-94990600D01*
X159072266Y-94989657D01*
X159069328Y-94989179D01*
X159069322Y-94989178D01*
X158828108Y-94949977D01*
X158828100Y-94949976D01*
X158825169Y-94949500D01*
X157637519Y-94949500D01*
X157636033Y-94949619D01*
X157636032Y-94949620D01*
X157453444Y-94964360D01*
X157453442Y-94964360D01*
X157450473Y-94964600D01*
X157447582Y-94965312D01*
X157447579Y-94965313D01*
X157210303Y-95023796D01*
X157210295Y-95023798D01*
X157207409Y-95024510D01*
X157204669Y-95025677D01*
X157204667Y-95025678D01*
X156979849Y-95121463D01*
X156979838Y-95121468D01*
X156977103Y-95122634D01*
X156974589Y-95124223D01*
X156974579Y-95124229D01*
X156768037Y-95254839D01*
X156768031Y-95254843D01*
X156765519Y-95256432D01*
X156763297Y-95258400D01*
X156763287Y-95258408D01*
X156580371Y-95420458D01*
X156580366Y-95420462D01*
X156578138Y-95422437D01*
X156576257Y-95424740D01*
X156576250Y-95424748D01*
X156421694Y-95614044D01*
X156421689Y-95614050D01*
X156419812Y-95616350D01*
X156418326Y-95618922D01*
X156418323Y-95618928D01*
X156302397Y-95819719D01*
X156294643Y-95833150D01*
X156293586Y-95835936D01*
X156293585Y-95835939D01*
X156206928Y-96064434D01*
X156206926Y-96064440D01*
X156205872Y-96067220D01*
X156205279Y-96070124D01*
X156205276Y-96070135D01*
X156161565Y-96284249D01*
X156155798Y-96312500D01*
X156155678Y-96315468D01*
X156155677Y-96315480D01*
X156146500Y-96543220D01*
X156145718Y-96562635D01*
X151869113Y-96562635D01*
X151888528Y-96543220D01*
X151949719Y-96423126D01*
X151970804Y-96290000D01*
X151952418Y-96173917D01*
X151959572Y-96128749D01*
X151991912Y-96096410D01*
X152037082Y-96089255D01*
X152110000Y-96100804D01*
X152243126Y-96079719D01*
X152363220Y-96018528D01*
X152458528Y-95923220D01*
X152519719Y-95803126D01*
X152540804Y-95670000D01*
X152519719Y-95536874D01*
X152458528Y-95416780D01*
X152363220Y-95321472D01*
X152243126Y-95260281D01*
X152237372Y-95259369D01*
X152237370Y-95259369D01*
X152115752Y-95240107D01*
X152110000Y-95239196D01*
X152104248Y-95240107D01*
X151982629Y-95259369D01*
X151982625Y-95259369D01*
X151976874Y-95260281D01*
X151971682Y-95262926D01*
X151971680Y-95262927D01*
X151861972Y-95318826D01*
X151861969Y-95318827D01*
X151856780Y-95321472D01*
X151852663Y-95325588D01*
X151852660Y-95325591D01*
X151765591Y-95412660D01*
X151765588Y-95412663D01*
X151761472Y-95416780D01*
X151758827Y-95421969D01*
X151758826Y-95421972D01*
X151702927Y-95531680D01*
X151700281Y-95536874D01*
X151699369Y-95542625D01*
X151699369Y-95542629D01*
X151687693Y-95616350D01*
X151679196Y-95670000D01*
X151680107Y-95675752D01*
X151697581Y-95786079D01*
X151690427Y-95831250D01*
X151658088Y-95863589D01*
X151612917Y-95870744D01*
X151545753Y-95860107D01*
X151545752Y-95860107D01*
X151540000Y-95859196D01*
X151534248Y-95860107D01*
X151412629Y-95879369D01*
X151412625Y-95879369D01*
X151406874Y-95880281D01*
X151401682Y-95882926D01*
X151401680Y-95882927D01*
X151291972Y-95938826D01*
X151291969Y-95938827D01*
X151286780Y-95941472D01*
X151282663Y-95945588D01*
X151282660Y-95945591D01*
X151195591Y-96032660D01*
X151195588Y-96032663D01*
X151191472Y-96036780D01*
X151188827Y-96041969D01*
X151188826Y-96041972D01*
X151159314Y-96099893D01*
X151130281Y-96156874D01*
X151129369Y-96162625D01*
X151129369Y-96162629D01*
X151110107Y-96284248D01*
X151109196Y-96290000D01*
X147600000Y-96290000D01*
X147600000Y-94800000D01*
X149839196Y-94800000D01*
X149860281Y-94933126D01*
X149862927Y-94938319D01*
X149906843Y-95024510D01*
X149921472Y-95053220D01*
X150016780Y-95148528D01*
X150136874Y-95209719D01*
X150270000Y-95230804D01*
X150392579Y-95211389D01*
X150437749Y-95218543D01*
X150470088Y-95250883D01*
X150477243Y-95296054D01*
X150459196Y-95410000D01*
X150460107Y-95415752D01*
X150479290Y-95536874D01*
X150480281Y-95543126D01*
X150541472Y-95663220D01*
X150636780Y-95758528D01*
X150756874Y-95819719D01*
X150890000Y-95840804D01*
X151023126Y-95819719D01*
X151143220Y-95758528D01*
X151238528Y-95663220D01*
X151299719Y-95543126D01*
X151320804Y-95410000D01*
X151299719Y-95276874D01*
X151238528Y-95156780D01*
X151143220Y-95061472D01*
X151023126Y-95000281D01*
X151017372Y-94999369D01*
X151017370Y-94999369D01*
X150895752Y-94980107D01*
X150890000Y-94979196D01*
X150884248Y-94980107D01*
X150767421Y-94998610D01*
X150722249Y-94991455D01*
X150689910Y-94959116D01*
X150682756Y-94913947D01*
X150700804Y-94800000D01*
X150679719Y-94666874D01*
X150618528Y-94546780D01*
X150523220Y-94451472D01*
X150403126Y-94390281D01*
X150397372Y-94389369D01*
X150397370Y-94389369D01*
X150275752Y-94370107D01*
X150270000Y-94369196D01*
X150264248Y-94370107D01*
X150142629Y-94389369D01*
X150142625Y-94389369D01*
X150136874Y-94390281D01*
X150131682Y-94392926D01*
X150131680Y-94392927D01*
X150021972Y-94448826D01*
X150021969Y-94448827D01*
X150016780Y-94451472D01*
X150012663Y-94455588D01*
X150012660Y-94455591D01*
X149925591Y-94542660D01*
X149925588Y-94542663D01*
X149921472Y-94546780D01*
X149918827Y-94551969D01*
X149918826Y-94551972D01*
X149862927Y-94661680D01*
X149860281Y-94666874D01*
X149859369Y-94672625D01*
X149859369Y-94672629D01*
X149840107Y-94794248D01*
X149839196Y-94800000D01*
X147600000Y-94800000D01*
X147600000Y-92362635D01*
X156145718Y-92362635D01*
X156146077Y-92365599D01*
X156146078Y-92365600D01*
X156154077Y-92431482D01*
X156175893Y-92611149D01*
X156176723Y-92614017D01*
X156176725Y-92614023D01*
X156211930Y-92735565D01*
X156245541Y-92851604D01*
X156246817Y-92854293D01*
X156246820Y-92854301D01*
X156288808Y-92942788D01*
X156352859Y-93077772D01*
X156495068Y-93283797D01*
X156668484Y-93464341D01*
X156868615Y-93614730D01*
X157090279Y-93731069D01*
X157093100Y-93732011D01*
X157093103Y-93732012D01*
X157158070Y-93753701D01*
X157327734Y-93810343D01*
X157574831Y-93850500D01*
X158760990Y-93850500D01*
X158762481Y-93850500D01*
X158949527Y-93835400D01*
X159192591Y-93775490D01*
X159422897Y-93677366D01*
X159634481Y-93543568D01*
X159821862Y-93377563D01*
X159980188Y-93183650D01*
X160105357Y-92966850D01*
X160194128Y-92732780D01*
X160244202Y-92487500D01*
X160254282Y-92237365D01*
X160224107Y-91988851D01*
X160154459Y-91748396D01*
X160047141Y-91522228D01*
X159904932Y-91316203D01*
X159731516Y-91135659D01*
X159628714Y-91058408D01*
X159533765Y-90987058D01*
X159533761Y-90987055D01*
X159531385Y-90985270D01*
X159528753Y-90983889D01*
X159528749Y-90983886D01*
X159312356Y-90870314D01*
X159309721Y-90868931D01*
X159306905Y-90867991D01*
X159306896Y-90867987D01*
X159075094Y-90790601D01*
X159075092Y-90790600D01*
X159072266Y-90789657D01*
X159069328Y-90789179D01*
X159069322Y-90789178D01*
X158828108Y-90749977D01*
X158828100Y-90749976D01*
X158825169Y-90749500D01*
X157637519Y-90749500D01*
X157636033Y-90749619D01*
X157636032Y-90749620D01*
X157453444Y-90764360D01*
X157453442Y-90764360D01*
X157450473Y-90764600D01*
X157447582Y-90765312D01*
X157447579Y-90765313D01*
X157210303Y-90823796D01*
X157210295Y-90823798D01*
X157207409Y-90824510D01*
X157204669Y-90825677D01*
X157204667Y-90825678D01*
X156979849Y-90921463D01*
X156979838Y-90921468D01*
X156977103Y-90922634D01*
X156974589Y-90924223D01*
X156974579Y-90924229D01*
X156768037Y-91054839D01*
X156768031Y-91054843D01*
X156765519Y-91056432D01*
X156763297Y-91058400D01*
X156763287Y-91058408D01*
X156580371Y-91220458D01*
X156580366Y-91220462D01*
X156578138Y-91222437D01*
X156576257Y-91224740D01*
X156576250Y-91224748D01*
X156421694Y-91414044D01*
X156421689Y-91414050D01*
X156419812Y-91416350D01*
X156418326Y-91418922D01*
X156418323Y-91418928D01*
X156296134Y-91630567D01*
X156294643Y-91633150D01*
X156293586Y-91635936D01*
X156293585Y-91635939D01*
X156206928Y-91864434D01*
X156206926Y-91864440D01*
X156205872Y-91867220D01*
X156205279Y-91870124D01*
X156205276Y-91870135D01*
X156180434Y-91991822D01*
X156155798Y-92112500D01*
X156155678Y-92115468D01*
X156155677Y-92115480D01*
X156150766Y-92237365D01*
X156145718Y-92362635D01*
X147600000Y-92362635D01*
X147600000Y-90500000D01*
X151584196Y-90500000D01*
X151585107Y-90505752D01*
X151593735Y-90560231D01*
X151605281Y-90633126D01*
X151666472Y-90753220D01*
X151761780Y-90848528D01*
X151881874Y-90909719D01*
X152015000Y-90930804D01*
X152148126Y-90909719D01*
X152268220Y-90848528D01*
X152363528Y-90753220D01*
X152424719Y-90633126D01*
X152445804Y-90500000D01*
X152424719Y-90366874D01*
X152363528Y-90246780D01*
X152268220Y-90151472D01*
X152148126Y-90090281D01*
X152142372Y-90089369D01*
X152142370Y-90089369D01*
X152020752Y-90070107D01*
X152015000Y-90069196D01*
X152009248Y-90070107D01*
X151887629Y-90089369D01*
X151887625Y-90089369D01*
X151881874Y-90090281D01*
X151876682Y-90092926D01*
X151876680Y-90092927D01*
X151766972Y-90148826D01*
X151766969Y-90148827D01*
X151761780Y-90151472D01*
X151757663Y-90155588D01*
X151757660Y-90155591D01*
X151670591Y-90242660D01*
X151670588Y-90242663D01*
X151666472Y-90246780D01*
X151663827Y-90251969D01*
X151663826Y-90251972D01*
X151607927Y-90361680D01*
X151605281Y-90366874D01*
X151604369Y-90372625D01*
X151604369Y-90372629D01*
X151585107Y-90494248D01*
X151584196Y-90500000D01*
X147600000Y-90500000D01*
X147600000Y-89061748D01*
X147990500Y-89061748D01*
X148002133Y-89120231D01*
X148046448Y-89186552D01*
X148112769Y-89230867D01*
X148171252Y-89242500D01*
X149907108Y-89242500D01*
X149910748Y-89242500D01*
X149969231Y-89230867D01*
X150035552Y-89186552D01*
X150079867Y-89120231D01*
X150091500Y-89061748D01*
X150091500Y-87527000D01*
X155260196Y-87527000D01*
X155281281Y-87660126D01*
X155342472Y-87780220D01*
X155437780Y-87875528D01*
X155557874Y-87936719D01*
X155691000Y-87957804D01*
X155824126Y-87936719D01*
X155944220Y-87875528D01*
X156039528Y-87780220D01*
X156100719Y-87660126D01*
X156121804Y-87527000D01*
X156100719Y-87393874D01*
X156039528Y-87273780D01*
X155944220Y-87178472D01*
X155824126Y-87117281D01*
X155818372Y-87116369D01*
X155818370Y-87116369D01*
X155696752Y-87097107D01*
X155691000Y-87096196D01*
X155685248Y-87097107D01*
X155563629Y-87116369D01*
X155563625Y-87116369D01*
X155557874Y-87117281D01*
X155552682Y-87119926D01*
X155552680Y-87119927D01*
X155442972Y-87175826D01*
X155442969Y-87175827D01*
X155437780Y-87178472D01*
X155433663Y-87182588D01*
X155433660Y-87182591D01*
X155346591Y-87269660D01*
X155346588Y-87269663D01*
X155342472Y-87273780D01*
X155339827Y-87278969D01*
X155339826Y-87278972D01*
X155283927Y-87388680D01*
X155281281Y-87393874D01*
X155280369Y-87399625D01*
X155280369Y-87399629D01*
X155261107Y-87521248D01*
X155260196Y-87527000D01*
X150091500Y-87527000D01*
X150091500Y-87322252D01*
X150079867Y-87263769D01*
X150035552Y-87197448D01*
X149969231Y-87153133D01*
X149962080Y-87151710D01*
X149962079Y-87151710D01*
X149914318Y-87142210D01*
X149914316Y-87142209D01*
X149910748Y-87141500D01*
X148171252Y-87141500D01*
X148167684Y-87142209D01*
X148167681Y-87142210D01*
X148119920Y-87151710D01*
X148119917Y-87151711D01*
X148112769Y-87153133D01*
X148106706Y-87157183D01*
X148106706Y-87157184D01*
X148052508Y-87193398D01*
X148052505Y-87193400D01*
X148046448Y-87197448D01*
X148042400Y-87203505D01*
X148042398Y-87203508D01*
X148006184Y-87257706D01*
X148002133Y-87263769D01*
X148000711Y-87270917D01*
X148000710Y-87270920D01*
X147991210Y-87318681D01*
X147990500Y-87322252D01*
X147990500Y-89061748D01*
X147600000Y-89061748D01*
X147600000Y-85579748D01*
X147989500Y-85579748D01*
X148001133Y-85638231D01*
X148045448Y-85704552D01*
X148111769Y-85748867D01*
X148170252Y-85760500D01*
X149906108Y-85760500D01*
X149909748Y-85760500D01*
X149968231Y-85748867D01*
X150034552Y-85704552D01*
X150078867Y-85638231D01*
X150090500Y-85579748D01*
X150090500Y-83840252D01*
X150078867Y-83781769D01*
X150034552Y-83715448D01*
X149968231Y-83671133D01*
X149961080Y-83669710D01*
X149961079Y-83669710D01*
X149913318Y-83660210D01*
X149913316Y-83660209D01*
X149909748Y-83659500D01*
X148170252Y-83659500D01*
X148166684Y-83660209D01*
X148166681Y-83660210D01*
X148118920Y-83669710D01*
X148118917Y-83669711D01*
X148111769Y-83671133D01*
X148105706Y-83675183D01*
X148105706Y-83675184D01*
X148051508Y-83711398D01*
X148051505Y-83711400D01*
X148045448Y-83715448D01*
X148041400Y-83721505D01*
X148041398Y-83721508D01*
X148005184Y-83775706D01*
X148001133Y-83781769D01*
X147999711Y-83788917D01*
X147999710Y-83788920D01*
X147990210Y-83836681D01*
X147989500Y-83840252D01*
X147989500Y-85579748D01*
X147600000Y-85579748D01*
X147600000Y-83328500D01*
X147609914Y-83291500D01*
X147637000Y-83264414D01*
X147674000Y-83254500D01*
X165955125Y-83254500D01*
X165997917Y-83254500D01*
X166002065Y-83254615D01*
G37*
%TD.AperFunction*%
%TD*%
M02*
