%TF.GenerationSoftware,KiCad,Pcbnew,(7.0.0)*%
%TF.CreationDate,2023-04-14T14:14:43+01:00*%
%TF.ProjectId,CANRepIso,43414e52-6570-4497-936f-2e6b69636164,rev?*%
%TF.SameCoordinates,Original*%
%TF.FileFunction,Soldermask,Top*%
%TF.FilePolarity,Negative*%
%FSLAX46Y46*%
G04 Gerber Fmt 4.6, Leading zero omitted, Abs format (unit mm)*
G04 Created by KiCad (PCBNEW (7.0.0)) date 2023-04-14 14:14:43*
%MOMM*%
%LPD*%
G01*
G04 APERTURE LIST*
G04 Aperture macros list*
%AMRoundRect*
0 Rectangle with rounded corners*
0 $1 Rounding radius*
0 $2 $3 $4 $5 $6 $7 $8 $9 X,Y pos of 4 corners*
0 Add a 4 corners polygon primitive as box body*
4,1,4,$2,$3,$4,$5,$6,$7,$8,$9,$2,$3,0*
0 Add four circle primitives for the rounded corners*
1,1,$1+$1,$2,$3*
1,1,$1+$1,$4,$5*
1,1,$1+$1,$6,$7*
1,1,$1+$1,$8,$9*
0 Add four rect primitives between the rounded corners*
20,1,$1+$1,$2,$3,$4,$5,0*
20,1,$1+$1,$4,$5,$6,$7,0*
20,1,$1+$1,$6,$7,$8,$9,0*
20,1,$1+$1,$8,$9,$2,$3,0*%
%AMFreePoly0*
4,1,19,0.500000,-0.750000,0.000000,-0.750000,0.000000,-0.744911,-0.071157,-0.744911,-0.207708,-0.704816,-0.327430,-0.627875,-0.420627,-0.520320,-0.479746,-0.390866,-0.500000,-0.250000,-0.500000,0.250000,-0.479746,0.390866,-0.420627,0.520320,-0.327430,0.627875,-0.207708,0.704816,-0.071157,0.744911,0.000000,0.744911,0.000000,0.750000,0.500000,0.750000,0.500000,-0.750000,0.500000,-0.750000,
$1*%
%AMFreePoly1*
4,1,19,0.000000,0.744911,0.071157,0.744911,0.207708,0.704816,0.327430,0.627875,0.420627,0.520320,0.479746,0.390866,0.500000,0.250000,0.500000,-0.250000,0.479746,-0.390866,0.420627,-0.520320,0.327430,-0.627875,0.207708,-0.704816,0.071157,-0.744911,0.000000,-0.744911,0.000000,-0.750000,-0.500000,-0.750000,-0.500000,0.750000,0.000000,0.750000,0.000000,0.744911,0.000000,0.744911,
$1*%
G04 Aperture macros list end*
%ADD10R,1.200000X0.600000*%
%ADD11RoundRect,0.140000X0.170000X-0.140000X0.170000X0.140000X-0.170000X0.140000X-0.170000X-0.140000X0*%
%ADD12C,1.000000*%
%ADD13RoundRect,0.135000X-0.135000X-0.185000X0.135000X-0.185000X0.135000X0.185000X-0.135000X0.185000X0*%
%ADD14RoundRect,0.135000X0.185000X-0.135000X0.185000X0.135000X-0.185000X0.135000X-0.185000X-0.135000X0*%
%ADD15RoundRect,0.200000X-0.275000X0.200000X-0.275000X-0.200000X0.275000X-0.200000X0.275000X0.200000X0*%
%ADD16RoundRect,0.040600X0.564400X0.249400X-0.564400X0.249400X-0.564400X-0.249400X0.564400X-0.249400X0*%
%ADD17RoundRect,0.140000X0.140000X0.170000X-0.140000X0.170000X-0.140000X-0.170000X0.140000X-0.170000X0*%
%ADD18RoundRect,0.150000X-0.150000X0.825000X-0.150000X-0.825000X0.150000X-0.825000X0.150000X0.825000X0*%
%ADD19RoundRect,0.147500X-0.147500X-0.172500X0.147500X-0.172500X0.147500X0.172500X-0.147500X0.172500X0*%
%ADD20RoundRect,0.140000X-0.170000X0.140000X-0.170000X-0.140000X0.170000X-0.140000X0.170000X0.140000X0*%
%ADD21RoundRect,0.150000X0.825000X0.150000X-0.825000X0.150000X-0.825000X-0.150000X0.825000X-0.150000X0*%
%ADD22FreePoly0,90.000000*%
%ADD23FreePoly1,90.000000*%
%ADD24RoundRect,0.250001X-1.599999X1.099999X-1.599999X-1.099999X1.599999X-1.099999X1.599999X1.099999X0*%
%ADD25O,3.700000X2.700000*%
%ADD26RoundRect,0.200000X-0.200000X-0.275000X0.200000X-0.275000X0.200000X0.275000X-0.200000X0.275000X0*%
%ADD27RoundRect,0.147500X0.147500X0.172500X-0.147500X0.172500X-0.147500X-0.172500X0.147500X-0.172500X0*%
%ADD28RoundRect,0.135000X0.135000X0.185000X-0.135000X0.185000X-0.135000X-0.185000X0.135000X-0.185000X0*%
%ADD29RoundRect,0.140000X-0.140000X-0.170000X0.140000X-0.170000X0.140000X0.170000X-0.140000X0.170000X0*%
%ADD30RoundRect,0.250001X1.599999X-1.099999X1.599999X1.099999X-1.599999X1.099999X-1.599999X-1.099999X0*%
%ADD31RoundRect,0.200000X0.200000X0.275000X-0.200000X0.275000X-0.200000X-0.275000X0.200000X-0.275000X0*%
%ADD32C,5.600000*%
%ADD33R,1.700000X1.700000*%
%ADD34RoundRect,0.150000X-0.150000X0.587500X-0.150000X-0.587500X0.150000X-0.587500X0.150000X0.587500X0*%
%ADD35FreePoly0,270.000000*%
%ADD36FreePoly1,270.000000*%
%ADD37RoundRect,0.135000X-0.185000X0.135000X-0.185000X-0.135000X0.185000X-0.135000X0.185000X0.135000X0*%
%ADD38RoundRect,0.150000X0.587500X0.150000X-0.587500X0.150000X-0.587500X-0.150000X0.587500X-0.150000X0*%
%ADD39RoundRect,0.147500X-0.172500X0.147500X-0.172500X-0.147500X0.172500X-0.147500X0.172500X0.147500X0*%
%ADD40RoundRect,0.150000X0.150000X-0.825000X0.150000X0.825000X-0.150000X0.825000X-0.150000X-0.825000X0*%
%ADD41RoundRect,0.150000X-0.825000X-0.150000X0.825000X-0.150000X0.825000X0.150000X-0.825000X0.150000X0*%
%ADD42RoundRect,0.040600X-0.249400X0.564400X-0.249400X-0.564400X0.249400X-0.564400X0.249400X0.564400X0*%
%ADD43RoundRect,0.008100X0.126900X-0.551900X0.126900X0.551900X-0.126900X0.551900X-0.126900X-0.551900X0*%
%ADD44RoundRect,0.008100X0.551900X0.126900X-0.551900X0.126900X-0.551900X-0.126900X0.551900X-0.126900X0*%
%ADD45R,0.240000X1.570000*%
G04 APERTURE END LIST*
D10*
%TO.C,U11*%
X158399999Y-87267999D03*
X158399999Y-85367999D03*
X160899999Y-85367999D03*
X160899999Y-86317999D03*
X160899999Y-87267999D03*
%TD*%
D11*
%TO.C,C15*%
X120186800Y-106453200D03*
X120186800Y-105493200D03*
%TD*%
D12*
%TO.C,TP6*%
X150760000Y-90520000D03*
%TD*%
D13*
%TO.C,R4*%
X130890000Y-102040000D03*
X131910000Y-102040000D03*
%TD*%
D14*
%TO.C,R7*%
X149440000Y-104150000D03*
X149440000Y-103130000D03*
%TD*%
D15*
%TO.C,R3*%
X126600000Y-94780000D03*
X126600000Y-96430000D03*
%TD*%
D16*
%TO.C,U3*%
X124016799Y-107493201D03*
X124016799Y-106543201D03*
X124016799Y-105593201D03*
X121506799Y-105593201D03*
X121506799Y-106543201D03*
X121506799Y-107493201D03*
%TD*%
D17*
%TO.C,C4*%
X130670000Y-99085000D03*
X129710000Y-99085000D03*
%TD*%
D18*
%TO.C,U8*%
X154510000Y-98900000D03*
X153240000Y-98900000D03*
X151970000Y-98900000D03*
X150700000Y-98900000D03*
X150700000Y-103850000D03*
X151970000Y-103850000D03*
X153240000Y-103850000D03*
X154510000Y-103850000D03*
%TD*%
D19*
%TO.C,D5*%
X152030000Y-92170000D03*
X153000000Y-92170000D03*
%TD*%
D20*
%TO.C,C23*%
X124680001Y-86290000D03*
X124680001Y-87250000D03*
%TD*%
D21*
%TO.C,U9*%
X148585000Y-94605000D03*
X148585000Y-93335000D03*
X148585000Y-92065000D03*
X148585000Y-90795000D03*
X143635000Y-90795000D03*
X143635000Y-92065000D03*
X143635000Y-93335000D03*
X143635000Y-94605000D03*
%TD*%
D22*
%TO.C,JP1*%
X140670000Y-90320000D03*
D23*
X140670000Y-89020000D03*
%TD*%
D11*
%TO.C,C3*%
X129985000Y-90100000D03*
X129985000Y-89140000D03*
%TD*%
D24*
%TO.C,RBUS2*%
X163700000Y-92300000D03*
D25*
X163699999Y-96499999D03*
X163699999Y-100699999D03*
X158199999Y-92299999D03*
X158199999Y-96499999D03*
X158199999Y-100699999D03*
%TD*%
D26*
%TO.C,R8*%
X158515000Y-104630000D03*
X160165000Y-104630000D03*
%TD*%
D13*
%TO.C,R6*%
X152005000Y-91230000D03*
X153025000Y-91230000D03*
%TD*%
D19*
%TO.C,D7*%
X120945000Y-84970000D03*
X121915000Y-84970000D03*
%TD*%
D27*
%TO.C,D4*%
X126567500Y-101100000D03*
X125597500Y-101100000D03*
%TD*%
D28*
%TO.C,R13*%
X123805000Y-84970000D03*
X122785000Y-84970000D03*
%TD*%
D29*
%TO.C,C19*%
X130880000Y-107780000D03*
X131840000Y-107780000D03*
%TD*%
D12*
%TO.C,TP4*%
X140270000Y-100330000D03*
%TD*%
D30*
%TO.C,RBUS1*%
X117300000Y-100700000D03*
D25*
X117299999Y-96499999D03*
X117299999Y-92299999D03*
X122799999Y-100699999D03*
X122799999Y-96499999D03*
X122799999Y-92299999D03*
%TD*%
D29*
%TO.C,C16*%
X135230000Y-98470000D03*
X136190000Y-98470000D03*
%TD*%
D31*
%TO.C,R10*%
X156490000Y-108235000D03*
X154840000Y-108235000D03*
%TD*%
D32*
%TO.C,H3*%
X166000000Y-86000000D03*
%TD*%
D33*
%TO.C,TP7*%
X143159999Y-84699999D03*
%TD*%
D28*
%TO.C,R5*%
X126592500Y-102040000D03*
X125572500Y-102040000D03*
%TD*%
D17*
%TO.C,C17*%
X134480000Y-84540000D03*
X133520000Y-84540000D03*
%TD*%
D14*
%TO.C,R15*%
X133210000Y-91975000D03*
X133210000Y-90955000D03*
%TD*%
%TO.C,R14*%
X155747000Y-86346000D03*
X155747000Y-87366000D03*
%TD*%
D32*
%TO.C,H1*%
X115000000Y-86000000D03*
%TD*%
D17*
%TO.C,C21*%
X121281799Y-104593202D03*
X120321799Y-104593202D03*
%TD*%
D27*
%TO.C,D8*%
X155776000Y-85454000D03*
X156746000Y-85454000D03*
%TD*%
D33*
%TO.C,TP9*%
X149039999Y-84709999D03*
%TD*%
D34*
%TO.C,D1*%
X130935000Y-85845000D03*
X129035000Y-85845000D03*
X129985000Y-87720000D03*
%TD*%
D12*
%TO.C,TP5*%
X154800000Y-95750000D03*
%TD*%
D32*
%TO.C,H2*%
X115000000Y-107000000D03*
%TD*%
D27*
%TO.C,D3*%
X132977500Y-101100000D03*
X132007500Y-101100000D03*
%TD*%
D17*
%TO.C,C5*%
X130670000Y-100035001D03*
X129710000Y-100035001D03*
%TD*%
D20*
%TO.C,C13*%
X119560001Y-86330000D03*
X119560001Y-87290000D03*
%TD*%
D26*
%TO.C,R9*%
X154860000Y-105835000D03*
X156510000Y-105835000D03*
%TD*%
D11*
%TO.C,C18*%
X126590000Y-108305000D03*
X126590000Y-107345000D03*
%TD*%
D12*
%TO.C,TP1*%
X133250000Y-98800000D03*
%TD*%
D10*
%TO.C,U10*%
X120869999Y-86289999D03*
X120869999Y-87239999D03*
X120869999Y-88189999D03*
X123369999Y-88189999D03*
X123369999Y-86289999D03*
%TD*%
D29*
%TO.C,C20*%
X127510000Y-103490000D03*
X128470000Y-103490000D03*
%TD*%
D35*
%TO.C,JP2*%
X140670000Y-92340000D03*
D36*
X140670000Y-93640000D03*
%TD*%
D32*
%TO.C,H4*%
X166000000Y-107000000D03*
%TD*%
D37*
%TO.C,R11*%
X120181799Y-107303202D03*
X120181799Y-108323202D03*
%TD*%
D26*
%TO.C,R1*%
X131105000Y-89795000D03*
X132755000Y-89795000D03*
%TD*%
D33*
%TO.C,TP11*%
X143129999Y-88193999D03*
%TD*%
D12*
%TO.C,TP3*%
X140480000Y-96980000D03*
%TD*%
D26*
%TO.C,R2*%
X127225000Y-89805000D03*
X128875000Y-89805000D03*
%TD*%
D12*
%TO.C,TP2*%
X126320000Y-98730000D03*
%TD*%
D38*
%TO.C,D2*%
X160027500Y-108070000D03*
X160027500Y-106170000D03*
X158152500Y-107120000D03*
%TD*%
D11*
%TO.C,C22*%
X157090000Y-86368000D03*
X157090000Y-87328000D03*
%TD*%
D39*
%TO.C,D6*%
X149440000Y-101305000D03*
X149440000Y-102275000D03*
%TD*%
D28*
%TO.C,R16*%
X151640001Y-105550000D03*
X150620001Y-105550000D03*
%TD*%
D20*
%TO.C,C7*%
X141940000Y-95360000D03*
X141940000Y-96320000D03*
%TD*%
D29*
%TO.C,C12*%
X155765000Y-107035000D03*
X156725000Y-107035000D03*
%TD*%
D40*
%TO.C,U6*%
X128130000Y-97395000D03*
X129400000Y-97395000D03*
X130670000Y-97395000D03*
X131940000Y-97395000D03*
X131940000Y-92445000D03*
X130670000Y-92445000D03*
X129400000Y-92445000D03*
X128130000Y-92445000D03*
%TD*%
D41*
%TO.C,U7*%
X143630000Y-96190000D03*
X143630000Y-97460000D03*
X143630000Y-98730000D03*
X143630000Y-100000000D03*
X148580000Y-100000000D03*
X148580000Y-98730000D03*
X148580000Y-97460000D03*
X148580000Y-96190000D03*
%TD*%
D29*
%TO.C,C10*%
X152110000Y-97220000D03*
X153070000Y-97220000D03*
%TD*%
D33*
%TO.C,TP12*%
X149040999Y-88191999D03*
%TD*%
D42*
%TO.C,U4*%
X136110000Y-94645000D03*
X135160000Y-94645000D03*
X134210000Y-94645000D03*
X134210000Y-97155000D03*
X135160000Y-97155000D03*
X136110000Y-97155000D03*
%TD*%
D43*
%TO.C,U5*%
X127550000Y-107930000D03*
X128050000Y-107930000D03*
X128550000Y-107930000D03*
X129050000Y-107930000D03*
X129050000Y-105120000D03*
X128550000Y-105120000D03*
X128050000Y-105120000D03*
X127550000Y-105120000D03*
%TD*%
D44*
%TO.C,U2*%
X133730000Y-106820000D03*
X133730000Y-106320000D03*
X133730000Y-105820000D03*
X133730000Y-105320000D03*
X130920000Y-105320000D03*
X130920000Y-105820000D03*
X130920000Y-106320000D03*
X130920000Y-106820000D03*
%TD*%
D45*
%TO.C,U1*%
X134599999Y-91779999D03*
X134999999Y-91779999D03*
X135399999Y-91779999D03*
X135799999Y-91779999D03*
X136199999Y-91779999D03*
X136599999Y-91779999D03*
X136999999Y-91779999D03*
X136999999Y-86039999D03*
X136599999Y-86039999D03*
X136199999Y-86039999D03*
X135799999Y-86039999D03*
X135399999Y-86039999D03*
X134999999Y-86039999D03*
X134599999Y-86039999D03*
%TD*%
D29*
%TO.C,C6*%
X152030000Y-93080000D03*
X152990000Y-93080000D03*
%TD*%
D33*
%TO.C,TP8*%
X143243999Y-108254999D03*
%TD*%
D17*
%TO.C,C9*%
X154890000Y-97210000D03*
X153930000Y-97210000D03*
%TD*%
D29*
%TO.C,C1*%
X133050000Y-100160000D03*
X134010000Y-100160000D03*
%TD*%
%TO.C,C14*%
X160807901Y-88590526D03*
X161767901Y-88590526D03*
%TD*%
D17*
%TO.C,C2*%
X126560000Y-100170000D03*
X125600000Y-100170000D03*
%TD*%
D20*
%TO.C,C8*%
X150270000Y-95420000D03*
X150270000Y-96380000D03*
%TD*%
D28*
%TO.C,R12*%
X123151799Y-104373202D03*
X122131799Y-104373202D03*
%TD*%
D29*
%TO.C,C11*%
X152110000Y-96290000D03*
X153070000Y-96290000D03*
%TD*%
D33*
%TO.C,TP10*%
X148978999Y-108227999D03*
%TD*%
M02*
