%TF.GenerationSoftware,KiCad,Pcbnew,(7.0.0)*%
%TF.CreationDate,2023-03-31T05:55:29+01:00*%
%TF.ProjectId,CANRepIso,43414e52-6570-4497-936f-2e6b69636164,rev?*%
%TF.SameCoordinates,Original*%
%TF.FileFunction,Drillmap*%
%TF.FilePolarity,Positive*%
%FSLAX45Y45*%
G04 Gerber Fmt 4.5, Leading zero omitted, Abs format (unit mm)*
G04 Created by KiCad (PCBNEW (7.0.0)) date 2023-03-31 05:55:29*
%MOMM*%
%LPD*%
G01*
G04 APERTURE LIST*
%ADD10C,0.100000*%
%ADD11C,0.200000*%
%ADD12C,0.300000*%
G04 APERTURE END LIST*
D10*
X11500000Y-8300000D02*
X16600000Y-8300000D01*
X11500000Y-11000000D02*
X16600000Y-11000000D01*
X11200000Y-8600000D02*
X11200000Y-10700000D01*
X16900000Y-10700000D02*
X16900000Y-8600000D01*
X11200000Y-10700000D02*
G75*
G03*
X11500000Y-11000000I300000J0D01*
G01*
X11500000Y-8300000D02*
G75*
G03*
X11200000Y-8600000I0J-300000D01*
G01*
X16900000Y-8600000D02*
G75*
G03*
X16600000Y-8300000I-300000J0D01*
G01*
X16600000Y-11000000D02*
G75*
G03*
X16900000Y-10700000I0J300000D01*
G01*
D11*
D12*
X10850000Y-9080000D02*
X11150000Y-9380000D01*
X11150000Y-9080000D02*
X10850000Y-9380000D01*
X10850000Y-9920000D02*
X11150000Y-10220000D01*
X11150000Y-9920000D02*
X10850000Y-10220000D01*
X16950000Y-9080000D02*
X17250000Y-9380000D01*
X17250000Y-9080000D02*
X16950000Y-9380000D01*
X16950000Y-9920000D02*
X17250000Y-10220000D01*
X17250000Y-9920000D02*
X16950000Y-10220000D01*
D11*
X11442619Y-11298476D02*
X11442619Y-11098476D01*
X11442619Y-11098476D02*
X11490238Y-11098476D01*
X11490238Y-11098476D02*
X11518809Y-11108000D01*
X11518809Y-11108000D02*
X11537857Y-11127048D01*
X11537857Y-11127048D02*
X11547381Y-11146095D01*
X11547381Y-11146095D02*
X11556905Y-11184190D01*
X11556905Y-11184190D02*
X11556905Y-11212762D01*
X11556905Y-11212762D02*
X11547381Y-11250857D01*
X11547381Y-11250857D02*
X11537857Y-11269905D01*
X11537857Y-11269905D02*
X11518809Y-11288952D01*
X11518809Y-11288952D02*
X11490238Y-11298476D01*
X11490238Y-11298476D02*
X11442619Y-11298476D01*
X11642619Y-11298476D02*
X11642619Y-11165143D01*
X11642619Y-11203238D02*
X11652143Y-11184190D01*
X11652143Y-11184190D02*
X11661667Y-11174667D01*
X11661667Y-11174667D02*
X11680714Y-11165143D01*
X11680714Y-11165143D02*
X11699762Y-11165143D01*
X11766428Y-11298476D02*
X11766428Y-11165143D01*
X11766428Y-11098476D02*
X11756905Y-11108000D01*
X11756905Y-11108000D02*
X11766428Y-11117524D01*
X11766428Y-11117524D02*
X11775952Y-11108000D01*
X11775952Y-11108000D02*
X11766428Y-11098476D01*
X11766428Y-11098476D02*
X11766428Y-11117524D01*
X11890238Y-11298476D02*
X11871190Y-11288952D01*
X11871190Y-11288952D02*
X11861667Y-11269905D01*
X11861667Y-11269905D02*
X11861667Y-11098476D01*
X11995000Y-11298476D02*
X11975952Y-11288952D01*
X11975952Y-11288952D02*
X11966428Y-11269905D01*
X11966428Y-11269905D02*
X11966428Y-11098476D01*
X12191190Y-11298476D02*
X12191190Y-11098476D01*
X12191190Y-11098476D02*
X12257857Y-11241333D01*
X12257857Y-11241333D02*
X12324524Y-11098476D01*
X12324524Y-11098476D02*
X12324524Y-11298476D01*
X12505476Y-11298476D02*
X12505476Y-11193714D01*
X12505476Y-11193714D02*
X12495952Y-11174667D01*
X12495952Y-11174667D02*
X12476905Y-11165143D01*
X12476905Y-11165143D02*
X12438809Y-11165143D01*
X12438809Y-11165143D02*
X12419762Y-11174667D01*
X12505476Y-11288952D02*
X12486428Y-11298476D01*
X12486428Y-11298476D02*
X12438809Y-11298476D01*
X12438809Y-11298476D02*
X12419762Y-11288952D01*
X12419762Y-11288952D02*
X12410238Y-11269905D01*
X12410238Y-11269905D02*
X12410238Y-11250857D01*
X12410238Y-11250857D02*
X12419762Y-11231809D01*
X12419762Y-11231809D02*
X12438809Y-11222286D01*
X12438809Y-11222286D02*
X12486428Y-11222286D01*
X12486428Y-11222286D02*
X12505476Y-11212762D01*
X12600714Y-11165143D02*
X12600714Y-11365143D01*
X12600714Y-11174667D02*
X12619762Y-11165143D01*
X12619762Y-11165143D02*
X12657857Y-11165143D01*
X12657857Y-11165143D02*
X12676905Y-11174667D01*
X12676905Y-11174667D02*
X12686428Y-11184190D01*
X12686428Y-11184190D02*
X12695952Y-11203238D01*
X12695952Y-11203238D02*
X12695952Y-11260381D01*
X12695952Y-11260381D02*
X12686428Y-11279428D01*
X12686428Y-11279428D02*
X12676905Y-11288952D01*
X12676905Y-11288952D02*
X12657857Y-11298476D01*
X12657857Y-11298476D02*
X12619762Y-11298476D01*
X12619762Y-11298476D02*
X12600714Y-11288952D01*
X12781667Y-11279428D02*
X12791190Y-11288952D01*
X12791190Y-11288952D02*
X12781667Y-11298476D01*
X12781667Y-11298476D02*
X12772143Y-11288952D01*
X12772143Y-11288952D02*
X12781667Y-11279428D01*
X12781667Y-11279428D02*
X12781667Y-11298476D01*
X12781667Y-11174667D02*
X12791190Y-11184190D01*
X12791190Y-11184190D02*
X12781667Y-11193714D01*
X12781667Y-11193714D02*
X12772143Y-11184190D01*
X12772143Y-11184190D02*
X12781667Y-11174667D01*
X12781667Y-11174667D02*
X12781667Y-11193714D01*
X10995000Y-11545000D02*
X11195000Y-11745000D01*
X11195000Y-11545000D02*
X10995000Y-11745000D01*
X11423571Y-11518476D02*
X11547381Y-11518476D01*
X11547381Y-11518476D02*
X11480714Y-11594667D01*
X11480714Y-11594667D02*
X11509286Y-11594667D01*
X11509286Y-11594667D02*
X11528333Y-11604190D01*
X11528333Y-11604190D02*
X11537857Y-11613714D01*
X11537857Y-11613714D02*
X11547381Y-11632762D01*
X11547381Y-11632762D02*
X11547381Y-11680381D01*
X11547381Y-11680381D02*
X11537857Y-11699428D01*
X11537857Y-11699428D02*
X11528333Y-11708952D01*
X11528333Y-11708952D02*
X11509286Y-11718476D01*
X11509286Y-11718476D02*
X11452143Y-11718476D01*
X11452143Y-11718476D02*
X11433095Y-11708952D01*
X11433095Y-11708952D02*
X11423571Y-11699428D01*
X11633095Y-11699428D02*
X11642619Y-11708952D01*
X11642619Y-11708952D02*
X11633095Y-11718476D01*
X11633095Y-11718476D02*
X11623571Y-11708952D01*
X11623571Y-11708952D02*
X11633095Y-11699428D01*
X11633095Y-11699428D02*
X11633095Y-11718476D01*
X11766428Y-11518476D02*
X11785476Y-11518476D01*
X11785476Y-11518476D02*
X11804524Y-11528000D01*
X11804524Y-11528000D02*
X11814048Y-11537524D01*
X11814048Y-11537524D02*
X11823571Y-11556571D01*
X11823571Y-11556571D02*
X11833095Y-11594667D01*
X11833095Y-11594667D02*
X11833095Y-11642286D01*
X11833095Y-11642286D02*
X11823571Y-11680381D01*
X11823571Y-11680381D02*
X11814048Y-11699428D01*
X11814048Y-11699428D02*
X11804524Y-11708952D01*
X11804524Y-11708952D02*
X11785476Y-11718476D01*
X11785476Y-11718476D02*
X11766428Y-11718476D01*
X11766428Y-11718476D02*
X11747381Y-11708952D01*
X11747381Y-11708952D02*
X11737857Y-11699428D01*
X11737857Y-11699428D02*
X11728333Y-11680381D01*
X11728333Y-11680381D02*
X11718809Y-11642286D01*
X11718809Y-11642286D02*
X11718809Y-11594667D01*
X11718809Y-11594667D02*
X11728333Y-11556571D01*
X11728333Y-11556571D02*
X11737857Y-11537524D01*
X11737857Y-11537524D02*
X11747381Y-11528000D01*
X11747381Y-11528000D02*
X11766428Y-11518476D01*
X11956905Y-11518476D02*
X11975952Y-11518476D01*
X11975952Y-11518476D02*
X11995000Y-11528000D01*
X11995000Y-11528000D02*
X12004524Y-11537524D01*
X12004524Y-11537524D02*
X12014048Y-11556571D01*
X12014048Y-11556571D02*
X12023571Y-11594667D01*
X12023571Y-11594667D02*
X12023571Y-11642286D01*
X12023571Y-11642286D02*
X12014048Y-11680381D01*
X12014048Y-11680381D02*
X12004524Y-11699428D01*
X12004524Y-11699428D02*
X11995000Y-11708952D01*
X11995000Y-11708952D02*
X11975952Y-11718476D01*
X11975952Y-11718476D02*
X11956905Y-11718476D01*
X11956905Y-11718476D02*
X11937857Y-11708952D01*
X11937857Y-11708952D02*
X11928333Y-11699428D01*
X11928333Y-11699428D02*
X11918809Y-11680381D01*
X11918809Y-11680381D02*
X11909286Y-11642286D01*
X11909286Y-11642286D02*
X11909286Y-11594667D01*
X11909286Y-11594667D02*
X11918809Y-11556571D01*
X11918809Y-11556571D02*
X11928333Y-11537524D01*
X11928333Y-11537524D02*
X11937857Y-11528000D01*
X11937857Y-11528000D02*
X11956905Y-11518476D01*
X12147381Y-11518476D02*
X12166429Y-11518476D01*
X12166429Y-11518476D02*
X12185476Y-11528000D01*
X12185476Y-11528000D02*
X12195000Y-11537524D01*
X12195000Y-11537524D02*
X12204524Y-11556571D01*
X12204524Y-11556571D02*
X12214048Y-11594667D01*
X12214048Y-11594667D02*
X12214048Y-11642286D01*
X12214048Y-11642286D02*
X12204524Y-11680381D01*
X12204524Y-11680381D02*
X12195000Y-11699428D01*
X12195000Y-11699428D02*
X12185476Y-11708952D01*
X12185476Y-11708952D02*
X12166429Y-11718476D01*
X12166429Y-11718476D02*
X12147381Y-11718476D01*
X12147381Y-11718476D02*
X12128333Y-11708952D01*
X12128333Y-11708952D02*
X12118809Y-11699428D01*
X12118809Y-11699428D02*
X12109286Y-11680381D01*
X12109286Y-11680381D02*
X12099762Y-11642286D01*
X12099762Y-11642286D02*
X12099762Y-11594667D01*
X12099762Y-11594667D02*
X12109286Y-11556571D01*
X12109286Y-11556571D02*
X12118809Y-11537524D01*
X12118809Y-11537524D02*
X12128333Y-11528000D01*
X12128333Y-11528000D02*
X12147381Y-11518476D01*
X12299762Y-11718476D02*
X12299762Y-11585143D01*
X12299762Y-11604190D02*
X12309286Y-11594667D01*
X12309286Y-11594667D02*
X12328333Y-11585143D01*
X12328333Y-11585143D02*
X12356905Y-11585143D01*
X12356905Y-11585143D02*
X12375952Y-11594667D01*
X12375952Y-11594667D02*
X12385476Y-11613714D01*
X12385476Y-11613714D02*
X12385476Y-11718476D01*
X12385476Y-11613714D02*
X12395000Y-11594667D01*
X12395000Y-11594667D02*
X12414048Y-11585143D01*
X12414048Y-11585143D02*
X12442619Y-11585143D01*
X12442619Y-11585143D02*
X12461667Y-11594667D01*
X12461667Y-11594667D02*
X12471190Y-11613714D01*
X12471190Y-11613714D02*
X12471190Y-11718476D01*
X12566429Y-11718476D02*
X12566429Y-11585143D01*
X12566429Y-11604190D02*
X12575952Y-11594667D01*
X12575952Y-11594667D02*
X12595000Y-11585143D01*
X12595000Y-11585143D02*
X12623571Y-11585143D01*
X12623571Y-11585143D02*
X12642619Y-11594667D01*
X12642619Y-11594667D02*
X12652143Y-11613714D01*
X12652143Y-11613714D02*
X12652143Y-11718476D01*
X12652143Y-11613714D02*
X12661667Y-11594667D01*
X12661667Y-11594667D02*
X12680714Y-11585143D01*
X12680714Y-11585143D02*
X12709286Y-11585143D01*
X12709286Y-11585143D02*
X12728333Y-11594667D01*
X12728333Y-11594667D02*
X12737857Y-11613714D01*
X12737857Y-11613714D02*
X12737857Y-11718476D01*
X13095952Y-11508952D02*
X12924524Y-11766095D01*
X13320714Y-11518476D02*
X13339762Y-11518476D01*
X13339762Y-11518476D02*
X13358810Y-11528000D01*
X13358810Y-11528000D02*
X13368333Y-11537524D01*
X13368333Y-11537524D02*
X13377857Y-11556571D01*
X13377857Y-11556571D02*
X13387381Y-11594667D01*
X13387381Y-11594667D02*
X13387381Y-11642286D01*
X13387381Y-11642286D02*
X13377857Y-11680381D01*
X13377857Y-11680381D02*
X13368333Y-11699428D01*
X13368333Y-11699428D02*
X13358810Y-11708952D01*
X13358810Y-11708952D02*
X13339762Y-11718476D01*
X13339762Y-11718476D02*
X13320714Y-11718476D01*
X13320714Y-11718476D02*
X13301667Y-11708952D01*
X13301667Y-11708952D02*
X13292143Y-11699428D01*
X13292143Y-11699428D02*
X13282619Y-11680381D01*
X13282619Y-11680381D02*
X13273095Y-11642286D01*
X13273095Y-11642286D02*
X13273095Y-11594667D01*
X13273095Y-11594667D02*
X13282619Y-11556571D01*
X13282619Y-11556571D02*
X13292143Y-11537524D01*
X13292143Y-11537524D02*
X13301667Y-11528000D01*
X13301667Y-11528000D02*
X13320714Y-11518476D01*
X13473095Y-11699428D02*
X13482619Y-11708952D01*
X13482619Y-11708952D02*
X13473095Y-11718476D01*
X13473095Y-11718476D02*
X13463571Y-11708952D01*
X13463571Y-11708952D02*
X13473095Y-11699428D01*
X13473095Y-11699428D02*
X13473095Y-11718476D01*
X13673095Y-11718476D02*
X13558810Y-11718476D01*
X13615952Y-11718476D02*
X13615952Y-11518476D01*
X13615952Y-11518476D02*
X13596905Y-11547048D01*
X13596905Y-11547048D02*
X13577857Y-11566095D01*
X13577857Y-11566095D02*
X13558810Y-11575619D01*
X13863571Y-11718476D02*
X13749286Y-11718476D01*
X13806429Y-11718476D02*
X13806429Y-11518476D01*
X13806429Y-11518476D02*
X13787381Y-11547048D01*
X13787381Y-11547048D02*
X13768333Y-11566095D01*
X13768333Y-11566095D02*
X13749286Y-11575619D01*
X13977857Y-11604190D02*
X13958810Y-11594667D01*
X13958810Y-11594667D02*
X13949286Y-11585143D01*
X13949286Y-11585143D02*
X13939762Y-11566095D01*
X13939762Y-11566095D02*
X13939762Y-11556571D01*
X13939762Y-11556571D02*
X13949286Y-11537524D01*
X13949286Y-11537524D02*
X13958810Y-11528000D01*
X13958810Y-11528000D02*
X13977857Y-11518476D01*
X13977857Y-11518476D02*
X14015952Y-11518476D01*
X14015952Y-11518476D02*
X14035000Y-11528000D01*
X14035000Y-11528000D02*
X14044524Y-11537524D01*
X14044524Y-11537524D02*
X14054048Y-11556571D01*
X14054048Y-11556571D02*
X14054048Y-11566095D01*
X14054048Y-11566095D02*
X14044524Y-11585143D01*
X14044524Y-11585143D02*
X14035000Y-11594667D01*
X14035000Y-11594667D02*
X14015952Y-11604190D01*
X14015952Y-11604190D02*
X13977857Y-11604190D01*
X13977857Y-11604190D02*
X13958810Y-11613714D01*
X13958810Y-11613714D02*
X13949286Y-11623238D01*
X13949286Y-11623238D02*
X13939762Y-11642286D01*
X13939762Y-11642286D02*
X13939762Y-11680381D01*
X13939762Y-11680381D02*
X13949286Y-11699428D01*
X13949286Y-11699428D02*
X13958810Y-11708952D01*
X13958810Y-11708952D02*
X13977857Y-11718476D01*
X13977857Y-11718476D02*
X14015952Y-11718476D01*
X14015952Y-11718476D02*
X14035000Y-11708952D01*
X14035000Y-11708952D02*
X14044524Y-11699428D01*
X14044524Y-11699428D02*
X14054048Y-11680381D01*
X14054048Y-11680381D02*
X14054048Y-11642286D01*
X14054048Y-11642286D02*
X14044524Y-11623238D01*
X14044524Y-11623238D02*
X14035000Y-11613714D01*
X14035000Y-11613714D02*
X14015952Y-11604190D01*
X14244524Y-11718476D02*
X14130238Y-11718476D01*
X14187381Y-11718476D02*
X14187381Y-11518476D01*
X14187381Y-11518476D02*
X14168333Y-11547048D01*
X14168333Y-11547048D02*
X14149286Y-11566095D01*
X14149286Y-11566095D02*
X14130238Y-11575619D01*
X14320714Y-11518476D02*
X14320714Y-11556571D01*
X14396905Y-11518476D02*
X14396905Y-11556571D01*
X14659762Y-11794667D02*
X14650238Y-11785143D01*
X14650238Y-11785143D02*
X14631191Y-11756571D01*
X14631191Y-11756571D02*
X14621667Y-11737524D01*
X14621667Y-11737524D02*
X14612143Y-11708952D01*
X14612143Y-11708952D02*
X14602619Y-11661333D01*
X14602619Y-11661333D02*
X14602619Y-11623238D01*
X14602619Y-11623238D02*
X14612143Y-11575619D01*
X14612143Y-11575619D02*
X14621667Y-11547048D01*
X14621667Y-11547048D02*
X14631191Y-11528000D01*
X14631191Y-11528000D02*
X14650238Y-11499428D01*
X14650238Y-11499428D02*
X14659762Y-11489905D01*
X14821667Y-11585143D02*
X14821667Y-11718476D01*
X14774048Y-11508952D02*
X14726429Y-11651809D01*
X14726429Y-11651809D02*
X14850238Y-11651809D01*
X15046429Y-11718476D02*
X15046429Y-11518476D01*
X15132143Y-11718476D02*
X15132143Y-11613714D01*
X15132143Y-11613714D02*
X15122619Y-11594667D01*
X15122619Y-11594667D02*
X15103572Y-11585143D01*
X15103572Y-11585143D02*
X15075000Y-11585143D01*
X15075000Y-11585143D02*
X15055952Y-11594667D01*
X15055952Y-11594667D02*
X15046429Y-11604190D01*
X15255952Y-11718476D02*
X15236905Y-11708952D01*
X15236905Y-11708952D02*
X15227381Y-11699428D01*
X15227381Y-11699428D02*
X15217857Y-11680381D01*
X15217857Y-11680381D02*
X15217857Y-11623238D01*
X15217857Y-11623238D02*
X15227381Y-11604190D01*
X15227381Y-11604190D02*
X15236905Y-11594667D01*
X15236905Y-11594667D02*
X15255952Y-11585143D01*
X15255952Y-11585143D02*
X15284524Y-11585143D01*
X15284524Y-11585143D02*
X15303572Y-11594667D01*
X15303572Y-11594667D02*
X15313095Y-11604190D01*
X15313095Y-11604190D02*
X15322619Y-11623238D01*
X15322619Y-11623238D02*
X15322619Y-11680381D01*
X15322619Y-11680381D02*
X15313095Y-11699428D01*
X15313095Y-11699428D02*
X15303572Y-11708952D01*
X15303572Y-11708952D02*
X15284524Y-11718476D01*
X15284524Y-11718476D02*
X15255952Y-11718476D01*
X15436905Y-11718476D02*
X15417857Y-11708952D01*
X15417857Y-11708952D02*
X15408333Y-11689905D01*
X15408333Y-11689905D02*
X15408333Y-11518476D01*
X15589286Y-11708952D02*
X15570238Y-11718476D01*
X15570238Y-11718476D02*
X15532143Y-11718476D01*
X15532143Y-11718476D02*
X15513095Y-11708952D01*
X15513095Y-11708952D02*
X15503572Y-11689905D01*
X15503572Y-11689905D02*
X15503572Y-11613714D01*
X15503572Y-11613714D02*
X15513095Y-11594667D01*
X15513095Y-11594667D02*
X15532143Y-11585143D01*
X15532143Y-11585143D02*
X15570238Y-11585143D01*
X15570238Y-11585143D02*
X15589286Y-11594667D01*
X15589286Y-11594667D02*
X15598810Y-11613714D01*
X15598810Y-11613714D02*
X15598810Y-11632762D01*
X15598810Y-11632762D02*
X15503572Y-11651809D01*
X15675000Y-11708952D02*
X15694048Y-11718476D01*
X15694048Y-11718476D02*
X15732143Y-11718476D01*
X15732143Y-11718476D02*
X15751191Y-11708952D01*
X15751191Y-11708952D02*
X15760714Y-11689905D01*
X15760714Y-11689905D02*
X15760714Y-11680381D01*
X15760714Y-11680381D02*
X15751191Y-11661333D01*
X15751191Y-11661333D02*
X15732143Y-11651809D01*
X15732143Y-11651809D02*
X15703572Y-11651809D01*
X15703572Y-11651809D02*
X15684524Y-11642286D01*
X15684524Y-11642286D02*
X15675000Y-11623238D01*
X15675000Y-11623238D02*
X15675000Y-11613714D01*
X15675000Y-11613714D02*
X15684524Y-11594667D01*
X15684524Y-11594667D02*
X15703572Y-11585143D01*
X15703572Y-11585143D02*
X15732143Y-11585143D01*
X15732143Y-11585143D02*
X15751191Y-11594667D01*
X15827381Y-11794667D02*
X15836905Y-11785143D01*
X15836905Y-11785143D02*
X15855953Y-11756571D01*
X15855953Y-11756571D02*
X15865476Y-11737524D01*
X15865476Y-11737524D02*
X15875000Y-11708952D01*
X15875000Y-11708952D02*
X15884524Y-11661333D01*
X15884524Y-11661333D02*
X15884524Y-11623238D01*
X15884524Y-11623238D02*
X15875000Y-11575619D01*
X15875000Y-11575619D02*
X15865476Y-11547048D01*
X15865476Y-11547048D02*
X15855953Y-11528000D01*
X15855953Y-11528000D02*
X15836905Y-11499428D01*
X15836905Y-11499428D02*
X15827381Y-11489905D01*
X16156905Y-11794667D02*
X16147381Y-11785143D01*
X16147381Y-11785143D02*
X16128333Y-11756571D01*
X16128333Y-11756571D02*
X16118810Y-11737524D01*
X16118810Y-11737524D02*
X16109286Y-11708952D01*
X16109286Y-11708952D02*
X16099762Y-11661333D01*
X16099762Y-11661333D02*
X16099762Y-11623238D01*
X16099762Y-11623238D02*
X16109286Y-11575619D01*
X16109286Y-11575619D02*
X16118810Y-11547048D01*
X16118810Y-11547048D02*
X16128333Y-11528000D01*
X16128333Y-11528000D02*
X16147381Y-11499428D01*
X16147381Y-11499428D02*
X16156905Y-11489905D01*
X16233095Y-11585143D02*
X16233095Y-11718476D01*
X16233095Y-11604190D02*
X16242619Y-11594667D01*
X16242619Y-11594667D02*
X16261667Y-11585143D01*
X16261667Y-11585143D02*
X16290238Y-11585143D01*
X16290238Y-11585143D02*
X16309286Y-11594667D01*
X16309286Y-11594667D02*
X16318810Y-11613714D01*
X16318810Y-11613714D02*
X16318810Y-11718476D01*
X16442619Y-11718476D02*
X16423572Y-11708952D01*
X16423572Y-11708952D02*
X16414048Y-11699428D01*
X16414048Y-11699428D02*
X16404524Y-11680381D01*
X16404524Y-11680381D02*
X16404524Y-11623238D01*
X16404524Y-11623238D02*
X16414048Y-11604190D01*
X16414048Y-11604190D02*
X16423572Y-11594667D01*
X16423572Y-11594667D02*
X16442619Y-11585143D01*
X16442619Y-11585143D02*
X16471191Y-11585143D01*
X16471191Y-11585143D02*
X16490238Y-11594667D01*
X16490238Y-11594667D02*
X16499762Y-11604190D01*
X16499762Y-11604190D02*
X16509286Y-11623238D01*
X16509286Y-11623238D02*
X16509286Y-11680381D01*
X16509286Y-11680381D02*
X16499762Y-11699428D01*
X16499762Y-11699428D02*
X16490238Y-11708952D01*
X16490238Y-11708952D02*
X16471191Y-11718476D01*
X16471191Y-11718476D02*
X16442619Y-11718476D01*
X16566429Y-11585143D02*
X16642619Y-11585143D01*
X16595000Y-11518476D02*
X16595000Y-11689905D01*
X16595000Y-11689905D02*
X16604524Y-11708952D01*
X16604524Y-11708952D02*
X16623572Y-11718476D01*
X16623572Y-11718476D02*
X16642619Y-11718476D01*
X16829286Y-11585143D02*
X16829286Y-11785143D01*
X16829286Y-11594667D02*
X16848334Y-11585143D01*
X16848334Y-11585143D02*
X16886429Y-11585143D01*
X16886429Y-11585143D02*
X16905476Y-11594667D01*
X16905476Y-11594667D02*
X16915000Y-11604190D01*
X16915000Y-11604190D02*
X16924524Y-11623238D01*
X16924524Y-11623238D02*
X16924524Y-11680381D01*
X16924524Y-11680381D02*
X16915000Y-11699428D01*
X16915000Y-11699428D02*
X16905476Y-11708952D01*
X16905476Y-11708952D02*
X16886429Y-11718476D01*
X16886429Y-11718476D02*
X16848334Y-11718476D01*
X16848334Y-11718476D02*
X16829286Y-11708952D01*
X17038810Y-11718476D02*
X17019762Y-11708952D01*
X17019762Y-11708952D02*
X17010238Y-11689905D01*
X17010238Y-11689905D02*
X17010238Y-11518476D01*
X17200715Y-11718476D02*
X17200715Y-11613714D01*
X17200715Y-11613714D02*
X17191191Y-11594667D01*
X17191191Y-11594667D02*
X17172143Y-11585143D01*
X17172143Y-11585143D02*
X17134048Y-11585143D01*
X17134048Y-11585143D02*
X17115000Y-11594667D01*
X17200715Y-11708952D02*
X17181667Y-11718476D01*
X17181667Y-11718476D02*
X17134048Y-11718476D01*
X17134048Y-11718476D02*
X17115000Y-11708952D01*
X17115000Y-11708952D02*
X17105476Y-11689905D01*
X17105476Y-11689905D02*
X17105476Y-11670857D01*
X17105476Y-11670857D02*
X17115000Y-11651809D01*
X17115000Y-11651809D02*
X17134048Y-11642286D01*
X17134048Y-11642286D02*
X17181667Y-11642286D01*
X17181667Y-11642286D02*
X17200715Y-11632762D01*
X17267381Y-11585143D02*
X17343572Y-11585143D01*
X17295953Y-11518476D02*
X17295953Y-11689905D01*
X17295953Y-11689905D02*
X17305476Y-11708952D01*
X17305476Y-11708952D02*
X17324524Y-11718476D01*
X17324524Y-11718476D02*
X17343572Y-11718476D01*
X17486429Y-11708952D02*
X17467381Y-11718476D01*
X17467381Y-11718476D02*
X17429286Y-11718476D01*
X17429286Y-11718476D02*
X17410238Y-11708952D01*
X17410238Y-11708952D02*
X17400715Y-11689905D01*
X17400715Y-11689905D02*
X17400715Y-11613714D01*
X17400715Y-11613714D02*
X17410238Y-11594667D01*
X17410238Y-11594667D02*
X17429286Y-11585143D01*
X17429286Y-11585143D02*
X17467381Y-11585143D01*
X17467381Y-11585143D02*
X17486429Y-11594667D01*
X17486429Y-11594667D02*
X17495953Y-11613714D01*
X17495953Y-11613714D02*
X17495953Y-11632762D01*
X17495953Y-11632762D02*
X17400715Y-11651809D01*
X17667381Y-11718476D02*
X17667381Y-11518476D01*
X17667381Y-11708952D02*
X17648334Y-11718476D01*
X17648334Y-11718476D02*
X17610238Y-11718476D01*
X17610238Y-11718476D02*
X17591191Y-11708952D01*
X17591191Y-11708952D02*
X17581667Y-11699428D01*
X17581667Y-11699428D02*
X17572143Y-11680381D01*
X17572143Y-11680381D02*
X17572143Y-11623238D01*
X17572143Y-11623238D02*
X17581667Y-11604190D01*
X17581667Y-11604190D02*
X17591191Y-11594667D01*
X17591191Y-11594667D02*
X17610238Y-11585143D01*
X17610238Y-11585143D02*
X17648334Y-11585143D01*
X17648334Y-11585143D02*
X17667381Y-11594667D01*
X17743572Y-11794667D02*
X17753096Y-11785143D01*
X17753096Y-11785143D02*
X17772143Y-11756571D01*
X17772143Y-11756571D02*
X17781667Y-11737524D01*
X17781667Y-11737524D02*
X17791191Y-11708952D01*
X17791191Y-11708952D02*
X17800715Y-11661333D01*
X17800715Y-11661333D02*
X17800715Y-11623238D01*
X17800715Y-11623238D02*
X17791191Y-11575619D01*
X17791191Y-11575619D02*
X17781667Y-11547048D01*
X17781667Y-11547048D02*
X17772143Y-11528000D01*
X17772143Y-11528000D02*
X17753096Y-11499428D01*
X17753096Y-11499428D02*
X17743572Y-11489905D01*
M02*
