M48
; DRILL file {KiCad (7.0.0)} date Fri Mar 31 05:55:32 2023
; FORMAT={3:3/ absolute / metric / suppress trailing zeros}
; #@! TF.CreationDate,2023-03-31T05:55:32+01:00
; #@! TF.GenerationSoftware,Kicad,Pcbnew,(7.0.0)
; #@! TF.FileFunction,Plated,1,4,PTH
FMAT,2
METRIC,LZ
; #@! TA.AperFunction,Plated,PTH,ViaDrill
T1C0.300
; #@! TA.AperFunction,Plated,PTH,ComponentDrill
T2C1.000
; #@! TA.AperFunction,Plated,PTH,ComponentDrill
T3C1.800
; #@! TA.AperFunction,Plated,PTH,ComponentDrill
T4C3.200
%
G90
G05
T1
X112486Y-088477
X112486Y-090977
X112486Y-093477
X112486Y-095977
X112486Y-098477
X112486Y-100977
X112486Y-103477
X114994Y-083482
X117494Y-083482
X117503Y-109521
X119053Y-087551
X119507Y-106453
X1196Y-105
X119994Y-083482
X120003Y-109521
X1203Y-104
X122494Y-083482
X122503Y-109521
X123295Y-106218
X1239Y-10437
X12469Y-08554
X1247Y-0879
X124884Y-106345
X124994Y-083482
X125003Y-109521
X12507Y-1056
X126083Y-10258
X1269Y-1043
X12696Y-10351
X127264Y-09078
X12741Y-08629
X127494Y-083482
X127503Y-109521
X12751Y-10295
X12751Y-106925
X12846Y-10292
X12852Y-09607
X12893Y-0889
X12904Y-10005
X12905Y-10349
X129065Y-09909
X12921Y-1069
X1294Y-1087
X1299Y-0964
X12998Y-08664
X12998Y-090845
X129994Y-083482
X130003Y-109521
X130675Y-10061
X13087Y-10837
X13107Y-08888
X131305Y-10004
X131584Y-099062
X132386Y-108228
X132494Y-083482
X132503Y-109521
X13257Y-090905
X1329Y-0846
X133017Y-097257
X13385Y-10486
X13474Y-09551
X1348Y-10621
X134994Y-083482
X135003Y-109521
X13511Y-08455
X13523Y-09915
X13525Y-09299
X13544Y-09556
X13611Y-09568
X13621Y-0991
X13709Y-09428
X13722Y-09082
X137433Y-103616
X137494Y-083482
X1375Y-0861
X137503Y-109521
X13885Y-10579
X139994Y-083482
X140003Y-109521
X14068Y-09135
X14137Y-09536
X14194Y-09477
X141972Y-096853
X142494Y-083482
X142503Y-109521
X144319Y-090244
X144338Y-083484
X144338Y-085984
X144338Y-088484
X144338Y-100984
X144338Y-103484
X144338Y-105984
X144338Y-108484
X147824Y-084553
X147824Y-087053
X147824Y-089553
X147824Y-102053
X147824Y-104553
X147824Y-107053
X147827Y-100646
X1484Y-0902
X1485Y-109517
X148503Y-083482
X14944Y-10467
X150231Y-096923
X15027Y-0948
X15089Y-09541
X151Y-109517
X151003Y-083482
X1514Y-0977
X15154Y-09629
X15167Y-10614
X152015Y-0905
X15211Y-09567
X1527Y-0999
X153Y-0956
X1531Y-0938
X1535Y-109517
X153503Y-083482
X1536Y-0967
X154337Y-101649
X15509Y-10704
X155691Y-087527
X156Y-109517
X156003Y-083482
X1566Y-0852
X157354Y-108163
X157359Y-106058
X1585Y-109517
X158503Y-083482
X1593Y-0866
X16032Y-107009
X160962Y-105177
X161Y-109517
X161003Y-083482
X1635Y-109517
X163503Y-083482
X168515Y-089495
X168515Y-091995
X168515Y-094495
X168515Y-096995
X168515Y-099495
X168515Y-101995
X168515Y-104495
T2
X143158Y-088194
X14316Y-0847
X143244Y-108255
X148979Y-108228
X14904Y-08471
X149041Y-088192
T3
X1173Y-0923
X1173Y-0965
X1173Y-1007
X1228Y-0923
X1228Y-0965
X1228Y-1007
X1582Y-0923
X1582Y-0965
X1582Y-1007
X1637Y-0923
X1637Y-0965
X1637Y-1007
T4
X115Y-086
X115Y-107
X166Y-086
X166Y-107
T0
M30
